<?xml version="1.0" encoding="UTF-8" standalone="no"?>
<!-- Created with Inkscape (http://www.inkscape.org/) -->

<svg
   xmlns:dc="http://purl.org/dc/elements/1.1/"
   xmlns:cc="http://creativecommons.org/ns#"
   xmlns:rdf="http://www.w3.org/1999/02/22-rdf-syntax-ns#"
   xmlns:svg="http://www.w3.org/2000/svg"
   xmlns="http://www.w3.org/2000/svg"
   xmlns:sodipodi="http://sodipodi.sourceforge.net/DTD/sodipodi-0.dtd"
   xmlns:inkscape="http://www.inkscape.org/namespaces/inkscape"
   width="210mm"
   height="297mm"
   viewBox="0 0 210 297"
   version="1.1"
   id="svg8"
   inkscape:version="0.92.4 5da689c313, 2019-01-14"
   sodipodi:docname="dibujo.svg">
  <defs
     id="defs2" />
  <sodipodi:namedview
     id="base"
     pagecolor="#ffffff"
     bordercolor="#666666"
     borderopacity="1.0"
     inkscape:pageopacity="0.0"
     inkscape:pageshadow="2"
     inkscape:zoom="1.4142136"
     inkscape:cx="434.44337"
     inkscape:cy="667.48482"
     inkscape:document-units="mm"
     inkscape:current-layer="layer1"
     showgrid="false"
     inkscape:snap-center="true"
     inkscape:window-width="1366"
     inkscape:window-height="741"
     inkscape:window-x="0"
     inkscape:window-y="27"
     inkscape:window-maximized="0" />
  <metadata
     id="metadata5">
    <rdf:RDF>
      <cc:Work
         rdf:about="">
        <dc:format>image/svg+xml</dc:format>
        <dc:type
           rdf:resource="http://purl.org/dc/dcmitype/StillImage" />
        <dc:title />
      </cc:Work>
    </rdf:RDF>
  </metadata>
  <g
     inkscape:label="Capa 1"
     inkscape:groupmode="layer"
     id="layer1">
    <path
       style="opacity:1;fill:#000000;fill-opacity:1;stroke:none;stroke-width:0.12643245;stroke-miterlimit:4;stroke-dasharray:0.50572977, 0.12643244;stroke-dashoffset:0;stroke-opacity:1"
       d="m 103.10453,74.821747 a 1.9836713,1.9836713 0 0 1 -1.98367,1.983671 1.9836713,1.9836713 0 0 1 -1.983674,-1.983671 1.9836713,1.9836713 0 0 1 1.983674,-1.983671 1.9836713,1.9836713 0 0 1 1.98367,1.983671 z"
       id="path815" />
    <path
       style="opacity:1;fill:#000000;fill-opacity:1;stroke:none;stroke-width:0.12643245;stroke-miterlimit:4;stroke-dasharray:0.50572977, 0.12643244;stroke-dashoffset:0;stroke-opacity:1"
       d="m 86.153158,94.658463 a 1.9836713,1.9836713 0 0 1 -1.983671,1.983671 1.9836713,1.9836713 0 0 1 -1.983671,-1.983671 1.9836713,1.9836713 0 0 1 1.983671,-1.983672 1.9836713,1.9836713 0 0 1 1.983671,1.983672 z"
       id="circle817" />
    <path
       style="opacity:1;fill:#000000;fill-opacity:1;stroke:none;stroke-width:0.12643245;stroke-miterlimit:4;stroke-dasharray:0.50572977, 0.12643244;stroke-dashoffset:0;stroke-opacity:1"
       d="m 122.21992,94.658463 a 1.9836713,1.9836713 0 0 1 -1.98367,1.983671 1.9836713,1.9836713 0 0 1 -1.98367,-1.983671 1.9836713,1.9836713 0 0 1 1.98367,-1.983672 1.9836713,1.9836713 0 0 1 1.98367,1.983672 z"
       id="circle819" />
    <path
       style="opacity:1;fill:#000000;fill-opacity:1;stroke:none;stroke-width:0.12643245;stroke-miterlimit:4;stroke-dasharray:0.50572977, 0.12643244;stroke-dashoffset:0;stroke-opacity:1"
       d="m 122.21992,118.46252 a 1.9836713,1.9836713 0 0 1 -1.98367,1.98367 1.9836713,1.9836713 0 0 1 -1.98367,-1.98367 1.9836713,1.9836713 0 0 1 1.98367,-1.98367 1.9836713,1.9836713 0 0 1 1.98367,1.98367 z"
       id="circle821" />
    <path
       style="opacity:1;fill:#000000;fill-opacity:1;stroke:none;stroke-width:0.12643245;stroke-miterlimit:4;stroke-dasharray:0.50572977, 0.12643244;stroke-dashoffset:0;stroke-opacity:1"
       d="m 86.513823,118.46252 a 1.9836713,1.9836713 0 0 1 -1.983672,1.98367 1.9836713,1.9836713 0 0 1 -1.983671,-1.98367 1.9836713,1.9836713 0 0 1 1.983671,-1.98367 1.9836713,1.9836713 0 0 1 1.983672,1.98367 z"
       id="circle823" />
    <path
       style="opacity:1;fill:#000000;fill-opacity:1;stroke:none;stroke-width:0.12643245;stroke-miterlimit:4;stroke-dasharray:0.50572977, 0.12643244;stroke-dashoffset:0;stroke-opacity:1"
       d="m 104.54721,138.1189 a 1.9836713,1.9836713 0 0 1 -1.98367,1.98367 1.9836713,1.9836713 0 0 1 -1.98367,-1.98367 1.9836713,1.9836713 0 0 1 1.98367,-1.98367 1.9836713,1.9836713 0 0 1 1.98367,1.98367 z"
       id="circle825" />
    <path
       style="opacity:1;fill:#000000;fill-opacity:1;stroke:none;stroke-width:0.12643245;stroke-miterlimit:4;stroke-dasharray:0.50572977, 0.12643244;stroke-dashoffset:0;stroke-opacity:1"
       d="m 104.72754,169.31665 a 1.9836713,1.9836713 0 0 1 -1.98367,1.98367 1.9836713,1.9836713 0 0 1 -1.98367,-1.98367 1.9836713,1.9836713 0 0 1 1.98367,-1.98367 1.9836713,1.9836713 0 0 1 1.98367,1.98367 z"
       id="circle827" />
    <path
       style="opacity:1;fill:#000000;fill-opacity:1;stroke:none;stroke-width:0.12643245;stroke-miterlimit:4;stroke-dasharray:0.50572977, 0.12643244;stroke-dashoffset:0;stroke-opacity:1"
       d="m 79.300474,158.13596 a 1.9836713,1.9836713 0 0 1 -1.983671,1.98367 1.9836713,1.9836713 0 0 1 -1.983671,-1.98367 1.9836713,1.9836713 0 0 1 1.983671,-1.98368 1.9836713,1.9836713 0 0 1 1.983671,1.98368 z"
       id="circle829" />
    <path
       style="opacity:1;fill:#000000;fill-opacity:1;stroke:none;stroke-width:0.65124637;stroke-miterlimit:4;stroke-dasharray:none;stroke-dashoffset:0;stroke-opacity:1"
       d="m 130.1546,158.13596 a 1.9836713,1.9836713 0 0 1 -1.98367,1.98367 1.9836713,1.9836713 0 0 1 -1.98367,-1.98367 1.9836713,1.9836713 0 0 1 1.98367,-1.98368 1.9836713,1.9836713 0 0 1 1.98367,1.98368 z"
       id="circle831" />
    <path
       style="opacity:1;fill:#000000;fill-opacity:1;stroke:none;stroke-width:0.65124637;stroke-miterlimit:4;stroke-dasharray:none;stroke-dashoffset:0;stroke-opacity:1"
       d="m 145.48297,138.1189 a 1.9836713,1.9836713 0 0 1 -1.98367,1.98367 1.9836713,1.9836713 0 0 1 -1.98367,-1.98367 1.9836713,1.9836713 0 0 1 1.98367,-1.98367 1.9836713,1.9836713 0 0 1 1.98367,1.98367 z"
       id="circle833" />
    <path
       style="opacity:1;fill:#000000;fill-opacity:1;stroke:none;stroke-width:0.65124637;stroke-miterlimit:4;stroke-dasharray:none;stroke-dashoffset:0;stroke-opacity:1"
       d="m 145.66331,169.31665 a 1.9836713,1.9836713 0 0 1 -1.98367,1.98367 1.9836713,1.9836713 0 0 1 -1.98367,-1.98367 1.9836713,1.9836713 0 0 1 1.98367,-1.98367 1.9836713,1.9836713 0 0 1 1.98367,1.98367 z"
       id="circle846" />
    <path
       style="fill:none;stroke:#000000;stroke-width:0.65124637;stroke-linecap:butt;stroke-linejoin:miter;stroke-miterlimit:4;stroke-dasharray:none;stroke-opacity:1"
       d="M 77.316804,158.13595 102.56353,138.11891"
       id="path848"
       inkscape:connector-curvature="0" />
    <path
       style="fill:none;stroke:#000000;stroke-width:0.65124637;stroke-linecap:butt;stroke-linejoin:miter;stroke-miterlimit:4;stroke-dasharray:none;stroke-opacity:1"
       d="m 102.74387,169.31665 -0.18034,-31.19774"
       id="path850"
       inkscape:connector-curvature="0" />
    <path
       style="fill:none;stroke:#000000;stroke-width:0.65124637;stroke-linecap:butt;stroke-linejoin:miter;stroke-miterlimit:4;stroke-dasharray:none;stroke-opacity:1"
       d="m 102.56353,138.11891 25.6074,20.01704"
       id="path852"
       inkscape:connector-curvature="0" />
    <path
       style="fill:none;stroke:#000000;stroke-width:0.65124637;stroke-linecap:butt;stroke-linejoin:miter;stroke-miterlimit:4;stroke-dasharray:none;stroke-opacity:1"
       d="m 128.17093,158.13595 15.32837,-20.01704 0.18034,31.19774"
       id="path854"
       inkscape:connector-curvature="0" />
    <path
       style="fill:none;stroke:#000000;stroke-width:0.65124637;stroke-linecap:butt;stroke-linejoin:miter;stroke-miterlimit:4;stroke-dasharray:none;stroke-opacity:1"
       d="m 84.530154,118.46252 18.033376,19.65639"
       id="path856"
       inkscape:connector-curvature="0" />
    <path
       style="fill:none;stroke:#000000;stroke-width:0.65124637;stroke-linecap:butt;stroke-linejoin:miter;stroke-miterlimit:4;stroke-dasharray:none;stroke-opacity:1"
       d="m 102.56353,138.11891 17.67272,-19.65639"
       id="path858"
       inkscape:connector-curvature="0" />
    <path
       style="fill:none;stroke:#000000;stroke-width:0.65124637;stroke-linecap:butt;stroke-linejoin:miter;stroke-miterlimit:4;stroke-dasharray:none;stroke-opacity:1"
       d="m 84.169483,94.658461 0.360671,23.804059"
       id="path860"
       inkscape:connector-curvature="0" />
    <path
       style="fill:none;stroke:#000000;stroke-width:0.65124637;stroke-linecap:butt;stroke-linejoin:miter;stroke-miterlimit:4;stroke-dasharray:none;stroke-opacity:1"
       d="M 120.23625,94.658461 V 118.46252"
       id="path862"
       inkscape:connector-curvature="0" />
    <path
       style="fill:none;stroke:#000000;stroke-width:0.65124637;stroke-linecap:butt;stroke-linejoin:miter;stroke-miterlimit:4;stroke-dasharray:none;stroke-opacity:1"
       d="M 84.169482,94.658461 101.12086,74.821745 120.23625,94.658461"
       id="path864"
       inkscape:connector-curvature="0" />
    <path
       style="opacity:1;fill:none;fill-opacity:1;stroke:#1e4cf4;stroke-width:0.40468255;stroke-miterlimit:4;stroke-dasharray:1.61872994, 0.40468248;stroke-dashoffset:0;stroke-opacity:1"
       d="m 88.895072,118.46252 a 4.3649211,4.3649211 0 0 1 -4.364921,4.36492 4.3649211,4.3649211 0 0 1 -4.364921,-4.36492 4.3649211,4.3649211 0 0 1 4.364921,-4.36492 4.3649211,4.3649211 0 0 1 4.364921,4.36492 z"
       id="circle885" />
    <path
       style="opacity:1;fill:none;fill-opacity:1;stroke:#1e4cf4;stroke-width:0.40468255;stroke-miterlimit:4;stroke-dasharray:1.61872994, 0.40468248;stroke-dashoffset:0;stroke-opacity:1"
       d="m 124.60117,118.46252 a 4.3649211,4.3649211 0 0 1 -4.36492,4.36492 4.3649211,4.3649211 0 0 1 -4.36492,-4.36492 4.3649211,4.3649211 0 0 1 4.36492,-4.36492 4.3649211,4.3649211 0 0 1 4.36492,4.36492 z"
       id="circle887" />
    <path
       style="opacity:1;fill:none;fill-opacity:1;stroke:#1e4cf4;stroke-width:0.40468255;stroke-miterlimit:4;stroke-dasharray:1.61872994, 0.40468248;stroke-dashoffset:0;stroke-opacity:1"
       d="m 106.92845,138.11891 a 4.3649211,4.3649211 0 0 1 -4.36492,4.36492 4.3649211,4.3649211 0 0 1 -4.364921,-4.36492 4.3649211,4.3649211 0 0 1 4.364921,-4.36492 4.3649211,4.3649211 0 0 1 4.36492,4.36492 z"
       id="circle889" />
    <path
       style="opacity:1;fill:none;fill-opacity:1;stroke:#1e4cf4;stroke-width:0.40468255;stroke-miterlimit:4;stroke-dasharray:1.61872994, 0.40468248;stroke-dashoffset:0;stroke-opacity:1"
       d="m 147.86422,138.11891 a 4.3649211,4.3649211 0 0 1 -4.36492,4.36492 4.3649211,4.3649211 0 0 1 -4.36492,-4.36492 4.3649211,4.3649211 0 0 1 4.36492,-4.36492 4.3649211,4.3649211 0 0 1 4.36492,4.36492 z"
       id="circle891" />
    <path
       style="opacity:1;fill:none;fill-opacity:1;stroke:#ff2200;stroke-width:0.40468255;stroke-miterlimit:4;stroke-dasharray:1.61872993, 0.40468248;stroke-dashoffset:0;stroke-opacity:1"
       d="m 92.070073,118.46252 a 7.5399213,7.5399213 0 0 1 -7.539922,7.53992 7.5399213,7.5399213 0 0 1 -7.539921,-7.53992 7.5399213,7.5399213 0 0 1 7.539921,-7.53992 7.5399213,7.5399213 0 0 1 7.539922,7.53992 z"
       id="circle905" />
    <path
       style="opacity:1;fill:none;fill-opacity:1;stroke:#ff2200;stroke-width:0.40468255;stroke-miterlimit:4;stroke-dasharray:1.61872993, 0.40468248;stroke-dashoffset:0;stroke-opacity:1"
       d="m 110.10345,138.11891 a 7.5399213,7.5399213 0 0 1 -7.53992,7.53992 7.5399213,7.5399213 0 0 1 -7.539921,-7.53992 7.5399213,7.5399213 0 0 1 7.539921,-7.53992 7.5399213,7.5399213 0 0 1 7.53992,7.53992 z"
       id="circle907" />
    <path
       style="opacity:1;fill:none;fill-opacity:1;stroke:#e91f00;stroke-width:0.40468255;stroke-miterlimit:4;stroke-dasharray:1.61872994, 0.40468248;stroke-dashoffset:0;stroke-opacity:1"
       d="m 88.534408,94.658463 a 4.3649211,4.3649211 0 0 1 -4.364921,4.364921 4.3649211,4.3649211 0 0 1 -4.364921,-4.364921 4.3649211,4.3649211 0 0 1 4.364921,-4.364922 4.3649211,4.3649211 0 0 1 4.364921,4.364922 z"
       id="circle909" />
    <g
       aria-label="-"
       style="font-style:normal;font-weight:normal;font-size:4.23333311px;line-height:1.25;font-family:sans-serif;letter-spacing:0px;word-spacing:0px;fill:#1e4cf4;fill-opacity:1;stroke:none;stroke-width:0.26458332"
       id="text913">
      <path
         d="m 112.3701,140.62901 h 1.8569 v 0.565 h -1.8569 z"
         style="font-size:7.05555534px;fill:#1e4cf4;fill-opacity:1;stroke-width:0.26458332"
         id="path1180" />
    </g>
    <g
       aria-label="-"
       style="font-style:normal;font-weight:normal;font-size:4.23333311px;line-height:1.25;font-family:sans-serif;letter-spacing:0px;word-spacing:0px;fill:#1e4cf4;fill-opacity:1;stroke:none;stroke-width:0.26458332"
       id="text917">
      <path
         d="m 151.4216,138.01918 h 1.8569 v 0.56499 h -1.8569 z"
         style="font-size:7.05555534px;fill:#1e4cf4;fill-opacity:1;stroke-width:0.26458332"
         id="path1177" />
    </g>
    <g
       aria-label="+"
       style="font-style:normal;font-weight:normal;font-size:4.23333311px;line-height:1.25;font-family:sans-serif;letter-spacing:0px;word-spacing:0px;fill:#1e4cf4;fill-opacity:1;stroke:none;stroke-width:0.26458332"
       id="text921">
      <path
         d="m 97.124823,115.83897 v 1.34324 h 1.343242 v 0.40996 h -1.343242 v 1.34325 h -0.405144 v -1.34325 h -1.343242 v -0.40996 h 1.343242 v -1.34324 z"
         style="font-size:4.93888903px;fill:#1e4cf4;fill-opacity:1;stroke-width:0.26458332"
         id="path1174" />
    </g>
    <g
       aria-label="+"
       style="font-style:normal;font-weight:normal;font-size:4.23333311px;line-height:1.25;font-family:sans-serif;letter-spacing:0px;word-spacing:0px;fill:#1e4cf4;fill-opacity:1;stroke:none;stroke-width:0.26458332"
       id="text925">
      <path
         d="m 129.2717,116.10355 v 1.34324 h 1.34324 v 0.40996 H 129.2717 V 119.2 h -0.40515 v -1.34325 h -1.34324 v -0.40996 h 1.34324 v -1.34324 z"
         style="font-size:4.93888903px;fill:#1e4cf4;fill-opacity:1;stroke-width:0.26458332"
         id="path1171" />
    </g>
    <path
       style="opacity:1;fill:none;fill-opacity:1;stroke:#000000;stroke-width:0.40468252;stroke-miterlimit:4;stroke-dasharray:1.61872988, 0.40468247;stroke-dashoffset:0;stroke-opacity:1"
       d="M 94.715906,118.46251 A 10.185755,10.185755 0 0 1 84.530151,128.64826 10.185755,10.185755 0 0 1 74.344397,118.46251 10.185755,10.185755 0 0 1 84.530151,108.27675 10.185755,10.185755 0 0 1 94.715906,118.46251 Z"
       id="circle927" />
    <path
       style="opacity:1;fill:none;fill-opacity:1;stroke:#000000;stroke-width:0.40468255;stroke-miterlimit:4;stroke-dasharray:1.61872994, 0.40468248;stroke-dashoffset:0;stroke-opacity:1"
       d="m 124.60117,94.658463 a 4.3649211,4.3649211 0 0 1 -4.36492,4.364921 4.3649211,4.3649211 0 0 1 -4.36492,-4.364921 4.3649211,4.3649211 0 0 1 4.36492,-4.364922 4.3649211,4.3649211 0 0 1 4.36492,4.364922 z"
       id="circle931" />
    <g
       aria-label="+"
       style="font-style:normal;font-weight:normal;font-size:4.23333311px;line-height:1.25;font-family:sans-serif;letter-spacing:0px;word-spacing:0px;fill:#000000;fill-opacity:1;stroke:none;stroke-width:0.26458332"
       id="text935">
      <path
         d="m 131.38836,92.158751 v 1.343243 h 1.34325 v 0.409966 h -1.34325 v 1.343243 h -0.40514 V 93.91196 h -1.34324 v -0.409966 h 1.34324 v -1.343243 z"
         style="font-size:4.93888903px;stroke-width:0.26458332"
         id="path1166" />
    </g>
    <g
       aria-label="+"
       style="font-style:normal;font-weight:normal;font-size:4.23333311px;line-height:1.25;font-family:sans-serif;letter-spacing:0px;word-spacing:0px;fill:#000000;fill-opacity:1;stroke:none;stroke-width:0.26458332"
       id="text939">
      <path
         d="m 96.595655,106.04938 v 1.34324 h 1.343243 v 0.40997 h -1.343243 v 1.34324 h -0.405143 v -1.34324 h -1.343243 v -0.40997 h 1.343243 v -1.34324 z"
         style="font-size:4.93888903px;stroke-width:0.26458332"
         id="path1163" />
    </g>
    <g
       aria-label="+"
       style="font-style:normal;font-weight:normal;font-size:4.23333311px;line-height:1.25;font-family:sans-serif;letter-spacing:0px;word-spacing:0px;fill:#e91f00;fill-opacity:1;stroke:none;stroke-width:0.26458332"
       id="text943">
      <path
         d="m 93.552946,91.232711 v 1.343242 h 1.343243 v 0.409967 h -1.343243 v 1.343243 H 93.147803 V 92.98592 H 91.80456 v -0.409967 h 1.343243 v -1.343242 z"
         style="font-size:4.93888903px;fill:#e91f00;fill-opacity:1;stroke-width:0.26458332"
         id="path1160" />
    </g>
    <g
       aria-label="-"
       style="font-style:normal;font-weight:normal;font-size:4.23333311px;line-height:1.25;font-family:sans-serif;letter-spacing:0px;word-spacing:0px;fill:#e91f00;fill-opacity:1;stroke:none;stroke-width:0.26458332"
       id="text947">
      <path
         d="m 111.24367,136.59883 h 1.85691 v 0.565 h -1.85691 z"
         style="font-size:7.05555534px;fill:#e91f00;fill-opacity:1;stroke-width:0.26458332"
         id="path1157" />
    </g>
    <g
       aria-label="-"
       style="font-style:normal;font-weight:normal;font-size:4.23333311px;line-height:1.25;font-family:sans-serif;letter-spacing:0px;word-spacing:0px;fill:#000000;fill-opacity:1;stroke:none;stroke-width:0.26458332"
       id="text951">
      <path
         d="m 95.859089,112.48688 h 1.856907 v 0.565 h -1.856907 z"
         style="font-size:7.05555534px;stroke-width:0.26458332"
         id="path1154" />
    </g>
    <g
       aria-label="mcs"
       style="font-style:normal;font-weight:normal;font-size:4.23333311px;line-height:1.25;font-family:sans-serif;letter-spacing:0px;word-spacing:0px;fill:#000000;fill-opacity:1;stroke:none;stroke-width:0.26458332"
       id="text955">
      <path
         d="m 109.37005,68.457178 q 0.23772,-0.427192 0.56844,-0.630452 0.33073,-0.203261 0.7786,-0.203261 0.60289,0 0.93017,0.423747 0.32729,0.420301 0.32729,1.198893 v 2.328884 h -0.63735 v -2.308214 q 0,-0.55466 -0.19637,-0.823377 -0.19637,-0.268718 -0.59944,-0.268718 -0.49265,0 -0.7786,0.327284 -0.28594,0.327284 -0.28594,0.89228 v 2.180745 h -0.63734 v -2.308214 q 0,-0.558105 -0.19637,-0.823377 -0.19637,-0.268718 -0.60634,-0.268718 -0.48576,0 -0.7717,0.330729 -0.28594,0.327284 -0.28594,0.888835 v 2.180745 h -0.63735 v -3.858507 h 0.63735 v 0.599447 q 0.21704,-0.354845 0.52021,-0.523654 0.30317,-0.16881 0.72002,-0.16881 0.4203,0 0.71314,0.213596 0.29627,0.213596 0.43752,0.620117 z"
         style="font-size:7.05555534px;stroke-width:0.26458332"
         id="path1147" />
      <path
         d="m 116.01564,67.864622 v 0.592556 q -0.26871,-0.148139 -0.54088,-0.220486 -0.26871,-0.07579 -0.54432,-0.07579 -0.61667,0 -0.95774,0.392741 -0.34106,0.389295 -0.34106,1.09554 0,0.706245 0.34106,1.098985 0.34107,0.389296 0.95774,0.389296 0.27561,0 0.54432,-0.07235 0.27217,-0.07579 0.54088,-0.223931 v 0.585666 q -0.26527,0.124024 -0.55121,0.186035 -0.2825,0.06201 -0.60289,0.06201 -0.87161,0 -1.38493,-0.54777 -0.51332,-0.54777 -0.51332,-1.477946 0,-0.943956 0.51676,-1.484836 0.52021,-0.54088 1.42283,-0.54088 0.29283,0 0.57188,0.06201 0.27906,0.05857 0.54088,0.179145 z"
         style="font-size:7.05555534px;stroke-width:0.26458332"
         id="path1149" />
      <path
         d="m 119.57787,67.830171 v 0.599446 q -0.26872,-0.137804 -0.5581,-0.206705 -0.28939,-0.0689 -0.59945,-0.0689 -0.47198,0 -0.70969,0.144694 -0.23427,0.144694 -0.23427,0.434082 0,0.220486 0.16881,0.347954 0.16881,0.124024 0.67869,0.237712 l 0.21704,0.04823 q 0.67524,0.144694 0.95773,0.409967 0.28595,0.261827 0.28595,0.733805 0,0.537435 -0.42719,0.850938 -0.42375,0.313504 -1.16789,0.313504 -0.31006,0 -0.64768,-0.06201 -0.33417,-0.05857 -0.70624,-0.179145 v -0.654568 q 0.3514,0.18259 0.69246,0.275608 0.34106,0.08957 0.67524,0.08957 0.44786,0 0.68902,-0.151584 0.24115,-0.155029 0.24115,-0.434082 0,-0.258382 -0.1757,-0.396186 -0.17225,-0.137804 -0.76136,-0.265272 l -0.22049,-0.05168 q -0.58911,-0.124023 -0.85094,-0.37896 -0.26182,-0.258382 -0.26182,-0.706245 0,-0.544325 0.38585,-0.840603 0.38585,-0.296278 1.09554,-0.296278 0.3514,0 0.66146,0.05168 0.31005,0.05168 0.57188,0.15503 z"
         style="font-size:7.05555534px;stroke-width:0.26458332"
         id="path1151" />
    </g>
    <g
       aria-label="mcs"
       style="font-style:normal;font-weight:normal;font-size:4.23333311px;line-height:1.25;font-family:sans-serif;letter-spacing:0px;word-spacing:0px;fill:#1e4cf4;fill-opacity:1;stroke:none;stroke-width:0.26458332"
       id="text959">
      <path
         d="m 110.69297,74.807176 q 0.23771,-0.427191 0.56844,-0.630452 0.33073,-0.203261 0.77859,-0.203261 0.60289,0 0.93018,0.423747 0.32728,0.420302 0.32728,1.198893 v 2.328885 h -0.63734 v -2.308214 q 0,-0.55466 -0.19637,-0.823378 -0.19637,-0.268717 -0.59945,-0.268717 -0.49265,0 -0.77859,0.327284 -0.28594,0.327284 -0.28594,0.892279 v 2.180746 h -0.63735 v -2.308214 q 0,-0.558106 -0.19637,-0.823378 -0.19637,-0.268717 -0.60633,-0.268717 -0.48576,0 -0.77171,0.330729 -0.28594,0.327284 -0.28594,0.888834 v 2.180746 h -0.63734 v -3.858507 h 0.63734 v 0.599447 q 0.21704,-0.354845 0.52021,-0.523655 0.30317,-0.16881 0.72003,-0.16881 0.4203,0 0.71313,0.213596 0.29628,0.213596 0.43753,0.620117 z"
         style="font-size:7.05555534px;fill:#1e4cf4;fill-opacity:1;stroke-width:0.26458332"
         id="path1140" />
      <path
         d="m 117.33856,74.21462 v 0.592556 q -0.26872,-0.148139 -0.54088,-0.220486 -0.26872,-0.07579 -0.54433,-0.07579 -0.61667,0 -0.95773,0.392741 -0.34107,0.389296 -0.34107,1.09554 0,0.706245 0.34107,1.098986 0.34106,0.389296 0.95773,0.389296 0.27561,0 0.54433,-0.07235 0.27216,-0.07579 0.54088,-0.223932 v 0.585667 q -0.26528,0.124023 -0.55122,0.186035 -0.2825,0.06201 -0.60289,0.06201 -0.87161,0 -1.38493,-0.547771 -0.51332,-0.54777 -0.51332,-1.477946 0,-0.943956 0.51677,-1.484836 0.52021,-0.54088 1.42282,-0.54088 0.29283,0 0.57189,0.06201 0.27905,0.05857 0.54088,0.179145 z"
         style="font-size:7.05555534px;fill:#1e4cf4;fill-opacity:1;stroke-width:0.26458332"
         id="path1142" />
      <path
         d="m 120.90079,74.180169 v 0.599447 q -0.26872,-0.137804 -0.55811,-0.206706 -0.28939,-0.0689 -0.59945,-0.0689 -0.47197,0 -0.70969,0.144694 -0.23426,0.144694 -0.23426,0.434082 0,0.220486 0.16881,0.347955 0.16881,0.124023 0.67868,0.237711 l 0.21704,0.04823 q 0.67524,0.144694 0.95774,0.409966 0.28594,0.261827 0.28594,0.733805 0,0.537435 -0.42719,0.850939 -0.42375,0.313504 -1.16789,0.313504 -0.31006,0 -0.64768,-0.06201 -0.33417,-0.05857 -0.70624,-0.179145 v -0.654568 q 0.3514,0.18259 0.69246,0.275607 0.34107,0.08957 0.67524,0.08957 0.44786,0 0.68902,-0.151584 0.24116,-0.15503 0.24116,-0.434082 0,-0.258382 -0.1757,-0.396186 -0.17226,-0.137804 -0.76137,-0.265273 l -0.22048,-0.05168 q -0.58912,-0.124024 -0.85094,-0.378961 -0.26183,-0.258382 -0.26183,-0.706244 0,-0.544325 0.38585,-0.840603 0.38585,-0.296279 1.09554,-0.296279 0.3514,0 0.66146,0.05168 0.31006,0.05168 0.57189,0.155029 z"
         style="font-size:7.05555534px;fill:#1e4cf4;fill-opacity:1;stroke-width:0.26458332"
         id="path1144" />
    </g>
    <g
       aria-label="mcs"
       style="font-style:normal;font-weight:normal;font-size:4.23333311px;line-height:1.25;font-family:sans-serif;letter-spacing:0px;word-spacing:0px;fill:#e91f00;fill-opacity:1;stroke:none;stroke-width:0.26458332"
       id="text963">
      <path
         d="m 67.475484,90.429079 q 0.237712,-0.427192 0.568441,-0.630453 0.330729,-0.20326 0.778591,-0.20326 0.602892,0 0.930176,0.423747 0.327284,0.420301 0.327284,1.198893 v 2.328884 h -0.637342 v -2.308214 q 0,-0.55466 -0.196371,-0.823377 -0.19637,-0.268718 -0.599446,-0.268718 -0.492649,0 -0.778592,0.327284 -0.285943,0.327284 -0.285943,0.89228 v 2.180745 h -0.637343 v -2.308214 q 0,-0.558105 -0.19637,-0.823377 -0.19637,-0.268718 -0.606337,-0.268718 -0.485758,0 -0.771701,0.330729 -0.285943,0.327284 -0.285943,0.888835 v 2.180745 h -0.637343 v -3.858507 h 0.637343 v 0.599447 q 0.217041,-0.354845 0.520209,-0.523654 0.303169,-0.16881 0.720025,-0.16881 0.420302,0 0.713135,0.213596 0.296278,0.213596 0.437527,0.620117 z"
         style="font-size:7.05555534px;fill:#e91f00;fill-opacity:1;stroke-width:0.26458332"
         id="path1133" />
      <path
         d="m 74.121073,89.836523 v 0.592556 q -0.268717,-0.148139 -0.54088,-0.220486 -0.268717,-0.07579 -0.544325,-0.07579 -0.616672,0 -0.957736,0.392741 -0.341065,0.389295 -0.341065,1.09554 0,0.706244 0.341065,1.098985 0.341064,0.389296 0.957736,0.389296 0.275608,0 0.544325,-0.07235 0.272163,-0.07579 0.54088,-0.223931 v 0.585666 q -0.265272,0.124024 -0.551215,0.186035 -0.282498,0.06201 -0.602892,0.06201 -0.871609,0 -1.384928,-0.54777 -0.513319,-0.54777 -0.513319,-1.477946 0,-0.943956 0.516764,-1.484836 0.520209,-0.54088 1.422824,-0.54088 0.292833,0 0.571886,0.06201 0.279053,0.05857 0.54088,0.179145 z"
         style="font-size:7.05555534px;fill:#e91f00;fill-opacity:1;stroke-width:0.26458332"
         id="path1135" />
      <path
         d="m 77.683302,89.802072 v 0.599446 q -0.268718,-0.137804 -0.558106,-0.206706 -0.289388,-0.0689 -0.599446,-0.0689 -0.471978,0 -0.70969,0.144694 -0.234266,0.144694 -0.234266,0.434082 0,0.220486 0.168809,0.347954 0.16881,0.124024 0.678684,0.237712 l 0.217041,0.04823 q 0.675239,0.144694 0.957737,0.409966 0.285943,0.261828 0.285943,0.733806 0,0.537435 -0.427192,0.850938 -0.423747,0.313504 -1.167888,0.313504 -0.310058,0 -0.647677,-0.06201 -0.334175,-0.05857 -0.706245,-0.179145 v -0.654568 q 0.3514,0.18259 0.692464,0.275608 0.341065,0.08957 0.675239,0.08957 0.447862,0 0.689019,-0.151584 0.241157,-0.155029 0.241157,-0.434082 0,-0.258382 -0.1757,-0.396186 -0.172255,-0.137804 -0.761366,-0.265272 l -0.220486,-0.05168 q -0.589112,-0.124023 -0.850939,-0.37896 -0.261827,-0.258382 -0.261827,-0.706245 0,-0.544325 0.38585,-0.840603 0.385851,-0.296278 1.095541,-0.296278 0.3514,0 0.661458,0.05168 0.310059,0.05168 0.571886,0.15503 z"
         style="font-size:7.05555534px;fill:#e91f00;fill-opacity:1;stroke-width:0.26458332"
         id="path1137" />
    </g>
    <g
       aria-label="MCI"
       style="font-style:normal;font-weight:normal;font-size:4.23333311px;line-height:1.25;font-family:sans-serif;letter-spacing:0px;word-spacing:0px;fill:#e91f00;fill-opacity:1;stroke:none;stroke-width:0.26458332"
       id="text967">
      <path
         d="m 111.92589,128.62742 h 1.03698 l 1.31258,3.50022 1.31947,-3.50022 h 1.03697 v 5.14353 h -0.67868 v -4.51652 l -1.32636,3.52778 h -0.69936 l -1.32636,-3.52778 v 4.51652 h -0.67524 z"
         style="font-size:7.05555534px;fill:#e91f00;fill-opacity:1;stroke-width:0.26458332"
         id="path1126" />
      <path
         d="m 121.86499,129.02361 v 0.7338 q -0.3514,-0.32728 -0.75103,-0.4892 -0.39618,-0.16192 -0.84405,-0.16192 -0.88194,0 -1.35047,0.54088 -0.46854,0.53744 -0.46854,1.55718 0,1.01631 0.46854,1.55719 0.46853,0.53743 1.35047,0.53743 0.44787,0 0.84405,-0.16192 0.39963,-0.16192 0.75103,-0.4892 v 0.72691 q -0.36518,0.24805 -0.77514,0.37207 -0.40652,0.12403 -0.86128,0.12403 -1.16788,0 -1.83968,-0.71314 -0.67179,-0.71658 -0.67179,-1.95337 0,-1.24023 0.67179,-1.95336 0.6718,-0.71658 1.83968,-0.71658 0.46165,0 0.86817,0.12402 0.40996,0.12058 0.76825,0.36518 z"
         style="font-size:7.05555534px;fill:#e91f00;fill-opacity:1;stroke-width:0.26458332"
         id="path1128" />
      <path
         d="m 122.93986,128.62742 h 0.69591 v 5.14353 h -0.69591 z"
         style="font-size:7.05555534px;fill:#e91f00;fill-opacity:1;stroke-width:0.26458332"
         id="path1130" />
    </g>
    <g
       aria-label="MCI"
       style="font-style:normal;font-weight:normal;font-size:4.23333311px;line-height:1.25;font-family:sans-serif;letter-spacing:0px;word-spacing:0px;fill:#000000;fill-opacity:1;stroke:none;stroke-width:0.26458332"
       id="text971">
      <path
         d="m 97.351514,147.51666 h 1.036974 l 1.312581,3.50022 1.319471,-3.50022 h 1.03697 v 5.14353 h -0.67868 v -4.51652 l -1.32636,3.52777 h -0.699355 l -1.326362,-3.52777 v 4.51652 h -0.675239 z"
         style="font-size:7.05555534px;fill:#000000;fill-opacity:1;stroke-width:0.26458332"
         id="path1119" />
      <path
         d="m 107.29061,147.91285 v 0.7338 q -0.3514,-0.32728 -0.75103,-0.4892 -0.39618,-0.16192 -0.84404,-0.16192 -0.88195,0 -1.35048,0.54088 -0.46854,0.53743 -0.46854,1.55718 0,1.0163 0.46854,1.55718 0.46853,0.53744 1.35048,0.53744 0.44786,0 0.84404,-0.16192 0.39963,-0.16192 0.75103,-0.4892 v 0.72691 q -0.36518,0.24805 -0.77514,0.37207 -0.40652,0.12402 -0.86128,0.12402 -1.16788,0 -1.83968,-0.71313 -0.67179,-0.71658 -0.67179,-1.95337 0,-1.24023 0.67179,-1.95337 0.6718,-0.71658 1.83968,-0.71658 0.46165,0 0.86817,0.12403 0.40996,0.12057 0.76825,0.36518 z"
         style="font-size:7.05555534px;fill:#000000;fill-opacity:1;stroke-width:0.26458332"
         id="path1121" />
      <path
         d="m 108.36548,147.51666 h 0.69591 v 5.14353 h -0.69591 z"
         style="font-size:7.05555534px;fill:#000000;fill-opacity:1;stroke-width:0.26458332"
         id="path1123" />
    </g>
    <g
       aria-label=":o"
       style="font-style:normal;font-weight:normal;font-size:4.23333311px;line-height:1.25;font-family:sans-serif;letter-spacing:0px;word-spacing:0px;fill:#000000;fill-opacity:1;stroke:none;stroke-width:0.26458332"
       id="text975">
      <path
         d="m 90.108607,135.88121 h 0.508841 v 0.61253 h -0.508841 z m 0,-1.94132 h 0.508841 v 0.61254 h -0.508841 z"
         style="font-size:4.93888903px;stroke-width:0.26458332"
         id="path1114" />
      <path
         d="m 92.705865,134.10388 q -0.356912,0 -0.564307,0.27974 -0.207395,0.27733 -0.207395,0.76206 0,0.48472 0.204983,0.76446 0.207395,0.27733 0.566719,0.27733 0.3545,0 0.561895,-0.27974 0.207394,-0.27974 0.207394,-0.76205 0,-0.4799 -0.207394,-0.75965 -0.207395,-0.28215 -0.561895,-0.28215 z m 0,-0.3762 q 0.578776,0 0.90916,0.3762 0.330385,0.37621 0.330385,1.0418 0,0.66318 -0.330385,1.04179 -0.330384,0.37621 -0.90916,0.37621 -0.581188,0 -0.911573,-0.37621 -0.327973,-0.37861 -0.327973,-1.04179 0,-0.66559 0.327973,-1.0418 0.330385,-0.3762 0.911573,-0.3762 z"
         style="font-size:4.93888903px;stroke-width:0.26458332"
         id="path1116" />
    </g>
    <g
       aria-label=":v"
       style="font-style:normal;font-weight:normal;font-size:4.23333311px;line-height:1.25;font-family:sans-serif;letter-spacing:0px;word-spacing:0px;fill:#e91f00;fill-opacity:0.99215686;stroke:none;stroke-width:0.26458332"
       id="text983">
      <path
         d="m 90.950511,74.983837 h 0.50884 v 0.612538 h -0.50884 z m 0,-1.941312 h 0.50884 v 0.612538 h -0.50884 z"
         style="font-size:4.93888903px;fill:#e91f00;fill-opacity:0.99215686;stroke-width:0.26458332"
         id="path1109" />
      <path
         d="m 92.182821,72.89542 h 0.470256 l 0.844048,2.266872 0.844049,-2.266872 h 0.470255 l -1.012858,2.700955 H 93.19568 Z"
         style="font-size:4.93888903px;fill:#e91f00;fill-opacity:0.99215686;stroke-width:0.26458332"
         id="path1111" />
    </g>
    <g
       aria-label=":v"
       style="font-style:normal;font-weight:normal;font-size:4.23333311px;line-height:1.25;font-family:sans-serif;letter-spacing:0px;word-spacing:0px;fill:#000000;fill-opacity:1;stroke:none;stroke-width:0.26458332"
       id="text987">
      <path
         d="m 93.476206,70.400165 h 0.508841 v 0.612538 h -0.508841 z m 0,-1.941311 h 0.508841 v 0.612538 h -0.508841 z"
         style="font-size:4.93888903px;stroke-width:0.26458332"
         id="path1104" />
      <path
         d="m 94.708517,68.311748 h 0.470256 l 0.844048,2.266873 0.844049,-2.266873 h 0.470255 l -1.012858,2.700955 h -0.602892 z"
         style="font-size:4.93888903px;stroke-width:0.26458332"
         id="path1106" />
    </g>
    <g
       aria-label=":v"
       style="font-style:normal;font-weight:normal;font-size:4.23333311px;line-height:1.25;font-family:sans-serif;letter-spacing:0px;word-spacing:0px;fill:#1e4cf4;fill-opacity:1;stroke:none;stroke-width:0.26458332"
       id="text991">
      <path
         d="m 98.153422,69.464725 h 0.508841 v 0.612538 h -0.508841 z m 0,-1.941311 h 0.508841 v 0.612538 h -0.508841 z"
         style="font-size:4.93888903px;fill:#1e4cf4;fill-opacity:1;stroke-width:0.26458332"
         id="path1099" />
      <path
         d="m 99.385733,67.376308 h 0.470255 l 0.844052,2.266873 0.84405,-2.266873 h 0.47025 l -1.01286,2.700955 h -0.60289 z"
         style="font-size:4.93888903px;fill:#1e4cf4;fill-opacity:1;stroke-width:0.26458332"
         id="path1101" />
    </g>
    <g
       aria-label="-"
       style="font-style:normal;font-weight:normal;font-size:4.23333311px;line-height:1.25;font-family:sans-serif;letter-spacing:0px;word-spacing:0px;fill:#000000;fill-opacity:1;stroke:none;stroke-width:0.26458332"
       id="text995">
      <path
         d="m 126.54163,98.361693 h 1.85691 v 0.564995 h -1.85691 z"
         style="font-size:7.05555534px;stroke-width:0.26458332"
         id="path1096" />
    </g>
    <g
       aria-label="MCI"
       style="font-style:normal;font-weight:normal;font-size:4.23333311px;line-height:1.25;font-family:sans-serif;letter-spacing:0px;word-spacing:0px;fill:#1e4cf4;fill-opacity:1;stroke:none;stroke-width:0.26458332"
       id="text999">
      <path
         d="m 120.92469,162.10957 h 1.03697 l 1.31258,3.50022 1.31947,-3.50022 h 1.03698 v 5.14353 H 124.952 v -4.51652 l -1.32636,3.52778 h -0.69935 l -1.32636,-3.52778 v 4.51652 h -0.67524 z"
         style="font-size:7.05555534px;fill:#1e4cf4;fill-opacity:1;stroke-width:0.26458332"
         id="path1089" />
      <path
         d="m 130.86379,162.50576 v 0.7338 q -0.3514,-0.32728 -0.75103,-0.4892 -0.39619,-0.16192 -0.84405,-0.16192 -0.88195,0 -1.35048,0.54088 -0.46853,0.53743 -0.46853,1.55718 0,1.0163 0.46853,1.55718 0.46853,0.53744 1.35048,0.53744 0.44786,0 0.84405,-0.16192 0.39963,-0.16192 0.75103,-0.4892 v 0.72691 q -0.36518,0.24805 -0.77515,0.37207 -0.40652,0.12403 -0.86127,0.12403 -1.16789,0 -1.83968,-0.71314 -0.6718,-0.71658 -0.6718,-1.95337 0,-1.24023 0.6718,-1.95337 0.67179,-0.71658 1.83968,-0.71658 0.46164,0 0.86816,0.12403 0.40997,0.12057 0.76826,0.36518 z"
         style="font-size:7.05555534px;fill:#1e4cf4;fill-opacity:1;stroke-width:0.26458332"
         id="path1091" />
      <path
         d="m 131.93866,162.10957 h 0.69591 v 5.14353 h -0.69591 z"
         style="font-size:7.05555534px;fill:#1e4cf4;fill-opacity:1;stroke-width:0.26458332"
         id="path1093" />
    </g>
    <g
       aria-label=":o"
       style="font-style:normal;font-weight:normal;font-size:4.23333311px;line-height:1.25;font-family:sans-serif;letter-spacing:0px;word-spacing:0px;fill:#000000;fill-opacity:1;stroke:none;stroke-width:0.26458332"
       id="text1003">
      <path
         d="m 80.567088,161.51236 h 0.50884 v 0.61253 h -0.50884 z m 0,-1.94132 h 0.50884 v 0.61254 h -0.50884 z"
         style="font-size:4.93888903px;stroke-width:0.26458332"
         id="path1084" />
      <path
         d="m 83.164345,159.73503 q -0.356911,0 -0.564306,0.27974 -0.207395,0.27733 -0.207395,0.76206 0,0.48472 0.204983,0.76446 0.207395,0.27733 0.566718,0.27733 0.354501,0 0.561896,-0.27974 0.207394,-0.27974 0.207394,-0.76205 0,-0.4799 -0.207394,-0.75965 -0.207395,-0.28215 -0.561896,-0.28215 z m 0,-0.3762 q 0.578776,0 0.909161,0.3762 0.330385,0.3762 0.330385,1.0418 0,0.66318 -0.330385,1.04179 -0.330385,0.37621 -0.909161,0.37621 -0.581187,0 -0.911572,-0.37621 -0.327973,-0.37861 -0.327973,-1.04179 0,-0.6656 0.327973,-1.0418 0.330385,-0.3762 0.911572,-0.3762 z"
         style="font-size:4.93888903px;stroke-width:0.26458332"
         id="path1086" />
    </g>
    <g
       aria-label=":o"
       style="font-style:normal;font-weight:normal;font-size:4.23333311px;line-height:1.25;font-family:sans-serif;letter-spacing:0px;word-spacing:0px;fill:#e91f00;fill-opacity:1;stroke:none;stroke-width:0.26458332"
       id="text1007">
      <path
         d="m 72.148097,163.10261 h 0.50884 v 0.61254 h -0.50884 z m 0,-1.94131 h 0.50884 v 0.61254 h -0.50884 z"
         style="font-size:4.93888903px;fill:#e91f00;fill-opacity:1;stroke-width:0.26458332"
         id="path1079" />
      <path
         d="m 74.745354,161.32529 q -0.356912,0 -0.564306,0.27974 -0.207395,0.27733 -0.207395,0.76205 0,0.48473 0.204983,0.76447 0.207395,0.27733 0.566718,0.27733 0.354501,0 0.561895,-0.27974 0.207395,-0.27974 0.207395,-0.76206 0,-0.4799 -0.207395,-0.75964 -0.207394,-0.28215 -0.561895,-0.28215 z m 0,-0.37621 q 0.578776,0 0.909161,0.37621 0.330385,0.3762 0.330385,1.04179 0,0.66318 -0.330385,1.0418 -0.330385,0.3762 -0.909161,0.3762 -0.581187,0 -0.911572,-0.3762 -0.327973,-0.37862 -0.327973,-1.0418 0,-0.66559 0.327973,-1.04179 0.330385,-0.37621 0.911572,-0.37621 z"
         style="font-size:4.93888903px;fill:#e91f00;fill-opacity:1;stroke-width:0.26458332"
         id="path1081" />
    </g>
    <g
       aria-label=":o"
       style="font-style:normal;font-weight:normal;font-size:4.23333311px;line-height:1.25;font-family:sans-serif;letter-spacing:0px;word-spacing:0px;fill:#000000;fill-opacity:1;stroke:none;stroke-width:0.26458332"
       id="text1011">
      <path
         d="m 105.73052,173.39248 h 0.50884 v 0.61254 h -0.50884 z m 0,-1.94131 h 0.50884 v 0.61254 h -0.50884 z"
         style="font-size:4.93888903px;stroke-width:0.26458332"
         id="path1074" />
      <path
         d="m 108.32777,171.61516 q -0.35691,0 -0.5643,0.27974 -0.2074,0.27733 -0.2074,0.76205 0,0.48473 0.20499,0.76447 0.20739,0.27733 0.56671,0.27733 0.35451,0 0.5619,-0.27974 0.20739,-0.27974 0.20739,-0.76206 0,-0.4799 -0.20739,-0.75964 -0.20739,-0.28215 -0.5619,-0.28215 z m 0,-0.37621 q 0.57878,0 0.90917,0.37621 0.33038,0.3762 0.33038,1.04179 0,0.66319 -0.33038,1.0418 -0.33039,0.37621 -0.90917,0.37621 -0.58118,0 -0.91157,-0.37621 -0.32797,-0.37861 -0.32797,-1.0418 0,-0.66559 0.32797,-1.04179 0.33039,-0.37621 0.91157,-0.37621 z"
         style="font-size:4.93888903px;stroke-width:0.26458332"
         id="path1076" />
    </g>
    <g
       aria-label=":o"
       style="font-style:normal;font-weight:normal;font-size:4.23333311px;line-height:1.25;font-family:sans-serif;letter-spacing:0px;word-spacing:0px;fill:#e91f00;fill-opacity:1;stroke:none;stroke-width:0.26458332"
       id="text1015">
      <path
         d="m 97.311526,174.98274 h 0.508841 v 0.61254 h -0.508841 z m 0,-1.94131 h 0.508841 v 0.61253 h -0.508841 z"
         style="font-size:4.93888903px;fill:#e91f00;fill-opacity:1;stroke-width:0.26458332"
         id="path1069" />
      <path
         d="m 99.908784,173.20541 q -0.356912,0 -0.564307,0.27974 -0.207395,0.27734 -0.207395,0.76206 0,0.48472 0.204983,0.76447 0.207395,0.27733 0.566719,0.27733 0.354496,0 0.561896,-0.27974 0.20739,-0.27975 0.20739,-0.76206 0,-0.4799 -0.20739,-0.75964 -0.2074,-0.28216 -0.561896,-0.28216 z m 0,-0.3762 q 0.578776,0 0.909156,0.3762 0.33039,0.37621 0.33039,1.0418 0,0.66318 -0.33039,1.0418 -0.33038,0.3762 -0.909156,0.3762 -0.581188,0 -0.911573,-0.3762 -0.327973,-0.37862 -0.327973,-1.0418 0,-0.66559 0.327973,-1.0418 0.330385,-0.3762 0.911573,-0.3762 z"
         style="font-size:4.93888903px;fill:#e91f00;fill-opacity:1;stroke-width:0.26458332"
         id="path1071" />
    </g>
    <g
       aria-label=":o"
       style="font-style:normal;font-weight:normal;font-size:4.23333311px;line-height:1.25;font-family:sans-serif;letter-spacing:0px;word-spacing:0px;fill:#000000;fill-opacity:1;stroke:none;stroke-width:0.26458332"
       id="text1019">
      <path
         d="m 131.6781,158.96502 h 0.50884 v 0.61254 h -0.50884 z m 0,-1.94131 h 0.50884 v 0.61254 h -0.50884 z"
         style="font-size:4.93888903px;stroke-width:0.26458332"
         id="path1064" />
      <path
         d="m 134.27535,157.1877 q -0.35691,0 -0.5643,0.27974 -0.2074,0.27733 -0.2074,0.76205 0,0.48473 0.20498,0.76447 0.2074,0.27733 0.56672,0.27733 0.3545,0 0.5619,-0.27974 0.20739,-0.27974 0.20739,-0.76206 0,-0.4799 -0.20739,-0.75964 -0.2074,-0.28215 -0.5619,-0.28215 z m 0,-0.37621 q 0.57878,0 0.90916,0.37621 0.33039,0.3762 0.33039,1.04179 0,0.66319 -0.33039,1.0418 -0.33038,0.37621 -0.90916,0.37621 -0.58118,0 -0.91157,-0.37621 -0.32797,-0.37861 -0.32797,-1.0418 0,-0.66559 0.32797,-1.04179 0.33039,-0.37621 0.91157,-0.37621 z"
         style="font-size:4.93888903px;stroke-width:0.26458332"
         id="path1066" />
    </g>
    <g
       aria-label=":o"
       style="font-style:normal;font-weight:normal;font-size:4.23333311px;line-height:1.25;font-family:sans-serif;letter-spacing:0px;word-spacing:0px;fill:#e91f00;fill-opacity:1;stroke:none;stroke-width:0.26458332"
       id="text1023">
      <path
         d="m 117.83354,160.46173 h 0.50884 v 0.61253 h -0.50884 z m 0,-1.94131 h 0.50884 v 0.61253 h -0.50884 z"
         style="font-size:4.93888903px;fill:#e91f00;fill-opacity:1;stroke-width:0.26458332"
         id="path1059" />
      <path
         d="m 120.43079,158.6844 q -0.35691,0 -0.5643,0.27974 -0.2074,0.27733 -0.2074,0.76206 0,0.48472 0.20499,0.76447 0.20739,0.27733 0.56671,0.27733 0.3545,0 0.5619,-0.27975 0.20739,-0.27974 0.20739,-0.76205 0,-0.4799 -0.20739,-0.75964 -0.2074,-0.28216 -0.5619,-0.28216 z m 0,-0.3762 q 0.57878,0 0.90917,0.3762 0.33038,0.37621 0.33038,1.0418 0,0.66318 -0.33038,1.0418 -0.33039,0.3762 -0.90917,0.3762 -0.58118,0 -0.91157,-0.3762 -0.32797,-0.37862 -0.32797,-1.0418 0,-0.66559 0.32797,-1.0418 0.33039,-0.3762 0.91157,-0.3762 z"
         style="font-size:4.93888903px;fill:#e91f00;fill-opacity:1;stroke-width:0.26458332"
         id="path1061" />
    </g>
    <g
       aria-label=":o"
       style="font-style:normal;font-weight:normal;font-size:4.23333311px;line-height:1.25;font-family:sans-serif;letter-spacing:0px;word-spacing:0px;fill:#1e4cf4;fill-opacity:1;stroke:none;stroke-width:0.26458332"
       id="text1027">
      <path
         d="m 125.27032,151.48147 h 0.50884 v 0.61254 h -0.50884 z m 0,-1.94131 h 0.50884 v 0.61254 h -0.50884 z"
         style="font-size:4.93888903px;fill:#1e4cf4;fill-opacity:1;stroke-width:0.26458332"
         id="path1054" />
      <path
         d="m 127.86758,149.70415 q -0.35691,0 -0.56431,0.27974 -0.20739,0.27733 -0.20739,0.76205 0,0.48473 0.20498,0.76447 0.20739,0.27733 0.56672,0.27733 0.3545,0 0.56189,-0.27974 0.2074,-0.27974 0.2074,-0.76206 0,-0.4799 -0.2074,-0.75964 -0.20739,-0.28215 -0.56189,-0.28215 z m 0,-0.37621 q 0.57877,0 0.90916,0.37621 0.33038,0.3762 0.33038,1.04179 0,0.66318 -0.33038,1.0418 -0.33039,0.3762 -0.90916,0.3762 -0.58119,0 -0.91158,-0.3762 -0.32797,-0.37862 -0.32797,-1.0418 0,-0.66559 0.32797,-1.04179 0.33039,-0.37621 0.91158,-0.37621 z"
         style="font-size:4.93888903px;fill:#1e4cf4;fill-opacity:1;stroke-width:0.26458332"
         id="path1056" />
    </g>
    <g
       aria-label=":v"
       style="font-style:normal;font-weight:normal;font-size:4.23333311px;line-height:1.25;font-family:sans-serif;letter-spacing:0px;word-spacing:0px;fill:#e91f00;fill-opacity:1;stroke:none;stroke-width:0.26458332"
       id="text1031">
      <path
         d="m 73.644801,99.398898 h 0.50884 v 0.612542 h -0.50884 z m 0,-1.941311 h 0.50884 v 0.612538 h -0.50884 z"
         style="font-size:4.93888903px;fill:#e91f00;fill-opacity:1;stroke-width:0.26458332"
         id="path1049" />
      <path
         d="m 74.877112,97.310482 h 0.470255 l 0.844049,2.266872 0.844048,-2.266872 h 0.470255 l -1.012858,2.700958 H 75.88997 Z"
         style="font-size:4.93888903px;fill:#e91f00;fill-opacity:1;stroke-width:0.26458332"
         id="path1051" />
    </g>
    <g
       aria-label="m"
       style="font-style:normal;font-weight:normal;font-size:4.23333311px;line-height:1.25;font-family:sans-serif;letter-spacing:0px;word-spacing:0px;fill:#e91f00;fill-opacity:1;stroke:none;stroke-width:0.26458332"
       id="text1035">
      <path
         d="m 91.16271,141.60774 q 0.166398,-0.29904 0.397908,-0.44132 0.231511,-0.14228 0.545014,-0.14228 0.422024,0 0.651123,0.29662 0.229099,0.29421 0.229099,0.83923 v 1.63022 h -0.44614 v -1.61575 q 0,-0.38827 -0.137459,-0.57637 -0.137459,-0.1881 -0.419613,-0.1881 -0.344854,0 -0.545014,0.2291 -0.20016,0.2291 -0.20016,0.6246 v 1.52652 h -0.44614 v -1.61575 q 0,-0.39068 -0.137459,-0.57637 -0.137459,-0.1881 -0.424436,-0.1881 -0.340031,0 -0.540191,0.23151 -0.20016,0.2291 -0.20016,0.62219 v 1.52652 h -0.44614 v -2.70096 h 0.44614 v 0.41961 q 0.151929,-0.24839 0.364147,-0.36655 0.212218,-0.11817 0.504017,-0.11817 0.294211,0 0.499195,0.14952 0.207394,0.14951 0.306269,0.43408 z"
         style="font-size:4.93888903px;fill:#e91f00;fill-opacity:1;stroke-width:0.26458332"
         id="path1046" />
    </g>
    <g
       aria-label="M"
       style="font-style:normal;font-weight:normal;font-size:4.23333311px;line-height:1.25;font-family:sans-serif;letter-spacing:0px;word-spacing:0px;fill:#e91f00;fill-opacity:1;stroke:none;stroke-width:0.26458332"
       id="text1039">
      <path
         d="m 90.762908,96.87871 h 0.725882 l 0.918807,2.450152 0.92363,-2.450152 h 0.725881 v 3.60047 H 93.58203 v -3.161565 l -0.928454,2.469445 h -0.489548 l -0.928453,-2.469445 v 3.161565 h -0.472667 z"
         style="font-size:4.93888903px;fill:#e91f00;fill-opacity:1;stroke-width:0.26458332"
         id="path1043" />
    </g>
    <path
       inkscape:connector-curvature="0"
       id="path1041"
       d="M 120.23625,118.46252 143.4993,138.1189"
       style="fill:none;stroke:#000000;stroke-width:0.65124637;stroke-linecap:butt;stroke-linejoin:miter;stroke-miterlimit:4;stroke-dasharray:none;stroke-opacity:1"
       sodipodi:nodetypes="cc" />
  </g>
</svg>
