<?xml version="1.0" encoding="UTF-8" standalone="no"?>
<!-- Created with Inkscape (http://www.inkscape.org/) -->

<svg
   xmlns:dc="http://purl.org/dc/elements/1.1/"
   xmlns:cc="http://creativecommons.org/ns#"
   xmlns:rdf="http://www.w3.org/1999/02/22-rdf-syntax-ns#"
   xmlns:svg="http://www.w3.org/2000/svg"
   xmlns="http://www.w3.org/2000/svg"
   xmlns:sodipodi="http://sodipodi.sourceforge.net/DTD/sodipodi-0.dtd"
   xmlns:inkscape="http://www.inkscape.org/namespaces/inkscape"
   width="210mm"
   height="297mm"
   viewBox="0 0 210 297"
   version="1.1"
   id="svg8"
   inkscape:version="0.92.4 5da689c313, 2019-01-14"
   sodipodi:docname="dibujo-3.svg">
  <defs
     id="defs2">
    <inkscape:path-effect
       effect="simplify"
       id="path-effect3477"
       is_visible="true"
       steps="1"
       threshold="0.00645161"
       smooth_angles="360"
       helper_size="0"
       simplify_individual_paths="false"
       simplify_just_coalesce="false"
       simplifyindividualpaths="false"
       simplifyJustCoalesce="false" />
    <inkscape:path-effect
       effect="simplify"
       id="path-effect3473"
       is_visible="true"
       steps="1"
       threshold="0.00645161"
       smooth_angles="360"
       helper_size="0"
       simplify_individual_paths="false"
       simplify_just_coalesce="false"
       simplifyindividualpaths="false"
       simplifyJustCoalesce="false" />
    <inkscape:path-effect
       effect="simplify"
       id="path-effect3469"
       is_visible="true"
       steps="1"
       threshold="0.00645161"
       smooth_angles="360"
       helper_size="0"
       simplify_individual_paths="false"
       simplify_just_coalesce="false"
       simplifyindividualpaths="false"
       simplifyJustCoalesce="false" />
    <inkscape:path-effect
       effect="simplify"
       id="path-effect3461"
       is_visible="true"
       steps="1"
       threshold="0.00645161"
       smooth_angles="360"
       helper_size="0"
       simplify_individual_paths="false"
       simplify_just_coalesce="false"
       simplifyindividualpaths="false"
       simplifyJustCoalesce="false" />
  </defs>
  <sodipodi:namedview
     id="base"
     pagecolor="#ffffff"
     bordercolor="#666666"
     borderopacity="1.0"
     inkscape:pageopacity="0.0"
     inkscape:pageshadow="2"
     inkscape:zoom="3.6619512"
     inkscape:cx="411.18528"
     inkscape:cy="959.24797"
     inkscape:document-units="mm"
     inkscape:current-layer="layer1"
     showgrid="false"
     inkscape:window-width="1366"
     inkscape:window-height="768"
     inkscape:window-x="0"
     inkscape:window-y="0"
     inkscape:window-maximized="0"
     inkscape:snap-center="true"
     showguides="false" />
  <metadata
     id="metadata5">
    <rdf:RDF>
      <cc:Work
         rdf:about="">
        <dc:format>image/svg+xml</dc:format>
        <dc:type
           rdf:resource="http://purl.org/dc/dcmitype/StillImage" />
        <dc:title></dc:title>
      </cc:Work>
    </rdf:RDF>
  </metadata>
  <g
     inkscape:label="Capa 1"
     inkscape:groupmode="layer"
     id="layer1">
    <ellipse
       style="opacity:1;fill:#000000;fill-opacity:1;stroke:none;stroke-width:0.40000001;stroke-miterlimit:4;stroke-dasharray:none;stroke-dashoffset:0;stroke-opacity:1"
       id="ellipse1652"
       cx="47.61813"
       cy="-133.0183"
       rx="0.59368736"
       ry="0.59366226"
       transform="rotate(90)" />
    <ellipse
       ry="0.59366226"
       rx="0.59368736"
       cy="-133.0183"
       cx="56.500584"
       id="ellipse1670"
       style="opacity:1;fill:#000000;fill-opacity:1;stroke:none;stroke-width:0.40000001;stroke-miterlimit:4;stroke-dasharray:none;stroke-dashoffset:0;stroke-opacity:1"
       transform="rotate(90)" />
    <path
       style="fill:none;stroke:#000000;stroke-width:0.26458332px;stroke-linecap:butt;stroke-linejoin:miter;stroke-opacity:1"
       d="m 133.0183,47.618153 v 8.88243"
       id="path1676"
       inkscape:connector-curvature="0" />
    <ellipse
       transform="rotate(90)"
       ry="0.59366226"
       rx="0.59368736"
       cy="-81.928406"
       cx="52.0317"
       id="ellipse3443"
       style="opacity:1;fill:#000000;fill-opacity:1;stroke:none;stroke-width:0.40000001;stroke-miterlimit:4;stroke-dasharray:none;stroke-dashoffset:0;stroke-opacity:1" />
    <ellipse
       style="opacity:1;fill:#000000;fill-opacity:1;stroke:none;stroke-width:0.40000001;stroke-miterlimit:4;stroke-dasharray:none;stroke-dashoffset:0;stroke-opacity:1"
       id="ellipse3449"
       cx="51.573132"
       cy="-110.40913"
       rx="0.59368736"
       ry="0.59366226"
       transform="rotate(90)" />
    <ellipse
       ry="0.59366226"
       rx="0.59368736"
       cy="-110.40913"
       cx="60.455585"
       id="ellipse3451"
       style="opacity:1;fill:#000000;fill-opacity:1;stroke:none;stroke-width:0.40000001;stroke-miterlimit:4;stroke-dasharray:none;stroke-dashoffset:0;stroke-opacity:1"
       transform="rotate(90)" />
    <path
       style="fill:none;stroke:#000000;stroke-width:0.26458332px;stroke-linecap:butt;stroke-linejoin:miter;stroke-opacity:1"
       d="m 110.40913,51.573156 v 8.88243"
       id="path3453"
       inkscape:connector-curvature="0" />
    <ellipse
       transform="rotate(90)"
       style="opacity:1;fill:#000000;fill-opacity:1;stroke:none;stroke-width:0.40000001;stroke-miterlimit:4;stroke-dasharray:none;stroke-dashoffset:0;stroke-opacity:1"
       id="ellipse3455"
       cx="65.383011"
       cy="-133.0183"
       rx="0.59368736"
       ry="0.59366226" />
    <path
       inkscape:connector-curvature="0"
       id="path3457"
       d="m 133.0183,56.500583 v 8.88243"
       style="fill:none;stroke:#000000;stroke-width:0.26458332px;stroke-linecap:butt;stroke-linejoin:miter;stroke-opacity:1" />
    <path
       style="opacity:1;fill:none;fill-opacity:1;stroke:#030303;stroke-width:0.66499996;stroke-miterlimit:4;stroke-dasharray:none;stroke-dashoffset:0;stroke-opacity:1"
       d="m 110.86505,43.696342 c -1.644,-0.18906 -3.44828,-0.855251 -5.00972,0.04747 -0.91516,0.529087 -1.8699,0.904734 -2.87492,1.309621 -1.34928,0.543577 -2.17638,1.811392 -3.35126,2.624047 -0.772249,0.534159 -1.257292,1.087141 -1.547415,1.925531 -0.546361,1.578863 -0.713863,3.469695 0.132699,4.955621 0.458366,0.804546 1.129929,1.383314 1.700077,2.164631 0.990249,1.357012 2.403859,2.353729 3.836579,3.189599 1.32211,0.771339 2.67788,1.818496 4.21585,1.837868 1.23826,0.0156 2.39214,0.511077 3.6147,0.674091 1.96781,0.262384 4.14413,0.353343 5.90692,-0.679201 1.25703,-0.736299 2.00694,-1.996277 2.696,-3.212059 0.93867,-1.656207 1.71051,-3.497862 1.80306,-5.407387 0.0602,-1.241927 -0.44101,-2.436332 -1.00433,-3.50712 -0.4316,-0.820408 -0.53973,-1.761978 -1.02424,-2.550781 -0.75626,-1.231233 -1.34072,-2.963669 -2.75885,-3.371932 -1.47333,-0.424154 -3.05182,-0.190709 -4.5659,-0.31163 -0.62645,-0.05003 -1.17271,0.255427 -1.76925,0.31163 z"
       id="path3467"
       inkscape:connector-curvature="0"
       inkscape:path-effect="#path-effect3469"
       inkscape:original-d="m 110.86505,43.696342 c -1.283,-0.144603 -3.19293,-0.747266 -4.49591,-0.204359 -0.69011,0.287544 -1.35636,0.80327 -2.04359,1.123976 -0.45565,0.324798 -1.04373,0.285224 -1.5327,0.5109 -0.86522,0.39933 -1.56771,1.227013 -2.24795,1.839235 -0.559058,0.503148 -1.303921,0.882986 -1.73706,1.532697 -0.05668,0.08502 0.05939,0.223393 0,0.306541 -0.126764,0.177467 -0.382624,0.232341 -0.5109,0.408718 -0.636309,0.874927 -0.768418,3.159286 -0.510899,4.18937 0.144269,0.577072 0.376676,1.145812 0.715258,1.634876 0.151421,0.218718 0.442781,0.306541 0.61308,0.5109 0.468196,0.561835 0.801859,1.312759 1.328341,1.839235 1.6937,1.693701 4.54305,3.456601 6.84604,4.18937 0.57676,0.278027 1.24296,0.131165 1.83924,0.306541 2.29994,0.676455 5.34941,1.072137 7.66348,0.204359 1.35306,-0.507397 2.05912,-1.592633 2.75885,-2.758853 0.20436,-0.340595 0.5109,-0.579024 0.71526,-0.91962 0.76315,-1.271921 2.09977,-4.785489 1.63488,-6.335143 -0.38348,-1.278261 -0.88892,-2.519664 -1.5327,-3.678473 -0.22444,-0.403995 -0.18079,-0.918075 -0.40872,-1.328338 -0.50423,-0.907622 -1.81399,-2.899503 -2.75885,-3.371932 -0.75518,-0.377587 -4.61911,-0.429009 -5.51771,-0.204359 -0.47114,0.117784 -0.27951,0.204359 -0.81744,0.204359 z"
       transform="translate(-27.798398)" />
    <path
       style="opacity:1;fill:none;fill-opacity:1;stroke:#030303;stroke-width:0.66499996;stroke-miterlimit:4;stroke-dasharray:none;stroke-dashoffset:0;stroke-opacity:1"
       d="m 115.87186,43.798521 c -1.68981,0.07634 -4.27558,-0.237522 -4.87798,1.362418 -0.18149,0.482027 -0.815,0.987498 -1.37158,1.481476 -1.78873,1.587549 -3.03374,3.776895 -3.58287,6.088623 -0.49615,2.088694 -0.65228,4.257062 -0.44473,6.374765 0.25674,2.619622 2.11773,4.67031 3.69463,6.63662 0.58747,0.732544 2.06035,1.925523 2.59349,1.95738 0.63324,0.03784 1.52928,0.531685 2.43332,0.530415 1.35215,-0.0019 2.52376,-0.714339 3.70911,-1.398959 0.83437,-0.481904 1.58757,-0.364466 2.5277,-1.071552 1.26472,-0.951216 2.75401,-1.582803 3.69438,-3.033145 1.03532,-1.596788 3.48524,-2.59315 3.47738,-4.520693 -0.004,-1.071085 0.8033,-1.660397 0.84294,-2.808578 0.0511,-1.480094 0.17705,-3.061855 -0.61069,-4.401142 -1.24087,-2.109674 -2.34255,-4.604867 -4.5247,-5.787578 -1.89604,-1.027643 -4.10803,-1.242363 -6.22293,-1.366537 -0.44533,-0.02615 -0.89133,-0.04308 -1.33747,-0.04351 z"
       id="path3471"
       inkscape:connector-curvature="0"
       inkscape:path-effect="#path-effect3473"
       inkscape:original-d="m 115.87186,43.798521 c -1.24318,-0.01603 -3.47402,0.510847 -4.49591,1.123979 -1.32488,0.794928 -0.007,0.209958 -0.71526,0.817438 -1.04359,0.894504 -1.98956,1.672125 -2.75885,2.861033 -2.04766,3.164559 -2.24796,5.22755 -2.24796,8.88964 0,0.715258 -0.14027,1.444408 0,2.145776 0.42107,2.105332 1.76791,3.793664 3.0654,5.415528 0.74679,0.933495 1.52949,1.837315 2.55449,2.452315 1.50727,0.904359 -0.0861,-0.211111 1.0218,0.204359 0.15945,0.05979 0.2456,0.257603 0.40872,0.306538 1.44311,0.432935 3.37079,0.205118 4.59809,-0.613077 0.57076,-0.380505 0.56451,-0.616431 1.32833,-0.817438 0.36382,-0.09574 0.78091,0.0522 1.12398,-0.102179 0.37401,-0.168307 0.58113,-0.585843 0.91962,-0.817441 0.92645,-0.633886 2.15835,-1.136549 2.96321,-1.941415 0.36763,-0.367625 0.5055,-0.912415 0.81744,-1.328338 0.94154,-1.255389 2.63173,-2.785715 3.26975,-4.18937 0.0191,-0.04207 0.12388,-0.893029 0.20436,-1.021797 0.10212,-0.163385 0.30661,-0.245335 0.40872,-0.40872 0.3125,-0.499988 0.31005,-3.555235 0.20436,-4.18937 -0.20582,-1.234919 -1.09678,-2.433664 -1.73705,-3.474112 -0.79488,-1.291669 -1.90769,-2.686153 -3.0654,-3.678473 -1.46167,-1.252862 -5.88408,-1.634876 -7.86784,-1.634876 z"
       transform="translate(-6.6471849)" />
    <path
       style="opacity:1;fill:none;fill-opacity:1;stroke:#030303;stroke-width:0.66499996;stroke-miterlimit:4;stroke-dasharray:none;stroke-dashoffset:0;stroke-opacity:1"
       d="m 135.59256,42.572365 c -2.72803,3.548872 -3.50674,8.108239 -3.756,12.493568 -0.16524,2.907145 1.21834,5.878601 0.49282,8.683352 -0.28007,1.082709 0.96741,1.954538 0.71998,2.962423 -0.27158,1.106269 0.20687,1.897413 0.70396,2.938295 0.55304,1.158047 0.7743,2.946081 2.02245,3.289334 1.12423,0.309173 2.57917,0.48968 3.63139,-0.08385 2.00699,-1.093943 5.61292,-6.802171 4.5419,-4.870903 -0.3689,0.665201 0.71784,-0.692549 0.84655,-0.86918 1.83761,-2.521785 3.69155,-5.17664 4.5037,-8.192758 0.2628,-0.975978 0.60637,-1.919389 0.67268,-2.947704 0.11037,-1.711668 -0.17883,-3.400745 -0.98401,-5.071848 -0.87185,-1.809465 -2.07969,-3.466535 -3.65567,-4.734851 -1.60308,-1.290127 -3.26852,-2.760561 -5.27818,-3.171747 -1.03493,-0.211752 -2.12546,0.259678 -3.13324,-0.01541 -0.44897,-0.122553 -0.82198,-0.79718 -1.32833,-0.408718 z"
       id="path3475"
       inkscape:connector-curvature="0"
       inkscape:path-effect="#path-effect3477"
       inkscape:original-d="m 135.59256,42.572365 c -3.16435,4.243009 -3.78065,8.929749 -3.78065,14.202987 0,2.248247 0.30001,4.427365 0.51089,6.641687 0.042,0.440783 -0.0792,0.892699 0,1.328335 0.19027,0.428099 0.63948,1.359252 0.71526,1.839238 0.0531,0.336431 -0.0961,0.695037 0,1.021797 0.0827,0.281088 0.39549,0.445953 0.5109,0.715259 0.17647,0.411766 0.0435,0.910209 0.20436,1.328335 0.21175,0.550543 1.52949,3.063791 2.14578,3.371935 0.37282,0.186409 0.92174,0.102179 1.32833,0.102179 0.56945,0 1.30219,0.136509 1.83924,-0.102179 1.86138,-0.827281 2.97876,-2.648596 4.18937,-4.189373 1.68125,-2.13977 -0.41896,0.615895 1.22616,-1.328335 1.6041,-1.895756 4.35484,-6.75132 5.0068,-9.196181 0.0439,-0.16455 0,-0.340598 0,-0.510897 0.0341,-0.204362 0.0453,-0.413872 0.10219,-0.61308 0.31602,-1.106093 0.32751,-0.477091 0.40871,-1.532697 0.0872,-1.133469 0.0883,-2.59253 -0.30653,-3.67847 -0.1908,-0.524692 -0.68882,-0.930439 -0.91962,-1.430517 -1.73863,-3.767037 -4.97602,-5.706674 -8.48092,-7.459126 -0.57384,-0.286919 -1.69091,-0.102179 -2.35014,-0.102179 -0.27827,0 -0.75563,0.08872 -1.0218,0 -0.5501,-0.183367 -0.77608,-0.776888 -1.32833,-0.408718 z"
       transform="translate(-6.6471849)" />
  </g>
</svg>
