<?xml version="1.0" encoding="UTF-8" standalone="no"?>
<!-- Created with Inkscape (http://www.inkscape.org/) -->

<svg
   xmlns:dc="http://purl.org/dc/elements/1.1/"
   xmlns:cc="http://creativecommons.org/ns#"
   xmlns:rdf="http://www.w3.org/1999/02/22-rdf-syntax-ns#"
   xmlns:svg="http://www.w3.org/2000/svg"
   xmlns="http://www.w3.org/2000/svg"
   xmlns:sodipodi="http://sodipodi.sourceforge.net/DTD/sodipodi-0.dtd"
   xmlns:inkscape="http://www.inkscape.org/namespaces/inkscape"
   width="210mm"
   height="297mm"
   viewBox="0 0 210 297"
   version="1.1"
   id="svg8"
   inkscape:version="0.92.4 5da689c313, 2019-01-14"
   sodipodi:docname="dibujo-2.svg">
  <defs
     id="defs2" />
  <sodipodi:namedview
     id="base"
     pagecolor="#ffffff"
     bordercolor="#666666"
     borderopacity="1.0"
     inkscape:pageopacity="0.0"
     inkscape:pageshadow="2"
     inkscape:zoom="1.4"
     inkscape:cx="620.51952"
     inkscape:cy="583.44589"
     inkscape:document-units="mm"
     inkscape:current-layer="layer1"
     showgrid="false"
     inkscape:window-width="1366"
     inkscape:window-height="768"
     inkscape:window-x="0"
     inkscape:window-y="0"
     inkscape:window-maximized="0" />
  <metadata
     id="metadata5">
    <rdf:RDF>
      <cc:Work
         rdf:about="">
        <dc:format>image/svg+xml</dc:format>
        <dc:type
           rdf:resource="http://purl.org/dc/dcmitype/StillImage" />
        <dc:title />
      </cc:Work>
    </rdf:RDF>
  </metadata>
  <g
     inkscape:label="Capa 1"
     inkscape:groupmode="layer"
     id="layer1">
    <circle
       style="opacity:1;fill:#000000;fill-opacity:1;stroke:none;stroke-width:0.46499997;stroke-miterlimit:4;stroke-dasharray:none;stroke-dashoffset:0;stroke-opacity:1"
       id="circle852"
       cx="105.8081"
       cy="55.192314"
       r="0.92131686" />
    <circle
       r="0.92131686"
       cy="79.380211"
       cx="94.449142"
       id="circle935"
       style="opacity:1;fill:#000000;fill-opacity:1;stroke:none;stroke-width:0.46499997;stroke-miterlimit:4;stroke-dasharray:none;stroke-dashoffset:0;stroke-opacity:1" />
    <circle
       style="opacity:1;fill:#000000;fill-opacity:1;stroke:none;stroke-width:0.46499997;stroke-miterlimit:4;stroke-dasharray:none;stroke-dashoffset:0;stroke-opacity:1"
       id="circle937"
       cx="121.97791"
       cy="79.647476"
       r="0.92131686" />
    <circle
       r="0.92131686"
       cy="85.527397"
       cx="154.85207"
       id="circle939"
       style="opacity:1;fill:#000000;fill-opacity:1;stroke:none;stroke-width:0.46499997;stroke-miterlimit:4;stroke-dasharray:none;stroke-dashoffset:0;stroke-opacity:1" />
    <circle
       style="opacity:1;fill:#000000;fill-opacity:1;stroke:none;stroke-width:0.46499997;stroke-miterlimit:4;stroke-dasharray:none;stroke-dashoffset:0;stroke-opacity:1"
       id="circle941"
       cx="65.450409"
       cy="80.983833"
       r="0.92131686" />
    <circle
       r="0.92131686"
       cy="171.82007"
       cx="130.00252"
       id="circle943"
       style="opacity:1;fill:#000000;fill-opacity:1;stroke:none;stroke-width:0.46499997;stroke-miterlimit:4;stroke-dasharray:none;stroke-dashoffset:0;stroke-opacity:1" />
    <circle
       style="opacity:1;fill:#000000;fill-opacity:1;stroke:none;stroke-width:0.46499997;stroke-miterlimit:4;stroke-dasharray:none;stroke-dashoffset:0;stroke-opacity:1"
       id="circle1006"
       cx="105.62305"
       cy="135.91232"
       r="0.92131686" />
    <circle
       r="0.92131686"
       cy="167.09535"
       cx="81.054604"
       id="circle1008"
       style="opacity:1;fill:#000000;fill-opacity:1;stroke:none;stroke-width:0.46499997;stroke-miterlimit:4;stroke-dasharray:none;stroke-dashoffset:0;stroke-opacity:1" />
    <circle
       style="opacity:1;fill:#000000;fill-opacity:1;stroke:none;stroke-width:0.46499997;stroke-miterlimit:4;stroke-dasharray:none;stroke-dashoffset:0;stroke-opacity:1"
       id="circle1010"
       cx="104.11115"
       cy="157.26799"
       r="0.92131686" />
    <circle
       r="0.92131686"
       cy="163.12662"
       cx="115.82841"
       id="circle1012"
       style="opacity:1;fill:#000000;fill-opacity:1;stroke:none;stroke-width:0.46499997;stroke-miterlimit:4;stroke-dasharray:none;stroke-dashoffset:0;stroke-opacity:1" />
    <path
       style="opacity:1;fill:none;fill-opacity:1;stroke:#000000;stroke-width:0.46499997;stroke-miterlimit:4;stroke-dasharray:none;stroke-dashoffset:0;stroke-opacity:1"
       d="m 95.147952,80.31123 c 0.0057,-0.731123 0.315097,-1.403406 0.601355,-2.071338 1.162061,-2.71148 3.445645,-3.678722 6.214013,-4.343131 1.21881,-0.292512 2.4816,-0.711795 3.74178,-0.801809 2.43529,-0.17395 7.12059,0.581102 9.42125,1.603616 0.87163,0.387392 1.0891,1.000575 1.80407,1.536801 0.81052,0.60789 1.77786,1.051605 2.60588,1.603618 0.51863,0.345757 0.97442,0.921528 1.40316,1.135896"
       id="path1014"
       inkscape:connector-curvature="0" />
    <path
       style="opacity:1;fill:none;fill-opacity:1;stroke:#000000;stroke-width:0.46499997;stroke-miterlimit:4;stroke-dasharray:none;stroke-dashoffset:0;stroke-opacity:1"
       d="m 106.44009,55.054259 c -1.34978,0.809503 -1.54418,2.370095 -2.40543,3.608138 -0.94492,1.358329 -2.10034,3.048267 -2.60588,4.677217 -0.47866,1.54237 -0.7657,3.3436 -1.469978,4.810853 -0.56813,1.1836 -1.478886,2.133682 -1.870888,3.407685 -0.281305,0.914244 -1.646663,6.50281 -2.138156,6.748555 -0.308147,0.154075 -0.7753,0.254016 -1.069078,0.400904"
       id="path1016"
       inkscape:connector-curvature="0" />
    <path
       style="opacity:1;fill:none;fill-opacity:1;stroke:#000000;stroke-width:0.46499997;stroke-miterlimit:4;stroke-dasharray:none;stroke-dashoffset:0;stroke-opacity:1"
       d="m 106.44009,55.054259 c -0.0223,0.267268 -0.17247,0.555296 -0.0668,0.801809 0.11804,0.275418 0.47635,0.371163 0.66817,0.601355 0.36661,0.439923 0.87276,1.375955 1.20272,1.870888 0.53273,0.799102 1.22364,1.648351 1.80407,2.405425 0.6019,0.785087 1.53613,1.44441 2.00452,2.338609 1.22342,2.335628 2.70216,4.602507 3.87541,6.949006 0.48211,0.964224 0.80201,2.038239 1.40316,2.939966 0.37614,0.564216 1.01345,1.08922 1.33635,1.670436 0.4317,0.777052 0.82769,1.565396 1.26953,2.338607 0.33882,0.592931 0.92382,1.257908 1.26953,1.603618 0.26252,0.262525 0.90659,0.331714 0.86863,0.334087 -0.37855,0.02365 -0.75727,0.04455 -1.1359,0.06682"
       id="path1018"
       inkscape:connector-curvature="0" />
    <path
       style="opacity:1;fill:none;fill-opacity:1;stroke:#000000;stroke-width:0.46499997;stroke-miterlimit:4;stroke-dasharray:none;stroke-dashoffset:0;stroke-opacity:1"
       d="m 65.748304,81.046221 c 4.455888,3.173637 9.107178,5.91054 14.165283,8.018084 5.811679,2.421533 10.309974,7.167621 16.036171,9.621705 5.087502,2.18036 19.469832,3.21744 24.856062,1.87088 2.1594,-0.53984 1.95644,-0.914414 4.27632,-1.069073 4.74094,-0.316061 8.74119,0.424677 11.22532,-4.543581 0.47558,-0.951161 1.95691,-0.973855 2.40542,-1.870888 0.76572,-1.531429 9.21897,-1.200882 10.15625,-2.138156 0.28791,-0.287911 1.22747,-0.425664 1.60361,-0.801809 0.71879,-0.718788 0.92952,-2.265862 1.60362,-2.939962 0.82159,-0.82159 3.65038,0.08447 2.40542,-2.405428"
       id="path1020"
       inkscape:connector-curvature="0" />
    <path
       style="opacity:1;fill:none;fill-opacity:1;stroke:#000000;stroke-width:0.46499997;stroke-miterlimit:4;stroke-dasharray:none;stroke-dashoffset:0;stroke-opacity:1"
       d="m 111.71866,44.964834 c -13.424225,-5.404237 -27.396559,-3.474093 -41.426775,0.53454 -7.890031,2.254295 -17.474768,3.987527 -21.916101,11.759859 -4.504243,7.882424 -2.101168,34.163608 5.078121,40.624968 8.703246,7.832919 20.931216,7.469509 32.072342,5.612659 1.170971,-0.19516 2.280422,-0.98448 3.741774,-0.80181 12.084079,1.51051 41.816459,4.68096 51.850289,1.33635 2.96022,-0.98674 6.09299,-2.54186 9.08716,-3.20723 3.58878,-0.79751 7.42985,-0.80931 10.69078,-2.6727 2.18939,-1.251074 2.0734,-3.301825 2.93997,-5.612659 3.45385,-9.210257 4.06227,-9.702678 1.33635,-19.243408 -0.47539,-1.663851 -1.40622,-3.852256 -2.93997,-4.81085 -4.7442,-2.965122 -10.47813,-5.452387 -16.03617,-5.87993 -4.20726,-0.323636 -8.27946,-0.646557 -11.75986,-2.138156 -4.70162,-2.01498 -8.48677,-6.114275 -12.82894,-8.285356 -1.33064,-0.665321 -2.46456,-2.999105 -3.4745,-4.009041 -1.5123,-1.512302 -4.20072,-2.469319 -6.41447,-3.207236 z"
       id="path1022"
       inkscape:connector-curvature="0" />
    <path
       style="opacity:1;fill:none;fill-opacity:1;stroke:#000000;stroke-width:0.46499997;stroke-miterlimit:4;stroke-dasharray:none;stroke-dashoffset:0;stroke-opacity:1"
       d="m 104.27901,157.10076 c 1.1068,0.75683 2.34571,1.0851 3.54132,1.73725 1.13466,0.61891 1.7738,1.84431 2.93996,2.47224 1.65813,0.89284 3.51175,1.00868 5.21176,1.73725 0.36419,0.15608 0.45537,0.52837 0.73499,0.66818"
       id="path1024"
       inkscape:connector-curvature="0" />
    <path
       style="opacity:1;fill:none;fill-opacity:1;stroke:#000000;stroke-width:0.46499997;stroke-miterlimit:4;stroke-dasharray:none;stroke-dashoffset:0;stroke-opacity:1"
       d="m 81.264881,167.73214 c 0.448776,-1.86281 2.023806,-3.21977 3.118302,-4.7247 0.959332,-1.31908 1.541434,-2.97361 2.456844,-4.34672 1.082405,-1.62361 2.178024,-3.37702 3.307292,-5.00819 1.170199,-1.69029 2.641275,-3.17522 3.874257,-4.8192 1.099359,-1.46581 1.945888,-3.11647 3.118305,-4.53571 0.563898,-0.68261 1.296847,-1.23095 1.889879,-1.88988 0.893614,-0.9929 1.53279,-2.0157 2.26786,-3.1183 0.75769,-1.13653 3.46864,-3.19898 4.63021,-3.77977 2.09166,3.24521 4.71176,6.1386 6.23661,9.73289 0.58527,1.37956 0.98935,2.88591 1.6064,4.25224 1.49945,3.32021 3.19382,6.67112 4.81919,9.92187 0.52697,1.05393 1.45666,1.93377 2.07887,2.92932 0.49738,0.7958 0.7991,1.76561 1.32292,2.55134 0.5914,0.8871 1.51337,1.47586 2.17336,2.26785 0.49805,0.59766 3.15472,4.41218 3.59078,4.63021 0.58371,0.29186 1.31736,0 1.88988,0"
       id="path1026"
       inkscape:connector-curvature="0" />
    <path
       style="opacity:1;fill:none;fill-opacity:1;stroke:#000000;stroke-width:0.46499997;stroke-miterlimit:4;stroke-dasharray:none;stroke-dashoffset:0;stroke-opacity:1"
       d="m 81.264881,167.73214 c 0.08554,0.36654 0.754168,-0.83499 1.228421,-0.75595 5.010729,0.83512 10.008793,1.88799 14.930059,3.11831 2.982619,0.74565 6.141829,0.6614 9.165929,1.22842 4.00786,0.75147 9.33418,1.79539 13.41815,1.79539 1.21707,0 9.63839,0.24827 9.6384,-1.32292"
       id="path1028"
       inkscape:connector-curvature="0" />
    <text
       xml:space="preserve"
       style="font-style:normal;font-weight:normal;font-size:3.17499995px;line-height:1.25;font-family:sans-serif;letter-spacing:0px;word-spacing:0px;fill:#000000;fill-opacity:1;stroke:none;stroke-width:0.26458332"
       x="97.045387"
       y="84.955353"
       id="text1032"><tspan
         sodipodi:role="line"
         id="tspan1030"
         x="97.045387"
         y="84.955353"
         style="stroke-width:0.26458332">d</tspan></text>
    <text
       xml:space="preserve"
       style="font-style:normal;font-weight:normal;font-size:3.17499995px;line-height:1.25;font-family:sans-serif;letter-spacing:0px;word-spacing:0px;fill:#000000;fill-opacity:1;stroke:none;stroke-width:0.26458332"
       x="61.610119"
       y="85.711311"
       id="text1036"><tspan
         sodipodi:role="line"
         id="tspan1034"
         x="61.610119"
         y="85.711311"
         style="stroke-width:0.26458332">a</tspan></text>
    <text
       xml:space="preserve"
       style="font-style:normal;font-weight:normal;font-size:3.17499995px;line-height:1.25;font-family:sans-serif;letter-spacing:0px;word-spacing:0px;fill:#000000;fill-opacity:1;stroke:none;stroke-width:0.26458332"
       x="124.25967"
       y="82.78199"
       id="text1040"><tspan
         sodipodi:role="line"
         id="tspan1038"
         x="124.25967"
         y="82.78199"
         style="stroke-width:0.26458332">c</tspan></text>
    <text
       xml:space="preserve"
       style="font-style:normal;font-weight:normal;font-size:3.17499995px;line-height:1.25;font-family:sans-serif;letter-spacing:0px;word-spacing:0px;fill:#000000;fill-opacity:1;stroke:none;stroke-width:0.26458332"
       x="107.43974"
       y="52.16592"
       id="text1044"><tspan
         sodipodi:role="line"
         id="tspan1042"
         x="107.43974"
         y="52.16592"
         style="stroke-width:0.26458332">b</tspan></text>
    <text
       xml:space="preserve"
       style="font-style:normal;font-weight:normal;font-size:3.17499995px;line-height:1.25;font-family:sans-serif;letter-spacing:0px;word-spacing:0px;fill:#000000;fill-opacity:1;stroke:none;stroke-width:0.26458332"
       x="154.87573"
       y="81.648056"
       id="text1048"><tspan
         sodipodi:role="line"
         id="tspan1046"
         x="154.87573"
         y="81.648056"
         style="stroke-width:0.26458332">e</tspan></text>
    <text
       xml:space="preserve"
       style="font-style:normal;font-weight:normal;font-size:3.17499995px;line-height:1.25;font-family:sans-serif;letter-spacing:0px;word-spacing:0px;fill:#000000;fill-opacity:1;stroke:none;stroke-width:0.26458332"
       x="107.43973"
       y="132.48586"
       id="text1052"><tspan
         sodipodi:role="line"
         id="tspan1050"
         x="107.43973"
         y="132.48586"
         style="stroke-width:0.26458332">5</tspan></text>
    <text
       xml:space="preserve"
       style="font-style:normal;font-weight:normal;font-size:3.17499995px;line-height:1.25;font-family:sans-serif;letter-spacing:0px;word-spacing:0px;fill:#000000;fill-opacity:1;stroke:none;stroke-width:0.26458332"
       x="103.56548"
       y="153.55803"
       id="text1056"><tspan
         sodipodi:role="line"
         id="tspan1054"
         x="103.56548"
         y="153.55803"
         style="stroke-width:0.26458332">1</tspan></text>
    <text
       xml:space="preserve"
       style="font-style:normal;font-weight:normal;font-size:3.17499995px;line-height:1.25;font-family:sans-serif;letter-spacing:0px;word-spacing:0px;fill:#000000;fill-opacity:1;stroke:none;stroke-width:0.26458332"
       x="114.33778"
       y="168.77158"
       id="text1060"><tspan
         sodipodi:role="line"
         id="tspan1058"
         x="114.33778"
         y="168.77158"
         style="stroke-width:0.26458332">2</tspan></text>
    <text
       xml:space="preserve"
       style="font-style:normal;font-weight:normal;font-size:3.17499995px;line-height:1.25;font-family:sans-serif;letter-spacing:0px;word-spacing:0px;fill:#000000;fill-opacity:1;stroke:none;stroke-width:0.26458332"
       x="132.76413"
       y="175.19716"
       id="text1064"><tspan
         sodipodi:role="line"
         id="tspan1062"
         x="132.76413"
         y="175.19716"
         style="stroke-width:0.26458332">4</tspan></text>
    <text
       xml:space="preserve"
       style="font-style:normal;font-weight:normal;font-size:3.17499995px;line-height:1.25;font-family:sans-serif;letter-spacing:0px;word-spacing:0px;fill:#000000;fill-opacity:1;stroke:none;stroke-width:0.26458332"
       x="76.918152"
       y="170.94493"
       id="text1068"><tspan
         sodipodi:role="line"
         id="tspan1066"
         x="76.918152"
         y="170.94493"
         style="stroke-width:0.26458332">3</tspan></text>
    <path
       style="opacity:1;fill:none;fill-opacity:1;stroke:#000000;stroke-width:0.46499997;stroke-miterlimit:4;stroke-dasharray:none;stroke-dashoffset:0;stroke-opacity:1"
       d="m 109.80208,127.47768 c -6.9309,0.50269 -15.464126,-1.20979 -21.922616,2.26785 -2.238322,1.20525 -8.731033,6.43907 -10.205357,8.31548 -5.326915,6.77971 -12.526513,21.94197 -13.985119,29.86012 -0.394054,2.13915 -3.31208,10.3447 0.188987,12.09524 4.51018,2.25509 9.794563,2.21965 14.741072,1.88988 3.558929,-0.23726 6.908758,0.0868 10.394344,-0.37798 4.737534,-0.63167 9.07329,-1.78369 13.796129,-2.07887 6.70239,-0.4189 13.30519,-0.18899 20.03274,-0.18899 1.59461,0 6.30036,1.48003 7.74851,0.75596 6.4294,-3.2147 9.49578,-1.38725 10.77232,-10.96131 0.88043,-6.60318 -6.57275,-17.4011 -10.77232,-22.3006 -1.79144,-2.09001 -4.35027,-3.82322 -5.85863,-6.23661 -2.06943,-3.31108 -3.59198,-6.96642 -6.80357,-9.26041 -2.50028,-1.78591 -6.78926,-2.44253 -8.12649,-3.77976 z"
       id="path1070"
       inkscape:connector-curvature="0" />
    <text
       xml:space="preserve"
       style="font-style:normal;font-weight:normal;font-size:3.17499995px;line-height:1.25;font-family:sans-serif;letter-spacing:0px;word-spacing:0px;fill:#000000;fill-opacity:1;stroke:none;stroke-width:0.26458332"
       x="129.89299"
       y="133.69832"
       id="text1074"><tspan
         sodipodi:role="line"
         id="tspan1072"
         x="129.89299"
         y="133.69832"
         style="stroke-width:0.26458332">$H$</tspan></text>
    <text
       xml:space="preserve"
       style="font-style:normal;font-weight:normal;font-size:3.17499995px;line-height:1.25;font-family:sans-serif;letter-spacing:0px;word-spacing:0px;fill:#000000;fill-opacity:1;stroke:none;stroke-width:0.26458332"
       x="21.515198"
       y="29.329569"
       id="text1078"><tspan
         sodipodi:role="line"
         id="tspan1076"
         x="21.515198"
         y="29.329569"
         style="stroke-width:0.26458332">G=(\{a,b,c,d,e\},\{\{a,e\},\{b,d\},\{b,c\},\{d,c\}\})</tspan></text>
    <text
       xml:space="preserve"
       style="font-style:normal;font-weight:normal;font-size:3.17499995px;line-height:1.25;font-family:sans-serif;letter-spacing:0px;word-spacing:0px;fill:#000000;fill-opacity:1;stroke:none;stroke-width:0.26458332"
       x="57.195675"
       y="200.9166"
       id="text1082"><tspan
         sodipodi:role="line"
         id="tspan1080"
         x="57.195675"
         y="200.9166"
         style="stroke-width:0.26458332">$H=([5],\{\{1,2\},\{3,4\},\{3,5\},\{4,5\}\})$</tspan></text>
    <text
       xml:space="preserve"
       style="font-style:normal;font-weight:normal;font-size:3.17499995px;line-height:1.25;font-family:sans-serif;letter-spacing:0px;word-spacing:0px;fill:#000000;fill-opacity:1;stroke:none;stroke-width:0.26458332"
       x="130.69479"
       y="47.503895"
       id="text1086"><tspan
         sodipodi:role="line"
         id="tspan1084"
         x="130.69479"
         y="47.503895"
         style="stroke-width:0.26458332">$G$</tspan></text>
    <text
       xml:space="preserve"
       style="font-style:normal;font-weight:normal;font-size:3.17499995px;line-height:1.25;font-family:sans-serif;letter-spacing:0px;word-spacing:0px;fill:#000000;fill-opacity:1;stroke:none;stroke-width:0.26458332"
       x="146.19644"
       y="117.66215"
       id="text1090"><tspan
         sodipodi:role="line"
         id="tspan1088"
         x="146.19644"
         y="117.66215"
         style="stroke-width:0.26458332">$H\neq G$</tspan></text>
    <path
       style="opacity:1;fill:none;fill-opacity:1;stroke:#000000;stroke-width:0.46499997;stroke-miterlimit:4;stroke-dasharray:none;stroke-dashoffset:0;stroke-opacity:1"
       d="m 141.18513,148.59859 c -3.74289,-0.1702 -9.66652,-2.05009 -13.29666,-0.46772 -0.21469,0.0936 -1.60888,1.06597 -1.93771,1.26953 -0.99144,0.61375 -2.04313,0.88571 -2.93996,1.67044 -0.64002,0.56001 -0.93087,1.32981 -1.40317,2.00452 -0.35961,0.51374 -0.94024,0.90803 -1.33635,1.40316 -0.49822,0.62279 -0.94624,1.37604 -1.46998,2.00453 -0.5063,0.60756 -2.60587,2.64806 -2.60587,3.34086"
       id="path1462"
       inkscape:connector-curvature="0" />
    <path
       style="opacity:1;fill:none;fill-opacity:1;stroke:#000000;stroke-width:0.46499997;stroke-miterlimit:4;stroke-dasharray:none;stroke-dashoffset:0;stroke-opacity:1"
       d="m 114.59181,157.88621 c 1.51681,1.85453 0.95815,2.72058 3.34087,0.73499"
       id="path1464"
       inkscape:connector-curvature="0" />
    <path
       style="opacity:1;fill:none;fill-opacity:1;stroke:#000000;stroke-width:0.46499997;stroke-miterlimit:4;stroke-dasharray:none;stroke-dashoffset:0;stroke-opacity:1"
       d="m 148.46822,166.3052 c -2.68718,-1.08158 -4.73142,-3.08708 -7.684,-3.54132 -0.67091,-0.10322 -1.25177,-0.30512 -1.9377,-0.13364 -0.72837,0.1821 -1.22867,0.65645 -1.87089,1.00227 -0.79186,0.42638 -1.71891,1.06688 -2.27179,1.80406 -0.45152,0.60203 -2.82982,4.22124 -3.0736,4.34313"
       id="path1466"
       inkscape:connector-curvature="0" />
    <path
       style="opacity:1;fill:none;fill-opacity:1;stroke:#000000;stroke-width:0.46499997;stroke-miterlimit:4;stroke-dasharray:none;stroke-dashoffset:0;stroke-opacity:1"
       d="m 131.16252,167.44109 c -0.0857,0.43152 -0.38558,3.54899 -0.26727,3.60814 0.16426,0.0821 0.39078,-0.19539 0.53454,-0.26727 0.91614,-0.45806 1.95005,-0.70775 2.80633,-1.13589"
       id="path1470"
       inkscape:connector-curvature="0" />
    <text
       xml:space="preserve"
       style="font-style:normal;font-weight:normal;font-size:3.17499995px;line-height:1.25;font-family:sans-serif;letter-spacing:0px;word-spacing:0px;fill:#000000;fill-opacity:1;stroke:none;stroke-width:0.26458332"
       x="142.92238"
       y="147.93042"
       id="text1474"><tspan
         sodipodi:role="line"
         id="tspan1472"
         x="142.92238"
         y="147.93042"
         style="stroke-width:0.26458332">Grado 1</tspan></text>
    <text
       xml:space="preserve"
       style="font-style:normal;font-weight:normal;font-size:3.17499995px;line-height:1.25;font-family:sans-serif;letter-spacing:0px;word-spacing:0px;fill:#000000;fill-opacity:1;stroke:none;stroke-width:0.26458332"
       x="151.00728"
       y="167.24065"
       id="text1478"><tspan
         sodipodi:role="line"
         id="tspan1476"
         x="151.00728"
         y="167.24065"
         style="stroke-width:0.26458332">Grado 2</tspan></text>
    <text
       xml:space="preserve"
       style="font-style:normal;font-weight:normal;font-size:3.17499995px;line-height:1.25;font-family:sans-serif;letter-spacing:0px;word-spacing:0px;fill:#000000;fill-opacity:1;stroke:none;stroke-width:0.26458332"
       x="33.450893"
       y="111.41369"
       id="text1482"><tspan
         sodipodi:role="line"
         id="tspan1480"
         x="33.450893"
         y="111.41369"
         style="stroke-width:0.26458332">$degseq(G)=(1,1,2,2,2)$</tspan></text>
    <text
       xml:space="preserve"
       style="font-style:normal;font-weight:normal;font-size:3.17499995px;line-height:1.25;font-family:sans-serif;letter-spacing:0px;word-spacing:0px;fill:#000000;fill-opacity:1;stroke:none;stroke-width:0.26458332"
       x="114.71577"
       y="185.11905"
       id="text1486"><tspan
         sodipodi:role="line"
         id="tspan1484"
         x="114.71577"
         y="185.11905"
         style="stroke-width:0.26458332">$degseq(H)=(1,1,2,2,2)$</tspan></text>
  </g>
</svg>
