<?xml version="1.0" encoding="UTF-8" standalone="no"?>
<!-- Created with Inkscape (http://www.inkscape.org/) -->

<svg
   xmlns:dc="http://purl.org/dc/elements/1.1/"
   xmlns:cc="http://creativecommons.org/ns#"
   xmlns:rdf="http://www.w3.org/1999/02/22-rdf-syntax-ns#"
   xmlns:svg="http://www.w3.org/2000/svg"
   xmlns="http://www.w3.org/2000/svg"
   xmlns:sodipodi="http://sodipodi.sourceforge.net/DTD/sodipodi-0.dtd"
   xmlns:inkscape="http://www.inkscape.org/namespaces/inkscape"
   width="210mm"
   height="297mm"
   viewBox="0 0 210 297"
   version="1.1"
   id="svg8"
   inkscape:version="0.92.4 5da689c313, 2019-01-14"
   sodipodi:docname="dibujo.svg">
  <defs
     id="defs2" />
  <sodipodi:namedview
     id="base"
     pagecolor="#ffffff"
     bordercolor="#666666"
     borderopacity="1.0"
     inkscape:pageopacity="0.0"
     inkscape:pageshadow="2"
     inkscape:zoom="3.959798"
     inkscape:cx="417.94802"
     inkscape:cy="534.17584"
     inkscape:document-units="mm"
     inkscape:current-layer="layer1"
     showgrid="false"
     inkscape:window-width="1366"
     inkscape:window-height="768"
     inkscape:window-x="0"
     inkscape:window-y="0"
     inkscape:window-maximized="0" />
  <metadata
     id="metadata5">
    <rdf:RDF>
      <cc:Work
         rdf:about="">
        <dc:format>image/svg+xml</dc:format>
        <dc:type
           rdf:resource="http://purl.org/dc/dcmitype/StillImage" />
        <dc:title />
      </cc:Work>
    </rdf:RDF>
  </metadata>
  <g
     inkscape:label="Capa 1"
     inkscape:groupmode="layer"
     id="layer1">
    <circle
       style="opacity:1;fill:#000000;fill-opacity:1;stroke:none;stroke-width:0.46499997;stroke-miterlimit:4;stroke-dasharray:none;stroke-dashoffset:0;stroke-opacity:1"
       id="path834"
       cx="80.737328"
       cy="139.16042"
       r="0.92131686" />
    <circle
       r="0.92131686"
       cy="136.32559"
       cx="59.098198"
       id="circle846"
       style="opacity:1;fill:#000000;fill-opacity:1;stroke:none;stroke-width:0.46499997;stroke-miterlimit:4;stroke-dasharray:none;stroke-dashoffset:0;stroke-opacity:1" />
    <circle
       style="opacity:1;fill:#000000;fill-opacity:1;stroke:none;stroke-width:0.46499997;stroke-miterlimit:4;stroke-dasharray:none;stroke-dashoffset:0;stroke-opacity:1"
       id="circle848"
       cx="63.728409"
       cy="108.82782"
       r="0.92131686" />
    <circle
       r="0.92131686"
       cy="100.60684"
       cx="82.532715"
       id="circle850"
       style="opacity:1;fill:#000000;fill-opacity:1;stroke:none;stroke-width:0.46499997;stroke-miterlimit:4;stroke-dasharray:none;stroke-dashoffset:0;stroke-opacity:1" />
    <circle
       style="opacity:1;fill:#000000;fill-opacity:1;stroke:none;stroke-width:0.46499997;stroke-miterlimit:4;stroke-dasharray:none;stroke-dashoffset:0;stroke-opacity:1"
       id="circle852"
       cx="124.49403"
       cy="84.169762"
       r="0.92131686" />
    <circle
       r="0.92131686"
       cy="109.42673"
       cx="120.88589"
       id="circle854"
       style="opacity:1;fill:#000000;fill-opacity:1;stroke:none;stroke-width:0.46499997;stroke-miterlimit:4;stroke-dasharray:none;stroke-dashoffset:0;stroke-opacity:1" />
    <circle
       style="opacity:1;fill:#000000;fill-opacity:1;stroke:none;stroke-width:0.46499997;stroke-miterlimit:4;stroke-dasharray:none;stroke-dashoffset:0;stroke-opacity:1"
       id="circle856"
       cx="150.82008"
       cy="95.662354"
       r="0.92131686" />
    <circle
       r="0.92131686"
       cy="77.354385"
       cx="97.499802"
       id="circle858"
       style="opacity:1;fill:#000000;fill-opacity:1;stroke:none;stroke-width:0.46499997;stroke-miterlimit:4;stroke-dasharray:none;stroke-dashoffset:0;stroke-opacity:1" />
    <path
       style="opacity:1;fill:none;fill-opacity:1;stroke:#000000;stroke-width:0.46499997;stroke-miterlimit:4;stroke-dasharray:none;stroke-dashoffset:0;stroke-opacity:1"
       d="m 59.267018,136.90555 c 0.764971,0.11837 1.673593,0.19328 2.405425,0.46772 3.781509,1.41807 7.891653,0.84447 11.826676,1.33635 0.565674,0.0707 3.236336,0.215 3.474503,0.33409 0.457724,0.22886 0.959371,0.34007 1.469983,0.46772 0.568857,0.14221 1.726184,-0.20045 2.405427,-0.20045"
       id="path860"
       inkscape:connector-curvature="0" />
    <path
       style="opacity:1;fill:none;fill-opacity:1;stroke:#000000;stroke-width:0.46499997;stroke-miterlimit:4;stroke-dasharray:none;stroke-dashoffset:0;stroke-opacity:1"
       d="m 59.267018,136.90555 c -0.37642,-0.72187 -0.511829,-0.85303 -0.302734,-1.58487 0.532572,-1.86399 0.91299,-3.99934 1.795389,-5.76413 0.82319,-1.64638 0.50257,-3.99466 0.94494,-5.76414 0.439735,-1.75895 0.816507,-3.69724 1.039435,-5.48066 0.176963,-1.41571 0.134371,-3.19805 0.755951,-4.44122 0.497388,-0.99477 -0.661572,-2.26763 -0.188989,-3.21279 0.264247,-0.52849 0.377978,-1.24017 0.377978,-1.88989 1.968245,2.81864 3.264398,6.14734 5.386161,8.69346 0.821103,0.98532 1.927825,1.75781 2.645833,2.83482 0.65735,0.98603 0.988333,2.11395 1.606399,3.1183 0.531112,0.86306 1.299537,1.52035 1.700893,2.45685 0.319797,0.74619 0.343234,1.71432 0.661458,2.45684 0.40145,0.93672 1.122921,1.45473 1.511905,2.36236 0.373879,0.87238 0.746814,3.29815 1.322917,3.87425 0.295936,0.29594 0.797488,0.51401 1.039434,0.75595 0.157765,0.15777 0.356858,0.64034 0.566965,0.85045 0.03039,0.0304 0.357719,2.55367 0.718079,3.13985"
       id="path862"
       inkscape:connector-curvature="0" />
    <path
       style="opacity:1;fill:none;fill-opacity:1;stroke:#000000;stroke-width:0.46499997;stroke-miterlimit:4;stroke-dasharray:none;stroke-dashoffset:0;stroke-opacity:1"
       d="m 97.517856,78.151785 c 1.347319,0.426569 2.767684,0.368385 4.157734,0.566963 2.32068,0.331525 4.69316,0.319815 6.99256,0.850447 1.48018,0.341577 2.65112,1.183817 3.87426,1.795386 2.14899,1.074494 8.61727,2.362353 11.1503,2.362353"
       id="path864"
       inkscape:connector-curvature="0" />
    <path
       style="opacity:1;fill:none;fill-opacity:1;stroke:#000000;stroke-width:0.46499997;stroke-miterlimit:4;stroke-dasharray:none;stroke-dashoffset:0;stroke-opacity:1"
       d="m 123.69271,83.726932 c 0.18899,0.188989 0.51096,0.305628 0.56696,0.566965 0.10906,0.508926 -1.1502,3.542588 -1.32291,4.535715 -0.3758,2.160817 -0.6318,4.431871 -1.22843,6.52009 -0.34756,1.216477 -0.78401,2.346854 -1.03943,3.496278 -0.15697,0.706369 -0.10729,1.46858 -0.28348,2.17336 -0.81471,3.25882 -2.76898,6.64751 0.94494,8.50447"
       id="path866"
       inkscape:connector-curvature="0" />
    <path
       style="opacity:1;fill:none;fill-opacity:1;stroke:#000000;stroke-width:0.46499997;stroke-miterlimit:4;stroke-dasharray:none;stroke-dashoffset:0;stroke-opacity:1"
       d="m 123.69271,83.726932 c 1.29438,0.658553 2.69883,1.465958 4.15774,1.795388 1.34157,0.302935 2.84971,0.454433 4.15773,0.944941 2.42255,0.908452 4.47355,2.555208 6.80357,3.590774 1.59487,0.708827 3.18502,1.163209 4.72471,1.984375 0.59381,0.316701 1.07295,1.208096 1.70089,1.41741 0.46969,0.156565 1.16827,0.158914 1.6064,0.377976 1.42391,0.711957 2.25571,1.322917 3.87425,1.322917"
       id="path868"
       inkscape:connector-curvature="0" />
    <text
       xml:space="preserve"
       style="font-style:normal;font-weight:normal;font-size:3.17499995px;line-height:1.25;font-family:sans-serif;letter-spacing:0px;word-spacing:0px;fill:#000000;fill-opacity:1;stroke:none;stroke-width:0.26458332"
       x="56.885414"
       y="140.23436"
       id="text872"><tspan
         sodipodi:role="line"
         id="tspan870"
         x="56.885414"
         y="140.23436"
         style="stroke-width:0.26458332">$1$</tspan></text>
    <text
       xml:space="preserve"
       style="font-style:normal;font-weight:normal;font-size:3.17499995px;line-height:1.25;font-family:sans-serif;letter-spacing:0px;word-spacing:0px;fill:#000000;fill-opacity:1;stroke:none;stroke-width:0.26458332"
       x="80.225449"
       y="143.25818"
       id="text876"><tspan
         sodipodi:role="line"
         id="tspan874"
         x="80.225449"
         y="143.25818"
         style="stroke-width:0.26458332">$2$</tspan></text>
    <text
       xml:space="preserve"
       style="font-style:normal;font-weight:normal;font-size:3.17499995px;line-height:1.25;font-family:sans-serif;letter-spacing:0px;word-spacing:0px;fill:#000000;fill-opacity:1;stroke:none;stroke-width:0.26458332"
       x="64.728424"
       y="105.64955"
       id="text880"><tspan
         sodipodi:role="line"
         id="tspan878"
         x="64.728424"
         y="105.64955"
         style="stroke-width:0.26458332">$8$</tspan></text>
    <text
       xml:space="preserve"
       style="font-style:normal;font-weight:normal;font-size:3.17499995px;line-height:1.25;font-family:sans-serif;letter-spacing:0px;word-spacing:0px;fill:#000000;fill-opacity:1;stroke:none;stroke-width:0.26458332"
       x="81.831841"
       y="96.294647"
       id="text884"><tspan
         sodipodi:role="line"
         id="tspan882"
         x="81.831841"
         y="96.294647"
         style="stroke-width:0.26458332">$6$</tspan></text>
    <text
       xml:space="preserve"
       style="font-style:normal;font-weight:normal;font-size:3.17499995px;line-height:1.25;font-family:sans-serif;letter-spacing:0px;word-spacing:0px;fill:#000000;fill-opacity:1;stroke:none;stroke-width:0.26458332"
       x="120.85788"
       y="114.2485"
       id="text888"><tspan
         sodipodi:role="line"
         id="tspan886"
         x="120.85788"
         y="114.2485"
         style="stroke-width:0.26458332">$5$</tspan></text>
    <text
       xml:space="preserve"
       style="font-style:normal;font-weight:normal;font-size:3.17499995px;line-height:1.25;font-family:sans-serif;letter-spacing:0px;word-spacing:0px;fill:#000000;fill-opacity:1;stroke:none;stroke-width:0.26458332"
       x="96.289429"
       y="72.009666"
       id="text892"><tspan
         sodipodi:role="line"
         id="tspan890"
         x="96.289429"
         y="72.009666"
         style="stroke-width:0.26458332">$3$</tspan></text>
    <text
       xml:space="preserve"
       style="font-style:normal;font-weight:normal;font-size:3.17499995px;line-height:1.25;font-family:sans-serif;letter-spacing:0px;word-spacing:0px;fill:#000000;fill-opacity:1;stroke:none;stroke-width:0.26458332"
       x="124.63765"
       y="80.419647"
       id="text896"><tspan
         sodipodi:role="line"
         id="tspan894"
         x="124.63765"
         y="80.419647"
         style="stroke-width:0.26458332">$4$</tspan></text>
    <text
       xml:space="preserve"
       style="font-style:normal;font-weight:normal;font-size:3.17499995px;line-height:1.25;font-family:sans-serif;letter-spacing:0px;word-spacing:0px;fill:#000000;fill-opacity:1;stroke:none;stroke-width:0.26458332"
       x="150.52902"
       y="90.71949"
       id="text900"><tspan
         sodipodi:role="line"
         id="tspan898"
         x="150.52902"
         y="90.71949"
         style="stroke-width:0.26458332">$7$</tspan></text>
    <path
       style="opacity:1;fill:none;fill-opacity:1;stroke:#000000;stroke-width:0.46499997;stroke-miterlimit:4;stroke-dasharray:none;stroke-dashoffset:0;stroke-opacity:1"
       d="m 94.305058,63.599702 c -5.26157,-0.726575 -8.332859,2.697488 -12.662202,5.102678 -3.173669,1.763148 -6.541648,3.196989 -9.638392,5.10268 -3.31135,2.037752 -5.345972,4.952788 -8.126489,7.559521 -1.724517,1.616736 -3.871211,2.811312 -5.480653,4.535715 -11.697346,12.532868 -14.311389,30.462774 -12.284228,46.680054 0.763606,6.10884 1.319746,12.47163 7.370537,15.49703 4.753845,2.37692 19.688495,2.59015 24.757441,1.32292 0.764148,-0.19104 1.661765,-0.86891 2.456844,-1.13393 0.649964,-0.21666 1.693299,-0.1814 2.078868,-0.56697 0.825738,-0.82574 6.387589,-0.54162 8.126489,-1.70089 3.169597,-2.11307 6.373543,-5.00498 9.638397,-7.18155 1.64866,-1.09911 2.62283,-2.82332 4.53571,-3.77976 0.93942,-0.46971 2.81991,-0.73224 3.77976,-1.32292 1.25043,-0.76949 2.34845,-2.15418 3.59078,-3.0238 2.65563,-1.85895 7.93233,-3.89595 11.15029,-5.10268 1.201,-0.45038 2.72056,-0.50632 3.96875,-0.75596 3.58378,-0.71675 6.55335,-2.68468 9.6384,-4.53571 1.55075,-0.93045 3.31067,-1.13663 4.7247,-2.26786 1.61713,-1.29371 1.84679,-2.79173 3.2128,-4.15774 1.80458,-1.80458 4.68049,-3.53552 6.2366,-5.48065 4.50083,-5.62603 6.00086,-13.135643 9.07143,-19.276786 1.86788,-3.735766 -3.67663,-5.085408 -4.53571,-6.803572 -0.94481,-1.88962 -9.94769,-6.754191 -12.09524,-7.559524 -3.24156,-1.215583 -6.55323,-1.51261 -9.63839,-2.83482 -7.20148,-3.086346 -13.19497,-7.9375 -21.35566,-7.9375 -1.6811,0 -10.31417,-0.607049 -11.52827,0 -1.24383,0.621914 -4.806424,1.754526 -6.425597,0.944941 -0.741725,-0.370864 -1.017204,-0.422437 -0.566965,-1.322917 z"
       id="path904"
       inkscape:connector-curvature="0" />
    <path
       style="opacity:1;fill:none;fill-opacity:1;stroke:#000000;stroke-width:0.46499997;stroke-miterlimit:4;stroke-dasharray:none;stroke-dashoffset:0;stroke-opacity:1"
       d="m 153.08036,84.293897 c -1.65997,0.244544 -2.64303,1.746737 -4.06325,2.456847 -0.45613,0.228062 -1.26556,0.276743 -1.70089,0.566962 -1.04032,0.693547 -0.39333,2.612173 0.28348,3.401787 0.49138,0.573276 0.97567,1.432772 1.70089,1.795386 1.91941,0.959702 4.62828,0.520039 6.61459,0.188989 0.7034,-0.117234 1.88307,-0.931336 2.26785,-1.700892 1.31473,-2.629461 1.5087,-2.868462 -1.41741,-4.819198 -0.66504,-0.443364 -0.98831,-1.460788 -1.41741,-1.889881 -0.22318,-0.223176 -1.98504,0 -2.26785,0 z"
       id="path906"
       inkscape:connector-curvature="0" />
    <path
       style="opacity:1;fill:none;fill-opacity:1;stroke:#000000;stroke-width:0.46499997;stroke-miterlimit:4;stroke-dasharray:none;stroke-dashoffset:0;stroke-opacity:1"
       d="m 166.02604,73.710564 c -2.43019,1.242703 -4.6373,2.816513 -6.80357,4.441221 -0.59932,0.449488 -1.02965,1.407626 -1.51191,1.889879 -0.43245,0.432456 -0.50388,1.291254 -0.75595,1.795389"
       id="path908"
       inkscape:connector-curvature="0" />
    <path
       style="opacity:1;fill:none;fill-opacity:1;stroke:#000000;stroke-width:0.46499997;stroke-miterlimit:4;stroke-dasharray:none;stroke-dashoffset:0;stroke-opacity:1"
       d="m 156.86012,78.529761 c -0.10761,1.129649 -0.0945,2.264151 -0.0945,3.401785 0,0.251984 -0.17818,0.934133 0,0.755952 1.15174,-1.151737 1.69865,-1.952128 3.2128,-2.456844"
       id="path910"
       inkscape:connector-curvature="0" />
    <text
       xml:space="preserve"
       style="font-style:normal;font-weight:normal;font-size:3.17499995px;line-height:1.25;font-family:sans-serif;letter-spacing:0px;word-spacing:0px;fill:#000000;fill-opacity:1;stroke:none;stroke-width:0.26458332"
       x="164.77165"
       y="70.088173"
       id="text914"><tspan
         sodipodi:role="line"
         id="tspan912"
         x="164.77165"
         y="70.088173"
         style="stroke-width:0.26458332">Etiqueta</tspan></text>
    <path
       style="opacity:1;fill:none;fill-opacity:1;stroke:#000000;stroke-width:0.46499997;stroke-miterlimit:4;stroke-dasharray:none;stroke-dashoffset:0;stroke-opacity:1"
       d="m 54.389347,80.31123 c 0.111364,0.06682 0.245264,0.105709 0.334087,0.200453 0.534308,0.569926 0.643824,0.970976 1.202714,1.469983 0.804357,0.718177 1.765279,1.253498 2.539061,2.00452 0.396991,0.385316 0.657336,0.90002 1.069078,1.269532 0.664871,0.59668 1.82712,1.218078 2.605878,1.737252 1.645357,1.096904 3.135151,2.307669 4.677214,3.54132 0.549982,0.439984 1.221767,0.722779 1.737255,1.202714 0.58294,0.528474 0.959289,1.26506 1.536797,1.80407 0.77905,0.727112 1.752399,1.006178 2.605879,1.603615 0.598898,0.41923 1.291381,0.922417 1.870887,1.336347 1.090099,0.778643 1.936589,1.903738 3.073599,2.472243"
       id="path855"
       inkscape:connector-curvature="0" />
    <path
       style="opacity:1;fill:none;fill-opacity:1;stroke:#000000;stroke-width:0.46499997;stroke-miterlimit:4;stroke-dasharray:none;stroke-dashoffset:0;stroke-opacity:1"
       d="m 72.964579,98.418741 c 1.172869,-0.04618 4.285514,1.498791 5.412208,0.935443 0.448339,-0.224169 -0.680768,-5.10331 -0.935442,-5.612659"
       id="path859"
       inkscape:connector-curvature="0" />
    <text
       xml:space="preserve"
       style="font-style:normal;font-weight:normal;font-size:3.17499995px;line-height:1.25;font-family:sans-serif;letter-spacing:0px;word-spacing:0px;fill:#000000;fill-opacity:1;stroke:none;stroke-width:0.26458332"
       x="42.429035"
       y="77.571716"
       id="text863"><tspan
         sodipodi:role="line"
         id="tspan861"
         x="42.429035"
         y="77.571716"
         style="stroke-width:0.26458332">Grado 0</tspan></text>
    <text
       xml:space="preserve"
       style="font-style:normal;font-weight:normal;font-size:3.17499995px;line-height:1.25;font-family:sans-serif;letter-spacing:0px;word-spacing:0px;fill:#000000;fill-opacity:1;stroke:none;stroke-width:0.26458332"
       x="88.265762"
       y="152.74127"
       id="text1490"><tspan
         sodipodi:role="line"
         id="tspan1488"
         x="88.265762"
         y="152.74127"
         style="stroke-width:0.26458332">Secuencia de grados</tspan></text>
    <text
       xml:space="preserve"
       style="font-style:normal;font-weight:normal;font-size:3.17499995px;line-height:1.25;font-family:sans-serif;letter-spacing:0px;word-spacing:0px;fill:#000000;fill-opacity:1;stroke:none;stroke-width:0.26458332"
       x="88.132126"
       y="160.35846"
       id="text1494"><tspan
         sodipodi:role="line"
         id="tspan1492"
         x="88.132126"
         y="160.35846"
         style="stroke-width:0.26458332">$degseq(G)=(0,1,1,1,2,2,2,3)$</tspan></text>
  </g>
</svg>
