<?xml version="1.0" encoding="UTF-8" standalone="no"?>
<!-- Created with Inkscape (http://www.inkscape.org/) -->

<svg
   xmlns:dc="http://purl.org/dc/elements/1.1/"
   xmlns:cc="http://creativecommons.org/ns#"
   xmlns:rdf="http://www.w3.org/1999/02/22-rdf-syntax-ns#"
   xmlns:svg="http://www.w3.org/2000/svg"
   xmlns="http://www.w3.org/2000/svg"
   xmlns:sodipodi="http://sodipodi.sourceforge.net/DTD/sodipodi-0.dtd"
   xmlns:inkscape="http://www.inkscape.org/namespaces/inkscape"
   width="210mm"
   height="297mm"
   viewBox="0 0 210 297"
   version="1.1"
   id="svg8"
   inkscape:version="0.92.4 5da689c313, 2019-01-14"
   sodipodi:docname="dibujo2.svg">
  <defs
     id="defs2" />
  <sodipodi:namedview
     id="base"
     pagecolor="#ffffff"
     bordercolor="#666666"
     borderopacity="1.0"
     inkscape:pageopacity="0.0"
     inkscape:pageshadow="2"
     inkscape:zoom="1.4"
     inkscape:cx="449.22778"
     inkscape:cy="771.05136"
     inkscape:document-units="mm"
     inkscape:current-layer="layer1"
     showgrid="false"
     inkscape:snap-intersection-paths="false"
     inkscape:object-paths="true"
     inkscape:object-nodes="false"
     inkscape:snap-bbox="true"
     inkscape:snap-bbox-edge-midpoints="true"
     inkscape:bbox-paths="false"
     inkscape:window-width="1366"
     inkscape:window-height="768"
     inkscape:window-x="0"
     inkscape:window-y="0"
     inkscape:window-maximized="0" />
  <metadata
     id="metadata5">
    <rdf:RDF>
      <cc:Work
         rdf:about="">
        <dc:format>image/svg+xml</dc:format>
        <dc:type
           rdf:resource="http://purl.org/dc/dcmitype/StillImage" />
        <dc:title></dc:title>
      </cc:Work>
    </rdf:RDF>
  </metadata>
  <g
     inkscape:label="Capa 1"
     inkscape:groupmode="layer"
     id="layer1">
    <circle
       style="opacity:1;fill:none;fill-opacity:1;stroke:#000000;stroke-width:0.26499999;stroke-miterlimit:4;stroke-dasharray:none;stroke-dashoffset:0;stroke-opacity:1"
       id="path815"
       cx="105.3042"
       cy="55.388348"
       r="7.3499117" />
    <circle
       r="7.3499117"
       cy="78.106255"
       cx="105.3042"
       id="circle819"
       style="opacity:1;fill:none;fill-opacity:1;stroke:#000000;stroke-width:0.26499999;stroke-miterlimit:4;stroke-dasharray:none;stroke-dashoffset:0;stroke-opacity:1" />
    <path
       style="fill:none;stroke:#000000;stroke-width:0.26458332px;stroke-linecap:butt;stroke-linejoin:miter;stroke-opacity:1"
       d="m 105.04646,70.760862 -0.12857,-8.032763"
       id="path870"
       inkscape:connector-curvature="0" />
    <text
       xml:space="preserve"
       style="font-style:normal;font-weight:normal;font-size:10.58333302px;line-height:1.25;font-family:sans-serif;letter-spacing:0px;word-spacing:0px;fill:#000000;fill-opacity:1;stroke:none;stroke-width:0.26458332"
       x="102.3242"
       y="56.644638"
       id="text874"><tspan
         sodipodi:role="line"
         id="tspan872"
         x="102.3242"
         y="56.644638"
         style="font-size:3.17499995px;text-align:start;text-anchor:start;stroke-width:0.26458332">$8$</tspan></text>
    <text
       id="text899"
       y="78.850739"
       x="102.3242"
       style="font-style:normal;font-weight:normal;font-size:10.58333302px;line-height:1.25;font-family:sans-serif;letter-spacing:0px;word-spacing:0px;fill:#000000;fill-opacity:1;stroke:none;stroke-width:0.26458332"
       xml:space="preserve"><tspan
         style="font-size:3.17499995px;text-align:start;text-anchor:start;stroke-width:0.26458332"
         y="78.850739"
         x="102.3242"
         id="tspan897"
         sodipodi:role="line">$4$</tspan></text>
    <text
       id="text931"
       y="54.754761"
       x="113.6635"
       style="font-style:normal;font-weight:normal;font-size:10.58333302px;line-height:1.25;font-family:sans-serif;letter-spacing:0px;word-spacing:0px;fill:#ff0000;fill-opacity:1;stroke:none;stroke-width:0.26458332;"
       xml:space="preserve"><tspan
         style="font-size:3.17499995px;text-align:start;text-anchor:start;stroke-width:0.26458332;fill:#ff0000;fill-opacity:1;"
         y="54.754761"
         x="113.6635"
         id="tspan929"
         sodipodi:role="line">$\top$</tspan></text>
    <circle
       style="opacity:1;fill:none;fill-opacity:1;stroke:#000000;stroke-width:0.26499999;stroke-miterlimit:4;stroke-dasharray:none;stroke-dashoffset:0;stroke-opacity:1"
       id="circle952"
       cx="105.3042"
       cy="101.09143"
       r="7.3499117" />
    <text
       xml:space="preserve"
       style="font-style:normal;font-weight:normal;font-size:10.58333302px;line-height:1.25;font-family:sans-serif;letter-spacing:0px;word-spacing:0px;fill:#000000;fill-opacity:1;stroke:none;stroke-width:0.26458332"
       x="102.3242"
       y="101.83591"
       id="text956"><tspan
         sodipodi:role="line"
         id="tspan954"
         x="102.3242"
         y="101.83591"
         style="font-size:3.17499995px;text-align:start;text-anchor:start;stroke-width:0.26458332">$2$</tspan></text>
    <circle
       r="7.3499117"
       cy="125.94749"
       cx="105.3042"
       id="circle958"
       style="opacity:1;fill:none;fill-opacity:1;stroke:#000000;stroke-width:0.26499999;stroke-miterlimit:4;stroke-dasharray:none;stroke-dashoffset:0;stroke-opacity:1" />
    <text
       id="text962"
       y="126.69197"
       x="102.3242"
       style="font-style:normal;font-weight:normal;font-size:10.58333302px;line-height:1.25;font-family:sans-serif;letter-spacing:0px;word-spacing:0px;fill:#000000;fill-opacity:1;stroke:none;stroke-width:0.26458332"
       xml:space="preserve"><tspan
         style="font-size:3.17499995px;text-align:start;text-anchor:start;stroke-width:0.26458332"
         y="126.69197"
         x="102.3242"
         id="tspan960"
         sodipodi:role="line">$1$</tspan></text>
    <path
       style="fill:none;stroke:#000000;stroke-width:0.26458332px;stroke-linecap:butt;stroke-linejoin:miter;stroke-opacity:1"
       d="M 105.30419,93.741517 105.10011,85.45333"
       id="path966"
       inkscape:connector-curvature="0" />
    <path
       style="fill:none;stroke:#000000;stroke-width:0.26458332px;stroke-linecap:butt;stroke-linejoin:miter;stroke-opacity:1"
       d="m 106.27559,118.66205 -0.70907,-10.22539"
       id="path968"
       inkscape:connector-curvature="0" />
    <path
       style="opacity:1;fill:#000000;fill-opacity:1;stroke:none;stroke-width:0.26499999;stroke-miterlimit:4;stroke-dasharray:none;stroke-dashoffset:0;stroke-opacity:1"
       id="path974"
       d="m 141.02527,92.691663 c -0.51662,-0.179374 -1.05004,0.01291 -1.5698,-0.01402 -0.23413,-0.01212 -0.45452,-0.127415 -0.68834,-0.144412 -0.35406,-0.02574 -0.70987,0.02109 -1.06484,0.01699 -0.38735,-0.0045 -0.77422,-0.02856 -1.16133,-0.04284 -0.45393,-0.0028 -0.9084,0.01402 -1.36179,-0.0083 -0.43483,-0.0214 -0.86514,-0.10931 -1.30029,-0.122758 -0.53117,-0.0164 -1.06254,0.04016 -1.59392,0.03331 -0.49482,-0.0064 -0.98809,-0.05985 -1.48277,-0.07299 -2.8252,-0.07503 -0.36832,0.09403 -3.02192,-0.129506 -0.49599,-0.02845 -0.99198,-0.0569 -1.48797,-0.08536 -0.54711,0.01913 -1.0945,0.08308 -1.64134,0.05736 -0.42047,-0.01976 -0.82816,-0.161861 -1.24791,-0.193228 -0.47585,-0.03555 -0.95462,0.0096 -1.4315,-0.007 -4.03624,-0.140634 1.61247,-0.05461 -2.46851,-0.09915 -0.28998,-0.0693 -0.5733,-0.177995 -0.86994,-0.207896 -0.35577,-0.03586 -0.7151,0.01625 -1.07265,0.01209 -0.30306,-0.0035 -0.60559,-0.02724 -0.90857,-0.03499 -0.0259,-5.29e-4 -1.55204,-0.01667 -1.62731,-0.02323 -0.19133,-0.01669 -0.37784,-0.06916 -0.56676,-0.103743 -0.81929,-0.09269 -1.63952,-0.01183 -2.45802,-0.129505 0,0 1.54693,-1.114947 1.54693,-1.114947 v 0 c 0.1261,0.0099 0.25221,0.01992 0.37831,0.02987 0.0998,0.0427 0.19246,0.109905 0.29951,0.128085 0.57147,0.09704 1.14378,-0.175194 1.70679,0.02847 0.43305,0.04064 0.8629,0.112377 1.29626,0.149543 0.27202,0.02334 0.5469,0.0065 0.81822,0.0369 0.25664,0.02879 0.50421,0.123555 0.76191,0.140374 0.36045,0.02352 0.72318,-0.04585 1.08346,-0.01992 0.31372,0.02257 0.6194,0.109837 0.9291,0.164756 1.28532,0.05298 2.57121,0.08202 3.85652,0.135046 1.48173,0.06114 1.36819,0.06288 2.85136,0.16092 0.51604,0.0232 1.03279,0.02633 1.54918,0.03948 0.51907,0.01095 1.03814,0.02193 1.55721,0.03289 0.4811,0.03728 0.96096,0.09824 1.44332,0.111831 0.53995,0.01521 1.08017,-0.03098 1.62031,-0.02553 1.40204,0.01415 2.80014,0.174525 4.20353,0.133834 0.39858,0.0055 0.79716,0.01101 1.19573,0.01651 0.29783,0.03593 0.59372,0.09627 0.89348,0.107789 0.31359,0.01204 0.62704,-0.02796 0.94072,-0.0373 0.56838,-0.01693 1.14635,0.02818 1.70628,-0.09111 0,0 -1.61265,1.171662 -1.61265,1.171662 z"
       inkscape:connector-curvature="0" />
    <path
       style="opacity:1;fill:#000000;fill-opacity:1;stroke:none;stroke-width:0.26499999;stroke-miterlimit:4;stroke-dasharray:none;stroke-dashoffset:0;stroke-opacity:1"
       id="path976"
       d="m 117.09516,88.231746 c -0.0955,0.03077 -0.18353,0.08284 -0.27977,0.111358 -0.41607,0.123306 0.21549,-0.141732 -0.41985,0.121425 -0.60856,0.252061 -0.1964,0.136012 -0.69454,0.253111 -0.1178,0.05122 -0.78191,0.343599 -0.91945,0.389864 -0.0932,0.03135 -0.19812,0.02357 -0.28806,0.06328 -0.23262,0.102704 -0.44382,0.248897 -0.67222,0.360678 -0.3225,0.157829 -0.45558,0.190934 -0.77045,0.292639 -0.77273,0.398222 -1.54161,0.803924 -2.32437,1.181913 0.42519,-0.238953 0.85039,-0.477904 1.27558,-0.716857 -0.0862,0.05077 -0.17641,0.0953 -0.25864,0.152294 -0.0305,0.02114 -0.0462,0.05974 -0.077,0.08037 -0.096,0.06417 -0.20774,0.103449 -0.30055,0.1721 -0.0226,0.0167 -0.0205,0.05264 -0.0355,0.07643 -0.0235,0.03749 -0.0528,0.07098 -0.0793,0.106476 0.007,0.02283 0.014,0.04565 0.0209,0.06847 -0.0105,0.0414 -0.0395,0.08227 -0.0314,0.124214 0.018,0.0937 0.17745,0.126137 0.22638,0.162758 0.0468,0.03504 0.0703,0.09673 0.11938,0.128564 0.0702,0.04552 0.15383,0.06572 0.23074,0.09858 0.0851,0.04151 0.16467,0.09728 0.25537,0.124523 0.12576,0.03777 0.26932,0.01228 0.38789,0.06869 0.964,0.458753 -0.60418,-0.0089 0.52283,0.432633 0.66861,0.140944 0.3519,0.0408 0.95283,0.29182 0.15225,0.06909 0.31078,0.125759 0.45677,0.207264 0.95084,0.530855 -0.1721,0.0313 0.88254,0.510984 0.16733,0.07611 0.33838,0.143862 0.5092,0.211794 0.17173,0.06829 0.35857,0.103894 0.51831,0.196829 0.13113,0.07629 0.22667,0.201686 0.34001,0.30253 0.16868,0.06063 0.33735,0.121266 0.50603,0.181901 0.099,0.09522 0.17567,0.221107 0.29687,0.285673 0.15121,0.08054 0.33453,0.07786 0.49553,0.136424 0.19318,0.07027 0.50815,0.254051 0.69288,0.356931 0,0 -1.46123,0.968979 -1.46123,0.968979 v 0 c -0.37948,-0.132387 -0.85964,-0.284129 -1.20231,-0.491443 -0.12098,-0.0732 -0.20185,-0.20665 -0.32984,-0.266766 -0.17368,-0.08157 -0.37063,-0.09951 -0.55595,-0.14927 -1.0041,-0.829556 0.41085,0.269962 -0.88964,-0.478396 -0.13555,-0.078 -0.20609,-0.244644 -0.34317,-0.319921 -0.17249,-0.09472 -0.37772,-0.111339 -0.56298,-0.177675 -0.48928,-0.175199 -0.48871,-0.195808 -0.92383,-0.433935 -0.13706,-0.0676 -0.27117,-0.141568 -0.41119,-0.202806 -0.13902,-0.0608 -0.29374,-0.08685 -0.42503,-0.162909 -0.10084,-0.05843 -0.15965,-0.17444 -0.25989,-0.233908 -0.33289,-0.197496 -0.72062,-0.105079 -1.04613,-0.311065 -0.45559,-0.611955 0.31322,0.326649 -0.46873,-0.213725 -0.0591,-0.04085 0.004,-0.14768 -0.0228,-0.214342 -0.13341,-0.331756 -0.52671,-0.03349 -0.0635,-0.487103 -0.0156,-0.03641 -0.0472,-0.06963 -0.0468,-0.109233 10e-4,-0.137018 0.479,-0.438571 0.598,-0.507937 0.62731,-0.365681 1.26085,-0.720585 1.89127,-1.080876 0.54431,-0.236175 -0.15596,0.0765 0.64516,-0.329456 0.5233,-0.265176 1.06606,-0.496507 1.58656,-0.768586 0.89666,-0.334968 -0.28519,0.121817 0.95932,-0.435099 0.13007,-0.05821 0.27148,-0.08848 0.4016,-0.146593 0.19953,-0.08912 0.38503,-0.208049 0.58578,-0.294412 0.25142,-0.108164 0.53612,-0.127003 0.77607,-0.268192 0.54102,-0.196736 1.0854,-0.387607 1.59697,-0.653018 0,0 -1.56674,1.232016 -1.56674,1.232016 z"
       inkscape:connector-curvature="0" />
    <text
       xml:space="preserve"
       style="font-style:normal;font-weight:normal;font-size:10.58333302px;line-height:1.25;font-family:sans-serif;letter-spacing:0px;word-spacing:0px;fill:#ff0000;fill-opacity:1;stroke:none;stroke-width:0.26458332;"
       x="113.6635"
       y="126.94821"
       id="text980"><tspan
         sodipodi:role="line"
         id="tspan978"
         x="113.6635"
         y="126.94821"
         style="font-size:3.17499995px;text-align:start;text-anchor:start;stroke-width:0.26458332;fill:#ff0000;fill-opacity:1;">$\bot$</tspan></text>
    <text
       xml:space="preserve"
       style="font-style:normal;font-weight:normal;font-size:10.58333302px;line-height:1.25;font-family:sans-serif;letter-spacing:0px;word-spacing:0px;fill:#000000;fill-opacity:1;stroke:none;stroke-width:0.26458332"
       x="144.84653"
       y="89.339584"
       id="text984"><tspan
         sodipodi:role="line"
         id="tspan982"
         x="144.84653"
         y="89.339584"
         style="font-size:3.17499995px;text-align:start;text-anchor:start;fill:#000000;fill-opacity:1;stroke-width:0.26458332">\underline{Orden total}</tspan></text>
    <text
       id="text988"
       y="96.710121"
       x="144.84653"
       style="font-style:normal;font-weight:normal;font-size:10.58333302px;line-height:1.25;font-family:sans-serif;letter-spacing:0px;word-spacing:0px;fill:#000000;fill-opacity:1;stroke:none;stroke-width:0.26458332"
       xml:space="preserve"><tspan
         style="font-size:3.17499995px;text-align:start;text-anchor:start;fill:#000000;fill-opacity:1;stroke-width:0.26458332"
         y="96.710121"
         x="144.84653"
         id="tspan986"
         sodipodi:role="line">$\forall x \forall y \ xRy\vee yRx$</tspan></text>
  </g>
</svg>
