<?xml version="1.0" encoding="UTF-8" standalone="no"?>
<!-- Created with Inkscape (http://www.inkscape.org/) -->

<svg
   xmlns:dc="http://purl.org/dc/elements/1.1/"
   xmlns:cc="http://creativecommons.org/ns#"
   xmlns:rdf="http://www.w3.org/1999/02/22-rdf-syntax-ns#"
   xmlns:svg="http://www.w3.org/2000/svg"
   xmlns="http://www.w3.org/2000/svg"
   xmlns:sodipodi="http://sodipodi.sourceforge.net/DTD/sodipodi-0.dtd"
   xmlns:inkscape="http://www.inkscape.org/namespaces/inkscape"
   width="210mm"
   height="297mm"
   viewBox="0 0 210 297"
   version="1.1"
   id="svg8"
   inkscape:version="0.92.4 5da689c313, 2019-01-14"
   sodipodi:docname="dibujo4.svg">
  <defs
     id="defs2" />
  <sodipodi:namedview
     id="base"
     pagecolor="#ffffff"
     bordercolor="#666666"
     borderopacity="1.0"
     inkscape:pageopacity="0.0"
     inkscape:pageshadow="2"
     inkscape:zoom="2.0000001"
     inkscape:cx="329.83782"
     inkscape:cy="657.4694"
     inkscape:document-units="mm"
     inkscape:current-layer="layer1"
     showgrid="false"
     inkscape:snap-center="true"
     inkscape:window-width="1366"
     inkscape:window-height="741"
     inkscape:window-x="0"
     inkscape:window-y="27"
     inkscape:window-maximized="0" />
  <metadata
     id="metadata5">
    <rdf:RDF>
      <cc:Work
         rdf:about="">
        <dc:format>image/svg+xml</dc:format>
        <dc:type
           rdf:resource="http://purl.org/dc/dcmitype/StillImage" />
        <dc:title></dc:title>
      </cc:Work>
    </rdf:RDF>
  </metadata>
  <g
     inkscape:label="Capa 1"
     inkscape:groupmode="layer"
     id="layer1">
    <path
       style="opacity:1;fill:#000000;fill-opacity:1;stroke:none;stroke-width:0.12643245;stroke-miterlimit:4;stroke-dasharray:0.50572977, 0.12643244;stroke-dashoffset:0;stroke-opacity:1"
       d="m 72.757862,99.58859 a 1.9836713,1.9836713 0 0 1 -1.98367,1.98367 1.9836713,1.9836713 0 0 1 -1.98367,-1.98367 1.9836713,1.9836713 0 0 1 1.98367,-1.98367 1.9836713,1.9836713 0 0 1 1.98367,1.98367 z"
       id="circle821"
       inkscape:connector-curvature="0" />
    <path
       inkscape:connector-curvature="0"
       id="path1041"
       d="m 98.158568,129.22192 0,-29.63333"
       style="fill:none;stroke:#000000;stroke-width:0.65124637;stroke-linecap:butt;stroke-linejoin:miter;stroke-miterlimit:4;stroke-dasharray:none;stroke-opacity:1"
       sodipodi:nodetypes="cc" />
    <path
       inkscape:connector-curvature="0"
       id="path972"
       d="m 100.14224,99.58859 a 1.9836713,1.9836713 0 0 1 -1.983674,1.98367 1.9836713,1.9836713 0 0 1 -1.98367,-1.98367 1.9836713,1.9836713 0 0 1 1.98367,-1.98367 1.9836713,1.9836713 0 0 1 1.983674,1.98367 z"
       style="opacity:1;fill:#000000;fill-opacity:1;stroke:none;stroke-width:0.12643245;stroke-miterlimit:4;stroke-dasharray:0.50572977, 0.12643244;stroke-dashoffset:0;stroke-opacity:1" />
    <path
       style="opacity:1;fill:#000000;fill-opacity:1;stroke:none;stroke-width:0.12643245;stroke-miterlimit:4;stroke-dasharray:0.50572977, 0.12643244;stroke-dashoffset:0;stroke-opacity:1"
       d="m 100.14224,129.22192 a 1.9836713,1.9836713 0 0 1 -1.983674,1.98367 1.9836713,1.9836713 0 0 1 -1.98367,-1.98367 1.9836713,1.9836713 0 0 1 1.98367,-1.98367 1.9836713,1.9836713 0 0 1 1.983674,1.98367 z"
       id="path974"
       inkscape:connector-curvature="0" />
    <path
       inkscape:connector-curvature="0"
       id="path976"
       d="m 72.757866,129.22192 a 1.9836713,1.9836713 0 0 1 -1.983674,1.98367 1.9836713,1.9836713 0 0 1 -1.98367,-1.98367 1.9836713,1.9836713 0 0 1 1.98367,-1.98367 1.9836713,1.9836713 0 0 1 1.983674,1.98367 z"
       style="opacity:1;fill:#000000;fill-opacity:1;stroke:none;stroke-width:0.12643245;stroke-miterlimit:4;stroke-dasharray:0.50572977, 0.12643244;stroke-dashoffset:0;stroke-opacity:1" />
    <path
       sodipodi:nodetypes="cc"
       style="fill:none;stroke:#000000;stroke-width:0.65124637;stroke-linecap:butt;stroke-linejoin:miter;stroke-miterlimit:4;stroke-dasharray:none;stroke-opacity:1"
       d="M 70.774194,129.22192 98.158568,99.58859"
       id="path978"
       inkscape:connector-curvature="0" />
    <path
       inkscape:connector-curvature="0"
       id="path980"
       d="m 70.774194,129.22192 -2e-6,-29.63333"
       style="fill:none;stroke:#000000;stroke-width:0.65124637;stroke-linecap:butt;stroke-linejoin:miter;stroke-miterlimit:4;stroke-dasharray:none;stroke-opacity:1"
       sodipodi:nodetypes="cc" />
    <path
       sodipodi:nodetypes="cc"
       style="fill:none;stroke:#000000;stroke-width:0.65124637;stroke-linecap:butt;stroke-linejoin:miter;stroke-miterlimit:4;stroke-dasharray:none;stroke-opacity:1"
       d="M 98.158568,129.22192 70.774192,99.58859"
       id="path1013"
       inkscape:connector-curvature="0" />
  </g>
</svg>
