<?xml version="1.0" encoding="UTF-8" standalone="no"?>
<!-- Created with Inkscape (http://www.inkscape.org/) -->

<svg
   xmlns:dc="http://purl.org/dc/elements/1.1/"
   xmlns:cc="http://creativecommons.org/ns#"
   xmlns:rdf="http://www.w3.org/1999/02/22-rdf-syntax-ns#"
   xmlns:svg="http://www.w3.org/2000/svg"
   xmlns="http://www.w3.org/2000/svg"
   xmlns:sodipodi="http://sodipodi.sourceforge.net/DTD/sodipodi-0.dtd"
   xmlns:inkscape="http://www.inkscape.org/namespaces/inkscape"
   width="210mm"
   height="297mm"
   viewBox="0 0 210 297"
   version="1.1"
   id="svg8"
   inkscape:version="0.92.4 5da689c313, 2019-01-14"
   sodipodi:docname="dibujo2.svg">
  <defs
     id="defs2" />
  <sodipodi:namedview
     id="base"
     pagecolor="#ffffff"
     bordercolor="#666666"
     borderopacity="1.0"
     inkscape:pageopacity="0.0"
     inkscape:pageshadow="2"
     inkscape:zoom="2"
     inkscape:cx="241.55881"
     inkscape:cy="668.36282"
     inkscape:document-units="mm"
     inkscape:current-layer="layer1"
     showgrid="false"
     inkscape:snap-center="true"
     inkscape:window-width="1366"
     inkscape:window-height="768"
     inkscape:window-x="0"
     inkscape:window-y="0"
     inkscape:window-maximized="0" />
  <metadata
     id="metadata5">
    <rdf:RDF>
      <cc:Work
         rdf:about="">
        <dc:format>image/svg+xml</dc:format>
        <dc:type
           rdf:resource="http://purl.org/dc/dcmitype/StillImage" />
        <dc:title></dc:title>
      </cc:Work>
    </rdf:RDF>
  </metadata>
  <g
     inkscape:label="Capa 1"
     inkscape:groupmode="layer"
     id="layer1">
    <flowRoot
       xml:space="preserve"
       id="flowRoot1220"
       style="fill:black;fill-opacity:1;stroke:none;font-family:sans-serif;font-style:normal;font-weight:normal;font-size:40px;line-height:1.25;letter-spacing:0px;word-spacing:0px"><flowRegion
         id="flowRegion1222"><rect
           id="rect1224"
           width="146"
           height="56"
           x="170"
           y="440.51968" /></flowRegion><flowPara
         id="flowPara1226"></flowPara></flowRoot>    <text
       xml:space="preserve"
       style="font-style:normal;font-weight:normal;font-size:10.58333302px;line-height:1.25;font-family:sans-serif;letter-spacing:0px;word-spacing:0px;fill:#000000;fill-opacity:1;stroke:none;stroke-width:0.26458332"
       x="41.393993"
       y="88.726578"
       id="text1230"><tspan
         sodipodi:role="line"
         id="tspan1228"
         x="41.393993"
         y="88.726578"
         style="font-size:3.17499995px;stroke-width:0.26458332">${(1,1),(2,2)}$</tspan></text>
    <text
       id="text1234"
       y="115.22964"
       x="39.710201"
       style="font-style:normal;font-weight:normal;font-size:10.58333302px;line-height:1.25;font-family:sans-serif;letter-spacing:0px;word-spacing:0px;fill:#000000;fill-opacity:1;stroke:none;stroke-width:0.26458332"
       xml:space="preserve"><tspan
         style="font-size:3.17499995px;stroke-width:0.26458332"
         y="115.22964"
         x="39.710201"
         id="tspan1232"
         sodipodi:role="line">${(1,1),(2,2),(1,2)}$</tspan></text>
    <text
       xml:space="preserve"
       style="font-style:normal;font-weight:normal;font-size:10.58333302px;line-height:1.25;font-family:sans-serif;letter-spacing:0px;word-spacing:0px;fill:#000000;fill-opacity:1;stroke:none;stroke-width:0.26458332"
       x="39.952084"
       y="136.92708"
       id="text1238"><tspan
         sodipodi:role="line"
         id="tspan1236"
         x="39.952084"
         y="136.92708"
         style="font-size:3.17499995px;stroke-width:0.26458332">${(1,1),(2,2),(2,1)}$</tspan></text>
    <circle
       style="opacity:1;fill:#e91f00;fill-opacity:1;stroke:#e91f00;stroke-width:1.36500001;stroke-miterlimit:4;stroke-dasharray:none;stroke-dashoffset:0;stroke-opacity:1"
       id="path1240"
       cx="78.015976"
       cy="88.583221"
       r="1.4967093" />
    <circle
       r="1.4967093"
       cy="88.583221"
       cx="101.40206"
       id="circle1242"
       style="opacity:1;fill:#e91f00;fill-opacity:1;stroke:#e91f00;stroke-width:1.36500001;stroke-miterlimit:4;stroke-dasharray:none;stroke-dashoffset:0;stroke-opacity:1" />
    <circle
       r="1.4967093"
       cy="107.19855"
       cx="77.922432"
       id="circle1244"
       style="opacity:1;fill:#e91f00;fill-opacity:1;stroke:#e91f00;stroke-width:1.36500001;stroke-miterlimit:4;stroke-dasharray:none;stroke-dashoffset:0;stroke-opacity:1" />
    <circle
       style="opacity:1;fill:#e91f00;fill-opacity:1;stroke:#e91f00;stroke-width:1.36500001;stroke-miterlimit:4;stroke-dasharray:none;stroke-dashoffset:0;stroke-opacity:1"
       id="circle1246"
       cx="77.922432"
       cy="118.61096"
       r="1.4967093" />
    <circle
       style="opacity:1;fill:#e91f00;fill-opacity:1;stroke:#e91f00;stroke-width:1.36500001;stroke-miterlimit:4;stroke-dasharray:none;stroke-dashoffset:0;stroke-opacity:1"
       id="circle1248"
       cx="77.922432"
       cy="132.64261"
       r="1.4967093" />
    <circle
       r="1.4967093"
       cy="144.05502"
       cx="77.922432"
       id="circle1250"
       style="opacity:1;fill:#e91f00;fill-opacity:1;stroke:#e91f00;stroke-width:1.36500001;stroke-miterlimit:4;stroke-dasharray:none;stroke-dashoffset:0;stroke-opacity:1" />
    <path
       style="fill:none;stroke:#e91f00;stroke-width:0.26458332px;stroke-linecap:butt;stroke-linejoin:miter;stroke-opacity:1"
       d="M 77.922431,144.05502 V 132.64261"
       id="path1252"
       inkscape:connector-curvature="0" />
    <path
       style="fill:none;stroke:#e91f00;stroke-width:0.26458332px;stroke-linecap:butt;stroke-linejoin:miter;stroke-opacity:1"
       d="M 77.922431,118.61096 V 107.19854"
       id="path1254"
       inkscape:connector-curvature="0" />
    <text
       id="text1258"
       y="94.944283"
       x="77.7742"
       style="font-style:normal;font-weight:normal;font-size:10.58333302px;line-height:1.25;font-family:sans-serif;letter-spacing:0px;word-spacing:0px;fill:#e91f00;fill-opacity:1;stroke:none;stroke-width:0.26458332"
       xml:space="preserve"><tspan
         style="font-size:3.17499995px;fill:#e91f00;fill-opacity:1;stroke-width:0.26458332"
         y="94.944283"
         x="77.7742"
         id="tspan1256"
         sodipodi:role="line">$1$</tspan></text>
    <text
       xml:space="preserve"
       style="font-style:normal;font-weight:normal;font-size:10.58333302px;line-height:1.25;font-family:sans-serif;letter-spacing:0px;word-spacing:0px;fill:#e91f00;fill-opacity:1;stroke:none;stroke-width:0.26458332"
       x="101.05754"
       y="96.002617"
       id="text1262"><tspan
         sodipodi:role="line"
         id="tspan1260"
         x="101.05754"
         y="96.002617"
         style="font-size:3.17499995px;fill:#e91f00;fill-opacity:1;stroke-width:0.26458332">$2$</tspan></text>
    <text
       id="text1266"
       y="107.69566"
       x="81.869034"
       style="font-style:normal;font-weight:normal;font-size:10.58333302px;line-height:1.25;font-family:sans-serif;letter-spacing:0px;word-spacing:0px;fill:#e91f00;fill-opacity:1;stroke:none;stroke-width:0.26458332"
       xml:space="preserve"><tspan
         style="font-size:3.17499995px;fill:#e91f00;fill-opacity:1;stroke-width:0.26458332"
         y="107.69566"
         x="81.869034"
         id="tspan1264"
         sodipodi:role="line">$2$</tspan></text>
    <text
       xml:space="preserve"
       style="font-style:normal;font-weight:normal;font-size:10.58333302px;line-height:1.25;font-family:sans-serif;letter-spacing:0px;word-spacing:0px;fill:#e91f00;fill-opacity:1;stroke:none;stroke-width:0.26458332"
       x="81.894279"
       y="119.85641"
       id="text1270"><tspan
         sodipodi:role="line"
         id="tspan1268"
         x="81.894279"
         y="119.85641"
         style="font-size:3.17499995px;fill:#e91f00;fill-opacity:1;stroke-width:0.26458332">$1$</tspan></text>
    <text
       id="text1274"
       y="145.75717"
       x="81.520103"
       style="font-style:normal;font-weight:normal;font-size:10.58333302px;line-height:1.25;font-family:sans-serif;letter-spacing:0px;word-spacing:0px;fill:#e91f00;fill-opacity:1;stroke:none;stroke-width:0.26458332"
       xml:space="preserve"><tspan
         style="font-size:3.17499995px;fill:#e91f00;fill-opacity:1;stroke-width:0.26458332"
         y="145.75717"
         x="81.520103"
         id="tspan1272"
         sodipodi:role="line">$1$</tspan></text>
    <text
       xml:space="preserve"
       style="font-style:normal;font-weight:normal;font-size:10.58333302px;line-height:1.25;font-family:sans-serif;letter-spacing:0px;word-spacing:0px;fill:#e91f00;fill-opacity:1;stroke:none;stroke-width:0.26458332"
       x="81.681946"
       y="132.85909"
       id="text1278"><tspan
         sodipodi:role="line"
         id="tspan1276"
         x="81.681946"
         y="132.85909"
         style="font-size:3.17499995px;fill:#e91f00;fill-opacity:1;stroke-width:0.26458332">$2$</tspan></text>
    <text
       id="text1282"
       y="162.32707"
       x="46.566666"
       style="font-style:normal;font-weight:normal;font-size:10.58333302px;line-height:1.25;font-family:sans-serif;letter-spacing:0px;word-spacing:0px;fill:#000000;fill-opacity:1;stroke:none;stroke-width:0.26458332"
       xml:space="preserve"><tspan
         style="font-size:3.17499995px;stroke-width:0.26458332"
         y="162.32707"
         x="46.566666"
         id="tspan1280"
         sodipodi:role="line">No es un retículo (pero es un semi retículo)</tspan></text>
    <text
       xml:space="preserve"
       style="font-style:normal;font-weight:normal;font-size:10.58333302px;line-height:1.25;font-family:sans-serif;letter-spacing:0px;word-spacing:0px;fill:#000000;fill-opacity:1;stroke:none;stroke-width:0.26458332"
       x="43.573364"
       y="144.99451"
       id="text1286"><tspan
         sodipodi:role="line"
         id="tspan1284"
         x="43.573364"
         y="144.99451"
         style="font-size:3.17499995px;stroke-width:0.26458332">Sí son retículos</tspan></text>
    <text
       id="text1290"
       y="97.893173"
       x="42.779613"
       style="font-style:normal;font-weight:normal;font-size:10.58333302px;line-height:1.25;font-family:sans-serif;letter-spacing:0px;word-spacing:0px;fill:#000000;fill-opacity:1;stroke:none;stroke-width:0.26458332"
       xml:space="preserve"><tspan
         style="font-size:3.17499995px;stroke-width:0.26458332"
         y="97.893173"
         x="42.779613"
         id="tspan1288"
         sodipodi:role="line">No es un retículo</tspan></text>
    <path
       style="opacity:1;fill:none;fill-opacity:1;stroke:#e91f00;stroke-width:0.96499997;stroke-miterlimit:4;stroke-dasharray:3.85999995, 0.96499999;stroke-dashoffset:0;stroke-opacity:1"
       d="m 78.577241,99.808543 c 0.543205,0.0664 1.042688,0.324397 1.590254,0.374177 0.186319,0.0169 0.374176,0 0.561266,0 0.249452,0.0312 0.499165,0.0603 0.748353,0.0935 0.308655,0.0411 1.114459,0.16647 1.403164,0.18709 0.186614,0.0133 0.37473,-0.0143 0.561266,0 1.774047,0.13646 -0.363958,0.0434 1.216078,0.18709 0.155266,0.0141 0.312767,-0.0172 0.467723,0 0.127777,0.0142 0.246605,0.0776 0.374176,0.0935 0.305581,0.0382 0.712012,0 1.028988,0 0.09354,0 0.188905,-0.0183 0.280633,0 0.06837,0.0137 0.118719,0.0799 0.187087,0.0935 0.713616,0 -0.07379,-0.0418 0.467723,0.0935 0.147203,0.0368 0.665612,0 0.841899,0 0.280633,0 0.561265,0 0.841898,0 0.09355,0 0.188363,-0.0154 0.280633,0 0.09726,0.0162 0.18337,0.0773 0.280633,0.0935 0.22165,0.0369 0.523436,0 0.748356,0 0.268589,0 0.57632,0.0379 0.841899,0 0.127272,-0.0182 0.246605,-0.0776 0.374176,-0.0935 0.123764,-0.0155 0.249452,0 0.374179,0 0.374176,0 0.748353,0 1.122532,0 2.650421,0 5.300845,0 7.951273,0 0.53008,0 1.06016,0 1.59025,0 0.28063,0 0.56298,0.031 0.8419,0 0.15802,-0.0176 0.3097,-0.076 0.46772,-0.0935 0.52362,-0.0582 1.06663,0.0582 1.59025,0 0.15803,-0.0176 0.30996,-0.0738 0.46773,-0.0935 0.0928,-0.0116 0.1878,0.0116 0.28063,0 0.15776,-0.0197 0.3097,-0.076 0.46772,-0.0935 0.12396,-0.0138 0.25021,0.0138 0.37418,0 0.29306,5.3e-4 0.55664,-0.15143 0.8419,-0.18709 0.12376,-0.0155 0.25041,0.0155 0.37417,0 0.25515,-0.0319 0.4928,-0.15869 0.74836,-0.18709 0.15495,-0.0172 0.31276,0.0172 0.46772,0 0.6577,-0.0731 0.0984,-0.0949 0.74835,-0.280627 0.09,-0.0257 0.19069,0.0257 0.28064,0 0.1895,-0.0541 0.67579,-0.33484 0.8419,-0.46772 0.0689,-0.0551 0.11146,-0.14172 0.18708,-0.18709 0.0846,-0.0507 0.20364,-0.032 0.28064,-0.0936 0.13782,-0.11026 0.48278,-0.77847 0.56126,-0.93544 0.12473,-0.24945 0.28599,-0.48377 0.37418,-0.74836 0.10056,-0.30167 0.12473,-0.62362 0.18709,-0.935438 0.0624,-0.311814 0.15545,-0.619032 0.18709,-0.935445 0.0155,-0.155133 -0.0155,-0.312587 0,-0.46772 0.0158,-0.158207 0.0791,-0.30938 0.0935,-0.467722 0.0169,-0.18632 -0.0155,-0.374825 0,-0.561266 0.0315,-0.378029 0.15559,-0.744503 0.18709,-1.122532 0.0155,-0.186444 -0.0155,-0.374825 0,-0.561266 0.0157,-0.189016 0.0764,-0.372377 0.0935,-0.561266 0.0254,-0.279482 0,-0.561266 0,-0.841899 0,-0.280633 0.0348,-0.563432 0,-0.841898 -0.0122,-0.09784 -0.0773,-0.183373 -0.0935,-0.280633 -0.0154,-0.09227 0.0154,-0.188363 0,-0.280633 -0.0162,-0.09726 -0.0665,-0.185825 -0.0935,-0.280633 -0.0353,-0.123619 -0.0529,-0.252212 -0.0935,-0.374179 -0.0939,-0.281763 -0.33724,-0.4874 -0.46772,-0.748356 -0.0441,-0.08819 -0.0389,-0.198588 -0.0935,-0.280633 -0.0734,-0.110072 -0.19595,-0.179001 -0.28064,-0.280633 -0.44189,-0.530272 0.0833,-0.01434 -0.37417,-0.654809 -0.0769,-0.107651 -0.19454,-0.180189 -0.28064,-0.280633 -0.10146,-0.118375 -0.17917,-0.255804 -0.28063,-0.374176 -0.20089,-0.234368 -0.43654,-0.436542 -0.65481,-0.654812 -0.18709,-0.187087 -0.35801,-0.391883 -0.56127,-0.561266 -0.0864,-0.07197 -0.19426,-0.115115 -0.28063,-0.187087 -0.10163,-0.08469 -0.17056,-0.207251 -0.28063,-0.280633 -0.082,-0.0547 -0.19,-0.0547 -0.28064,-0.09355 -1.14799,-0.491996 0.28465,0.09555 -0.65481,-0.374177 -0.0882,-0.0441 -0.19243,-0.04945 -0.28063,-0.09354 -0.10056,-0.05028 -0.1773,-0.142804 -0.28063,-0.18709 -0.11817,-0.05064 -0.25601,-0.0429 -0.37418,-0.09354 -0.10334,-0.04429 -0.18302,-0.13131 -0.28063,-0.18709 -0.54811,-0.313203 -0.199,-0.0486 -0.65481,-0.374176 -0.20078,-0.143412 -0.43436,-0.341749 -0.65481,-0.467722 -0.24215,-0.138372 -0.50621,-0.235808 -0.74836,-0.374179 -0.0976,-0.05578 -0.17729,-0.142801 -0.28063,-0.187087 -0.11817,-0.05064 -0.25601,-0.0429 -0.37418,-0.09355 -0.10333,-0.04429 -0.17729,-0.142801 -0.28063,-0.187087 -0.31888,-0.136663 -0.71011,-0.143973 -1.02899,-0.280633 -0.10333,-0.04429 -0.17536,-0.147614 -0.28063,-0.18709 -0.14887,-0.05583 -0.31251,-0.05905 -0.46772,-0.09354 -0.40727,-0.0905 -0.80645,-0.198708 -1.21608,-0.280633 -1.03895,-0.207791 -2.068818,-0.457457 -3.086964,-0.748356 -0.123616,-0.03532 -0.247361,-0.07241 -0.374176,-0.09354 -0.14342,-0.02392 -0.433533,0.05109 -0.561266,0 -0.129474,-0.05179 -0.245456,-0.133456 -0.374176,-0.18709 -0.658262,-0.274275 -0.90319,-0.318772 -1.590255,-0.561265 -0.676013,-0.238594 -1.353806,-0.503918 -2.057976,-0.65481 -0.215591,-0.0462 -0.439971,-0.04397 -0.65481,-0.09355 -0.192159,-0.04434 -0.369945,-0.139258 -0.561266,-0.187087 -0.368011,-0.092 -0.75656,-0.08728 -1.122531,-0.187089 -0.162002,-0.04418 -0.303065,-0.154157 -0.467723,-0.18709 -0.152879,-0.03057 -0.312766,0.01723 -0.46772,0 -0.127778,-0.01421 -0.248676,-0.06565 -0.374179,-0.09354 -0.155207,-0.03449 -0.312512,-0.05906 -0.46772,-0.09354 -0.251007,-0.05578 -0.494217,-0.147992 -0.748355,-0.187089 -0.279077,-0.04294 -0.562822,-0.05061 -0.841899,-0.09354 -0.127069,-0.01955 -0.246607,-0.0776 -0.374179,-0.09355 -0.296386,-0.03705 -0.63518,0 -0.935442,0 -0.395812,0 -0.823225,-0.03929 -1.216075,0 -0.158208,0.01582 -0.309701,0.07599 -0.467723,0.09355 -0.461568,0.05129 -0.940363,-0.03857 -1.403165,0 -0.189015,0.01574 -0.372377,0.07637 -0.561266,0.09354 -0.463888,0.04217 -0.939278,-0.04217 -1.403164,0 -0.188892,0.01717 -0.372378,0.07637 -0.561266,0.09354 -0.427382,0.03885 -0.966415,0 -1.403165,0 -1.122532,0 -2.245066,0 -3.367598,0 -0.342995,0 -0.685991,0 -1.028986,0 -0.187089,0 -0.374825,-0.01553 -0.561266,0 -0.189015,0.01574 -0.372253,0.07779 -0.561266,0.09355 -0.186444,0.01553 -0.374946,-0.01693 -0.561266,0 -0.158342,0.01439 -0.30938,0.07915 -0.467722,0.09354 -0.18632,0.01693 -0.375105,-0.01863 -0.561266,0 -0.127926,0.01281 -0.246608,0.0776 -0.374179,0.09354 -0.123762,0.01548 -0.250412,-0.01548 -0.374176,0 -0.127572,0.01596 -0.248674,0.06566 -0.374177,0.09355 -0.310417,0.06898 -0.619032,0.155446 -0.935445,0.187087 -0.155133,0.0155 -0.312454,-0.01413 -0.46772,0 -0.275648,0.02506 -0.746175,0.135668 -1.028988,0.18709 -0.186611,0.03393 -0.37828,0.04364 -0.561266,0.09354 -0.324001,0.08837 -0.613772,0.277678 -0.935445,0.374179 -0.152289,0.04569 -0.315431,0.04785 -0.46772,0.09354 -0.160835,0.04825 -0.308422,0.133987 -0.467722,0.187089 -0.121968,0.04066 -0.251034,0.0566 -0.374177,0.09354 -0.188891,0.05667 -0.371006,0.135199 -0.561265,0.187089 -0.457454,0.124759 -0.940184,0.177747 -1.403165,0.280633 -0.923198,0.205153 0.249494,-0.04679 -0.841899,0.280633 -0.152292,0.04569 -0.315434,0.04786 -0.467723,0.09354 -0.160834,0.04825 -0.306887,0.138838 -0.467722,0.18709 -0.152289,0.04569 -0.312513,0.05905 -0.467722,0.09354 -0.406086,0.09024 -0.809909,0.190373 -1.216076,0.280633 -0.406088,0.09024 -0.809908,0.190373 -1.216075,0.280633 -0.125502,0.02789 -0.246401,0.07935 -0.374179,0.09354 -0.154953,0.01722 -0.312587,-0.0155 -0.46772,0 -0.158207,0.01582 -0.30938,0.07915 -0.467722,0.09355 -0.525741,0.04779 -1.064514,-0.04779 -1.590255,0 -0.158342,0.01439 -0.309515,0.07772 -0.467722,0.09354 -0.155133,0.01551 -0.311814,0 -0.46772,0 -0.561266,0 -1.122532,0 -1.683798,0 -1.216078,0 -2.432153,0 -3.648231,0 -0.530082,0 -1.060167,0 -1.590251,0 -0.280633,0 -0.5617,-0.01556 -0.841899,0 -0.281927,0.01566 -0.560165,0.07476 -0.841899,0.09354 -0.186674,0.01243 -0.376724,-0.03075 -0.561266,0 -0.194527,0.03242 -0.36911,0.142745 -0.561266,0.187089 -0.870021,0.200774 -0.396917,-0.0108 -1.122534,0.18709 -1.527035,0.50901 0.389051,-0.09726 -1.122532,0.280633 -0.19132,0.04783 -0.369946,0.139258 -0.561266,0.187087 -0.355275,0.08882 -0.679424,0.08222 -1.028986,0.187089 -0.160837,0.04825 -0.306887,0.138838 -0.467722,0.18709 -0.304578,0.09137 -0.626949,0.109963 -0.935443,0.187086 -0.09566,0.02392 -0.185824,0.06646 -0.280635,0.09355 -0.123616,0.03532 -0.256006,0.0429 -0.374177,0.09354 -0.206671,0.08857 -0.366037,0.26262 -0.561266,0.374179 -0.121073,0.06918 -0.258148,0.109736 -0.374176,0.187087 -0.07338,0.04892 -0.119338,0.130627 -0.187089,0.187089 -0.119772,0.09981 -0.254405,0.180825 -0.374177,0.280633 -0.243009,0.202507 -0.230203,0.284163 -0.467722,0.561266 -0.0861,0.100444 -0.195943,0.179004 -0.280633,0.280633 -0.207188,0.248624 -0.207825,0.363691 -0.374177,0.65481 -0.111559,0.195228 -0.285604,0.354594 -0.374179,0.561265 -0.05064,0.118171 -0.0429,0.256009 -0.09354,0.37418 -0.04429,0.103335 -0.136811,0.180075 -0.18709,0.280632 -0.07476,0.149524 -0.147126,0.514943 -0.187087,0.65481 -0.08917,0.3121 -0.234312,0.611187 -0.280632,0.935445 -0.03939,0.275738 0,0.648845 0,0.935442 0,0.257183 -0.03902,0.701331 0,0.935442 0.01622,0.09726 0.06236,0.18709 0.09354,0.280633 0.03118,0.124728 0.07536,0.246907 0.09354,0.374179 0.01323,0.0926 -0.01537,0.18836 0,0.280633 0.01622,0.09726 0.06236,0.187087 0.09355,0.280633 0.09992,0.299757 0.241263,0.620501 0.280633,0.935443 0.03094,0.247525 0,0.498903 0,0.748355 0,0.374176 0,0.748355 0,1.122532 0,0.21827 -0.02707,0.438224 0,0.654809 0.01595,0.127572 0.07536,0.246907 0.09354,0.374179 0.01323,0.0926 -0.01537,0.18836 0,0.280633 0.03242,0.194524 0.124724,0.374177 0.187089,0.561266 0.06236,0.187087 0.113845,0.378161 0.187087,0.56126 0.0259,0.0647 0.0715,0.12095 0.09355,0.18709 0.08247,0.24741 0.216676,0.81899 0.374177,1.02899 0.05292,0.0706 0.134173,0.11653 0.187089,0.18709 0.04183,0.0558 0.05171,0.13131 0.09354,0.18709 0.05292,0.0705 0.134173,0.11653 0.187089,0.18709 0.204878,0.27317 -0.04669,0.12868 0.280633,0.37417 0.05578,0.0418 0.13131,0.0517 0.187087,0.0935 0.07056,0.0529 0.116533,0.13417 0.18709,0.18709 0.05578,0.0418 0.132643,0.05 0.187089,0.0935 0.171117,0.13689 0.296603,0.33083 0.46772,0.46772 0.44681,0.357447 0.10019,0.0501 0.561266,0.280637 0.439245,0.21962 0.117689,0.14062 0.467722,0.28063 0.272511,0.109 0.563404,0.1878 0.841899,0.28063 0.18709,0.0624 0.367887,0.14842 0.561266,0.18709 0.06115,0.0122 0.124727,0 0.18709,0 0.09354,0.0312 0.183943,0.0742 0.280633,0.0935 0.06115,0.0122 0.126587,-0.0151 0.187089,0 0.06764,0.0169 0.118719,0.0799 0.187087,0.0935 0.152881,0.0306 0.311814,0 0.467722,0 0.498904,0 0.997808,0 1.496709,0 0.187089,0 0.376057,-0.0265 0.561266,0 0.127272,0.0182 0.246906,0.0754 0.374179,0.0935 0.246943,0.0353 0.498903,0 0.748355,0 0.286594,0 0.659701,0.0394 0.935442,0 1.013394,-0.25334 -0.25713,0.0321 0.748356,-0.0935 0.127571,-0.016 0.246398,-0.0794 0.374176,-0.0935 0.309907,-0.0344 0.623628,0 0.935442,0 0.498904,0 0.997808,0 1.496711,0 0.311814,0 0.623628,0 0.935443,0 0.124727,0 0.250213,0.0138 0.374179,0 0.158022,-0.0176 0.309514,-0.0777 0.467719,-0.0935 0.310269,-0.031 0.625536,0.0344 0.935445,0 0.127778,-0.0142 0.246399,-0.0794 0.374177,-0.0935 0.154953,-0.0172 0.314841,0.0306 0.467722,0 0.329311,-0.0659 0.616842,-0.26798 0.935443,-0.37418 0.121967,-0.0407 0.252211,-0.0529 0.374176,-0.0936 0.1593,-0.0531 0.308422,-0.13398 0.467722,-0.18708 0.121968,-0.0407 0.253799,-0.0484 0.374177,-0.0936 0.130569,-0.049 0.24361,-0.138117 0.374179,-0.187087 0.120377,-0.0451 0.25056,-0.0582 0.374176,-0.0935 0.09481,-0.0271 0.18302,-0.0796 0.280633,-0.0936 0.123473,-0.0176 0.250706,0.0177 0.374179,0 0.09761,-0.0139 0.185822,-0.0665 0.280633,-0.0935 0.247235,-0.0706 0.494723,-0.14482 0.748353,-0.18709 0.06152,-0.0102 0.125936,0.0122 0.187089,0 0.09669,-0.0193 0.18709,-0.0624 0.280633,-0.0935 0.09354,-0.0312 0.19244,-0.0495 0.280633,-0.0936 0.03944,-0.0197 0.05076,-0.0828 0.09354,-0.0935 0.146378,-0.0366 0.84931,0 1.028988,0 0.342995,0 0.685993,0 1.028989,0 0.09354,0 0.188028,-0.0132 0.280633,0 1.013393,0.25335 -0.25713,-0.0321 0.748355,0.0935 0.255143,0.0319 0.49321,0.1552 0.748353,0.18709 0.123764,0.0155 0.250706,-0.0177 0.374179,0 0.09761,0.014 0.183017,0.0796 0.280633,0.0936 0.270224,0.0386 0.747106,0 1.028985,0 0.342998,0 0.685994,0 1.028989,0 0.09354,0 0.188362,0.0154 0.280633,0 0.09726,-0.0162 0.183369,-0.0773 0.280633,-0.0936 0.13259,-0.0221 0.605218,-0.0239 0.748355,0 0.126815,0.0211 0.246904,0.0754 0.374177,0.0936 0.0926,0.0132 0.188028,-0.0132 0.280633,0 0.127272,0.0182 0.246906,0.0754 0.374179,0.0935 0.0926,0.0132 0.188028,-0.0132 0.280633,0 0.127269,0.0182 0.246604,0.0776 0.374176,0.0935 0.123761,0.0155 0.249452,0 0.374176,0 0.09355,0 0.188029,0.0132 0.280633,0 0.127273,-0.0182 0.246907,-0.0754 0.374179,-0.0935 0.185209,-0.0265 0.374177,0 0.561266,0 0.280633,0 0.561266,0 0.841899,0 0.311814,0 0.623628,0 0.935442,0 0.09355,0 0.188029,-0.0132 0.280633,0 0.127273,0.0182 0.246907,0.0754 0.374179,0.0935 0.185209,0.0265 0.376722,-0.0307 0.561266,0 0.09726,0.0162 0.18337,0.0773 0.280633,0.0936 0.241099,0.0402 0.508765,-0.0479 0.748353,0 0.06837,0.0137 0.119446,0.0766 0.18709,0.0935 0.06749,0.0169 0.680868,0.0169 0.748355,0 0.06764,-0.0169 0.119446,-0.0766 0.187087,-0.0935 0.121002,-0.0303 0.253177,0.0302 0.374179,0 0.06764,-0.0169 0.120941,-0.0715 0.187087,-0.0936 0.109767,-0.0366 0.432287,0 0.561266,0 0.217326,0 0.651041,-0.0382 0.841899,0 0.126068,0.0252 0.249451,0.0624 0.374179,0.0936 z"
       id="path1302"
       inkscape:connector-curvature="0" />
    <path
       style="opacity:1;fill:none;fill-opacity:1;stroke:#e91f00;stroke-width:0.96499997;stroke-miterlimit:4;stroke-dasharray:3.85999995, 0.96499999;stroke-dashoffset:0;stroke-opacity:1"
       d="m 79.639582,102.92812 c -0.220485,-0.0882 -0.431077,-0.20698 -0.661458,-0.26458 -0.302503,-0.0756 -0.618469,-0.081 -0.926042,-0.13229 -0.62381,-0.10397 -1.233426,-0.27315 -1.852083,-0.39688 -0.699368,-0.13987 -1.426911,-0.20876 -2.116667,-0.39687 -0.269068,-0.0734 -0.529166,-0.17639 -0.79375,-0.26459 -0.308681,-0.0441 -0.623538,-0.0567 -0.926041,-0.13229 -0.230381,-0.0576 -0.432356,-0.2021 -0.661459,-0.26458 -0.517562,-0.14115 -1.059688,-0.16862 -1.5875,-0.26458 -0.221226,-0.0402 -0.43798,-0.10746 -0.661458,-0.1323 -0.491741,-0.0546 -1.217586,0 -1.719792,0 -0.352776,0 -0.708279,-0.0438 -1.058333,0 -0.180414,0.0226 -0.349176,0.10658 -0.529167,0.1323 -0.305577,0.0436 -0.61736,0 -0.926041,0 -0.881944,0 -1.76389,0 -2.645833,0 -0.308682,0 -0.621562,-0.0507 -0.926042,0 -0.09726,0.0162 -0.167894,0.11295 -0.264583,0.13229 -0.259446,0.0519 -0.532768,-0.0435 -0.79375,0 -0.647002,0.10783 -1.205082,0.55362 -1.852084,0.66146 -0.130492,0.0217 -0.266382,-0.0217 -0.396875,0 -0.550566,0.0918 -0.229618,0.12063 -0.661458,0.26458 -0.476986,0.159 -0.973627,0.2524 -1.455208,0.39687 -0.133567,0.0401 -0.259324,0.10937 -0.396875,0.1323 -0.130493,0.0217 -0.266383,-0.0217 -0.396875,0 -0.145802,0.0243 -0.647949,0.24028 -0.79375,0.26458 -0.130493,0.0217 -0.267153,-0.026 -0.396875,0 -0.193379,0.0387 -0.346062,0.19134 -0.529167,0.26458 -0.129474,0.0518 -0.277299,0.0605 -0.396875,0.13229 -0.106953,0.0642 -0.164804,0.18975 -0.264583,0.26459 -0.07888,0.0592 -0.185701,0.0731 -0.264584,0.13229 -0.492188,0.36914 -0.01397,0.20543 -0.661458,0.52917 -0.319823,0.15991 -0.586949,0.13742 -0.926042,0.26458 -0.184652,0.0692 -0.342077,0.20222 -0.529166,0.26458 -0.213315,0.0711 -0.44196,0.0835 -0.661459,0.13229 -0.354975,0.0789 -0.713359,0.1496 -1.058333,0.26459 -0.225285,0.0751 -0.436174,0.18949 -0.661458,0.26458 -0.172487,0.0575 -0.358926,0.0684 -0.529167,0.13229 -0.184653,0.0692 -0.343831,0.19719 -0.529167,0.26459 -0.43267,0.15733 -0.899752,0.21551 -1.322916,0.39687 -1.204458,0.60223 0.04723,0.008 -0.926042,0.39688 -0.274656,0.10986 -0.521853,0.28035 -0.79375,0.39687 -0.128172,0.0549 -0.267401,0.0805 -0.396875,0.13229 -0.09155,0.0366 -0.173032,0.0957 -0.264583,0.13229 -0.258948,0.10358 -0.544298,0.13986 -0.79375,0.26459 -0.621184,0.31059 -0.166436,0.19887 -0.661459,0.39687 -0.381052,0.15242 -0.823893,0.21351 -1.190625,0.39688 -0.142208,0.0711 -0.254666,0.19348 -0.396875,0.26458 -0.124724,0.0624 -0.267401,0.0805 -0.396875,0.13229 -0.206089,0.0824 -0.506161,0.27264 -0.661458,0.39688 -0.09739,0.0779 -0.167187,0.18667 -0.264583,0.26458 -0.124153,0.0993 -0.272722,0.16526 -0.396875,0.26458 -0.194789,0.15584 -0.373335,0.33438 -0.529167,0.52917 -0.09932,0.12416 -0.165259,0.27272 -0.264583,0.39688 -0.299276,0.37409 -0.704096,0.61444 -0.926042,1.05833 -0.06236,0.12473 -0.08333,0.26631 -0.132291,0.39687 -0.166765,0.44471 -0.392692,0.86801 -0.529167,1.32292 -0.06461,0.21537 -0.07776,0.44332 -0.132292,0.66146 -0.07786,0.31145 -0.192397,0.61323 -0.264583,0.92604 -0.07615,0.32999 -0.21921,1.42487 -0.264583,1.71979 -0.04079,0.26512 -0.110017,0.52645 -0.132292,0.79375 -0.02196,0.26367 0,0.52917 0,0.79375 0,0.22049 -0.01831,0.44174 0,0.66146 0.0259,0.31074 0.09786,0.61614 0.132292,0.92604 0.0097,0.0877 -0.0088,0.17683 0,0.26459 0.03537,0.35376 0.09507,0.70476 0.132291,1.05833 0.05099,0.48439 0.111136,0.9686 0.132292,1.45521 0.03639,0.83705 0,1.67569 0,2.51354 0,0.57326 0.04397,1.14822 0,1.71979 -0.02432,0.31614 -0.206544,1.37156 -0.264583,1.71979 -0.118224,0.70935 -0.255866,1.41161 -0.396875,2.11667 -0.0441,0.22049 -0.08351,0.44196 -0.132292,0.66146 -0.03944,0.17748 -0.109741,0.34875 -0.132292,0.52916 -0.02188,0.17503 0.02188,0.35415 0,0.52917 -0.0451,0.36083 -0.213156,0.69835 -0.264583,1.05833 -0.01871,0.13097 0.02175,0.26639 0,0.39688 -0.02291,0.13755 -0.11257,0.25883 -0.132292,0.39687 -0.02495,0.17462 0,0.35278 0,0.52917 0,0.39688 0,0.79375 0,1.19063 0,0.13229 0.01871,0.26591 0,0.39687 -0.02572,0.17999 -0.106579,0.34918 -0.132291,0.52917 -0.05571,0.38995 0,0.91761 0,1.32291 0,0.47746 -0.05534,1.27709 0,1.7198 0.0173,0.13837 0.112569,0.25883 0.132291,0.39687 0.02495,0.17462 -0.02188,0.35414 0,0.52917 0.01974,0.15796 0.187055,0.74514 0.264584,0.92604 0.07768,0.18126 0.195339,0.34452 0.264583,0.52917 0.06384,0.17024 0.08819,0.35277 0.132292,0.52916 0.08819,0.17639 0.186899,0.34791 0.264583,0.52917 0.319823,0.74625 -0.07108,0.0309 0.264583,0.92604 0.06924,0.18465 0.195339,0.34452 0.264584,0.52917 0.335658,0.89509 -0.05524,0.17979 0.264583,0.92604 0.602229,1.20446 0.0076,-0.0472 0.396875,0.92604 0.03662,0.0916 0.108376,0.16892 0.132292,0.26458 0.02138,0.0856 -0.02138,0.17903 0,0.26459 0.08061,0.32244 0.281646,0.2987 0.396875,0.52916 0.01971,0.0394 -0.01971,0.0928 0,0.1323 0.02789,0.0558 0.07651,0.1044 0.132291,0.13229 0.0821,0.041 0.470321,0 0.529167,0 0.352777,0 0.705556,0 1.058333,0 0.352777,0 0.705557,0 1.058333,0 0.132292,0 0.266383,-0.0217 0.396875,0 0.275101,0.0459 0.534803,0.161 0.79375,0.26458 0.09155,0.0366 0.167894,0.11296 0.264584,0.13229 0.129722,0.026 0.267152,-0.0259 0.396875,0 0.09669,0.0193 0.173032,0.0957 0.264583,0.13229 1.331685,0.53268 -0.280882,-0.10329 0.661458,0.1323 0.09566,0.0239 0.168924,0.10837 0.264584,0.13229 0.171122,0.0428 0.358045,-0.0428 0.529166,0 0.09566,0.0239 0.168924,0.10838 0.264584,0.13229 0.08556,0.0214 0.179022,-0.0214 0.264583,0 0.09566,0.0239 0.167894,0.11295 0.264583,0.13229 0.129723,0.026 0.267153,-0.0259 0.396875,0 0.957271,0.19146 -0.60461,0.13229 0.661459,0.13229 1.266068,0 -0.295812,-0.0592 0.661458,0.13229 0.129723,0.026 0.266383,-0.0218 0.396875,0 0.137552,0.0229 0.264583,0.0882 0.396875,0.1323 0.264583,0.0441 0.527159,0.10267 0.79375,0.13229 0.262964,0.0292 0.530786,-0.0292 0.79375,0 0.266592,0.0296 0.527159,0.10267 0.79375,0.13229 0.383717,0.0426 0.804278,0 1.190625,0 0.40268,0 1.073626,-0.0545 1.455208,0 0.179991,0.0257 0.348753,0.10974 0.529167,0.13229 0.175027,0.0219 0.353856,-0.0195 0.529167,0 0.223477,0.0248 0.43798,0.10746 0.661458,0.13229 0.17531,0.0195 0.354139,-0.0219 0.529167,0 0.180414,0.0225 0.348461,0.11222 0.529166,0.13229 0.49235,0.0547 1.337546,0 1.852084,0 0.176389,0 0.354139,-0.0219 0.529166,0 0.180414,0.0225 0.348753,0.10974 0.529167,0.1323 0.175027,0.0219 0.352777,0 0.529167,0 0.61736,0 1.234723,0 1.852083,0 0.220485,0 0.442066,-0.0219 0.661458,0 0.223737,0.0224 0.437981,0.10746 0.661459,0.13229 0.35062,0.039 0.708279,-0.0438 1.058333,0 0.180414,0.0225 0.348752,0.10974 0.529167,0.13229 0.474651,0.0593 0.983622,-0.0786 1.455208,0 0.137551,0.0229 0.259326,0.10937 0.396875,0.13229 0.514866,0.0858 1.072634,-0.0858 1.5875,0 0.137551,0.0229 0.264583,0.0882 0.396875,0.13229 0.17639,0 0.354549,-0.025 0.529166,0 0.138047,0.0197 0.262793,0.094 0.396875,0.13229 0.349645,0.0999 0.697506,0.21949 1.058334,0.26459 0.175027,0.0219 0.354549,-0.0249 0.529166,0 0.138047,0.0197 0.264584,0.0882 0.396875,0.13229 0.220486,0.0441 0.438344,0.1044 0.661459,0.13229 0.13127,0.0164 0.264583,0 0.396875,0 0.17639,0.0441 0.349176,0.10658 0.529166,0.13229 0.302506,0.0432 0.623536,-0.0432 0.926042,0 0.138046,0.0197 0.257781,0.12236 0.396875,0.13229 0.659778,0.0471 1.322917,0 1.984375,0 0.352777,0 0.705556,0 1.058333,0 0.17639,0 0.35455,0.0249 0.529167,0 0.138046,-0.0197 0.258829,-0.11257 0.396875,-0.13229 0.302506,-0.0432 0.623536,0.0432 0.926042,0 0.17999,-0.0257 0.348752,-0.10974 0.529166,-0.13229 0.306298,-0.0383 0.621562,0.0507 0.926042,0 0.137552,-0.0229 0.259326,-0.10937 0.396875,-0.13229 0.130492,-0.0217 0.266382,0.0217 0.396875,0 0.275101,-0.0459 0.517657,-0.22514 0.79375,-0.26458 0.174617,-0.025 0.354139,0.0219 0.529167,0 0.536688,-0.0671 1.050049,-0.33716 1.5875,-0.39688 0.563366,-0.0626 1.158705,0.0802 1.719791,0 0.138047,-0.0197 0.258829,-0.11257 0.396875,-0.13229 0.174617,-0.025 0.35414,0.0219 0.529167,0 0.180414,-0.0225 0.349176,-0.10658 0.529167,-0.13229 0.130963,-0.0187 0.266382,0.0217 0.396875,0 0.2751,-0.0459 0.517657,-0.22514 0.79375,-0.26459 0.174617,-0.0249 0.354549,0.0249 0.529166,0 0.138047,-0.0197 0.264584,-0.0882 0.396875,-0.13229 0.17639,-0.0441 0.348753,-0.10974 0.529167,-0.13229 0.477607,-0.0597 0.977601,0.0597 1.455208,0 0.180414,-0.0225 0.348753,-0.10974 0.529167,-0.13229 0.175027,-0.0219 0.355624,0.0316 0.529167,0 0.315854,-0.0574 0.61632,-0.18011 0.926041,-0.26458 0.422897,-0.11534 0.925796,-0.19832 1.322917,-0.39688 0.142208,-0.0711 0.254667,-0.19348 0.396875,-0.26458 0.124724,-0.0624 0.27215,-0.0699 0.396875,-0.13229 0.142208,-0.0711 0.264583,-0.17639 0.396875,-0.26459 0.132291,-0.0882 0.274733,-0.16279 0.396875,-0.26458 0.143724,-0.11977 0.264583,-0.26458 0.396875,-0.39688 0.132291,-0.13229 0.277103,-0.25314 0.396875,-0.39687 0.101785,-0.12214 0.162798,-0.27473 0.264583,-0.39688 0.119772,-0.14372 0.284623,-0.2472 0.396875,-0.39687 0.354484,-0.47265 0.392213,-0.70599 0.661458,-1.19063 0.141288,-0.25431 0.555729,-0.87343 0.661459,-1.19062 0.0711,-0.21331 0.06119,-0.44814 0.132291,-0.66146 0.06236,-0.18709 0.19534,-0.34451 0.264584,-0.52917 0.06384,-0.17024 0.07479,-0.35668 0.132291,-0.52916 0.150191,-0.45057 0.404202,-0.86471 0.529167,-1.32292 0.07058,-0.25878 0.08431,-0.52984 0.132292,-0.79375 0.369792,-2.03386 -0.125243,0.88375 0.264583,-1.45521 0.0441,-0.26458 0.08431,-0.52984 0.132292,-0.79375 0.04022,-0.22122 0.109918,-0.43772 0.132291,-0.66146 0.02193,-0.21939 0,-0.44097 0,-0.66145 0,-0.61736 0,-1.23473 0,-1.85209 0,-0.22048 -0.01995,-0.44187 0,-0.66146 0.02429,-0.26713 0.105601,-0.52684 0.132292,-0.79375 0.03949,-0.3949 0,-0.79375 0,-1.19062 0,-0.22049 0.02193,-0.44207 0,-0.66146 -0.04475,-0.44747 -0.17639,-0.88194 -0.264583,-1.32292 -0.08819,-0.44097 -0.146259,-0.88905 -0.264584,-1.32291 -0.07338,-0.26907 -0.19694,-0.52318 -0.264583,-0.79375 -0.06506,-0.26023 -0.06171,-0.53497 -0.132292,-0.79375 -0.06248,-0.22911 -0.202099,-0.43236 -0.264583,-0.66146 -0.141152,-0.51756 -0.134472,-1.06705 -0.264583,-1.5875 -0.06764,-0.27057 -0.191201,-0.52468 -0.264584,-0.79375 -0.118324,-0.43386 -0.13536,-0.89218 -0.264583,-1.32292 -0.06824,-0.22745 -0.196347,-0.434 -0.264583,-0.66146 -0.06461,-0.21536 -0.06119,-0.44814 -0.132292,-0.66145 -0.06236,-0.18709 -0.184489,-0.34896 -0.264583,-0.52917 -0.09645,-0.217 -0.168138,-0.44445 -0.264584,-0.66146 -0.08009,-0.18021 -0.202221,-0.34208 -0.264583,-0.52917 -0.0711,-0.21331 -0.04878,-0.45268 -0.132292,-0.66145 -0.0955,-0.23874 -0.281884,-0.43148 -0.396875,-0.66146 -0.301471,-0.60294 -0.472556,-1.40623 -0.79375,-1.98438 -0.299616,-0.53931 -0.413496,-0.43012 -0.661458,-0.92604 -0.06236,-0.12472 -0.06993,-0.27215 -0.132292,-0.39687 -0.11499,-0.22999 -0.281884,-0.43148 -0.396875,-0.66146 -0.0441,-0.0882 -0.10111,-0.17104 -0.132291,-0.26459 -0.01394,-0.0418 0.03118,-0.1011 0,-0.13229 -0.03118,-0.0312 -0.11257,0.0395 -0.132292,0 -0.03944,-0.0789 0.02789,-0.18091 0,-0.26458 -0.01971,-0.0592 -0.112569,-0.0731 -0.132292,-0.13229 -0.02789,-0.0837 0.02789,-0.18092 0,-0.26459 -0.01971,-0.0592 -0.104401,-0.0765 -0.132291,-0.13229 -0.01971,-0.0394 0.01394,-0.0905 0,-0.13229 -0.03118,-0.0935 -0.101111,-0.17104 -0.132292,-0.26458 -0.01394,-0.0418 0.01971,-0.0928 0,-0.13229 -0.02789,-0.0558 -0.104402,-0.0765 -0.132292,-0.1323 -0.01971,-0.0394 0.01394,-0.0904 0,-0.13229 -0.03118,-0.0935 -0.10111,-0.17103 -0.132291,-0.26458 -0.01394,-0.0418 0.01971,-0.0928 0,-0.13229 -0.02789,-0.0558 -0.104402,-0.0765 -0.132292,-0.13229 -0.03944,-0.0789 0.03944,-0.1857 0,-0.26459 -0.02789,-0.0558 -0.104402,-0.0765 -0.132291,-0.13229 -0.01971,-0.0394 0.01394,-0.0905 0,-0.13229 -0.03118,-0.0935 -0.101111,-0.17104 -0.132292,-0.26458 -0.01394,-0.0418 0.01971,-0.0928 0,-0.1323 -0.02789,-0.0558 -0.11257,-0.0731 -0.132292,-0.13229 -0.02789,-0.0837 0.02789,-0.18091 0,-0.26458 -0.01971,-0.0592 -0.112569,-0.0731 -0.132291,-0.13229 -0.02789,-0.0837 0.02789,-0.18092 0,-0.26459 -0.01971,-0.0592 -0.104402,-0.0765 -0.132292,-0.13229 -0.01971,-0.0394 0.01971,-0.0928 0,-0.13229 -0.02789,-0.0558 -0.11257,-0.0731 -0.132292,-0.13229 -0.02789,-0.0837 0.02138,-0.17902 0,-0.26458 -0.04783,-0.19132 -0.202221,-0.34208 -0.264583,-0.52917 -0.01394,-0.0418 0.01394,-0.0905 0,-0.13229 -0.03118,-0.0935 -0.108376,-0.16892 -0.132292,-0.26459 -0.02138,-0.0856 0.02789,-0.18091 0,-0.26458 -0.01971,-0.0592 -0.112569,-0.0731 -0.132291,-0.13229 -0.02789,-0.0837 0.02789,-0.18092 0,-0.26458 -0.01971,-0.0592 -0.104402,-0.0765 -0.132292,-0.1323 -0.05916,-0.11832 0.04183,-0.27137 0,-0.39687 -0.05422,-0.16267 -0.445265,-0.36136 -0.529167,-0.52917 -0.01971,-0.0394 0,-0.0882 0,-0.13229 -0.0441,-0.0882 -0.0776,-0.18254 -0.132291,-0.26458 -0.06919,-0.10378 -0.153025,-0.20881 -0.264584,-0.26459 -0.03944,-0.0197 -0.10111,0.0312 -0.132291,0 -0.03118,-0.0312 0,-0.0882 0,-0.13229 -0.08819,-0.0441 -0.182539,-0.0776 -0.264584,-0.13229 -0.05189,-0.0346 -0.104402,-0.0765 -0.132291,-0.13229 -0.01971,-0.0394 0.03944,-0.11257 0,-0.13229 -0.07888,-0.0394 -0.180915,0.0279 -0.264584,0 -0.05916,-0.0197 -0.0804,-0.0977 -0.132291,-0.13229 -0.164087,-0.10939 -0.342078,-0.20222 -0.529167,-0.26459 -0.08367,-0.0279 -0.180914,0.0279 -0.264583,0 -0.09354,-0.0312 -0.168924,-0.10837 -0.264584,-0.13229 -0.128341,-0.0321 -0.27855,0.0592 -0.396875,0 -0.111559,-0.0558 -0.153024,-0.2088 -0.264583,-0.26458 -0.03944,-0.0197 -0.09285,0.0197 -0.132292,0 -0.111559,-0.0558 -0.153024,-0.20881 -0.264583,-0.26459 -0.07888,-0.0394 -0.185701,0.0395 -0.264583,0 -0.05578,-0.0279 -0.07651,-0.1044 -0.132292,-0.13229 -0.07888,-0.0394 -0.185701,0.0395 -0.264583,0 -0.05578,-0.0279 -0.07651,-0.1044 -0.132292,-0.13229 -0.03944,-0.0197 -0.09285,0.0197 -0.132292,0 -0.05578,-0.0279 -0.07651,-0.1044 -0.132291,-0.13229 -0.03944,-0.0197 -0.101111,0.0312 -0.132292,0 -0.03118,-0.0312 0.03118,-0.10111 0,-0.13229 -0.06236,-0.0624 -0.185701,0.0394 -0.264583,0 -0.05578,-0.0279 -0.07651,-0.1044 -0.132292,-0.13229 -0.03944,-0.0197 -0.09285,0.0197 -0.132292,0 -0.05578,-0.0279 -0.07313,-0.11257 -0.132291,-0.1323 -0.08367,-0.0279 -0.180915,0.0279 -0.264584,0 -0.05916,-0.0197 -0.07651,-0.1044 -0.132291,-0.13229 -0.07888,-0.0394 -0.180915,0.0279 -0.264584,0 -0.09354,-0.0312 -0.17104,-0.10111 -0.264583,-0.13229 -0.08367,-0.0279 -0.185701,0.0394 -0.264583,0 -0.05578,-0.0279 -0.07651,-0.1044 -0.132292,-0.13229 -0.14111,-0.0705 -0.388056,0.0706 -0.529167,0 -0.05578,-0.0279 -0.07651,-0.1044 -0.132291,-0.13229 -0.137708,-0.0689 -0.523748,0.0688 -0.661459,0 -0.05578,-0.0279 -0.07651,-0.1044 -0.132291,-0.13229 -0.105834,-0.0529 -0.291042,0.0529 -0.396875,0 -0.438756,-0.43876 0.124724,0.0624 -0.264584,-0.1323 -0.05578,-0.0279 -0.07651,-0.1044 -0.132291,-0.13229 -0.105834,-0.0529 -0.291042,0.0529 -0.396875,0 -0.05578,-0.0279 -0.07651,-0.1044 -0.132292,-0.13229 -0.03047,-0.0152 -1.111996,-0.0157 -1.190625,0 -0.178287,0.0357 -0.352777,0.0882 -0.529167,0.13229 z"
       id="path1304"
       inkscape:connector-curvature="0" />
  </g>
</svg>
