<?xml version="1.0" encoding="UTF-8" standalone="no"?>
<!-- Created with Inkscape (http://www.inkscape.org/) -->

<svg
   xmlns:dc="http://purl.org/dc/elements/1.1/"
   xmlns:cc="http://creativecommons.org/ns#"
   xmlns:rdf="http://www.w3.org/1999/02/22-rdf-syntax-ns#"
   xmlns:svg="http://www.w3.org/2000/svg"
   xmlns="http://www.w3.org/2000/svg"
   xmlns:sodipodi="http://sodipodi.sourceforge.net/DTD/sodipodi-0.dtd"
   xmlns:inkscape="http://www.inkscape.org/namespaces/inkscape"
   width="210mm"
   height="297mm"
   viewBox="0 0 210 297"
   version="1.1"
   id="svg8"
   inkscape:version="0.92.4 5da689c313, 2019-01-14"
   sodipodi:docname="dibujo8.svg">
  <defs
     id="defs2" />
  <sodipodi:namedview
     id="base"
     pagecolor="#ffffff"
     bordercolor="#666666"
     borderopacity="1.0"
     inkscape:pageopacity="0.0"
     inkscape:pageshadow="2"
     inkscape:zoom="2.0000001"
     inkscape:cx="268.55682"
     inkscape:cy="720.55064"
     inkscape:document-units="mm"
     inkscape:current-layer="layer1"
     showgrid="false"
     inkscape:snap-center="true"
     inkscape:window-width="1366"
     inkscape:window-height="741"
     inkscape:window-x="0"
     inkscape:window-y="27"
     inkscape:window-maximized="0" />
  <metadata
     id="metadata5">
    <rdf:RDF>
      <cc:Work
         rdf:about="">
        <dc:format>image/svg+xml</dc:format>
        <dc:type
           rdf:resource="http://purl.org/dc/dcmitype/StillImage" />
        <dc:title></dc:title>
      </cc:Work>
    </rdf:RDF>
  </metadata>
  <g
     inkscape:label="Capa 1"
     inkscape:groupmode="layer"
     id="layer1">
    <path
       style="opacity:1;fill:#000000;fill-opacity:1;stroke:none;stroke-width:0.12643245;stroke-miterlimit:4;stroke-dasharray:0.50572977, 0.12643244;stroke-dashoffset:0;stroke-opacity:1"
       d="m 94.641744,77.687837 a 1.9836713,1.9836713 0 0 1 -1.983671,1.98367 1.9836713,1.9836713 0 0 1 -1.983671,-1.98367 1.9836713,1.9836713 0 0 1 1.983671,-1.98368 1.9836713,1.9836713 0 0 1 1.983671,1.98368 z"
       id="circle829"
       inkscape:connector-curvature="0" />
    <path
       style="fill:none;stroke:#000000;stroke-width:0.65124637;stroke-linecap:butt;stroke-linejoin:miter;stroke-miterlimit:4;stroke-dasharray:none;stroke-opacity:1"
       d="M 92.657675,106.52742 106.94557,130.6045"
       id="path848"
       inkscape:connector-curvature="0"
       sodipodi:nodetypes="cc" />
    <path
       style="opacity:1;fill:none;fill-opacity:1;stroke:#1e4cf4;stroke-width:0.40468255;stroke-miterlimit:4;stroke-dasharray:1.61872994, 0.40468248;stroke-dashoffset:0;stroke-opacity:1"
       d="m 97.022993,77.687832 a 4.3649211,4.3649211 0 0 1 -4.36492,4.36492 4.3649211,4.3649211 0 0 1 -4.36492,-4.36492 4.3649211,4.3649211 0 0 1 4.36492,-4.36492 4.3649211,4.3649211 0 0 1 4.36492,4.36492 z"
       id="circle887"
       inkscape:connector-curvature="0" />
    <g
       aria-label=":o"
       style="font-style:normal;font-weight:normal;font-size:4.23333311px;line-height:1.25;font-family:sans-serif;letter-spacing:0px;word-spacing:0px;fill:#1e4cf4;fill-opacity:1;stroke:none;stroke-width:0.26458332"
       id="text1003"
       transform="translate(42.846367,-49.076866)">
      <path
         d="m 80.567088,161.51236 h 0.50884 v 0.61253 h -0.50884 z m 0,-1.94132 h 0.50884 v 0.61254 h -0.50884 z"
         style="font-size:4.93888903px;fill:#1e4cf4;fill-opacity:1;stroke-width:0.26458332"
         id="path1084"
         inkscape:connector-curvature="0" />
      <path
         d="m 83.164345,159.73503 q -0.356911,0 -0.564306,0.27974 -0.207395,0.27733 -0.207395,0.76206 0,0.48472 0.204983,0.76446 0.207395,0.27733 0.566718,0.27733 0.354501,0 0.561896,-0.27974 0.207394,-0.27974 0.207394,-0.76205 0,-0.4799 -0.207394,-0.75965 -0.207395,-0.28215 -0.561896,-0.28215 z m 0,-0.3762 q 0.578776,0 0.909161,0.3762 0.330385,0.3762 0.330385,1.0418 0,0.66318 -0.330385,1.04179 -0.330385,0.37621 -0.909161,0.37621 -0.581187,0 -0.911572,-0.37621 -0.327973,-0.37861 -0.327973,-1.04179 0,-0.6656 0.327973,-1.0418 0.330385,-0.3762 0.911572,-0.3762 z"
         style="font-size:4.93888903px;fill:#1e4cf4;fill-opacity:1;stroke-width:0.26458332"
         id="path1086"
         inkscape:connector-curvature="0" />
    </g>
    <path
       inkscape:connector-curvature="0"
       id="path3052"
       d="m 125.86258,77.687837 a 1.9836713,1.9836713 0 0 1 -1.98367,1.98367 1.9836713,1.9836713 0 0 1 -1.98368,-1.98367 1.9836713,1.9836713 0 0 1 1.98368,-1.98368 1.9836713,1.9836713 0 0 1 1.98367,1.98368 z"
       style="opacity:1;fill:#000000;fill-opacity:1;stroke:none;stroke-width:0.12643245;stroke-miterlimit:4;stroke-dasharray:0.50572977, 0.12643244;stroke-dashoffset:0;stroke-opacity:1" />
    <path
       style="opacity:1;fill:#000000;fill-opacity:1;stroke:none;stroke-width:0.12643245;stroke-miterlimit:4;stroke-dasharray:0.50572977, 0.12643244;stroke-dashoffset:0;stroke-opacity:1"
       d="m 125.86258,106.52742 a 1.9836713,1.9836713 0 0 1 -1.98367,1.98367 1.9836713,1.9836713 0 0 1 -1.98368,-1.98367 1.9836713,1.9836713 0 0 1 1.98368,-1.98368 1.9836713,1.9836713 0 0 1 1.98367,1.98368 z"
       id="path3054"
       inkscape:connector-curvature="0" />
    <path
       inkscape:connector-curvature="0"
       id="path3056"
       d="m 94.64135,106.52742 a 1.9836713,1.9836713 0 0 1 -1.98367,1.98367 1.9836713,1.9836713 0 0 1 -1.98368,-1.98367 1.9836713,1.9836713 0 0 1 1.98368,-1.98368 1.9836713,1.9836713 0 0 1 1.98367,1.98368 z"
       style="opacity:1;fill:#000000;fill-opacity:1;stroke:none;stroke-width:0.12643245;stroke-miterlimit:4;stroke-dasharray:0.50572977, 0.12643244;stroke-dashoffset:0;stroke-opacity:1" />
    <path
       inkscape:connector-curvature="0"
       id="path3058"
       d="m 108.92924,54.139921 a 1.9836713,1.9836713 0 0 1 -1.98367,1.98367 1.9836713,1.9836713 0 0 1 -1.98367,-1.98367 1.9836713,1.9836713 0 0 1 1.98367,-1.98368 1.9836713,1.9836713 0 0 1 1.98367,1.98368 z"
       style="opacity:1;fill:#000000;fill-opacity:1;stroke:none;stroke-width:0.12643245;stroke-miterlimit:4;stroke-dasharray:0.50572977, 0.12643244;stroke-dashoffset:0;stroke-opacity:1" />
    <path
       style="opacity:1;fill:#000000;fill-opacity:1;stroke:none;stroke-width:0.12643245;stroke-miterlimit:4;stroke-dasharray:0.50572977, 0.12643244;stroke-dashoffset:0;stroke-opacity:1"
       d="m 108.92924,130.6045 a 1.9836713,1.9836713 0 0 1 -1.98367,1.98367 1.9836713,1.9836713 0 0 1 -1.98367,-1.98367 1.9836713,1.9836713 0 0 1 1.98367,-1.98368 1.9836713,1.9836713 0 0 1 1.98367,1.98368 z"
       id="path3060"
       inkscape:connector-curvature="0" />
    <path
       sodipodi:nodetypes="cc"
       inkscape:connector-curvature="0"
       id="path3062"
       d="m 92.657675,106.52742 31.221235,0"
       style="fill:none;stroke:#000000;stroke-width:0.65124637;stroke-linecap:butt;stroke-linejoin:miter;stroke-miterlimit:4;stroke-dasharray:none;stroke-opacity:1" />
    <path
       style="fill:none;stroke:#000000;stroke-width:0.65124637;stroke-linecap:butt;stroke-linejoin:miter;stroke-miterlimit:4;stroke-dasharray:none;stroke-opacity:1"
       d="m 106.94557,130.6045 16.93334,-24.07708"
       id="path3064"
       inkscape:connector-curvature="0"
       sodipodi:nodetypes="cc" />
    <path
       sodipodi:nodetypes="cc"
       inkscape:connector-curvature="0"
       id="path3066"
       d="m 123.87891,77.687832 0,28.839588"
       style="fill:none;stroke:#000000;stroke-width:0.65124637;stroke-linecap:butt;stroke-linejoin:miter;stroke-miterlimit:4;stroke-dasharray:none;stroke-opacity:1" />
    <path
       style="fill:none;stroke:#000000;stroke-width:0.65124637;stroke-linecap:butt;stroke-linejoin:miter;stroke-miterlimit:4;stroke-dasharray:none;stroke-opacity:1"
       d="M 92.658073,77.687832 123.87891,106.52742"
       id="path3068"
       inkscape:connector-curvature="0"
       sodipodi:nodetypes="cc" />
    <path
       sodipodi:nodetypes="cc"
       inkscape:connector-curvature="0"
       id="path3070"
       d="m 92.658073,77.687832 -3.98e-4,28.839588"
       style="fill:none;stroke:#000000;stroke-width:0.65124637;stroke-linecap:butt;stroke-linejoin:miter;stroke-miterlimit:4;stroke-dasharray:none;stroke-opacity:1" />
    <path
       style="fill:none;stroke:#000000;stroke-width:0.65124637;stroke-linecap:butt;stroke-linejoin:miter;stroke-miterlimit:4;stroke-dasharray:none;stroke-opacity:1"
       d="m 92.658073,77.687832 31.220837,0"
       id="path3072"
       inkscape:connector-curvature="0"
       sodipodi:nodetypes="cc" />
    <path
       sodipodi:nodetypes="cc"
       inkscape:connector-curvature="0"
       id="path3074"
       d="M 92.657675,106.52742 123.87891,77.687832"
       style="fill:none;stroke:#000000;stroke-width:0.65124637;stroke-linecap:butt;stroke-linejoin:miter;stroke-miterlimit:4;stroke-dasharray:none;stroke-opacity:1" />
    <path
       style="fill:none;stroke:#000000;stroke-width:0.65124637;stroke-linecap:butt;stroke-linejoin:miter;stroke-miterlimit:4;stroke-dasharray:none;stroke-opacity:1"
       d="m 106.94557,54.139916 16.93334,23.547916"
       id="path3076"
       inkscape:connector-curvature="0"
       sodipodi:nodetypes="cc" />
    <path
       sodipodi:nodetypes="cc"
       inkscape:connector-curvature="0"
       id="path3078"
       d="M 106.94557,54.139916 92.658073,77.687832"
       style="fill:none;stroke:#000000;stroke-width:0.65124637;stroke-linecap:butt;stroke-linejoin:miter;stroke-miterlimit:4;stroke-dasharray:none;stroke-opacity:1" />
    <path
       inkscape:connector-curvature="0"
       id="path3080"
       d="m 128.24383,77.687832 a 4.3649211,4.3649211 0 0 1 -4.36492,4.36492 4.3649211,4.3649211 0 0 1 -4.36492,-4.36492 4.3649211,4.3649211 0 0 1 4.36492,-4.36492 4.3649211,4.3649211 0 0 1 4.36492,4.36492 z"
       style="opacity:1;fill:none;fill-opacity:1;stroke:#1e4cf4;stroke-width:0.40468255;stroke-miterlimit:4;stroke-dasharray:1.61872994, 0.40468248;stroke-dashoffset:0;stroke-opacity:1" />
    <g
       transform="translate(2.6297022,-52.119574)"
       id="g3086"
       style="font-style:normal;font-weight:normal;font-size:4.23333311px;line-height:1.25;font-family:sans-serif;letter-spacing:0px;word-spacing:0px;fill:#1e4cf4;fill-opacity:1;stroke:none;stroke-width:0.26458332"
       aria-label=":o">
      <path
         inkscape:connector-curvature="0"
         id="path3082"
         style="font-size:4.93888903px;fill:#1e4cf4;fill-opacity:1;stroke-width:0.26458332"
         d="m 80.567088,161.51236 h 0.50884 v 0.61253 h -0.50884 z m 0,-1.94132 h 0.50884 v 0.61254 h -0.50884 z" />
      <path
         inkscape:connector-curvature="0"
         id="path3084"
         style="font-size:4.93888903px;fill:#1e4cf4;fill-opacity:1;stroke-width:0.26458332"
         d="m 83.164345,159.73503 q -0.356911,0 -0.564306,0.27974 -0.207395,0.27733 -0.207395,0.76206 0,0.48472 0.204983,0.76446 0.207395,0.27733 0.566718,0.27733 0.354501,0 0.561896,-0.27974 0.207394,-0.27974 0.207394,-0.76205 0,-0.4799 -0.207394,-0.75965 -0.207395,-0.28215 -0.561896,-0.28215 z m 0,-0.3762 q 0.578776,0 0.909161,0.3762 0.330385,0.3762 0.330385,1.0418 0,0.66318 -0.330385,1.04179 -0.330385,0.37621 -0.909161,0.37621 -0.581187,0 -0.911572,-0.37621 -0.327973,-0.37861 -0.327973,-1.04179 0,-0.6656 0.327973,-1.0418 0.330385,-0.3762 0.911572,-0.3762 z" />
    </g>
    <g
       transform="translate(28.823451,-24.470617)"
       id="g3092"
       style="font-style:normal;font-weight:normal;font-size:4.23333311px;line-height:1.25;font-family:sans-serif;letter-spacing:0px;word-spacing:0px;fill:#1e4cf4;fill-opacity:1;stroke:none;stroke-width:0.26458332"
       aria-label=":o">
      <path
         inkscape:connector-curvature="0"
         id="path3088"
         style="font-size:4.93888903px;fill:#1e4cf4;fill-opacity:1;stroke-width:0.26458332"
         d="m 80.567088,161.51236 h 0.50884 v 0.61253 h -0.50884 z m 0,-1.94132 h 0.50884 v 0.61254 h -0.50884 z" />
      <path
         inkscape:connector-curvature="0"
         id="path3090"
         style="font-size:4.93888903px;fill:#1e4cf4;fill-opacity:1;stroke-width:0.26458332"
         d="m 83.164345,159.73503 q -0.356911,0 -0.564306,0.27974 -0.207395,0.27733 -0.207395,0.76206 0,0.48472 0.204983,0.76446 0.207395,0.27733 0.566718,0.27733 0.354501,0 0.561896,-0.27974 0.207394,-0.27974 0.207394,-0.76205 0,-0.4799 -0.207394,-0.75965 -0.207395,-0.28215 -0.561896,-0.28215 z m 0,-0.3762 q 0.578776,0 0.909161,0.3762 0.330385,0.3762 0.330385,1.0418 0,0.66318 -0.330385,1.04179 -0.330385,0.37621 -0.909161,0.37621 -0.581187,0 -0.911572,-0.37621 -0.327973,-0.37861 -0.327973,-1.04179 0,-0.6656 0.327973,-1.0418 0.330385,-0.3762 0.911572,-0.3762 z" />
    </g>
  </g>
</svg>
