<?xml version="1.0" encoding="UTF-8" standalone="no"?>
<!-- Created with Inkscape (http://www.inkscape.org/) -->

<svg
   xmlns:dc="http://purl.org/dc/elements/1.1/"
   xmlns:cc="http://creativecommons.org/ns#"
   xmlns:rdf="http://www.w3.org/1999/02/22-rdf-syntax-ns#"
   xmlns:svg="http://www.w3.org/2000/svg"
   xmlns="http://www.w3.org/2000/svg"
   xmlns:sodipodi="http://sodipodi.sourceforge.net/DTD/sodipodi-0.dtd"
   xmlns:inkscape="http://www.inkscape.org/namespaces/inkscape"
   width="210mm"
   height="297mm"
   viewBox="0 0 210 297"
   version="1.1"
   id="svg8"
   inkscape:version="0.92.4 5da689c313, 2019-01-14"
   sodipodi:docname="dibujo5.svg">
  <defs
     id="defs2" />
  <sodipodi:namedview
     id="base"
     pagecolor="#ffffff"
     bordercolor="#666666"
     borderopacity="1.0"
     inkscape:pageopacity="0.0"
     inkscape:pageshadow="2"
     inkscape:zoom="2.0000001"
     inkscape:cx="220.17185"
     inkscape:cy="703.54456"
     inkscape:document-units="mm"
     inkscape:current-layer="layer1"
     showgrid="false"
     inkscape:snap-center="true"
     inkscape:window-width="1366"
     inkscape:window-height="741"
     inkscape:window-x="0"
     inkscape:window-y="27"
     inkscape:window-maximized="0" />
  <metadata
     id="metadata5">
    <rdf:RDF>
      <cc:Work
         rdf:about="">
        <dc:format>image/svg+xml</dc:format>
        <dc:type
           rdf:resource="http://purl.org/dc/dcmitype/StillImage" />
        <dc:title />
      </cc:Work>
    </rdf:RDF>
  </metadata>
  <g
     inkscape:label="Capa 1"
     inkscape:groupmode="layer"
     id="layer1">
    <path
       style="opacity:1;fill:#000000;fill-opacity:1;stroke:none;stroke-width:0.12643245;stroke-miterlimit:4;stroke-dasharray:0.50572977, 0.12643244;stroke-dashoffset:0;stroke-opacity:1"
       d="m 72.757862,99.58859 a 1.9836713,1.9836713 0 0 1 -1.98367,1.98367 1.9836713,1.9836713 0 0 1 -1.98367,-1.98367 1.9836713,1.9836713 0 0 1 1.98367,-1.98367 1.9836713,1.9836713 0 0 1 1.98367,1.98367 z"
       id="circle821"
       inkscape:connector-curvature="0" />
    <path
       inkscape:connector-curvature="0"
       id="path1041"
       d="M 56.089819,120.22609 70.774192,99.58859"
       style="fill:none;stroke:#000000;stroke-width:0.65124637;stroke-linecap:butt;stroke-linejoin:miter;stroke-miterlimit:4;stroke-dasharray:none;stroke-opacity:1"
       sodipodi:nodetypes="cc" />
    <path
       inkscape:connector-curvature="0"
       id="path972"
       d="m 86.913074,120.49067 a 1.9836713,1.9836713 0 0 1 -1.983674,1.98367 1.9836713,1.9836713 0 0 1 -1.98367,-1.98367 1.9836713,1.9836713 0 0 1 1.98367,-1.98367 1.9836713,1.9836713 0 0 1 1.983674,1.98367 z"
       style="opacity:1;fill:#000000;fill-opacity:1;stroke:none;stroke-width:0.12643245;stroke-miterlimit:4;stroke-dasharray:0.50572977, 0.12643244;stroke-dashoffset:0;stroke-opacity:1" />
    <path
       inkscape:connector-curvature="0"
       id="path1034"
       d="m 58.073491,120.22609 a 1.9836713,1.9836713 0 0 1 -1.983674,1.98367 1.9836713,1.9836713 0 0 1 -1.98367,-1.98367 1.9836713,1.9836713 0 0 1 1.98367,-1.98367 1.9836713,1.9836713 0 0 1 1.983674,1.98367 z"
       style="opacity:1;fill:#000000;fill-opacity:1;stroke:none;stroke-width:0.12643245;stroke-miterlimit:4;stroke-dasharray:0.50572977, 0.12643244;stroke-dashoffset:0;stroke-opacity:1" />
    <path
       inkscape:connector-curvature="0"
       id="path1036"
       d="m 72.757862,144.30317 a 1.9836713,1.9836713 0 0 1 -1.98367,1.98367 1.9836713,1.9836713 0 0 1 -1.98367,-1.98367 1.9836713,1.9836713 0 0 1 1.98367,-1.98367 1.9836713,1.9836713 0 0 1 1.98367,1.98367 z"
       style="opacity:1;fill:#000000;fill-opacity:1;stroke:none;stroke-width:0.12643245;stroke-miterlimit:4;stroke-dasharray:0.50572977, 0.12643244;stroke-dashoffset:0;stroke-opacity:1" />
    <path
       sodipodi:nodetypes="cc"
       style="fill:none;stroke:#000000;stroke-width:0.65124637;stroke-linecap:butt;stroke-linejoin:miter;stroke-miterlimit:4;stroke-dasharray:none;stroke-opacity:1"
       d="m 56.089819,120.22609 14.684373,24.07708"
       id="path1038"
       inkscape:connector-curvature="0" />
    <path
       inkscape:connector-curvature="0"
       id="path1040"
       d="m 84.929402,120.49067 -14.15521,23.8125"
       style="fill:none;stroke:#000000;stroke-width:0.65124637;stroke-linecap:butt;stroke-linejoin:miter;stroke-miterlimit:4;stroke-dasharray:none;stroke-opacity:1"
       sodipodi:nodetypes="cc" />
    <path
       sodipodi:nodetypes="cc"
       style="fill:none;stroke:#000000;stroke-width:0.65124637;stroke-linecap:butt;stroke-linejoin:miter;stroke-miterlimit:4;stroke-dasharray:none;stroke-opacity:1"
       d="M 84.929402,120.49067 70.774192,99.58859"
       id="path1042"
       inkscape:connector-curvature="0" />
    <text
       xml:space="preserve"
       style="font-style:normal;font-weight:normal;font-size:10.58333302px;line-height:1.25;font-family:sans-serif;letter-spacing:0px;word-spacing:0px;fill:#000000;fill-opacity:1;stroke:none;stroke-width:0.26458332"
       x="75.406242"
       y="99.223961"
       id="text4220"><tspan
         sodipodi:role="line"
         id="tspan4218"
         x="75.406242"
         y="99.223961"
         style="font-size:3.52777767px;stroke-width:0.26458332">$\top$</tspan></text>
    <text
       id="text4224"
       y="145.12917"
       x="75.406242"
       style="font-style:normal;font-weight:normal;font-size:10.58333302px;line-height:1.25;font-family:sans-serif;letter-spacing:0px;word-spacing:0px;fill:#000000;fill-opacity:1;stroke:none;stroke-width:0.26458332"
       xml:space="preserve"><tspan
         style="font-size:3.52777767px;stroke-width:0.26458332"
         y="145.12917"
         x="75.406242"
         id="tspan4222"
         sodipodi:role="line">$\bot$</tspan></text>
  </g>
</svg>
