<?xml version="1.0" encoding="UTF-8" standalone="no"?>
<!-- Created with Inkscape (http://www.inkscape.org/) -->

<svg
   xmlns:dc="http://purl.org/dc/elements/1.1/"
   xmlns:cc="http://creativecommons.org/ns#"
   xmlns:rdf="http://www.w3.org/1999/02/22-rdf-syntax-ns#"
   xmlns:svg="http://www.w3.org/2000/svg"
   xmlns="http://www.w3.org/2000/svg"
   xmlns:sodipodi="http://sodipodi.sourceforge.net/DTD/sodipodi-0.dtd"
   xmlns:inkscape="http://www.inkscape.org/namespaces/inkscape"
   width="210mm"
   height="297mm"
   viewBox="0 0 210 297"
   version="1.1"
   id="svg8"
   inkscape:version="0.92.4 5da689c313, 2019-01-14"
   sodipodi:docname="dibujo.svg">
  <defs
     id="defs2">
    <inkscape:path-effect
       effect="simplify"
       id="path-effect872"
       is_visible="true"
       steps="1"
       threshold="0.00645161"
       smooth_angles="360"
       helper_size="0"
       simplify_individual_paths="false"
       simplify_just_coalesce="false"
       simplifyindividualpaths="false"
       simplifyJustCoalesce="false" />
    <inkscape:path-effect
       effect="simplify"
       id="path-effect864"
       is_visible="true"
       steps="1"
       threshold="0.00645161"
       smooth_angles="360"
       helper_size="0"
       simplify_individual_paths="false"
       simplify_just_coalesce="false"
       simplifyindividualpaths="false"
       simplifyJustCoalesce="false" />
    <inkscape:path-effect
       effect="simplify"
       id="path-effect860"
       is_visible="true"
       steps="1"
       threshold="0.00645161"
       smooth_angles="360"
       helper_size="0"
       simplify_individual_paths="false"
       simplify_just_coalesce="false"
       simplifyindividualpaths="false"
       simplifyJustCoalesce="false" />
    <inkscape:path-effect
       effect="simplify"
       id="path-effect852"
       is_visible="true"
       steps="1"
       threshold="0.00645161"
       smooth_angles="360"
       helper_size="0"
       simplify_individual_paths="false"
       simplify_just_coalesce="false"
       simplifyindividualpaths="false"
       simplifyJustCoalesce="false" />
    <inkscape:path-effect
       effect="simplify"
       id="path-effect848"
       is_visible="true"
       steps="1"
       threshold="0.00645161"
       smooth_angles="360"
       helper_size="0"
       simplify_individual_paths="false"
       simplify_just_coalesce="false"
       simplifyindividualpaths="false"
       simplifyJustCoalesce="false" />
    <inkscape:path-effect
       effect="simplify"
       id="path-effect838"
       is_visible="true"
       steps="1"
       threshold="0.00645161"
       smooth_angles="360"
       helper_size="0"
       simplify_individual_paths="false"
       simplify_just_coalesce="false"
       simplifyindividualpaths="false"
       simplifyJustCoalesce="false" />
  </defs>
  <sodipodi:namedview
     id="base"
     pagecolor="#ffffff"
     bordercolor="#666666"
     borderopacity="1.0"
     inkscape:pageopacity="0.0"
     inkscape:pageshadow="2"
     inkscape:zoom="1.979899"
     inkscape:cx="529.81942"
     inkscape:cy="936.91777"
     inkscape:document-units="mm"
     inkscape:current-layer="layer1"
     showgrid="false"
     inkscape:window-width="1366"
     inkscape:window-height="768"
     inkscape:window-x="0"
     inkscape:window-y="0"
     inkscape:window-maximized="0"
     inkscape:snap-bbox="true"
     inkscape:bbox-nodes="true" />
  <metadata
     id="metadata5">
    <rdf:RDF>
      <cc:Work
         rdf:about="">
        <dc:format>image/svg+xml</dc:format>
        <dc:type
           rdf:resource="http://purl.org/dc/dcmitype/StillImage" />
        <dc:title></dc:title>
      </cc:Work>
    </rdf:RDF>
  </metadata>
  <g
     inkscape:label="Capa 1"
     inkscape:groupmode="layer"
     id="layer1">
    <circle
       style="opacity:1;fill:#000000;fill-opacity:1;stroke:none;stroke-width:0.66499996;stroke-miterlimit:4;stroke-dasharray:none;stroke-dashoffset:0;stroke-opacity:1"
       id="path834"
       cx="92.50444"
       cy="71.795418"
       r="2.3998623" />
    <circle
       r="2.3998623"
       cy="40.990356"
       cx="92.50444"
       id="circle840"
       style="opacity:1;fill:#000000;fill-opacity:1;stroke:none;stroke-width:0.66499996;stroke-miterlimit:4;stroke-dasharray:none;stroke-dashoffset:0;stroke-opacity:1" />
    <circle
       r="2.3998623"
       cy="93.340057"
       cx="119.71872"
       id="circle842"
       style="opacity:1;fill:#000000;fill-opacity:1;stroke:none;stroke-width:0.66499996;stroke-miterlimit:4;stroke-dasharray:none;stroke-dashoffset:0;stroke-opacity:1" />
    <circle
       style="opacity:1;fill:#000000;fill-opacity:1;stroke:none;stroke-width:0.66499996;stroke-miterlimit:4;stroke-dasharray:none;stroke-dashoffset:0;stroke-opacity:1"
       id="circle844"
       cx="60.187466"
       cy="80.866844"
       r="2.3998623" />
    <path
       style="opacity:1;fill:none;fill-opacity:1;stroke:#000000;stroke-width:0.66499996;stroke-miterlimit:4;stroke-dasharray:none;stroke-dashoffset:0;stroke-opacity:1"
       d="m 78.176336,81.447126 c 2.171862,0.280286 4.26314,-1.118739 6.381046,-0.809779 1.150132,0.167781 2.088827,-0.553663 3.207062,-0.828059 1.528131,-0.374978 3.776495,0.196113 4.577175,-1.168492 0.542219,-0.924108 1.788117,-1.507699 2.784705,-1.220905 1.156218,0.332732 2.112942,-0.444888 3.228862,-0.649982 1.039397,-0.19103 2.039654,-0.511242 3.096534,-0.644705 1.0034,-0.126709 2.04854,-0.0059 2.98328,-0.562622 1.4496,-0.86329 2.73623,-1.973938 4.4041,-2.4919 0.59742,-0.185531 1.22233,-0.393064 1.67685,-0.844357"
       id="path846"
       inkscape:connector-curvature="0"
       inkscape:path-effect="#path-effect848"
       inkscape:original-d="m 78.176336,81.447126 c 2.132036,0.252118 4.084426,-0.507127 6.147199,-0.80181 0.308679,-0.0441 0.632939,0.07563 0.935443,0 0.425619,-0.106404 0.801809,-0.356359 1.202714,-0.53454 0.579082,-0.133633 1.157726,-0.269192 1.737251,-0.400902 1.183706,-0.269026 3.075355,-0.594714 4.142676,-1.069078 0.260644,-0.115842 0.297217,-0.50996 0.534541,-0.668176 0.217662,-0.145108 1.259501,-0.492442 1.469982,-0.534538 0.771346,-0.15427 1.79182,0.249079 2.539061,0 0.415896,-0.138633 1.032314,-0.558757 1.469983,-0.668173 0.988621,-0.247155 1.611246,-0.109961 2.672694,-0.53454 0.68439,-0.273754 1.78495,-0.07874 2.53906,-0.267269 0.96328,-0.240821 2.85245,-1.893949 3.87541,-2.405425 0.95428,-0.477142 2.30053,-0.563277 3.0736,-1.33635"
       transform="translate(-17.764881)" />
    <path
       style="opacity:1;fill:none;fill-opacity:1;stroke:#000000;stroke-width:0.66499996;stroke-miterlimit:4;stroke-dasharray:none;stroke-dashoffset:0;stroke-opacity:1"
       d="m 110.91685,42.29214 c -0.36473,7.665697 0.78351,15.316624 0.57217,22.976935 -0.0437,1.585411 0.77951,3.534688 -0.23866,4.792812 -1.02162,1.26239 -0.72704,2.030777 0.9381,2.665157 4.90901,1.870217 8.4647,5.83876 13.05326,8.352821 1.62467,0.890152 2.962,2.25779 4.72387,2.898437 1.71663,0.624198 2.50018,2.369642 2.95952,3.958579 0.43206,1.494583 2.11957,1.779139 2.83182,3.144705 0.35563,0.681838 0.95269,1.187187 1.48597,1.724495"
       id="path850"
       inkscape:connector-curvature="0"
       inkscape:path-effect="#path-effect852"
       inkscape:original-d="m 110.91685,42.29214 c -0.37538,7.44084 0.53454,14.666857 0.53454,22.049734 0,0.396412 0.26757,4.810263 0,5.34539 -0.60908,1.218169 -0.59319,0.485585 -0.93544,2.539061 4.5903,1.007295 8.07903,4.806937 11.89349,7.349914 1.09479,0.72986 2.35586,1.178391 3.47451,1.870887 1.52465,0.943835 1.06684,0.871242 2.53906,1.737252 0.95394,0.56114 2.17962,0.976908 2.93996,1.737252 0.57905,0.579049 1.37076,2.774583 1.87089,3.608138 0.53954,0.899236 2.0885,1.321006 2.40543,2.271791 0.25279,0.758397 1.02219,1.423104 1.60361,2.004522"
       transform="translate(-17.764881)" />
    <path
       style="opacity:1;fill:none;fill-opacity:1;stroke:#000000;stroke-width:0.66499996;stroke-miterlimit:4;stroke-dasharray:none;stroke-dashoffset:0;stroke-opacity:1"
       d="m 137.2429,92.80608 c 0.94083,0.422065 0.36104,-2.597474 0.37921,-3.521955 0.0427,-2.170634 -0.92223,-4.177257 -1.52984,-6.223628 -0.59575,-2.006437 -0.65609,-4.194016 -2.07907,-5.924594 -1.47328,-1.791748 -1.77734,-4.162697 -3.01206,-6.121281 -1.33887,-2.123797 -1.71403,-5.129351 -3.80967,-6.494758 -1.66344,-1.083809 -2.01117,-3.098164 -3.28537,-4.546901 -1.19714,-1.36112 -2.45123,-2.680133 -3.23391,-4.317346 -1.19911,-2.508309 -2.19295,-5.085183 -3.90262,-7.353155 -0.99427,-1.318956 -1.94604,-2.634494 -2.89812,-4.053011 -0.58615,-0.873312 -2.72587,-2.239423 -2.78193,-2.37403 0,0 -0.0966,0.219355 -0.0966,0.219355 0,0 -0.0761,0.197364 -0.0761,0.197364"
       id="path858"
       inkscape:connector-curvature="0"
       inkscape:path-effect="#path-effect860"
       inkscape:original-d="m 137.2429,92.80608 c 0.13363,0.08909 0.28734,0.380838 0.4009,0.267268 0.0361,-0.03607 0.0173,-5.02639 -0.13363,-5.479023 -0.47305,-1.419164 -0.86178,-2.852616 -1.33635,-4.276315 -0.45697,-1.370917 -0.54714,-2.783617 -0.93544,-4.142676 -0.34685,-1.213988 -1.46623,-2.13065 -2.00452,-3.207234 -0.60517,-1.210334 -0.9133,-2.667355 -1.60362,-3.875408 -1.31821,-2.306865 -2.81404,-4.559014 -4.00904,-6.949009 -0.46007,-0.920133 -1.43808,-1.438076 -2.13816,-2.138156 -0.77059,-0.770596 -1.17339,-2.777005 -2.00452,-3.608138 -0.67868,-0.67868 -1.08658,-1.543704 -1.60362,-2.405425 -0.30968,-0.516136 -0.92516,-0.781243 -1.20271,-1.336347 -0.99379,-1.987585 -2.39429,-3.719499 -3.34087,-5.612662 -0.31941,-0.638818 -0.42327,-1.640885 -0.80181,-2.271789 -0.18236,-0.303938 -0.58648,-0.514707 -0.80181,-0.801809 -0.20594,-0.274596 -0.25254,-0.63872 -0.4009,-0.935445 -0.10518,-0.21036 -1.76658,-2.167485 -2.00452,-2.405425 -0.83619,-0.836184 -1.03225,-0.777259 -1.87089,-1.336347 -0.0869,-0.05793 -0.45287,-0.668174 -0.4009,-0.668174 0.22713,0 -0.0785,0.447821 -0.13364,0.668174"
       transform="translate(-17.764881)" />
    <path
       style="opacity:1;fill:none;fill-opacity:1;stroke:#000000;stroke-width:0.66499996;stroke-miterlimit:4;stroke-dasharray:none;stroke-dashoffset:0;stroke-opacity:1"
       d="m 111.08952,41.875421 c -2.15131,-3.688188 -6.53459,-14.442427 -7.55388,-10.307593 -0.2,0.811313 -2.1215,-1.445063 -3.44676,-2.213939 -3.02869,-1.757151 -5.004301,0.358918 -6.453636,3.455264 -1.420202,3.034106 -4.540386,5.504105 -7.749819,6.216479 -3.063256,0.679928 -6.383677,0.314978 -8.712185,-2.205588 -2.546036,-2.756036 -6.225491,-4.000658 -9.570171,-5.490928 -2.758972,-1.229299 -6.426998,-3.346348 -9.03171,-1.4879 -2.502713,1.785672 -5.659317,2.289803 -8.402064,3.70913 -4.569666,2.364727 -9.352953,4.250206 -14.04317,6.352956 -3.555307,1.593939 -8.251292,4.90722 -6.995995,9.136429 1.118101,3.766982 5.390266,4.876669 8.952616,4.867856 3.566371,-0.0088 7.382751,0.97231 10.734383,-0.29113 2.975008,-1.121467 6.029694,-1.500491 9.051992,-3.000227 3.522507,-1.747952 9.113893,-1.736636 10.760844,2.027671 1.819468,4.158616 -3.701474,5.123325 -6.545597,6.186463 -4.993983,1.866759 -10.444747,1.749373 -15.530779,3.206253 -3.562194,1.020381 -8.065453,-0.152697 -10.869336,2.384428 -3.29206,2.978857 -2.33279,9.396227 1.788129,10.864928 3.140692,1.119347 6.688349,0.07555 9.893024,0.820414 3.264719,0.758818 5.610542,-3.388324 8.597936,-2.150938 2.632045,1.0902 6.149723,0.629291 8.033826,2.443468 1.748892,1.683984 2.126171,3.476788 5.078593,4.30102 2.300325,0.642185 4.905253,1.80865 5.763523,-1.036248 0.655107,-2.171477 2.875907,1.42052 4.04633,2.07796 0,0 -0.268625,-0.09503 -0.268625,-0.09503 0,0 -0.440653,-0.199493 -0.440653,-0.199493"
       id="path862"
       inkscape:connector-curvature="0"
       inkscape:path-effect="#path-effect864"
       inkscape:original-d="m 111.08952,41.875421 c -2.03502,-3.514675 -4.56828,-6.614496 -7.14607,-9.836732 -1.1578,-1.44725 0.69942,1.077399 -1.13393,-0.755951 -0.19921,-0.199211 -0.16595,-0.570434 -0.37797,-0.755952 -0.85143,-0.745003 -2.72015,-1.277049 -3.779766,-1.700893 -0.354529,-0.141814 -0.943922,0 -1.322917,0 -0.461566,0 -1.497878,-0.124613 -1.889879,0.188987 -1.002845,0.802275 -1.822918,4.897919 -3.023812,5.858632 -2.499577,1.999662 -4.306138,4.033782 -7.74851,4.346725 -4.689078,0.426281 -5.144963,-0.04228 -8.693452,-3.590774 -1.018352,-1.018349 -8.46261,-4.376533 -10.205357,-5.102677 -1.714447,-0.714354 -4.669642,-1.431176 -6.614584,-0.944941 -0.819779,0.204944 -1.426736,1.082596 -2.267857,1.322917 -4.933722,1.409634 -9.418143,4.122846 -14.174107,6.236607 -4.809948,2.137754 -12.267118,3.986258 -13.607143,10.016368 -0.773035,3.478665 3.173061,6.378927 6.236608,6.614584 2.285344,0.175794 11.193528,0.434506 13.040177,0 0.603946,-0.142106 1.100884,-0.598054 1.700892,-0.755952 0.61226,-0.161121 1.259922,-0.125992 1.889882,-0.188989 0.692957,-0.125992 1.400247,-0.189471 2.078868,-0.377976 1.303692,-0.362135 1.420913,-0.757568 2.645834,-1.322917 3.127023,-1.443241 6.252257,-2.310863 9.449405,-0.566965 0.815769,0.444966 2.362068,1.46367 2.645834,2.456847 1.18164,4.135736 -3.253187,4.761645 -6.236608,5.669642 -2.514322,0.765228 -4.960448,1.614747 -7.559524,2.078869 -3.227176,0.576281 -6.452632,0.819348 -9.638392,1.511905 -2.864173,0.622647 -5.754457,0.595236 -8.504465,1.511904 -3.505293,1.168431 -3.860255,6.797447 -1.889879,9.260416 0.956289,1.195361 2.039107,2.257917 3.590774,2.645834 1.733656,0.433414 10.505416,0.592936 11.717261,0.188989 1.280332,-0.426778 2.469253,-1.62778 3.77976,-1.889882 2.695057,-0.539012 4.718651,1.153583 7.181549,1.700893 0.53318,0.118485 1.413613,-0.238133 1.889881,0 1.204648,0.602324 2.273329,2.779122 3.023809,3.779763 0.125992,0.125992 0.251984,0.251984 0.377976,0.377976 0,0.125992 -0.06989,0.273145 0,0.377976 0.390687,0.586028 1.385269,0.255576 2.078869,0.377975 0.632661,0.111647 1.256186,0.27236 1.889881,0.377976 0.186418,0.03107 0.507201,-0.179289 0.566965,0 0.141341,0.424024 0.514649,0.9711 1.322917,0.566965 0.895652,-0.447826 1.749626,-1.418402 2.456844,-1.889881 0.64231,-0.428205 0.274061,-0.170141 0.566965,-0.755952 0.05635,-0.112691 0.503968,0 0.377976,0 -0.125992,0 -0.467066,-0.08909 -0.377976,0 0.292164,0.292163 5.613331,3.903517 2.770087,2.539389"
       transform="translate(-17.764881)" />
    <path
       style="opacity:1;fill:none;fill-opacity:1;stroke:#000000;stroke-width:0.66499996;stroke-miterlimit:4;stroke-dasharray:none;stroke-dashoffset:0;stroke-opacity:1"
       d="m 78.885612,81.741649 c -0.204579,2.29843 1.1061,6.736251 3.631311,5.532011 2.548394,-1.215296 0.887545,2.436173 1.318707,3.807797 0.526531,1.675016 4.851449,-0.796309 3.516564,2.012024 -1.018515,2.142754 0.838175,2.82087 2.898131,2.401009 2.572547,-0.524338 0.849842,2.882249 1.677878,4.097004 1.084582,1.591116 4.936961,-1.213966 3.608105,1.839276 -0.454826,1.04503 -0.434527,2.92975 0.80651,1.28754 0.411159,-0.54407 1.574895,-2.55031 1.066549,-0.69142 -0.483171,1.76683 1.274493,-0.23345 1.413055,1.05811 0.130199,1.21361 -0.391574,5.07966 1.829228,3.43472 0.98861,-0.73226 2.65126,-4.28466 2.82416,-2.98784 0.23986,1.79904 -1.03777,6.50542 0.47898,5.42229 1.00127,-0.71502 2.23614,-4.20343 2.65423,-3.07477 0.5284,1.42645 1.14814,6.08416 2.08825,4.47594 0.81196,-1.389 2.33821,-3.85272 3.11972,-1.04263 0.37023,1.33124 1.10858,2.57572 2.84164,0.99952 1.46693,-1.33416 2.88888,-2.76126 4.49646,-3.97854 2.60471,-1.97232 5.91464,-3.73116 7.07815,-6.802091 0.76744,-2.025548 3.01204,-2.436184 4.79414,-3.060152 2.03278,-0.711739 3.72985,-2.129784 5.94825,-2.863558 0.34326,-0.113539 0.40662,-0.512447 0.26727,-0.801809"
       id="path870"
       inkscape:connector-curvature="0"
       inkscape:path-effect="#path-effect872"
       inkscape:original-d="m 78.885612,81.741649 c -0.13182,2.005722 0.558086,4.899986 2.765227,5.451772 0.36294,0.09073 1.367533,0.12324 1.737251,0 0.01818,-0.0061 0.399093,-0.268177 0.400905,-0.267272 0.496171,0.248084 -0.220271,3.835773 0.133636,4.543584 0.370525,0.741053 2.691609,-0.38199 3.207234,0.133633 0.754674,0.754674 -0.316611,2.707648 0.133636,3.608139 0.646083,1.292169 3.310876,-0.242719 4.276312,0.400904 0.578281,0.385522 0.0259,3.017695 0.267269,3.741775 0.46909,1.407266 3.899273,0.479652 4.009043,0.534537 0.26656,0.133279 0.07905,0.297389 0,0.534539 -0.155654,0.46696 -0.668173,2.48153 -0.668173,2.80633 0,0.52892 1.362292,-0.58643 1.469982,-0.80181 0.0021,-0.004 0.651648,-1.80335 0.801807,-1.20271 0.06532,0.26129 -0.25595,3.00112 0.400904,2.67269 0.232318,-0.11616 0.484511,-0.21724 0.668174,-0.4009 0.140864,-0.14086 0.06806,-0.53454 0.267271,-0.53454 0.227375,0 1.49e-4,2.80663 0.534538,3.87541 0.906052,1.81211 3.420702,-4.19648 4.009042,-3.60814 0.61026,0.61026 0.0162,2.92005 0.13364,3.74177 0.0824,0.5768 0.4009,1.19849 0.4009,1.73726 0,1.62149 2.80633,-5.2491 2.80633,-2.40543 0,0.73944 0.44188,1.12964 0.53454,1.87089 0.057,0.4559 0.0519,0.90553 0.26727,1.33634 1.55288,3.10576 2.28772,-2.3948 3.4745,-1.60361 0.40901,0.27267 0.2879,0.43184 0.53454,0.80181 0.98596,1.47893 1.8593,4.29948 3.20724,1.60361 0.15172,-0.30344 0.58732,-0.40006 0.8018,-0.66817 1.42147,-1.77684 3.67384,-3.23307 5.47903,-4.67722 1.25559,-1.00447 4.21957,-3.7903 5.07812,-5.078119 0.27466,-0.411993 0.60569,-1.140227 0.93544,-1.469982 1.0146,-1.014593 2.70656,-1.169575 3.87541,-1.870885 0.19558,-0.117348 0.7241,-0.161599 0.93545,-0.267271 0.48317,-0.241586 0.88821,-0.770322 1.33634,-1.069078 0.83823,-0.558819 1.8897,-1.011667 2.80633,-1.469983 0.30213,-0.151061 0.77476,0.01352 1.06908,-0.133633 0.38845,-0.194226 0.38502,-0.448559 0.26727,-0.801809"
       transform="translate(-17.764881)" />
    <text
       xml:space="preserve"
       style="font-style:normal;font-weight:normal;font-size:3.17499995px;line-height:1.25;font-family:sans-serif;text-align:start;letter-spacing:0px;word-spacing:0px;text-anchor:start;fill:#000000;fill-opacity:1;stroke:none;stroke-width:0.26458332"
       x="103.70058"
       y="34.274055"
       id="text876"><tspan
         sodipodi:role="line"
         id="tspan874"
         x="103.70058"
         y="34.274055"
         style="stroke-width:0.26458332">$g$</tspan></text>
    <path
       style="opacity:1;fill:none;fill-opacity:1;stroke:#000000;stroke-width:0.66499996;stroke-miterlimit:4;stroke-dasharray:none;stroke-dashoffset:0;stroke-opacity:1"
       d="m 135.31548,49.047619 h 21.92261 V 70.78125 h -21.92261 z"
       id="rect888" />
    <circle
       r="2.3998623"
       cy="49.40033"
       cx="135.40474"
       id="circle890"
       style="opacity:1;fill:#000000;fill-opacity:1;stroke:none;stroke-width:0.66499996;stroke-miterlimit:4;stroke-dasharray:none;stroke-dashoffset:0;stroke-opacity:1" />
    <circle
       style="opacity:1;fill:#000000;fill-opacity:1;stroke:none;stroke-width:0.66499996;stroke-miterlimit:4;stroke-dasharray:none;stroke-dashoffset:0;stroke-opacity:1"
       id="circle893"
       cx="157.42186"
       cy="49.305836"
       r="2.3998623" />
    <circle
       r="2.3998623"
       cy="70.566994"
       cx="157.32736"
       id="circle895"
       style="opacity:1;fill:#000000;fill-opacity:1;stroke:none;stroke-width:0.66499996;stroke-miterlimit:4;stroke-dasharray:none;stroke-dashoffset:0;stroke-opacity:1" />
    <circle
       style="opacity:1;fill:#000000;fill-opacity:1;stroke:none;stroke-width:0.66499996;stroke-miterlimit:4;stroke-dasharray:none;stroke-dashoffset:0;stroke-opacity:1"
       id="circle897"
       cx="135.02676"
       cy="70.472496"
       r="2.3998623" />
    <path
       style="opacity:1;vector-effect:none;fill:none;fill-opacity:1;stroke:#000000;stroke-width:0.66500002;stroke-linecap:butt;stroke-linejoin:miter;stroke-miterlimit:4;stroke-dasharray:none;stroke-dashoffset:0;stroke-opacity:1"
       d="M 135.31548,70.78125 157.23809,49.047619"
       id="path899"
       inkscape:connector-curvature="0" />
    <path
       style="opacity:1;vector-effect:none;fill:none;fill-opacity:1;stroke:#000000;stroke-width:0.66500002;stroke-linecap:butt;stroke-linejoin:miter;stroke-miterlimit:4;stroke-dasharray:none;stroke-dashoffset:0;stroke-opacity:1"
       d="M 135.31548,49.047619 157.23809,70.78125"
       id="path901"
       inkscape:connector-curvature="0" />
    <text
       xml:space="preserve"
       style="font-style:normal;font-weight:normal;font-size:3.17499995px;line-height:1.25;font-family:sans-serif;text-align:start;letter-spacing:0px;word-spacing:0px;text-anchor:start;fill:#000000;fill-opacity:1;stroke:none;stroke-width:0.26458332"
       x="165.84073"
       y="41.356697"
       id="text905"><tspan
         sodipodi:role="line"
         id="tspan903"
         x="165.84073"
         y="41.356697"
         style="stroke-width:0.26458332">$h$</tspan></text>
  </g>
</svg>
