<?xml version="1.0" encoding="UTF-8" standalone="no"?>
<!-- Created with Inkscape (http://www.inkscape.org/) -->

<svg
   xmlns:dc="http://purl.org/dc/elements/1.1/"
   xmlns:cc="http://creativecommons.org/ns#"
   xmlns:rdf="http://www.w3.org/1999/02/22-rdf-syntax-ns#"
   xmlns:svg="http://www.w3.org/2000/svg"
   xmlns="http://www.w3.org/2000/svg"
   xmlns:sodipodi="http://sodipodi.sourceforge.net/DTD/sodipodi-0.dtd"
   xmlns:inkscape="http://www.inkscape.org/namespaces/inkscape"
   width="210mm"
   height="297mm"
   viewBox="0 0 210 297"
   version="1.1"
   id="svg8"
   inkscape:version="0.92.4 5da689c313, 2019-01-14"
   sodipodi:docname="dibujo-4.svg">
  <defs
     id="defs2" />
  <sodipodi:namedview
     id="base"
     pagecolor="#ffffff"
     bordercolor="#666666"
     borderopacity="1.0"
     inkscape:pageopacity="0.0"
     inkscape:pageshadow="2"
     inkscape:zoom="2"
     inkscape:cx="296.20821"
     inkscape:cy="614.5809"
     inkscape:document-units="mm"
     inkscape:current-layer="layer1"
     showgrid="false"
     inkscape:window-width="1366"
     inkscape:window-height="768"
     inkscape:window-x="0"
     inkscape:window-y="0"
     inkscape:window-maximized="0" />
  <metadata
     id="metadata5">
    <rdf:RDF>
      <cc:Work
         rdf:about="">
        <dc:format>image/svg+xml</dc:format>
        <dc:type
           rdf:resource="http://purl.org/dc/dcmitype/StillImage" />
        <dc:title></dc:title>
      </cc:Work>
    </rdf:RDF>
  </metadata>
  <g
     inkscape:label="Capa 1"
     inkscape:groupmode="layer"
     id="layer1">
    <flowRoot
       xml:space="preserve"
       id="flowRoot870"
       style="fill:black;fill-opacity:1;stroke:none;font-family:sans-serif;font-style:normal;font-weight:normal;font-size:12px;line-height:1.25;letter-spacing:0px;word-spacing:0px"><flowRegion
         id="flowRegion872"><rect
           id="rect874"
           width="91.428574"
           height="37.857143"
           x="98.571426"
           y="346.80539" /></flowRegion><flowPara
         id="flowPara876"></flowPara></flowRoot>    <circle
       style="opacity:1;fill:#000000;fill-opacity:1;stroke:none;stroke-width:0.46499997;stroke-miterlimit:4;stroke-dasharray:none;stroke-dashoffset:0;stroke-opacity:1"
       id="circle917"
       cx="57.126808"
       cy="70.866173"
       r="1.8708867" />
    <flowRoot
       xml:space="preserve"
       id="flowRoot1281"
       style="font-style:normal;font-weight:normal;font-size:12px;line-height:1.25;font-family:sans-serif;letter-spacing:0px;word-spacing:0px;fill:#000000;fill-opacity:1;stroke:none"
       transform="scale(0.26458333)"><flowRegion
         id="flowRegion1283"><rect
           id="rect1285"
           width="72"
           height="32"
           x="48"
           y="42.519684" /></flowRegion><flowPara
         id="flowPara1287">Multigrafo</flowPara></flowRoot>    <circle
       r="1.8708867"
       cy="43.084923"
       cx="73.266388"
       id="circle1289"
       style="opacity:1;fill:#000000;fill-opacity:1;stroke:none;stroke-width:0.46499997;stroke-miterlimit:4;stroke-dasharray:none;stroke-dashoffset:0;stroke-opacity:1" />
    <circle
       style="opacity:1;fill:#000000;fill-opacity:1;stroke:none;stroke-width:0.46499997;stroke-miterlimit:4;stroke-dasharray:none;stroke-dashoffset:0;stroke-opacity:1"
       id="circle1291"
       cx="118.24555"
       cy="31.443256"
       r="1.8708867" />
    <circle
       r="1.8708867"
       cy="55.52034"
       cx="117.98097"
       id="circle1293"
       style="opacity:1;fill:#000000;fill-opacity:1;stroke:none;stroke-width:0.46499997;stroke-miterlimit:4;stroke-dasharray:none;stroke-dashoffset:0;stroke-opacity:1" />
    <circle
       style="opacity:1;fill:#000000;fill-opacity:1;stroke:none;stroke-width:0.46499997;stroke-miterlimit:4;stroke-dasharray:none;stroke-dashoffset:0;stroke-opacity:1"
       id="circle1295"
       cx="138.61847"
       cy="45.995338"
       r="1.8708867" />
    <circle
       cy="103.93909"
       cx="97.343475"
       id="circle1297"
       style="opacity:1;fill:#000000;fill-opacity:1;stroke:none;stroke-width:0.46499997;stroke-miterlimit:4;stroke-dasharray:none;stroke-dashoffset:0;stroke-opacity:1"
       r="1.8708867" />
    <circle
       r="1.8708867"
       style="opacity:1;fill:#000000;fill-opacity:1;stroke:none;stroke-width:0.46499997;stroke-miterlimit:4;stroke-dasharray:none;stroke-dashoffset:0;stroke-opacity:1"
       id="circle1301"
       cx="96.814308"
       cy="77.480751" />
    <path
       style="opacity:1;fill:none;fill-opacity:1;stroke:#000000;stroke-width:0.46499997;stroke-miterlimit:4;stroke-dasharray:none;stroke-dashoffset:0;stroke-opacity:1"
       d="m 94.456249,14.689583 c -4.485537,0.237843 -7.112839,3.688711 -10.847917,5.55625 -3.24349,1.621745 -7.568189,2.387316 -10.583333,4.497917 -2.726817,1.908771 -4.606758,4.228553 -6.879167,6.614584 -2.675344,2.809111 -5.969624,4.712835 -8.202083,7.9375 -2.129671,3.076189 -3.39403,6.700697 -5.55625,9.789583 -1.471398,2.101996 -3.128235,3.654198 -4.233333,6.085417 -3.674158,8.083145 -1.068075,17.861256 0.79375,25.929166 1.082871,4.692439 0.684078,12.006321 3.439583,16.139583 3.344696,5.017047 9.134721,11.892187 14.816667,14.022917 3.260066,1.22252 6.847485,1.04777 10.054166,2.11667 2.997518,0.99917 6.878527,1.51199 10.054167,1.05833 3.429349,-0.48991 8.481544,-1.95247 11.641666,-3.43958 3.633615,-1.70994 6.694045,-5.00361 10.318755,-6.61459 3.51352,-1.56157 8.15216,-2.29639 10.84791,-5.291663 5.61735,-6.241505 5.8822,-18.270334 10.31875,-25.664583 3.11792,-5.196536 7.50603,-10.171406 11.37708,-14.816667 3.21,-3.851994 8.2136,-4.843071 8.99584,-10.31875 0.53036,-3.712548 -4.09935,-6.585754 -5.82084,-8.995833 -1.24371,-1.741207 -2.09624,-3.679655 -3.43958,-5.291666 -4.12064,-4.944774 -15.06737,-7.756486 -21.16666,-9.789585 -2.24234,-0.747444 -4.1985,-0.511745 -6.35,-1.5875 -1.39482,-0.697407 -2.16628,-2.80293 -3.43959,-3.439583 -4.00099,-2.000495 -11.399288,-6.868064 -16.139581,-4.497917 z"
       id="path1305"
       inkscape:connector-curvature="0" />
    <path
       style="opacity:1;fill:none;fill-opacity:1;stroke:#000000;stroke-width:0.46499997;stroke-miterlimit:4;stroke-dasharray:none;stroke-dashoffset:0;stroke-opacity:1"
       d="m 96.96979,77.792706 c -1.358714,5.802508 0.64765,11.58064 1.058334,17.330208 0.188547,2.63965 -0.132292,5.255706 -0.132292,7.672916 1.676914,-3.162319 5.040798,-5.451386 6.614588,-8.598955 0.45833,-0.916668 0.76258,-1.922033 1.19062,-2.778125 0.25144,-0.502885 -0.13229,-1.722399 -0.13229,-2.248958 0,-2.428555 -0.55762,-6.562667 -3.04271,-7.805209 -0.78221,-0.391106 -0.98965,-0.460483 -1.5875,-1.058333 -0.47693,-0.476929 -0.61479,-1.361884 -0.92604,-1.984375 -0.632712,-1.265424 -2.87763,-1.703399 -3.96875,-2.248958"
       id="path1307"
       inkscape:connector-curvature="0" />
    <path
       style="opacity:1;fill:none;fill-opacity:1;stroke:#000000;stroke-width:0.46499997;stroke-miterlimit:4;stroke-dasharray:none;stroke-dashoffset:0;stroke-opacity:1"
       d="m 74.612499,42.603123 c -1.679892,-0.674121 -2.116667,-2.402419 -2.116667,-4.101041 0,-1.946813 -0.250795,-4.96701 0.926042,-6.614584 2.732109,-3.824951 6.654901,-2.737805 9.525,0.132292 0.726548,0.726551 1.751801,1.540568 2.116667,2.513542 1.180346,3.147586 0.08649,5.783767 -2.778125,7.011458 -0.932392,0.399597 -2.08968,0.211492 -3.042709,0.529166 -1.217832,0.405945 -3.462948,1.112798 -4.630208,0.529167 z"
       id="path1309"
       inkscape:connector-curvature="0" />
    <path
       style="opacity:1;fill:none;fill-opacity:1;stroke:#000000;stroke-width:0.46499997;stroke-miterlimit:4;stroke-dasharray:none;stroke-dashoffset:0;stroke-opacity:1"
       d="m 138.1125,46.439583 c -1.09956,0.366525 -2.35797,0.194558 -3.57187,0.396875 -1.52592,0.25432 -3.03244,1.099006 -4.49792,1.5875 -1.71593,0.571976 -3.41228,0.780099 -5.02708,1.5875 -0.26107,0.130532 -0.80987,0.809861 -1.05834,1.058334 -1.80099,1.800995 -4.67735,2.464015 -6.21771,4.630206 0,-2.879267 0.17527,-6.210967 0.66146,-9.128125 0.45489,-2.729344 -0.32635,-9.066776 -0.52917,-11.90625 -0.0767,-1.073264 0.16919,-2.112822 0.26459,-3.175 2.80759,1.481431 6.29734,1.708239 8.86354,3.704169 1.42409,1.107622 2.3131,2.942485 3.83646,3.704166 2.31334,1.15667 6.19922,1.125938 7.01146,3.96875 0.27619,0.966667 -0.13229,2.252876 -0.13229,3.042709"
       id="path1311"
       inkscape:connector-curvature="0" />
    <text
       xml:space="preserve"
       style="font-style:normal;font-weight:normal;font-size:3.17499995px;line-height:1.25;font-family:sans-serif;letter-spacing:0px;word-spacing:0px;fill:#000000;fill-opacity:1;stroke:none;stroke-width:0.26458332"
       x="72.098961"
       y="49.416145"
       id="text1315"><tspan
         sodipodi:role="line"
         id="tspan1313"
         x="72.098961"
         y="49.416145"
         style="stroke-width:0.26458332">$b$</tspan></text>
    <text
       xml:space="preserve"
       style="font-style:normal;font-weight:normal;font-size:3.17499995px;line-height:1.25;font-family:sans-serif;letter-spacing:0px;word-spacing:0px;fill:#000000;fill-opacity:1;stroke:none;stroke-width:0.26458332"
       x="57.348438"
       y="78.25573"
       id="text1319"><tspan
         sodipodi:role="line"
         id="tspan1317"
         x="57.348438"
         y="78.25573"
         style="stroke-width:0.26458332">$a$</tspan></text>
    <text
       xml:space="preserve"
       style="font-style:normal;font-weight:normal;font-size:3.17499995px;line-height:1.25;font-family:sans-serif;letter-spacing:0px;word-spacing:0px;fill:#000000;fill-opacity:1;stroke:none;stroke-width:0.26458332"
       x="88.900002"
       y="105.30937"
       id="text1323"><tspan
         sodipodi:role="line"
         id="tspan1321"
         x="88.900002"
         y="105.30937"
         style="stroke-width:0.26458332">$*$</tspan></text>
    <text
       xml:space="preserve"
       style="font-style:normal;font-weight:normal;font-size:3.17499995px;line-height:1.25;font-family:sans-serif;letter-spacing:0px;word-spacing:0px;fill:#000000;fill-opacity:1;stroke:none;stroke-width:0.26458332"
       x="90.752083"
       y="74.022392"
       id="text1327"><tspan
         sodipodi:role="line"
         id="tspan1325"
         x="90.752083"
         y="74.022392"
         style="stroke-width:0.26458332">$c$</tspan></text>
    <text
       xml:space="preserve"
       style="font-style:normal;font-weight:normal;font-size:3.17499995px;line-height:1.25;font-family:sans-serif;letter-spacing:0px;word-spacing:0px;fill:#000000;fill-opacity:1;stroke:none;stroke-width:0.26458332"
       x="116.21823"
       y="60.925518"
       id="text1331"><tspan
         sodipodi:role="line"
         id="tspan1329"
         x="116.21823"
         y="60.925518"
         style="stroke-width:0.26458332">:v</tspan></text>
    <text
       xml:space="preserve"
       style="font-style:normal;font-weight:normal;font-size:3.17499995px;line-height:1.25;font-family:sans-serif;letter-spacing:0px;word-spacing:0px;fill:#000000;fill-opacity:1;stroke:none;stroke-width:0.26458332"
       x="141.02292"
       y="50.60677"
       id="text1335"><tspan
         sodipodi:role="line"
         id="tspan1333"
         x="141.02292"
         y="50.60677"
         style="stroke-width:0.26458332">$1$</tspan></text>
    <text
       xml:space="preserve"
       style="font-style:normal;font-weight:normal;font-size:3.17499995px;line-height:1.25;font-family:sans-serif;letter-spacing:0px;word-spacing:0px;fill:#000000;fill-opacity:1;stroke:none;stroke-width:0.26458332"
       x="111.72031"
       y="28.315622"
       id="text1339"><tspan
         sodipodi:role="line"
         id="tspan1337"
         x="111.72031"
         y="28.315622"
         style="stroke-width:0.26458332">$3$</tspan></text>
    <text
       xml:space="preserve"
       style="font-style:normal;font-weight:normal;font-size:3.17499995px;line-height:1.25;font-family:sans-serif;letter-spacing:0px;word-spacing:0px;fill:#000000;fill-opacity:1;stroke:none;stroke-width:0.26458332"
       x="156.03802"
       y="33.805725"
       id="text1343"><tspan
         sodipodi:role="line"
         id="tspan1341"
         x="156.03802"
         y="33.805725"
         style="stroke-width:0.26458332">$E\subseteq\mathbb{P}_2(V)$</tspan></text>
    <path
       style="opacity:1;fill:none;fill-opacity:1;stroke:#000000;stroke-width:0.46499997;stroke-miterlimit:4;stroke-dasharray:none;stroke-dashoffset:0;stroke-opacity:1"
       d="m 174.95573,18.989062 c -2.59577,2.112639 -4.54153,4.737005 -5.02709,8.135936 -0.0905,0.633648 0.1323,1.184728 0.1323,1.785938"
       id="path1345"
       inkscape:connector-curvature="0" />
    <path
       style="opacity:1;fill:none;fill-opacity:1;stroke:#000000;stroke-width:0.46499997;stroke-miterlimit:4;stroke-dasharray:none;stroke-dashoffset:0;stroke-opacity:1"
       d="m 168.80416,26.661977 c 0.69968,0.45688 0.87133,1.923945 1.52136,2.248959 0.0681,0.03404 1.42689,-2.164019 1.52135,-2.447396"
       id="path1347"
       inkscape:connector-curvature="0" />
    <text
       xml:space="preserve"
       style="font-style:normal;font-weight:normal;font-size:3.17499995px;line-height:1.25;font-family:sans-serif;letter-spacing:0px;word-spacing:0px;fill:#000000;fill-opacity:1;stroke:none;stroke-width:0.26458332"
       x="174.49271"
       y="16.67396"
       id="text1351"><tspan
         sodipodi:role="line"
         id="tspan1349"
         x="174.49271"
         y="16.67396"
         style="stroke-width:0.26458332">Multigrafo</tspan></text>
    <text
       xml:space="preserve"
       style="font-style:normal;font-weight:normal;font-size:3.17499995px;line-height:1.25;font-family:sans-serif;letter-spacing:0px;word-spacing:0px;fill:#000000;fill-opacity:1;stroke:none;stroke-width:0.26458332"
       x="108.2308"
       y="9.9124365"
       id="text1355"><tspan
         sodipodi:role="line"
         id="tspan1353"
         x="108.2308"
         y="9.9124365"
         style="stroke-width:0.26458332">Bucle</tspan></text>
    <path
       style="opacity:1;fill:none;fill-opacity:1;stroke:#000000;stroke-width:0.46499997;stroke-miterlimit:4;stroke-dasharray:none;stroke-dashoffset:0;stroke-opacity:1"
       d="m 106.35991,12.251045 c -2.58577,0.964015 -4.99197,2.325477 -7.296461,3.835318 -0.79625,0.521681 -1.722072,0.86271 -2.432153,1.496709 -0.56016,0.500144 -0.932961,1.187701 -1.496708,1.683798 -0.230545,0.20288 -0.586375,0.203828 -0.841899,0.374177 -0.944322,0.629548 -2.136765,1.573653 -2.899876,2.432153 -0.873077,0.982213 -1.853639,2.153957 -2.525697,3.274052 -0.495543,0.825906 -0.824158,1.847234 -1.403164,2.61924 -0.505651,0.674201 -1.199714,1.331852 -1.683798,2.057977"
       id="path1357"
       inkscape:connector-curvature="0" />
    <path
       style="opacity:1;fill:none;fill-opacity:1;stroke:#000000;stroke-width:0.46499997;stroke-miterlimit:4;stroke-dasharray:none;stroke-dashoffset:0;stroke-opacity:1"
       d="m 85.499521,27.124594 c -0.102764,0.647027 -0.09422,1.314352 -0.18709,1.96443 -0.585369,4.097589 1.784935,0.09355 3.274053,0.09355"
       id="path1359"
       inkscape:connector-curvature="0" />
    <path
       style="opacity:1;fill:none;fill-opacity:1;stroke:#000000;stroke-width:0.46499997;stroke-miterlimit:4;stroke-dasharray:none;stroke-dashoffset:0;stroke-opacity:1"
       d="m 123.53171,9.225527 c 2.4258,-0.2712193 4.8632,-0.1175668 7.29646,-0.1870884 4.48787,-0.1282253 9.22445,-0.2967371 13.65747,0.5612659 1.08709,0.2104057 2.20148,0.2862471 3.27405,0.5612655 0.59496,0.152553 1.09755,0.565154 1.6838,0.748355 0.78291,0.244662 1.6401,0.160933 2.43215,0.374178 1.38496,0.372874 2.77141,1.028499 4.2095,1.216076 2.8964,0.377792 -0.66033,-0.444517 2.24506,0.187089 1.40893,0.306288 2.71333,0.958965 4.11595,1.30962 2.10642,0.526606 4.1839,0.868815 6.26747,1.216077 0.70305,0.117175 1.83215,0.908041 2.33861,0.65481"
       id="path1361"
       inkscape:connector-curvature="0" />
    <text
       xml:space="preserve"
       style="font-style:normal;font-weight:normal;font-size:3.17499995px;line-height:1.25;font-family:sans-serif;letter-spacing:0px;word-spacing:0px;fill:#000000;fill-opacity:1;stroke:none;stroke-width:0.26458332"
       x="11.773958"
       y="36.253124"
       id="text1367"><tspan
         sodipodi:role="line"
         id="tspan1365"
         x="11.773958"
         y="36.253124"
         style="stroke-width:0.26458332">Tiene bucles</tspan></text>
    <text
       xml:space="preserve"
       style="font-style:normal;font-weight:normal;font-size:3.17499995px;line-height:1.25;font-family:sans-serif;letter-spacing:0px;word-spacing:0px;fill:#000000;fill-opacity:1;stroke:none;stroke-width:0.26458332"
       x="12.170834"
       y="59.00729"
       id="text1371"><tspan
         sodipodi:role="line"
         id="tspan1369"
         x="12.170834"
         y="59.00729"
         style="stroke-width:0.26458332">No dirigido</tspan></text>
    <path
       style="opacity:1;fill:none;fill-opacity:1;stroke:#000000;stroke-width:0.46499997;stroke-miterlimit:4;stroke-dasharray:none;stroke-dashoffset:0;stroke-opacity:1"
       d="m 169.21758,14.09427 c 0.20518,0.300817 0.38258,0.622921 0.61184,0.909505 0.15347,0.191826 1.03213,0.847179 0.74415,1.207162 -0.14705,0.183805 -1.17894,0.648154 -1.47175,0.843359"
       id="path1373"
       inkscape:connector-curvature="0" />
    <path
       style="opacity:1;fill:none;fill-opacity:1;stroke:#000000;stroke-width:0.46499997;stroke-miterlimit:4;stroke-dasharray:none;stroke-dashoffset:0;stroke-opacity:1"
       d="m 137.18646,101.47291 c -1.38244,-0.64941 -2.34288,-1.965181 -3.70417,-2.645829 -2.40529,-1.202645 -5.42231,-2.585249 -8.06979,-3.307292 -1.13399,-0.309269 -2.3684,-0.390445 -3.43958,-0.926042 -1.67866,-0.839324 -2.87479,-2.605121 -4.63021,-3.307291 -2.87142,-1.148567 -5.58466,-2.645833 -8.59896,-2.645833"
       id="path1375"
       inkscape:connector-curvature="0" />
    <path
       style="opacity:1;fill:none;fill-opacity:1;stroke:#000000;stroke-width:0.46499997;stroke-miterlimit:4;stroke-dasharray:none;stroke-dashoffset:0;stroke-opacity:1"
       d="m 111.31776,87.413916 c -0.61464,0.205632 -1.03333,0.777449 -1.63703,1.028989 -0.29453,0.122721 -1.84016,0.406259 -1.96443,0.654809 -0.10472,0.209452 0.66753,0.516895 0.79513,0.608039 0.56768,0.40549 0.7462,1.238385 1.35639,1.543481"
       id="path1377"
       inkscape:connector-curvature="0" />
    <text
       xml:space="preserve"
       style="font-style:normal;font-weight:normal;font-size:3.17499995px;line-height:1.25;font-family:sans-serif;letter-spacing:0px;word-spacing:0px;fill:#000000;fill-opacity:1;stroke:none;stroke-width:0.26458332"
       x="138.3053"
       y="101.30525"
       id="text1381"><tspan
         sodipodi:role="line"
         id="tspan1379"
         x="138.3053"
         y="101.30525"
         style="stroke-width:0.26458332">No es simple</tspan></text>
    <flowRoot
       xml:space="preserve"
       id="flowRoot1403"
       style="font-style:normal;font-weight:normal;font-size:12px;line-height:1.25;font-family:sans-serif;letter-spacing:0px;word-spacing:0px;fill:#000000;fill-opacity:1;stroke:none"
       transform="scale(0.26458333)"><flowRegion
         id="flowRegion1405"><rect
           id="rect1407"
           width="237"
           height="125"
           x="189"
           y="457.01968" /></flowRegion><flowPara
         id="flowPara1409">$G=(\{a,b,c,*,3,1,\text{:v}\})$</flowPara></flowRoot>  </g>
</svg>
