<?xml version="1.0" encoding="UTF-8" standalone="no"?>
<!-- Created with Inkscape (http://www.inkscape.org/) -->

<svg
   xmlns:dc="http://purl.org/dc/elements/1.1/"
   xmlns:cc="http://creativecommons.org/ns#"
   xmlns:rdf="http://www.w3.org/1999/02/22-rdf-syntax-ns#"
   xmlns:svg="http://www.w3.org/2000/svg"
   xmlns="http://www.w3.org/2000/svg"
   xmlns:sodipodi="http://sodipodi.sourceforge.net/DTD/sodipodi-0.dtd"
   xmlns:inkscape="http://www.inkscape.org/namespaces/inkscape"
   width="210mm"
   height="297mm"
   viewBox="0 0 210 297"
   version="1.1"
   id="svg8"
   inkscape:version="0.92.4 5da689c313, 2019-01-14"
   sodipodi:docname="dibujo.svg">
  <defs
     id="defs2" />
  <sodipodi:namedview
     id="base"
     pagecolor="#ffffff"
     bordercolor="#666666"
     borderopacity="1.0"
     inkscape:pageopacity="0.0"
     inkscape:pageshadow="2"
     inkscape:zoom="1.4"
     inkscape:cx="352.16496"
     inkscape:cy="598.88895"
     inkscape:document-units="mm"
     inkscape:current-layer="layer1"
     showgrid="false"
     inkscape:window-width="1366"
     inkscape:window-height="768"
     inkscape:window-x="0"
     inkscape:window-y="0"
     inkscape:window-maximized="0" />
  <metadata
     id="metadata5">
    <rdf:RDF>
      <cc:Work
         rdf:about="">
        <dc:format>image/svg+xml</dc:format>
        <dc:type
           rdf:resource="http://purl.org/dc/dcmitype/StillImage" />
        <dc:title></dc:title>
      </cc:Work>
    </rdf:RDF>
  </metadata>
  <g
     inkscape:label="Capa 1"
     inkscape:groupmode="layer"
     id="layer1">
    <circle
       style="opacity:1;fill:#000000;fill-opacity:1;stroke:none;stroke-width:0.46499997;stroke-miterlimit:4;stroke-dasharray:none;stroke-dashoffset:0;stroke-opacity:1"
       id="path834"
       cx="104.6363"
       cy="92.975121"
       r="1.8708867" />
    <circle
       r="1.8708867"
       cy="144.94684"
       cx="54.365467"
       id="circle836"
       style="opacity:1;fill:#000000;fill-opacity:1;stroke:none;stroke-width:0.46499997;stroke-miterlimit:4;stroke-dasharray:none;stroke-dashoffset:0;stroke-opacity:1" />
    <path
       style="opacity:1;fill:none;fill-opacity:1;stroke:#000000;stroke-width:0.46499997;stroke-miterlimit:4;stroke-dasharray:none;stroke-dashoffset:0;stroke-opacity:1"
       d="m 54.617558,145.05357 c 8.991783,-16.44452 20.929288,-33.55634 35.907739,-44.79018 2.259391,-1.694543 6.201103,-5.462902 8.504463,-6.614581 1.81167,-0.905838 4.25447,-0.663694 5.66964,-2.078871"
       id="path838"
       inkscape:connector-curvature="0" />
    <path
       style="opacity:1;fill:none;fill-opacity:1;stroke:#000000;stroke-width:0.46499997;stroke-miterlimit:4;stroke-dasharray:none;stroke-dashoffset:0;stroke-opacity:1"
       d="m 69.547617,113.87053 c 3.220334,-3.40893 7.097377,-6.33454 11.339288,-7.74851 0.09598,-0.032 2.816796,-0.24305 2.83482,-0.18899 0.109471,0.32842 -4.59508,9.62751 -5.102678,11.1503"
       id="path842"
       inkscape:connector-curvature="0" />
    <path
       style="opacity:1;fill:none;fill-opacity:1;stroke:#000000;stroke-width:0.46499997;stroke-miterlimit:4;stroke-dasharray:none;stroke-dashoffset:0;stroke-opacity:1"
       d="m 110.93601,141.84077 c -0.46339,-0.46339 -0.92632,-0.99759 -1.5119,-1.32292 -2.60273,-1.44595 -5.38795,-3.59281 -7.37054,-5.85862 -1.26223,-1.44256 -2.090233,-3.06055 -3.590773,-4.34673 -1.843389,-1.58005 -3.987615,-3.39417 -5.291666,-5.48066 -0.953318,-1.5253 -2.005852,-3.27636 -3.212799,-4.7247 -1.835922,-2.20311 -4.157739,-3.23644 -4.157739,-6.42559"
       id="path844"
       inkscape:connector-curvature="0" />
    <path
       style="opacity:1;fill:none;fill-opacity:1;stroke:#000000;stroke-width:0.46499997;stroke-miterlimit:4;stroke-dasharray:none;stroke-dashoffset:0;stroke-opacity:1"
       d="m 83.343749,121.43006 c -0.14052,-0.62974 2.25734,-8.68294 2.267857,-8.69346 0.302189,-0.30218 4.785466,4.09028 5.291667,5.10268"
       id="path846"
       inkscape:connector-curvature="0" />
    <text
       xml:space="preserve"
       style="font-style:normal;font-weight:normal;font-size:3.17499995px;line-height:1.25;font-family:sans-serif;letter-spacing:0px;word-spacing:0px;fill:#000000;fill-opacity:1;stroke:none;stroke-width:0.26458332"
       x="58.208332"
       y="154.31398"
       id="text850"><tspan
         sodipodi:role="line"
         id="tspan848"
         x="58.208332"
         y="154.31398"
         style="stroke-width:0.26458332">$a$</tspan></text>
    <text
       id="text854"
       y="98.373505"
       x="107.53423"
       style="font-style:normal;font-weight:normal;font-size:3.17499995px;line-height:1.25;font-family:sans-serif;letter-spacing:0px;word-spacing:0px;fill:#000000;fill-opacity:1;stroke:none;stroke-width:0.26458332"
       xml:space="preserve"><tspan
         style="stroke-width:0.26458332"
         y="98.373505"
         x="107.53423"
         id="tspan852"
         sodipodi:role="line">$b$</tspan></text>
    <text
       xml:space="preserve"
       style="font-style:normal;font-weight:normal;font-size:3.17499995px;line-height:1.25;font-family:sans-serif;letter-spacing:0px;word-spacing:0px;fill:#000000;fill-opacity:1;stroke:none;stroke-width:0.26458332"
       x="112.06995"
       y="151.29018"
       id="text858"><tspan
         sodipodi:role="line"
         id="tspan856"
         x="112.06995"
         y="151.29018"
         style="stroke-width:0.26458332">Arco</tspan></text>
    <flowRoot
       xml:space="preserve"
       id="flowRoot860"
       style="font-style:normal;font-weight:normal;font-size:12px;line-height:1.25;font-family:sans-serif;letter-spacing:0px;word-spacing:0px;fill:#000000;fill-opacity:1;stroke:none"
       transform="scale(0.26458333)"><flowRegion
         id="flowRegion862"><rect
           id="rect864"
           width="210.71428"
           height="232.14285"
           x="532.85712"
           y="451.80539" /></flowRegion><flowPara
         id="flowPara866">Podriamos tener a lo mucho dos arcos entre cada par de vértices en direcciones distintas.</flowPara></flowRoot>    <path
       style="opacity:1;fill:none;fill-opacity:1;stroke:#000000;stroke-width:0.46499997;stroke-miterlimit:4;stroke-dasharray:none;stroke-dashoffset:0;stroke-opacity:1"
       d="m 109.23512,85.900296 c -1.59697,-0.128826 -2.41046,1.559359 -3.77976,1.889882 -1.10228,0.266065 -2.28233,-0.18056 -3.40179,0 -0.86624,0.139716 -1.60783,0.723455 -2.456845,0.94494 -3.19372,0.833144 -6.612724,0.08529 -9.827382,0.188987 -1.905614,0.06147 -3.763036,0.755954 -5.669642,0.755954 -4.975561,0 -9.954091,0 -14.930059,0 -2.507136,0 -4.211871,1.34547 -6.425594,2.267855 -9.140931,3.808722 -7.984874,11.868756 -11.150299,19.465776 -2.247585,5.39421 -5.269915,10.85256 -6.425594,16.63095 -0.314018,1.57008 3.500964,3.94065 2.83482,7.9375 -0.293584,1.7615 -0.535691,3.52957 -0.755951,5.29167 -0.257739,2.0619 -2.987175,6.06111 -1.511906,8.12649 0.619522,0.86733 3.025981,1.71175 3.401787,3.59077 0.525529,2.62765 1.378686,6.2552 4.157737,7.18155 3.436691,1.14556 14.058238,0.37797 18.142857,0.37797 8.355359,0 16.761505,1.04674 25.135416,0 3.438065,-0.42975 6.844535,0.87754 10.016365,1.51191 1.27267,0.25453 2.53382,-0.38897 3.77977,-0.56697 5.23001,-0.74714 11.552,1.05588 15.875,-2.83482 3.29388,-2.96449 4.09652,-8.39005 4.7247,-12.47321 1.31203,-8.52821 2.09499,-14.70882 -1.88988,-22.67857 -2.74324,-5.48647 -7.6778,-10.44312 -8.31548,-16.81994 -0.15065,-1.50655 -0.50579,-3.90212 0.18899,-5.29167 1.56283,-3.125661 6.18989,-6.861966 3.2128,-10.583333 -2.43136,-3.039192 -6.09891,-3.332933 -9.26042,-4.913691 -0.61608,-0.308041 -1.87014,0.198861 -2.64583,-0.188987 -0.87322,-0.43661 -2.13675,0.410753 -3.02381,0.188987 z"
       id="path868"
       inkscape:connector-curvature="0" />
    <flowRoot
       xml:space="preserve"
       id="flowRoot870"
       style="fill:black;fill-opacity:1;stroke:none;font-family:sans-serif;font-style:normal;font-weight:normal;font-size:12px;line-height:1.25;letter-spacing:0px;word-spacing:0px"><flowRegion
         id="flowRegion872"><rect
           id="rect874"
           width="91.428574"
           height="37.857143"
           x="98.571426"
           y="346.80539" /></flowRegion><flowPara
         id="flowPara876"></flowPara></flowRoot>    <text
       xml:space="preserve"
       style="font-style:normal;font-weight:normal;font-size:3.17499995px;line-height:1.25;font-family:sans-serif;letter-spacing:0px;word-spacing:0px;fill:#000000;fill-opacity:1;stroke:none;stroke-width:0.26458332"
       x="32.694939"
       y="101.20833"
       id="text880"><tspan
         sodipodi:role="line"
         id="tspan878"
         x="32.694939"
         y="101.20833"
         style="stroke-width:0.26458332">$(a,b)\in E$</tspan></text>
    <text
       xml:space="preserve"
       style="font-style:normal;font-weight:normal;font-size:3.17499995px;line-height:1.25;font-family:sans-serif;letter-spacing:0px;word-spacing:0px;fill:#000000;fill-opacity:1;stroke:none;stroke-width:0.26458332"
       x="125.48809"
       y="103.85416"
       id="text884"><tspan
         sodipodi:role="line"
         id="tspan882"
         x="125.48809"
         y="103.85416"
         style="stroke-width:0.26458332">$G$</tspan></text>
  </g>
</svg>
