<?xml version="1.0" encoding="UTF-8" standalone="no"?>
<!-- Created with Inkscape (http://www.inkscape.org/) -->

<svg
   xmlns:dc="http://purl.org/dc/elements/1.1/"
   xmlns:cc="http://creativecommons.org/ns#"
   xmlns:rdf="http://www.w3.org/1999/02/22-rdf-syntax-ns#"
   xmlns:svg="http://www.w3.org/2000/svg"
   xmlns="http://www.w3.org/2000/svg"
   xmlns:sodipodi="http://sodipodi.sourceforge.net/DTD/sodipodi-0.dtd"
   xmlns:inkscape="http://www.inkscape.org/namespaces/inkscape"
   width="210mm"
   height="297mm"
   viewBox="0 0 210 297"
   version="1.1"
   id="svg8"
   inkscape:version="0.92.4 5da689c313, 2019-01-14"
   sodipodi:docname="dibujo-1.svg">
  <defs
     id="defs2" />
  <sodipodi:namedview
     id="base"
     pagecolor="#ffffff"
     bordercolor="#666666"
     borderopacity="1.0"
     inkscape:pageopacity="0.0"
     inkscape:pageshadow="2"
     inkscape:zoom="3.959798"
     inkscape:cx="593.75539"
     inkscape:cy="806.21389"
     inkscape:document-units="mm"
     inkscape:current-layer="layer1"
     showgrid="false"
     inkscape:window-width="1366"
     inkscape:window-height="768"
     inkscape:window-x="0"
     inkscape:window-y="0"
     inkscape:window-maximized="0" />
  <metadata
     id="metadata5">
    <rdf:RDF>
      <cc:Work
         rdf:about="">
        <dc:format>image/svg+xml</dc:format>
        <dc:type
           rdf:resource="http://purl.org/dc/dcmitype/StillImage" />
        <dc:title></dc:title>
      </cc:Work>
    </rdf:RDF>
  </metadata>
  <g
     inkscape:label="Capa 1"
     inkscape:groupmode="layer"
     id="layer1">
    <path
       style="opacity:1;fill:none;fill-opacity:1;stroke:#000000;stroke-width:1.06500006;stroke-miterlimit:4;stroke-dasharray:none;stroke-dashoffset:0;stroke-opacity:1"
       d="m 62.620527,72.334483 c -0.945091,-1.528674 -2.811573,-1.822238 -4.058964,-2.930765 -0.835169,-0.742195 -1.490725,-1.664873 -2.254975,-2.479877 -0.557376,-0.594392 -2.106187,-2.114879 -2.705973,-2.479878 -1.148561,-0.698957 -2.405308,-1.202364 -3.607963,-1.803548 -0.601327,-0.300591 -1.202655,-0.601182 -1.803981,-0.901773 -0.450995,-0.225445 -0.874634,-0.516919 -1.352987,-0.676331 -0.433753,-0.14455 -0.901992,-0.150296 -1.352986,-0.225444 -0.450995,-0.07515 -0.89666,-0.253956 -1.352987,-0.225443 -0.765052,0.04781 -1.505447,0.290311 -2.254976,0.450887 -2.879653,0.61692 -5.054445,1.048966 -7.666923,2.254435 -0.457819,0.21125 -0.927588,0.405686 -1.352987,0.67633 -0.624961,0.397608 -2.113091,1.757506 -2.480474,2.254434 -0.90466,1.223657 -1.529693,2.644349 -2.480475,3.832539 -0.863272,1.07883 -1.979681,1.929124 -2.931471,2.930765 -2.360588,2.484232 -0.437817,0.66151 -2.254976,2.705321 -0.282491,0.317724 -0.658154,0.553518 -0.901992,0.901774 -0.682319,0.974508 -1.601435,3.930307 -1.803982,4.508867 -0.507428,1.44945 -0.676492,2.30816 -0.676492,3.83254 0,0.0752 -0.02569,0.15482 0,0.22545 0.582628,1.60184 0.7465,2.13397 1.578484,3.38165 0.416945,0.62526 0.858015,1.238 1.352985,1.80354 0.279998,0.31993 0.658154,0.55352 0.901992,0.90177 0.289156,0.41299 0.405785,0.92738 0.676492,1.35267 0.258398,0.40595 0.597216,0.7548 0.901992,1.12721 1.699367,2.07651 1.21372,1.60493 4.284457,3.6071 0.648209,0.42264 1.365882,0.72916 2.029479,1.12722 0.929572,0.55761 1.751491,1.28972 2.705973,1.803544 0.504022,0.27133 1.055376,0.4439 1.578484,0.67634 8.91551,3.96149 1.178389,0.63097 6.764931,2.93076 4.156783,1.71121 -0.742877,-0.20858 2.931471,1.12722 0.38041,0.1383 0.755435,0.29148 1.127489,0.45088 0.154486,0.0662 0.290007,0.17717 0.450994,0.22545 0.601327,0.1503 1.202656,0.30059 1.803982,0.45088 0.07517,0 0.152122,-0.0163 0.225497,0 0.601329,0.1503 1.202656,0.3006 1.803983,0.45089 0.07516,0 0.150792,-0.008 0.225497,0 2.500085,0.27772 1.562514,0.24959 4.05896,0 0.149584,-0.015 0.308378,0.0475 0.450994,0 0.543072,-0.18098 1.042486,-0.47538 1.578485,-0.67633 0.07038,-0.0264 0.150331,0 0.225497,0 0.450997,-0.30059 0.933476,-0.55862 1.352988,-0.90177 1.143608,-0.93546 1.587998,-1.74109 2.480476,-2.93077 0.06378,-0.085 0.161713,-0.14042 0.225494,-0.22544 1.10579,-1.47403 0.9822,-1.33601 1.803982,-2.705324 0.2255,-0.37574 0.51372,-0.72038 0.676494,-1.12722 0.142341,-0.35578 0.124652,-0.75754 0.2255,-1.12722 1.159364,-4.24999 -0.398529,2.18357 1.127488,-3.15621 0.125607,-0.43951 0.160836,-0.90015 0.225494,-1.35265 0.01062,-0.0744 -0.02374,-0.15416 0,-0.22545 0.203087,-0.60912 0.473409,-1.19444 0.676495,-1.80355 0.02374,-0.0713 -0.01826,-0.15253 0,-0.22544 0.132717,-0.53075 0.318276,-1.04735 0.450994,-1.5781 0.01825,-0.0729 -0.02064,-0.15319 0,-0.22545 0.1306,-0.45699 0.320399,-0.89567 0.451,-1.35266 0.02064,-0.0723 0,-0.15029 0,-0.22544 0,-0.52603 0,-1.05207 0,-1.5781 0,-0.74595 0.132079,-1.52818 0,-2.25444 -0.137127,-0.754 -0.313874,-1.50044 -0.451,-2.25443 -0.01342,-0.0739 0.01629,-0.15209 0,-0.22545 -0.15033,-0.60118 -0.300659,-1.202363 -0.450994,-1.803546 0,-0.07515 0.01062,-0.15105 0,-0.225443 -0.07516,-0.450887 -0.15033,-0.901773 -0.225495,-1.352661 -0.07517,-0.150296 -0.184734,-0.287869 -0.2255,-0.450887 -0.110888,-0.443458 -0.160835,-0.900149 -0.2255,-1.352661 -0.01062,-0.07439 0.03365,-0.158229 0,-0.225443 -0.04755,-0.09506 -0.177957,-0.130388 -0.225494,-0.225443 -0.06723,-0.134429 0.06723,-0.316459 0,-0.450886 -0.04755,-0.09506 -0.177963,-0.13039 -0.2255,-0.225446 -0.06723,-0.134427 0.06723,-0.316457 0,-0.450886 -0.747882,-0.747701 0.106301,0.21255 -0.2255,-0.450886 -0.04755,-0.09506 -0.177957,-0.130388 -0.225494,-0.225444 -0.03359,-0.06721 0.05316,-0.172307 0,-0.225443 -0.05316,-0.05314 -0.172349,0.05314 -0.2255,0 -0.05316,-0.05314 0.03359,-0.15823 0,-0.225445 -0.04755,-0.09505 -0.130415,-0.177915 -0.225494,-0.225443 -0.06723,-0.03361 -0.2255,0.07515 -0.2255,0 0,-0.06737 0.747883,0.148408 0,-0.225443 -0.2772,-0.138565 -0.607975,0.127463 -0.901988,0.225443 z"
       id="path834"
       inkscape:connector-curvature="0" />
    <text
       xml:space="preserve"
       style="font-style:normal;font-weight:normal;font-size:1.89395297px;line-height:1.25;font-family:sans-serif;letter-spacing:0px;word-spacing:0px;fill:#000000;fill-opacity:1;stroke:none;stroke-width:0.26458332"
       x="33.615643"
       y="74.156525"
       id="text838"
       transform="scale(1.0001203,0.9998797)"><tspan
         sodipodi:role="line"
         id="tspan836"
         x="33.615643"
         y="74.156525"
         style="stroke-width:0.26458332">$*$</tspan></text>
    <text
       id="text842"
       y="75.671127"
       x="52.189453"
       style="font-style:normal;font-weight:normal;font-size:1.89395297px;line-height:1.25;font-family:sans-serif;letter-spacing:0px;word-spacing:0px;fill:#000000;fill-opacity:1;stroke:none;stroke-width:0.26458332"
       xml:space="preserve"
       transform="scale(1.0001203,0.9998797)"><tspan
         style="stroke-width:0.26458332"
         y="75.671127"
         x="52.189453"
         id="tspan840"
         sodipodi:role="line">:v</tspan></text>
    <text
       id="text846"
       y="89.860558"
       x="32.340191"
       style="font-style:normal;font-weight:normal;font-size:1.89395297px;line-height:1.25;font-family:sans-serif;letter-spacing:0px;word-spacing:0px;fill:#000000;fill-opacity:1;stroke:none;stroke-width:0.26458332"
       xml:space="preserve"
       transform="scale(1.0001203,0.9998797)"><tspan
         style="stroke-width:0.26458332"
         y="89.860558"
         x="32.340191"
         id="tspan844"
         sodipodi:role="line">$9$</tspan></text>
    <text
       xml:space="preserve"
       style="font-style:normal;font-weight:normal;font-size:1.89395297px;line-height:1.25;font-family:sans-serif;letter-spacing:0px;word-spacing:0px;fill:#000000;fill-opacity:1;stroke:none;stroke-width:0.26458332"
       x="50.754562"
       y="93.128914"
       id="text850"
       transform="scale(1.0001203,0.9998797)"><tspan
         sodipodi:role="line"
         id="tspan848"
         x="50.754562"
         y="93.128914"
         style="stroke-width:0.26458332">$3$</tspan></text>
    <path
       inkscape:connector-curvature="0"
       id="path888"
       d="m 127.83429,75.274448 c -0.94509,-1.528674 -2.81157,-1.822238 -4.05896,-2.930765 -0.83517,-0.742195 -1.49073,-1.664873 -2.25498,-2.479877 -0.55737,-0.594392 -2.10618,-2.114879 -2.70597,-2.479878 -1.14856,-0.698957 -2.40531,-1.202364 -3.60796,-1.803548 -0.60133,-0.300591 -1.20266,-0.601182 -1.80398,-0.901773 -0.451,-0.225445 -0.87464,-0.516919 -1.35299,-0.676331 -0.43375,-0.14455 -0.90199,-0.150296 -1.35299,-0.225444 -0.45099,-0.07515 -0.89666,-0.253956 -1.35298,-0.225443 -0.76506,0.04781 -1.50545,0.290311 -2.25498,0.450887 -2.87965,0.61692 -5.05445,1.048966 -7.666923,2.254435 -0.457819,0.21125 -0.927588,0.405686 -1.352987,0.67633 -0.624961,0.397608 -2.113091,1.757506 -2.480474,2.254434 -0.90466,1.223657 -1.529693,2.644349 -2.480475,3.832539 -0.863272,1.07883 -1.979681,1.929124 -2.931471,2.930765 -2.360588,2.484232 -0.437817,0.66151 -2.254976,2.705321 -0.282491,0.317724 -0.658154,0.553518 -0.901992,0.901774 -0.682319,0.974508 -1.601435,3.930307 -1.803982,4.508867 -0.507428,1.44945 -0.676492,2.30816 -0.676492,3.83254 0,0.0752 -0.02569,0.15482 0,0.22545 0.582628,1.60184 0.7465,2.13397 1.578484,3.38165 0.416945,0.62526 0.858015,1.238 1.352985,1.80354 0.279998,0.31993 0.658154,0.55352 0.901992,0.90177 0.289156,0.41299 0.405785,0.92738 0.676492,1.35267 0.258398,0.40595 0.597216,0.7548 0.901992,1.12721 1.699367,2.07651 1.21372,1.60493 4.284457,3.607099 0.648209,0.42264 1.365882,0.72916 2.029479,1.12722 0.929572,0.55761 1.751491,1.28972 2.705973,1.80354 0.504022,0.27133 1.055378,0.4439 1.578488,0.67634 8.91551,3.96149 1.17838,0.63097 6.76493,2.93076 4.15678,1.71121 -0.74288,-0.20858 2.93147,1.12722 0.38041,0.1383 0.75543,0.29148 1.12749,0.45088 0.15448,0.0662 0.29,0.17717 0.45099,0.22545 0.60133,0.1503 1.20266,0.30059 1.80398,0.45088 0.0752,0 0.15212,-0.0163 0.2255,0 0.60133,0.1503 1.20266,0.3006 1.80398,0.45089 0.0752,0 0.15079,-0.008 0.2255,0 2.50008,0.27772 1.56251,0.24959 4.05896,0 0.14958,-0.015 0.30838,0.0475 0.45099,0 0.54308,-0.18098 1.04249,-0.47538 1.57849,-0.67633 0.0704,-0.0264 0.15033,0 0.2255,0 0.45099,-0.30059 0.93347,-0.55862 1.35298,-0.90177 1.14361,-0.93546 1.588,-1.74109 2.48048,-2.93077 0.0638,-0.085 0.16171,-0.14042 0.22549,-0.22544 1.10579,-1.47403 0.9822,-1.33601 1.80399,-2.70532 0.2255,-0.37574 0.51372,-0.72038 0.67649,-1.12722 0.14234,-0.35578 0.12465,-0.75754 0.2255,-1.127219 1.15936,-4.24999 -0.39853,2.183569 1.12749,-3.15621 0.1256,-0.43951 0.16083,-0.90015 0.22549,-1.35265 0.0106,-0.0744 -0.0237,-0.15416 0,-0.22545 0.20309,-0.60912 0.47341,-1.19444 0.6765,-1.80355 0.0237,-0.0713 -0.0183,-0.15253 0,-0.22544 0.13271,-0.53075 0.31827,-1.04735 0.45099,-1.5781 0.0182,-0.0729 -0.0206,-0.15319 0,-0.22545 0.1306,-0.45699 0.3204,-0.89567 0.451,-1.35266 0.0206,-0.0723 0,-0.15029 0,-0.22544 0,-0.52603 0,-1.05207 0,-1.5781 0,-0.74595 0.13208,-1.52818 0,-2.25444 -0.13713,-0.754 -0.31387,-1.50044 -0.451,-2.25443 -0.0134,-0.0739 0.0163,-0.15209 0,-0.22545 -0.15033,-0.60118 -0.30066,-1.202363 -0.45099,-1.803546 0,-0.07515 0.0106,-0.15105 0,-0.225443 -0.0752,-0.450887 -0.15033,-0.901773 -0.2255,-1.352661 -0.0752,-0.150296 -0.18473,-0.287869 -0.2255,-0.450887 -0.11089,-0.443458 -0.16083,-0.900149 -0.2255,-1.352661 -0.0106,-0.07439 0.0336,-0.158229 0,-0.225443 -0.0476,-0.09506 -0.17796,-0.130388 -0.22549,-0.225443 -0.0672,-0.134429 0.0672,-0.316459 0,-0.450886 -0.0476,-0.09506 -0.17797,-0.13039 -0.2255,-0.225446 -0.0672,-0.134427 0.0672,-0.316457 0,-0.450886 -0.74788,-0.747701 0.1063,0.21255 -0.2255,-0.450886 -0.0476,-0.09506 -0.17796,-0.130388 -0.2255,-0.225444 -0.0336,-0.06721 0.0532,-0.172307 0,-0.225443 -0.0532,-0.05314 -0.17235,0.05314 -0.2255,0 -0.0532,-0.05314 0.0336,-0.15823 0,-0.225445 -0.0476,-0.09505 -0.13041,-0.177915 -0.22549,-0.225443 -0.0672,-0.03361 -0.2255,0.07515 -0.2255,0 0,-0.06737 0.74788,0.148408 0,-0.225443 -0.2772,-0.138565 -0.60798,0.127463 -0.90199,0.225443 z"
       style="opacity:1;fill:none;fill-opacity:1;stroke:#000000;stroke-width:1.06500006;stroke-miterlimit:4;stroke-dasharray:none;stroke-dashoffset:0;stroke-opacity:1" />
    <text
       transform="scale(1.0001203,0.99987971)"
       id="text892"
       y="95.340179"
       x="103.16417"
       style="font-style:normal;font-weight:normal;font-size:1.89395297px;line-height:1.25;font-family:sans-serif;letter-spacing:0px;word-spacing:0px;fill:#000000;fill-opacity:1;stroke:none;stroke-width:0.26458332"
       xml:space="preserve"><tspan
         style="stroke-width:0.26458332"
         y="95.340179"
         x="103.16417"
         id="tspan890"
         sodipodi:role="line">$*$</tspan></text>
    <text
       transform="scale(1.0001203,0.99987971)"
       xml:space="preserve"
       style="font-style:normal;font-weight:normal;font-size:1.89395297px;line-height:1.25;font-family:sans-serif;letter-spacing:0px;word-spacing:0px;fill:#000000;fill-opacity:1;stroke:none;stroke-width:0.26458332"
       x="90.872063"
       y="87.231918"
       id="text896"><tspan
         sodipodi:role="line"
         id="tspan894"
         x="90.872063"
         y="87.231918"
         style="stroke-width:0.26458332">:v</tspan></text>
    <text
       transform="scale(1.0001203,0.99987971)"
       xml:space="preserve"
       style="font-style:normal;font-weight:normal;font-size:1.89395297px;line-height:1.25;font-family:sans-serif;letter-spacing:0px;word-spacing:0px;fill:#000000;fill-opacity:1;stroke:none;stroke-width:0.26458332"
       x="125.67285"
       y="89.259132"
       id="text900"><tspan
         sodipodi:role="line"
         id="tspan898"
         x="125.67285"
         y="89.259132"
         style="stroke-width:0.26458332">$9$</tspan></text>
    <text
       transform="scale(1.0001203,0.99987971)"
       id="text904"
       y="96.069229"
       x="115.96048"
       style="font-style:normal;font-weight:normal;font-size:1.89395297px;line-height:1.25;font-family:sans-serif;letter-spacing:0px;word-spacing:0px;fill:#000000;fill-opacity:1;stroke:none;stroke-width:0.26458332"
       xml:space="preserve"><tspan
         style="stroke-width:0.26458332"
         y="96.069229"
         x="115.96048"
         id="tspan902"
         sodipodi:role="line">$3$</tspan></text>
    <path
       style="opacity:1;fill:none;fill-opacity:1;stroke:#000000;stroke-width:1.06500006;stroke-miterlimit:4;stroke-dasharray:none;stroke-dashoffset:0;stroke-opacity:1"
       d="m 187.96993,75.808987 c -0.94509,-1.528674 -2.81157,-1.822238 -4.05896,-2.930765 -0.83517,-0.742195 -1.49073,-1.664873 -2.25498,-2.479877 -0.55737,-0.594392 -2.10618,-2.114879 -2.70597,-2.479878 -1.14856,-0.698957 -2.40531,-1.202364 -3.60796,-1.803548 -0.60133,-0.300591 -1.20266,-0.601182 -1.80398,-0.901773 -0.451,-0.225445 -0.87464,-0.516919 -1.35299,-0.676331 -0.43375,-0.14455 -0.90199,-0.150296 -1.35299,-0.225444 -0.45099,-0.07515 -0.89666,-0.253956 -1.35298,-0.225443 -0.76506,0.04781 -1.50545,0.290311 -2.25498,0.450887 -2.87965,0.61692 -5.05445,1.048966 -7.66692,2.254435 -0.45782,0.21125 -0.92759,0.405686 -1.35299,0.67633 -0.62496,0.397608 -2.11309,1.757506 -2.48047,2.254434 -0.90466,1.223657 -1.52969,2.644349 -2.48048,3.832539 -0.86327,1.07883 -1.97968,1.929124 -2.93147,2.930765 -2.36058,2.484232 -0.43781,0.66151 -2.25497,2.705321 -0.28249,0.317724 -0.65816,0.553518 -0.90199,0.901774 -0.68232,0.974508 -1.60144,3.930307 -1.80399,4.508867 -0.50742,1.44945 -0.67649,2.30816 -0.67649,3.83254 0,0.0752 -0.0257,0.15482 0,0.22545 0.58263,1.60184 0.7465,2.13397 1.57849,3.38165 0.41694,0.62526 0.85801,1.238 1.35298,1.80354 0.28,0.31993 0.65815,0.55352 0.90199,0.90177 0.28916,0.41299 0.40579,0.92738 0.67649,1.35267 0.2584,0.40595 0.59722,0.7548 0.902,1.12721 1.69936,2.07651 1.21372,1.60493 4.28445,3.6071 0.64821,0.42264 1.36589,0.72916 2.02948,1.12722 0.92957,0.55761 1.75149,1.28972 2.70598,1.80354 0.50402,0.27133 1.05537,0.4439 1.57848,0.67634 8.91551,3.96149 1.17838,0.63097 6.76493,2.93076 4.15678,1.71121 -0.74288,-0.20858 2.93147,1.12722 0.38041,0.1383 0.75543,0.29148 1.12749,0.45088 0.15448,0.0662 0.29,0.17717 0.45099,0.22545 0.60133,0.1503 1.20266,0.30059 1.80398,0.45088 0.0752,0 0.15212,-0.0163 0.2255,0 0.60133,0.1503 1.20266,0.3006 1.80398,0.45089 0.0752,0 0.15079,-0.008 0.2255,0 2.50008,0.27772 1.56251,0.24959 4.05896,0 0.14958,-0.015 0.30838,0.0475 0.45099,0 0.54308,-0.18098 1.04249,-0.47538 1.57849,-0.67633 0.0704,-0.0264 0.15033,0 0.2255,0 0.45099,-0.30059 0.93347,-0.55862 1.35298,-0.90177 1.14361,-0.93546 1.588,-1.74109 2.48048,-2.93077 0.0638,-0.085 0.16171,-0.14042 0.22549,-0.22544 1.10579,-1.47403 0.9822,-1.33601 1.80399,-2.70532 0.2255,-0.37574 0.51372,-0.72038 0.67649,-1.12722 0.14234,-0.35578 0.12465,-0.75754 0.2255,-1.12722 1.15936,-4.24999 -0.39853,2.18357 1.12749,-3.15621 0.1256,-0.43951 0.16083,-0.90015 0.22549,-1.35265 0.0106,-0.0744 -0.0237,-0.15416 0,-0.22545 0.20309,-0.60912 0.47341,-1.19444 0.6765,-1.80355 0.0237,-0.0713 -0.0183,-0.15253 0,-0.22544 0.13271,-0.53075 0.31827,-1.04735 0.45099,-1.5781 0.0182,-0.0729 -0.0206,-0.15319 0,-0.22545 0.1306,-0.45699 0.3204,-0.89567 0.451,-1.35266 0.0206,-0.0723 0,-0.15029 0,-0.22544 0,-0.52603 0,-1.05207 0,-1.5781 0,-0.74595 0.13208,-1.52818 0,-2.25444 -0.13713,-0.754 -0.31387,-1.50044 -0.451,-2.25443 -0.0134,-0.0739 0.0163,-0.15209 0,-0.22545 -0.15033,-0.60118 -0.30066,-1.202363 -0.45099,-1.803546 0,-0.07515 0.0106,-0.15105 0,-0.225443 -0.0752,-0.450887 -0.15033,-0.901773 -0.2255,-1.352661 -0.0752,-0.150296 -0.18473,-0.287869 -0.2255,-0.450887 -0.11089,-0.443458 -0.16083,-0.900149 -0.2255,-1.352661 -0.0106,-0.07439 0.0336,-0.158229 0,-0.225443 -0.0476,-0.09506 -0.17796,-0.130388 -0.22549,-0.225443 -0.0672,-0.134429 0.0672,-0.316459 0,-0.450886 -0.0476,-0.09506 -0.17797,-0.13039 -0.2255,-0.225446 -0.0672,-0.134427 0.0672,-0.316457 0,-0.450886 -0.74788,-0.747701 0.1063,0.21255 -0.2255,-0.450886 -0.0476,-0.09506 -0.17796,-0.130388 -0.2255,-0.225444 -0.0336,-0.06721 0.0532,-0.172307 0,-0.225443 -0.0532,-0.05314 -0.17235,0.05314 -0.2255,0 -0.0532,-0.05314 0.0336,-0.15823 0,-0.225445 -0.0476,-0.09505 -0.13041,-0.177915 -0.22549,-0.225443 -0.0672,-0.03361 -0.2255,0.07515 -0.2255,0 0,-0.06737 0.74788,0.148408 0,-0.225443 -0.2772,-0.138565 -0.60798,0.127463 -0.90199,0.225443 z"
       id="path906"
       inkscape:connector-curvature="0" />
    <text
       xml:space="preserve"
       style="font-style:normal;font-weight:normal;font-size:1.89395297px;line-height:1.25;font-family:sans-serif;letter-spacing:0px;word-spacing:0px;fill:#000000;fill-opacity:1;stroke:none;stroke-width:0.26458332"
       x="158.5491"
       y="93.602722"
       id="text910"
       transform="scale(1.0001203,0.99987971)"><tspan
         sodipodi:role="line"
         id="tspan908"
         x="158.5491"
         y="93.602722"
         style="stroke-width:0.26458332">$*$</tspan></text>
    <text
       id="text914"
       y="99.594627"
       x="176.92249"
       style="font-style:normal;font-weight:normal;font-size:1.89395297px;line-height:1.25;font-family:sans-serif;letter-spacing:0px;word-spacing:0px;fill:#000000;fill-opacity:1;stroke:none;stroke-width:0.26458332"
       xml:space="preserve"
       transform="scale(1.0001203,0.99987971)"><tspan
         style="stroke-width:0.26458332"
         y="99.594627"
         x="176.92249"
         id="tspan912"
         sodipodi:role="line">:v</tspan></text>
    <text
       id="text918"
       y="73.621979"
       x="168.49763"
       style="font-style:normal;font-weight:normal;font-size:1.89395297px;line-height:1.25;font-family:sans-serif;letter-spacing:0px;word-spacing:0px;fill:#000000;fill-opacity:1;stroke:none;stroke-width:0.26458332"
       xml:space="preserve"
       transform="scale(1.0001203,0.99987971)"><tspan
         style="stroke-width:0.26458332"
         y="73.621979"
         x="168.49763"
         id="tspan916"
         sodipodi:role="line">$9$</tspan></text>
    <text
       xml:space="preserve"
       style="font-style:normal;font-weight:normal;font-size:1.89395297px;line-height:1.25;font-family:sans-serif;letter-spacing:0px;word-spacing:0px;fill:#000000;fill-opacity:1;stroke:none;stroke-width:0.26458332"
       x="169.27432"
       y="84.241135"
       id="text922"
       transform="scale(1.0001203,0.99987971)"><tspan
         sodipodi:role="line"
         id="tspan920"
         x="169.27432"
         y="84.241135"
         style="stroke-width:0.26458332">$3$</tspan></text>
    <text
       xml:space="preserve"
       style="font-style:normal;font-weight:normal;font-size:3.17499995px;line-height:1.25;font-family:sans-serif;letter-spacing:0px;word-spacing:0px;fill:#000000;fill-opacity:1;stroke:none;stroke-width:0.26458332"
       x="64.411957"
       y="62.070084"
       id="text926"><tspan
         sodipodi:role="line"
         id="tspan924"
         x="64.411957"
         y="62.070084"
         style="stroke-width:0.26458332">$G$</tspan></text>
    <text
       id="text930"
       y="65.277321"
       x="128.28937"
       style="font-style:normal;font-weight:normal;font-size:3.17499995px;line-height:1.25;font-family:sans-serif;letter-spacing:0px;word-spacing:0px;fill:#000000;fill-opacity:1;stroke:none;stroke-width:0.26458332"
       xml:space="preserve"><tspan
         style="stroke-width:0.26458332"
         y="65.277321"
         x="128.28937"
         id="tspan928"
         sodipodi:role="line">$G$</tspan></text>
    <text
       xml:space="preserve"
       style="font-style:normal;font-weight:normal;font-size:3.17499995px;line-height:1.25;font-family:sans-serif;letter-spacing:0px;word-spacing:0px;fill:#000000;fill-opacity:1;stroke:none;stroke-width:0.26458332"
       x="190.2959"
       y="63.940971"
       id="text934"><tspan
         sodipodi:role="line"
         id="tspan932"
         x="190.2959"
         y="63.940971"
         style="stroke-width:0.26458332">$G$</tspan></text>
    <path
       style="opacity:1;fill:none;fill-opacity:1;stroke:#000000;stroke-width:1.06500006;stroke-miterlimit:4;stroke-dasharray:none;stroke-dashoffset:0;stroke-opacity:1"
       d="m 33.742778,92.071088 c 0.04454,0.08909 0.09664,0.174789 0.133635,0.267269 0.0083,0.02069 -0.0061,0.0454 0,0.06682 0.0387,0.135443 0.09494,0.265462 0.133634,0.400905 0.0061,0.0214 -0.0099,0.0469 0,0.06682 0.05808,0.116158 0.142372,0.217927 0.200453,0.334087 0.0099,0.01992 -0.01106,0.04748 0,0.06682 0.07968,0.139446 0.187585,0.261456 0.267269,0.400905 0.01106,0.01934 -0.0086,0.04626 0,0.06682 0.103508,0.24842 0.226219,0.488437 0.334087,0.734991 0.04808,0.109887 0.07192,0.231241 0.133636,0.334087 0.15993,0.266554 0.401238,0.43947 0.601355,0.668176 0.769366,0.879274 0.05321,0.07322 0.734991,0.868624 0.133634,0.155909 0.316352,0.26215 0.467723,0.400905 0.162531,0.148987 0.324231,0.300315 0.46772,0.467723 0.113207,0.132074 0.211084,0.277899 0.334086,0.400904 0.01574,0.01574 0.04869,-0.01294 0.06682,0 0.141552,0.101108 0.26883,0.22088 0.400905,0.334087 0.287811,0.246695 0.577149,0.49209 0.868627,0.734991 0.02418,0.02016 0.04118,0.04851 0.06681,0.06682 -0.143161,0.99789 0.318315,0.167664 0.467723,0.267272 0.11866,0.07911 0.215426,0.188161 0.334086,0.267269 0.03706,0.02471 0.09379,-0.01992 0.133636,0 0.160608,0.0803 0.307113,0.186965 0.46772,0.267269 0.01992,0.0099 0.04521,-0.0054 0.06682,0 1.066625,0.266657 -0.165211,0.02085 1.00226,0.200453 0.11225,0.01728 0.221663,0.05075 0.334089,0.06682 0.0441,0.0063 0.08931,-0.0044 0.133634,0 0.178675,0.01786 0.35607,0.04699 0.53454,0.06682 0.219395,0.02437 0.446423,0 0.668173,0 0.155906,0 0.313381,0.02204 0.467723,0 0.134114,-0.01915 0.270637,-0.0296 0.400902,-0.06682 0.03029,-0.0087 0.03551,-0.06334 0.06682,-0.06682 0.177091,-0.01968 0.357449,0.01968 0.53454,0 0.0313,-0.0035 0.03722,-0.05605 0.06682,-0.06682 0.21853,-0.07947 0.443836,-0.139268 0.668173,-0.200453 0.02148,-0.0059 0.04455,0 0.06682,0 0.200453,-0.06682 0.405175,-0.121978 0.601358,-0.200451 0.02924,-0.0117 0.0401,-0.05012 0.06682,-0.06682 0.15227,-0.09517 0.315449,-0.172098 0.467719,-0.267269 0.02671,-0.01669 0.03947,-0.05119 0.06682,-0.06682 0.129723,-0.07413 0.271182,-0.126325 0.400905,-0.200451 0.02735,-0.01564 0.04061,-0.04935 0.06682,-0.06682 0.108058,-0.07204 0.226028,-0.128413 0.334087,-0.200453 0.02622,-0.01746 0.03981,-0.05061 0.06682,-0.06682 0.08541,-0.05125 0.181859,-0.08239 0.267269,-0.133633 0.02701,-0.01619 0.03947,-0.05119 0.06682,-0.06682 0.129723,-0.07413 0.271182,-0.126325 0.400905,-0.200451 0.02735,-0.01564 0.04454,-0.04454 0.06681,-0.06682 0.111363,-0.06682 0.217929,-0.142372 0.334089,-0.200454 0.01992,-0.0099 0.04646,0.009 0.06682,0 0.182041,-0.08091 0.352499,-0.186362 0.53454,-0.267268 0.02035,-0.009 0.04689,0.0099 0.06682,0 0.281101,-0.14055 0.45389,-0.327171 0.734991,-0.467723 0.01992,-0.0099 0.04689,0.0099 0.06681,0 0.05635,-0.02817 0.08909,-0.08909 0.133636,-0.133633 0.08909,-0.08909 0.168886,-0.188563 0.267269,-0.267269 0.01738,-0.01392 0.0469,0.0099 0.06682,0 0.05635,-0.02817 0.07729,-0.105463 0.133636,-0.133636 0.01992,-0.0099 0.05107,0.01574 0.06682,0 0.01574,-0.01574 -0.007,-0.04569 0,-0.06682 0.01574,-0.04725 0.03493,-0.09537 0.06682,-0.133635 0.08066,-0.09679 0.188563,-0.168886 0.267271,-0.267269 0.01392,-0.01738 -0.01574,-0.05107 0,-0.06682 0.01574,-0.01574 0.05107,0.01574 0.06682,0 0.01574,-0.01574 -0.0099,-0.04689 0,-0.06682 0.01408,-0.02817 0.05273,-0.03864 0.06682,-0.06682 0.01,-0.01992 -0.0099,-0.0469 0,-0.06682 0.01408,-0.02817 0.05273,-0.03865 0.06682,-0.06682 0.01992,-0.03984 -0.0315,-0.102137 0,-0.133633 0.01574,-0.01574 0.05107,0.01574 0.06682,0 0.01574,-0.01574 -0.0099,-0.0469 0,-0.06682 0.01408,-0.02817 0.04935,-0.04061 0.06682,-0.06682 0.11226,-0.168394 0.13285,-0.400118 0.267269,-0.53454"
       id="path942"
       inkscape:connector-curvature="0" />
    <path
       style="opacity:1;fill:none;fill-opacity:1;stroke:#000000;stroke-width:1.06500006;stroke-miterlimit:4;stroke-dasharray:none;stroke-dashoffset:0;stroke-opacity:1"
       d="m 50.580758,89.932932 c 0.136443,-0.532574 0.269753,-1.182841 0.200451,-1.737251 -0.01953,-0.156274 -0.04728,-0.311449 -0.06682,-0.467723 -0.0028,-0.02209 0.0054,-0.04521 0,-0.06682 -0.03933,-0.157302 -0.09431,-0.310417 -0.133635,-0.467719 -0.0054,-0.02162 0.0024,-0.04468 0,-0.06682 -0.01984,-0.17847 -0.04699,-0.356071 -0.06682,-0.534541 -0.0024,-0.02214 0.0088,-0.04634 0,-0.06682 -0.05885,-0.137326 -0.133636,-0.267268 -0.200451,-0.400902 -0.08909,-0.178181 -0.138592,-0.382465 -0.267272,-0.53454 -0.155905,-0.111363 -0.311814,-0.222723 -0.467719,-0.334087 -0.02228,0 -0.0469,0.0099 -0.06682,0 -0.16061,-0.0803 -0.31545,-0.172098 -0.467723,-0.267268 -0.02671,-0.0167 -0.03786,-0.05441 -0.06682,-0.06682 -0.129474,-0.05549 -0.271428,-0.07815 -0.400902,-0.133636 -0.02895,-0.01241 -0.03653,-0.05816 -0.06682,-0.06682 -0.130265,-0.03722 -0.270639,-0.0296 -0.400904,-0.06682 -0.03029,-0.0087 -0.03626,-0.05918 -0.06682,-0.06682 -0.494019,-0.123505 -1.316598,-0.09749 -1.804069,0 -0.117613,0.02352 -0.2203,0.0957 -0.334087,0.133636 -0.02114,0.007 -0.04596,-0.0078 -0.06682,0 -1.265177,0.47444 -0.205073,0.03194 -0.534538,0.267269 -0.130693,0.09335 -0.261458,0.187584 -0.400904,0.267268 -0.01934,0.01106 -0.05107,-0.01574 -0.06682,0 -0.100843,0.100844 -0.175972,0.224528 -0.267269,0.334087 -0.100825,0.120989 -0.222726,0.222724 -0.334087,0.334087 -0.02228,0.02228 -0.03864,0.05273 -0.06682,0.06682 -0.01992,0.0099 -0.04943,-0.01392 -0.06682,0 -0.09838,0.0787 -0.168887,0.188563 -0.267269,0.267269 -0.01738,0.01392 -0.04521,-0.0054 -0.06682,0 -0.157306,0.03933 -0.306054,0.1212 -0.467723,0.133635 -0.135077,0.0104 -0.281969,-0.0019 -0.400904,-0.06682 -0.138258,-0.07541 -0.217554,-0.228147 -0.334087,-0.334086 -0.234228,-0.212937 -0.511154,-0.377521 -0.734991,-0.601356 -0.145198,-0.145201 -0.255704,-0.322524 -0.400905,-0.467722 -0.01574,-0.01574 -0.05107,0.01574 -0.06681,0 -0.216292,-0.216289 -0.468456,-0.562145 -0.668174,-0.80181 -0.226621,-0.271944 0.219814,0.429948 -0.334089,-0.400904 -0.01236,-0.01852 0.007,-0.04569 0,-0.06682 -0.01574,-0.04725 -0.05107,-0.08639 -0.06681,-0.133633 -0.007,-0.02114 0.007,-0.04569 0,-0.06682 -0.03793,-0.113787 -0.09571,-0.2203 -0.133636,-0.334087 -0.01408,-0.04226 0,-0.08909 0,-0.133635 0,-0.155906 0,-0.311815 0,-0.46772 0,-0.173329 -0.0037,-0.221046 0.06682,-0.467723 0.0087,-0.03029 0.05273,-0.03864 0.06682,-0.06682 0.0099,-0.01992 -0.01236,-0.04829 0,-0.06682 0.22185,-0.332778 0.72903,-0.842378 1.069078,-1.069079 0.01852,-0.01236 0.04689,0.0099 0.06681,0 0.02817,-0.01407 0.04262,-0.04665 0.06682,-0.06682 0.109559,-0.0913 0.224528,-0.175969 0.334087,-0.267269 0.02421,-0.02016 0.04061,-0.04935 0.06682,-0.06682 0.108058,-0.07204 0.226028,-0.128413 0.334086,-0.200451 0.106167,-0.07078 0.377375,-0.371491 0.400905,-0.400905 0.01392,-0.01738 -0.01574,-0.05107 0,-0.06682 0.08909,-0.08909 0.06412,0.141743 0.133636,-0.06682 0.01407,-0.04226 -0.01408,-0.09137 0,-0.133634 0.0099,-0.02988 0.05273,-0.03865 0.06682,-0.06682 0.0099,-0.01992 -0.0099,-0.0469 0,-0.06682 0.01408,-0.02817 0.05273,-0.03865 0.06682,-0.06682 0.0099,-0.01992 0,-0.04454 0,-0.06681 0,-0.228577 -0.01569,-0.09295 -0.200451,-0.400905 -0.01146,-0.0191 0.01392,-0.04943 0,-0.06682 -0.0692,-0.149863 -0.233265,-0.213101 -0.334087,-0.334087 -0.627433,-0.752919 0.14401,0.07546 -0.668173,-0.601355 -0.01712,-0.01426 0.01852,-0.05447 0,-0.06682 -0.124318,-0.08288 -0.271182,-0.126325 -0.400905,-0.200454 -0.02735,-0.01564 -0.03865,-0.05273 -0.06682,-0.06682 -0.01992,-0.0099 -0.04772,0.01146 -0.06682,0 -0.09549,-0.05729 -0.180311,-0.130884 -0.267269,-0.200451 -0.02461,-0.01968 -0.03865,-0.05273 -0.06682,-0.06682 -0.01992,-0.0099 -0.04689,0.01 -0.06682,0 -0.02817,-0.01408 -0.03865,-0.05273 -0.06682,-0.06682 -0.02753,-0.48115 -0.274912,-0.07064 -0.400904,-0.133633 -0.02817,-0.01408 -0.03733,-0.05576 -0.06682,-0.06682 -0.318458,-0.119423 -0.608095,-0.145894 -0.935445,-0.200454 -0.111361,-0.02228 -0.222724,-0.04454 -0.334087,-0.06682 -0.02228,-0.02228 -0.03865,-0.05273 -0.06681,-0.06682 -0.01992,-0.0099 -0.04477,0.0031 -0.06682,0 -0.134117,-0.01916 -0.266787,-0.04766 -0.400904,-0.06682 -0.02204,-0.0031 -0.0469,0.0099 -0.06682,0 -0.02817,-0.01408 -0.03865,-0.05273 -0.06682,-0.06682 -0.01992,-0.0099 -0.04454,0 -0.06682,0 -0.111361,0 -0.222724,0 -0.334087,0 -0.244996,0 -0.489992,0 -0.734991,0"
       id="path944"
       inkscape:connector-curvature="0" />
    <path
       style="opacity:1;fill:none;fill-opacity:1;stroke:#000000;stroke-width:1.06500006;stroke-miterlimit:4;stroke-dasharray:none;stroke-dashoffset:0;stroke-opacity:1"
       d="m 35.747298,70.355441 c 0.06682,-0.08909 0.121708,-0.188527 0.200454,-0.267272 0.184602,-0.184602 0.579207,-0.487309 0.801809,-0.668173 0.245679,-0.199615 0.48931,-0.401741 0.734989,-0.601356 0.442634,-0.35964 0.889346,-0.745352 1.403167,-1.00226 0.151712,-0.07586 0.313711,-0.129371 0.46772,-0.200454 0.135657,-0.06261 0.261456,-0.146817 0.400904,-0.200451 0.302678,-0.116414 0.625494,-0.171899 0.935445,-0.267269 0.494536,-0.152167 0.975382,-0.319344 1.46998,-0.467722 0.02133,-0.0064 0.04455,0 0.06682,0 0.178181,-0.04455 0.360302,-0.07556 0.534541,-0.133636 0.02988,-0.0099 0.03607,-0.05998 0.06682,-0.06682 0.521558,-0.1159 1.075436,-0.06682 1.603616,-0.06682 0.111363,0 0.222724,0 0.334087,0 0.04454,0 0.098,-0.02673 0.133636,0 0.119012,0.08926 1.016587,0.896591 1.202711,1.135893 0.07973,0.102513 0.114173,0.237022 0.200453,0.334087 0.09475,0.106593 0.227497,0.172524 0.334087,0.267272 0.09417,0.0837 0.178179,0.178178 0.267269,0.267268 0.220144,0.220144 0.509868,0.542029 0.734991,0.734992 0.01691,0.0145 0.05447,-0.01852 0.06682,0 0.08288,0.124314 0.126326,0.271182 0.200451,0.400904 0.01564,0.02735 0.05817,0.03653 0.06682,0.06682 0.09393,0.328761 0.110149,0.506865 -0.06682,0.801807 -0.01146,0.0191 -0.0529,-0.01738 -0.06681,0 -0.392665,0.490831 0.03641,0.287541 -0.53454,0.668176 -0.01852,0.01236 -0.04596,-0.0078 -0.06682,0 -0.158822,0.05956 -0.304991,0.15259 -0.46772,0.200451 -0.567089,0.166791 -1.218689,0.200451 -1.804069,0.200451 -0.111364,0 -0.222727,0 -0.334087,0 -0.04491,0 -0.16102,0.01971 -0.200454,0 -0.11616,-0.05808 -0.226028,-0.128413 -0.334086,-0.200451 -0.133636,-0.08909 -0.195443,-0.257252 -0.267269,-0.400905 -0.0099,-0.01992 0.007,-0.04569 0,-0.06682 -0.152363,-0.457088 0.0093,0.465752 -0.133636,-0.534537 -0.02506,-0.175427 0,-0.454184 0,-0.601359 0,-0.04454 -0.02783,-0.09885 0,-0.133633 0.07871,-0.09838 0.188563,-0.168886 0.267269,-0.267268 0.01392,-0.01738 -0.01738,-0.05291 0,-0.06682 0.126894,-0.101516 0.603686,-0.344631 0.734991,-0.400905 0.02048,-0.0088 0.0454,0.0061 0.06682,0 0.135443,-0.0387 0.265462,-0.09494 0.400905,-0.133636 0.149907,-0.04283 0.31338,0.02204 0.467722,0 0.03118,-0.0044 0.03865,-0.05273 0.06682,-0.06682 0.0067,-0.0033 0.741767,-0.02114 0.868624,0 0.112022,0.01868 0.222065,0.04815 0.334087,0.06682 0.04394,0.0073 0.08954,-0.0063 0.133636,0 0.134117,0.01916 0.266787,0.04766 0.400904,0.06682 0.0441,0.0063 0.0908,-0.01222 0.133634,0 0.135445,0.0387 0.265461,0.09494 0.400904,0.133636 0.02141,0.0061 0.04569,-0.007 0.06682,0 0.113787,0.03793 0.21876,0.100684 0.334087,0.133633 0.04283,0.01222 0.09015,-0.0097 0.133635,0 0.350108,0.0778 0.595929,0.170267 0.935443,0.267272 0.04283,0.01225 0.09138,-0.01408 0.133636,0 0.113784,0.03793 0.2203,0.09571 0.334086,0.133633 0.02114,0.007 0.04689,-0.0099 0.06682,0 0.02817,0.01408 0.03864,0.05273 0.06681,0.06682 0.01992,0.01 0.04455,0 0.06682,0 0.04454,0.02228 0.0922,0.03919 0.133636,0.06682 0.09266,0.06177 0.171778,0.143156 0.267269,0.200451 0.0382,0.02291 0.102137,-0.0315 0.133636,0 0.01574,0.01574 -0.01574,0.05107 0,0.06682 0.01574,0.01574 0.04689,-0.0099 0.06682,0 0.221605,0.221605 -0.063,-0.0315 0.133634,0.06682 0.305797,0.152898 -0.283533,-0.02769 0.200453,0.133633 0.02114,0.007 0.05107,-0.01574 0.06682,0 0.100844,0.100844 0.175972,0.224531 0.267272,0.33409 0.04033,0.04839 0.10546,0.07729 0.133633,0.133633 0.01,0.01992 -0.0099,0.0469 0,0.06682 0.01408,0.02817 0.05273,0.03865 0.06682,0.06682 0.01992,0.03984 -0.01992,0.09379 0,0.133634 0.01408,0.02817 0.05273,0.03865 0.06682,0.06682 0.01992,0.03984 -0.01225,0.09081 0,0.133636 0.0387,0.135443 0.09494,0.265462 0.133635,0.400905 0.0061,0.0214 -0.01,0.04689 0,0.06682 0.01408,0.02817 0.05816,0.03653 0.06682,0.06681 0.03722,0.130267 0.04766,0.26679 0.06682,0.400904 0.0031,0.02204 -0.0099,0.0469 0,0.06682 0.01407,0.02817 0.05273,0.03865 0.06682,0.06682 0.0099,0.01992 -0.01574,0.05107 0,0.06682 0.01574,0.01574 0.04455,0 0.06682,0"
       id="path946"
       inkscape:connector-curvature="0" />
    <path
       style="opacity:1;fill:none;fill-opacity:1;stroke:#000000;stroke-width:1.06500006;stroke-miterlimit:4;stroke-dasharray:none;stroke-dashoffset:0;stroke-opacity:1"
       d="m 93.143429,88.663403 c 0.408313,0.234987 0.848886,0.391033 1.269531,0.601356 0.160608,0.0803 0.332026,0.149667 0.46772,0.267269 0.202674,0.175649 0.344898,0.411712 0.534541,0.601355 0.123002,0.123005 0.271605,0.217721 0.400904,0.334087 0.09365,0.08429 0.168886,0.188563 0.267269,0.267271 0.125415,0.10033 0.271015,0.172802 0.400905,0.267269 0.115337,0.08388 0.21377,0.190704 0.334086,0.267269 0.12605,0.08021 0.26974,0.128908 0.400905,0.200454 0.114011,0.06219 0.217927,0.142372 0.334087,0.200451 0.107278,0.05364 0.226808,0.08 0.334086,0.133635 0.11616,0.05808 0.217927,0.142373 0.334087,0.200451 0.01992,0.0099 0.04569,-0.007 0.06682,0 0.18053,0.06018 0.354007,0.140277 0.534538,0.200454 0.02114,0.007 0.04635,-0.0088 0.06682,0 0.137329,0.05885 0.267268,0.133633 0.400904,0.200451 0.04454,0.02228 0.09311,0.03787 0.133636,0.06682 0.228084,0.162917 0.556141,0.444611 0.734992,0.668173 0.0139,0.01738 -0.0157,0.05107 0,0.06682 0.0157,0.01574 0.0511,-0.01574 0.0668,0 0.0157,0.01574 -0.01,0.04689 0,0.06682 0.0401,0.08018 0.16036,0.120272 0.20045,0.200451 0.0983,0.19663 -0.15479,-0.08797 0.0668,0.133636"
       id="path948"
       inkscape:connector-curvature="0" />
    <path
       style="opacity:1;fill:none;fill-opacity:1;stroke:#000000;stroke-width:1.06500006;stroke-miterlimit:4;stroke-dasharray:none;stroke-dashoffset:0;stroke-opacity:1"
       d="m 107.30871,96.280583 c 0.13364,0 0.26782,-0.01209 0.40091,0 0.1131,0.01029 0.22166,0.05076 0.33409,0.06682 0.0441,0.0063 0.0893,-0.0044 0.13363,0 0.20069,0.02008 0.40123,0.0418 0.60136,0.06682 0.8695,0.108689 0.056,0.0285 1.00226,0.133636 0.198,0.02199 0.40335,-0.02201 0.60135,0 0.17847,0.01982 0.35607,0.04699 0.53454,0.06682 0.24201,0.02689 0.49299,-0.02689 0.73499,0 0.15653,0.01738 0.3107,0.05474 0.46772,0.06682 0.13325,0.01024 0.26728,0 0.40091,0 0.28954,0 0.57908,0 0.86863,0"
       id="path950"
       inkscape:connector-curvature="0" />
    <path
       style="opacity:1;fill:none;fill-opacity:1;stroke:#000000;stroke-width:1.06500006;stroke-miterlimit:4;stroke-dasharray:none;stroke-dashoffset:0;stroke-opacity:1"
       d="m 122.00854,95.34514 c 0.11641,-0.234275 0.30723,-0.542403 0.46772,-0.734991 0.0143,-0.01712 0.0494,0.01392 0.0668,0 0.12298,-0.09838 0.20593,-0.242549 0.33408,-0.334087 0.074,-0.05289 0.61486,-0.416237 0.73499,-0.467722 0.0409,-0.01754 0.0891,0 0.13364,0 0.17818,-0.111363 0.36645,-0.208016 0.53454,-0.334087 0.0178,-0.01336 -0.0157,-0.05107 0,-0.06682 0.1452,-0.145198 0.31319,-0.265684 0.46772,-0.400904 0.33326,-0.291603 0.45565,-0.487545 0.73499,-0.801807 0.0891,-0.08909 0.17818,-0.178181 0.26727,-0.267271 0,-0.02228 -0.01,-0.0469 0,-0.06682 0.0282,-0.05635 0.0987,-0.08122 0.13364,-0.133635 0.0668,-0.111364 0.13363,-0.222724 0.20045,-0.334087 0.0223,0 0.0511,0.01574 0.0668,0 0.0315,-0.0315 -0.0199,-0.09379 0,-0.133636 0.0141,-0.02817 0.0527,-0.03865 0.0668,-0.06682 0.01,-0.01992 -0.01,-0.0469 0,-0.06682 0.0141,-0.02817 0.0527,-0.03864 0.0668,-0.06682 0.01,-0.01992 -0.01,-0.0469 0,-0.06682 0.0141,-0.02817 0.0527,-0.03865 0.0668,-0.06682 0.0199,-0.03984 -0.0315,-0.102137 0,-0.133633 0.0157,-0.01574 0.0445,0 0.0668,0"
       id="path952"
       inkscape:connector-curvature="0" />
    <path
       style="opacity:1;fill:none;fill-opacity:1;stroke:#000000;stroke-width:1.06500006;stroke-miterlimit:4;stroke-dasharray:none;stroke-dashoffset:0;stroke-opacity:1"
       d="m 162.36624,94.142427 c 0.49007,0.334327 1.03105,0.445203 1.60361,0.601358 0.68031,0.185539 0.55595,0.100748 1.33635,0.400902 0.31663,0.121782 0.62279,0.269258 0.93544,0.400904 0.53371,0.224719 1.0909,0.398997 1.60362,0.668174 0.38289,0.20102 0.71408,0.488034 1.06908,0.734991 0.37241,0.259067 0.73684,0.517324 1.1359,0.734991 0.38645,0.210794 0.78733,0.329264 1.20271,0.467723 0.13363,0.04454 0.27143,0.07815 0.4009,0.133636 0.0289,0.01241 0.0366,0.05777 0.0668,0.06682 0.19668,0.059 0.4,0.09337 0.60135,0.133636 0.0219,0.0044 0.0457,-0.007 0.0668,0 0.11379,0.03793 0.22031,0.09571 0.33409,0.133635 0.0211,0.007 0.0469,-0.01 0.0668,0 0.0282,0.01408 0.0369,0.05686 0.0668,0.06682 0.0422,0.01408 0.0908,-0.01225 0.13363,0 0.11532,0.03295 0.2203,0.09571 0.33409,0.133633 0.0211,0.007 0.0469,-0.0099 0.0668,0 0.0282,0.01408 0.0387,0.05273 0.0668,0.06682 0.0534,0.02673 0.147,-0.02673 0.20045,0 0.0282,0.01408 0.0387,0.05273 0.0668,0.06682 0.0555,0.02774 0.20392,0 0.26727,0"
       id="path954"
       inkscape:connector-curvature="0" />
    <path
       style="opacity:1;fill:none;fill-opacity:1;stroke:#000000;stroke-width:1.06500006;stroke-miterlimit:4;stroke-dasharray:none;stroke-dashoffset:0;stroke-opacity:1"
       d="m 162.49987,91.202461 c 0.16662,-0.291579 0.25622,-0.49327 0.46772,-0.734991 0.083,-0.09482 0.18992,-0.167817 0.26727,-0.267269 0.0797,-0.102513 0.12842,-0.226028 0.20045,-0.334087 0.14289,-0.214333 0.41403,-0.347207 0.60136,-0.534537 0.19618,-0.196176 0.61462,-0.577189 0.80181,-0.80181 0.0143,-0.01712 -0.0124,-0.04829 0,-0.06682 0.0791,-0.118661 0.17597,-0.224529 0.26727,-0.334087 0.22662,-0.271944 -0.21982,0.429945 0.33409,-0.400905 0.0123,-0.01852 -0.0129,-0.04869 0,-0.06682 -0.0349,-0.299585 0.28155,-0.300627 0.4009,-0.467719 0.0933,-0.130694 0.1728,-0.271016 0.26727,-0.400905 0.0839,-0.115337 0.18438,-0.218038 0.26727,-0.334087 0.029,-0.04053 0.0316,-0.09842 0.0668,-0.133636 0.0787,-0.07874 0.18031,-0.130884 0.26727,-0.200451 0.0246,-0.01968 0.0386,-0.05273 0.0668,-0.06682 0.0199,-0.01 0.0511,0.01574 0.0668,0 0.0157,-0.01574 -0.01,-0.0469 0,-0.06682 0.0141,-0.02817 0.0446,-0.04455 0.0668,-0.06682 0.0223,-0.02228 0.0369,-0.05686 0.0668,-0.06682 0.0423,-0.01408 0.0914,0.01408 0.13364,0 0.0299,-0.0099 0.0406,-0.04935 0.0668,-0.06682 0.10806,-0.07204 0.23267,-0.119325 0.33408,-0.200454 0.0174,-0.01392 -0.0157,-0.05107 0,-0.06682 0.0315,-0.0315 0.0938,0.01992 0.13364,0 0.0282,-0.01408 0.0386,-0.05273 0.0668,-0.06682 0.0199,-0.0099 0.0511,0.01574 0.0668,0 0.0157,-0.01574 -0.0157,-0.05107 0,-0.06681 0.0315,-0.0315 0.0938,0.01992 0.13364,0 0.13777,-0.06889 -0.005,-0.06682 0.20045,-0.06682"
       id="path956"
       inkscape:connector-curvature="0" />
    <path
       style="opacity:1;fill:none;fill-opacity:1;stroke:#000000;stroke-width:1.06500006;stroke-miterlimit:4;stroke-dasharray:none;stroke-dashoffset:0;stroke-opacity:1"
       d="m 170.38432,79.30897 c -0.0223,-0.08909 -0.0577,-0.175895 -0.0668,-0.267272 -0.0147,-0.147156 0.0238,-0.36766 0,-0.534538 -0.0191,-0.134117 -0.0477,-0.266787 -0.0668,-0.400904 -0.0156,-0.109136 0.0156,-0.224952 0,-0.334087 -0.0302,-0.211288 -0.0668,-0.290534 -0.0668,-0.467722 0,-0.0512 0.005,-0.529884 0,-0.534538 -0.0157,-0.01574 -0.0511,0.01574 -0.0668,0 -0.0315,-0.0315 0.0315,-0.102137 0,-0.133636 -0.0157,-0.01574 -0.0511,0.01574 -0.0668,0 -0.0445,-0.04452 0.0445,-0.08911 0,-0.133636 -0.0157,-0.01574 -0.0511,0.01574 -0.0668,0 -0.0315,-0.0315 0,-0.08909 0,-0.133633 0,-0.222726 0,-0.44545 0,-0.668173 0,-0.10772 -0.028,-0.450689 0,-0.534541 0.01,-0.02988 0.0527,-0.03865 0.0668,-0.06682 0.0299,-0.05976 -0.0211,-0.137062 0,-0.200451 0.01,-0.02988 0.0527,-0.03865 0.0668,-0.06682 0.0267,-0.05345 -0.0267,-0.146997 0,-0.200451 0.0826,-0.165135 0.0668,0.02307 0.0668,-0.133636"
       id="path962"
       inkscape:connector-curvature="0" />
  </g>
</svg>
