<?xml version="1.0" encoding="UTF-8" standalone="no"?>
<!-- Created with Inkscape (http://www.inkscape.org/) -->

<svg
   xmlns:dc="http://purl.org/dc/elements/1.1/"
   xmlns:cc="http://creativecommons.org/ns#"
   xmlns:rdf="http://www.w3.org/1999/02/22-rdf-syntax-ns#"
   xmlns:svg="http://www.w3.org/2000/svg"
   xmlns="http://www.w3.org/2000/svg"
   xmlns:sodipodi="http://sodipodi.sourceforge.net/DTD/sodipodi-0.dtd"
   xmlns:inkscape="http://www.inkscape.org/namespaces/inkscape"
   width="210mm"
   height="297mm"
   viewBox="0 0 210 297"
   version="1.1"
   id="svg8"
   inkscape:version="0.92.4 5da689c313, 2019-01-14"
   sodipodi:docname="dibujo-2.svg">
  <defs
     id="defs2" />
  <sodipodi:namedview
     id="base"
     pagecolor="#ffffff"
     bordercolor="#666666"
     borderopacity="1.0"
     inkscape:pageopacity="0.0"
     inkscape:pageshadow="2"
     inkscape:zoom="3.959798"
     inkscape:cx="587.31004"
     inkscape:cy="782.25267"
     inkscape:document-units="mm"
     inkscape:current-layer="layer1"
     showgrid="false"
     inkscape:window-width="1366"
     inkscape:window-height="768"
     inkscape:window-x="0"
     inkscape:window-y="0"
     inkscape:window-maximized="0"
     inkscape:snap-object-midpoints="true" />
  <metadata
     id="metadata5">
    <rdf:RDF>
      <cc:Work
         rdf:about="">
        <dc:format>image/svg+xml</dc:format>
        <dc:type
           rdf:resource="http://purl.org/dc/dcmitype/StillImage" />
        <dc:title></dc:title>
      </cc:Work>
    </rdf:RDF>
  </metadata>
  <g
     inkscape:label="Capa 1"
     inkscape:groupmode="layer"
     id="layer1">
    <path
       inkscape:connector-curvature="0"
       id="path888"
       d="m 127.83429,75.274448 c -0.94509,-1.528674 -2.81157,-1.822238 -4.05896,-2.930765 -0.83517,-0.742195 -1.49073,-1.664873 -2.25498,-2.479877 -0.55737,-0.594392 -2.10618,-2.114879 -2.70597,-2.479878 -1.14856,-0.698957 -2.40531,-1.202364 -3.60796,-1.803548 -0.60133,-0.300591 -1.20266,-0.601182 -1.80398,-0.901773 -0.451,-0.225445 -0.87464,-0.516919 -1.35299,-0.676331 -0.43375,-0.14455 -0.90199,-0.150296 -1.35299,-0.225444 -0.45099,-0.07515 -0.89666,-0.253956 -1.35298,-0.225443 -0.76506,0.04781 -1.50545,0.290311 -2.25498,0.450887 -2.87965,0.61692 -5.05445,1.048966 -7.666923,2.254435 -0.457819,0.21125 -0.927588,0.405686 -1.352987,0.67633 -0.624961,0.397608 -2.113091,1.757506 -2.480474,2.254434 -0.90466,1.223657 -1.529693,2.644349 -2.480475,3.832539 -0.863272,1.07883 -1.979681,1.929124 -2.931471,2.930765 -2.360588,2.484232 -0.437817,0.66151 -2.254976,2.705321 -0.282491,0.317724 -0.658154,0.553518 -0.901992,0.901774 -0.682319,0.974508 -1.601435,3.930307 -1.803982,4.508867 -0.507428,1.44945 -0.676492,2.30816 -0.676492,3.83254 0,0.0752 -0.02569,0.15482 0,0.22545 0.582628,1.60184 0.7465,2.13397 1.578484,3.38165 0.416945,0.62526 0.858015,1.238 1.352985,1.80354 0.279998,0.31993 0.658154,0.55352 0.901992,0.90177 0.289156,0.41299 0.405785,0.92738 0.676492,1.35267 0.258398,0.40595 0.597216,0.7548 0.901992,1.12721 1.699367,2.07651 1.21372,1.60493 4.284457,3.607099 0.648209,0.42264 1.365882,0.72916 2.029479,1.12722 0.929572,0.55761 1.751491,1.28972 2.705973,1.80354 0.504022,0.27133 1.055378,0.4439 1.578488,0.67634 8.91551,3.96149 1.17838,0.63097 6.76493,2.93076 4.15678,1.71121 -0.74288,-0.20858 2.93147,1.12722 0.38041,0.1383 0.75543,0.29148 1.12749,0.45088 0.15448,0.0662 0.29,0.17717 0.45099,0.22545 0.60133,0.1503 1.20266,0.30059 1.80398,0.45088 0.0752,0 0.15212,-0.0163 0.2255,0 0.60133,0.1503 1.20266,0.3006 1.80398,0.45089 0.0752,0 0.15079,-0.008 0.2255,0 2.50008,0.27772 1.56251,0.24959 4.05896,0 0.14958,-0.015 0.30838,0.0475 0.45099,0 0.54308,-0.18098 1.04249,-0.47538 1.57849,-0.67633 0.0704,-0.0264 0.15033,0 0.2255,0 0.45099,-0.30059 0.93347,-0.55862 1.35298,-0.90177 1.14361,-0.93546 1.588,-1.74109 2.48048,-2.93077 0.0638,-0.085 0.16171,-0.14042 0.22549,-0.22544 1.10579,-1.47403 0.9822,-1.33601 1.80399,-2.70532 0.2255,-0.37574 0.51372,-0.72038 0.67649,-1.12722 0.14234,-0.35578 0.12465,-0.75754 0.2255,-1.127219 1.15936,-4.24999 -0.39853,2.183569 1.12749,-3.15621 0.1256,-0.43951 0.16083,-0.90015 0.22549,-1.35265 0.0106,-0.0744 -0.0237,-0.15416 0,-0.22545 0.20309,-0.60912 0.47341,-1.19444 0.6765,-1.80355 0.0237,-0.0713 -0.0183,-0.15253 0,-0.22544 0.13271,-0.53075 0.31827,-1.04735 0.45099,-1.5781 0.0182,-0.0729 -0.0206,-0.15319 0,-0.22545 0.1306,-0.45699 0.3204,-0.89567 0.451,-1.35266 0.0206,-0.0723 0,-0.15029 0,-0.22544 0,-0.52603 0,-1.05207 0,-1.5781 0,-0.74595 0.13208,-1.52818 0,-2.25444 -0.13713,-0.754 -0.31387,-1.50044 -0.451,-2.25443 -0.0134,-0.0739 0.0163,-0.15209 0,-0.22545 -0.15033,-0.60118 -0.30066,-1.202363 -0.45099,-1.803546 0,-0.07515 0.0106,-0.15105 0,-0.225443 -0.0752,-0.450887 -0.15033,-0.901773 -0.2255,-1.352661 -0.0752,-0.150296 -0.18473,-0.287869 -0.2255,-0.450887 -0.11089,-0.443458 -0.16083,-0.900149 -0.2255,-1.352661 -0.0106,-0.07439 0.0336,-0.158229 0,-0.225443 -0.0476,-0.09506 -0.17796,-0.130388 -0.22549,-0.225443 -0.0672,-0.134429 0.0672,-0.316459 0,-0.450886 -0.0476,-0.09506 -0.17797,-0.13039 -0.2255,-0.225446 -0.0672,-0.134427 0.0672,-0.316457 0,-0.450886 -0.74788,-0.747701 0.1063,0.21255 -0.2255,-0.450886 -0.0476,-0.09506 -0.17796,-0.130388 -0.2255,-0.225444 -0.0336,-0.06721 0.0532,-0.172307 0,-0.225443 -0.0532,-0.05314 -0.17235,0.05314 -0.2255,0 -0.0532,-0.05314 0.0336,-0.15823 0,-0.225445 -0.0476,-0.09505 -0.13041,-0.177915 -0.22549,-0.225443 -0.0672,-0.03361 -0.2255,0.07515 -0.2255,0 0,-0.06737 0.74788,0.148408 0,-0.225443 -0.2772,-0.138565 -0.60798,0.127463 -0.90199,0.225443 z"
       style="opacity:1;fill:none;fill-opacity:1;stroke:#000000;stroke-width:1.06500006;stroke-miterlimit:4;stroke-dasharray:none;stroke-dashoffset:0;stroke-opacity:1" />
    <text
       transform="scale(1.0001203,0.99987971)"
       id="text892"
       y="84.915413"
       x="122.13802"
       style="font-style:normal;font-weight:normal;font-size:1.89395297px;line-height:1.25;font-family:sans-serif;letter-spacing:0px;word-spacing:0px;fill:#000000;fill-opacity:1;stroke:none;stroke-width:0.26458332"
       xml:space="preserve"><tspan
         style="stroke-width:0.26458332"
         y="84.915413"
         x="122.13802"
         id="tspan890"
         sodipodi:role="line">$*$</tspan></text>
    <text
       transform="scale(1.0001203,0.99987971)"
       xml:space="preserve"
       style="font-style:normal;font-weight:normal;font-size:1.89395297px;line-height:1.25;font-family:sans-serif;letter-spacing:0px;word-spacing:0px;fill:#000000;fill-opacity:1;stroke:none;stroke-width:0.26458332"
       x="94.880623"
       y="84.492073"
       id="text896"><tspan
         sodipodi:role="line"
         id="tspan894"
         x="94.880623"
         y="84.492073"
         style="stroke-width:0.26458332">:v</tspan></text>
    <text
       transform="scale(1.0001203,0.99987971)"
       xml:space="preserve"
       style="font-style:normal;font-weight:normal;font-size:1.89395297px;line-height:1.25;font-family:sans-serif;letter-spacing:0px;word-spacing:0px;fill:#000000;fill-opacity:1;stroke:none;stroke-width:0.26458332"
       x="107.50071"
       y="74.022934"
       id="text900"><tspan
         sodipodi:role="line"
         id="tspan898"
         x="107.50071"
         y="74.022934"
         style="stroke-width:0.26458332">$9$</tspan></text>
    <text
       transform="scale(1.0001203,0.99987971)"
       id="text904"
       y="101.21478"
       x="111.7515"
       style="font-style:normal;font-weight:normal;font-size:1.89395297px;line-height:1.25;font-family:sans-serif;letter-spacing:0px;word-spacing:0px;fill:#000000;fill-opacity:1;stroke:none;stroke-width:0.26458332"
       xml:space="preserve"><tspan
         style="stroke-width:0.26458332"
         y="101.21478"
         x="111.7515"
         id="tspan902"
         sodipodi:role="line">$3$</tspan></text>
    <text
       xml:space="preserve"
       style="font-style:normal;font-weight:normal;font-size:3.17499995px;line-height:1.25;font-family:sans-serif;letter-spacing:0px;word-spacing:0px;fill:#000000;fill-opacity:1;stroke:none;stroke-width:0.26458332"
       x="14.708088"
       y="64.148956"
       id="text926"><tspan
         sodipodi:role="line"
         id="tspan924"
         x="14.708088"
         y="64.148956"
         style="stroke-width:0.26458332">$K$</tspan></text>
    <text
       id="text930"
       y="65.466309"
       x="81.609306"
       style="font-style:normal;font-weight:normal;font-size:3.17499995px;line-height:1.25;font-family:sans-serif;letter-spacing:0px;word-spacing:0px;fill:#000000;fill-opacity:1;stroke:none;stroke-width:0.26458332"
       xml:space="preserve"><tspan
         style="stroke-width:0.26458332"
         y="65.466309"
         x="81.609306"
         id="tspan928"
         sodipodi:role="line">$K$</tspan></text>
    <text
       xml:space="preserve"
       style="font-style:normal;font-weight:normal;font-size:3.17499995px;line-height:1.25;font-family:sans-serif;letter-spacing:0px;word-spacing:0px;fill:#000000;fill-opacity:1;stroke:none;stroke-width:0.26458332"
       x="142.29292"
       y="65.452873"
       id="text934"><tspan
         sodipodi:role="line"
         id="tspan932"
         x="142.29292"
         y="65.452873"
         style="stroke-width:0.26458332">$K$</tspan></text>
    <path
       style="opacity:1;fill:none;fill-opacity:1;stroke:#000000;stroke-width:1.06500006;stroke-miterlimit:4;stroke-dasharray:none;stroke-dashoffset:0;stroke-opacity:1"
       d="m 192.51352,77.679874 c -0.94509,-1.528674 -2.81157,-1.822238 -4.05896,-2.930765 -0.83517,-0.742195 -1.49073,-1.664873 -2.25498,-2.479877 -0.55737,-0.594392 -2.10618,-2.114879 -2.70597,-2.479878 -1.14856,-0.698957 -2.40531,-1.202364 -3.60796,-1.803548 -0.60133,-0.300591 -1.20266,-0.601182 -1.80398,-0.901773 -0.451,-0.225445 -0.87464,-0.516919 -1.35299,-0.676331 -0.43375,-0.14455 -0.90199,-0.150296 -1.35299,-0.225444 -0.45099,-0.07515 -0.89666,-0.253956 -1.35298,-0.225443 -0.76506,0.04781 -1.50545,0.290311 -2.25498,0.450887 -2.87965,0.61692 -5.05445,1.048966 -7.66693,2.254435 -0.45782,0.21125 -0.92759,0.405686 -1.35298,0.67633 -0.62497,0.397608 -2.1131,1.757506 -2.48048,2.254434 -0.90466,1.223657 -1.52969,2.644349 -2.48047,3.832539 -0.86328,1.07883 -1.97968,1.929124 -2.93147,2.930765 -2.36059,2.484232 -0.43782,0.66151 -2.25498,2.705321 -0.28249,0.317724 -0.65815,0.553518 -0.90199,0.901774 -0.68232,0.974508 -1.60144,3.930307 -1.80398,4.508867 -0.50743,1.44945 -0.6765,2.30816 -0.6765,3.83254 0,0.0752 -0.0257,0.15482 0,0.22545 0.58263,1.60184 0.7465,2.13397 1.57849,3.38165 0.41694,0.62526 0.85801,1.238 1.35298,1.80354 0.28,0.31993 0.65816,0.55352 0.90199,0.90177 0.28916,0.41299 0.40579,0.92738 0.6765,1.35267 0.25839,0.40595 0.59721,0.7548 0.90199,1.12721 1.69937,2.076513 1.21372,1.604933 4.28446,3.607103 0.6482,0.42264 1.36588,0.72916 2.02947,1.12722 0.92958,0.55761 1.7515,1.28972 2.70598,1.80354 0.50402,0.27133 1.05538,0.4439 1.57849,0.67634 8.91551,3.96149 1.17838,0.63097 6.76493,2.93076 4.15678,1.71121 -0.74288,-0.20858 2.93147,1.12722 0.38041,0.1383 0.75543,0.29148 1.12749,0.45088 0.15448,0.0662 0.29,0.17717 0.45099,0.22545 0.60133,0.1503 1.20266,0.30059 1.80398,0.45088 0.0752,0 0.15212,-0.0163 0.2255,0 0.60133,0.1503 1.20266,0.3006 1.80398,0.45089 0.0752,0 0.15079,-0.008 0.2255,0 2.50008,0.27772 1.56251,0.24959 4.05896,0 0.14958,-0.015 0.30838,0.0475 0.45099,0 0.54308,-0.18098 1.04249,-0.47538 1.57849,-0.67633 0.0704,-0.0264 0.15033,0 0.2255,0 0.45099,-0.30059 0.93347,-0.55862 1.35298,-0.90177 1.14361,-0.93546 1.588,-1.74109 2.48048,-2.93077 0.0638,-0.085 0.16171,-0.14042 0.22549,-0.22544 1.10579,-1.47403 0.9822,-1.33601 1.80399,-2.70532 0.2255,-0.37574 0.51372,-0.72038 0.67649,-1.12722 0.14234,-0.35578 0.12465,-0.75754 0.2255,-1.12722 1.15936,-4.249993 -0.39853,2.18357 1.12749,-3.156213 0.1256,-0.43951 0.16083,-0.90015 0.22549,-1.35265 0.0106,-0.0744 -0.0237,-0.15416 0,-0.22545 0.20309,-0.60912 0.47341,-1.19444 0.6765,-1.80355 0.0237,-0.0713 -0.0183,-0.15253 0,-0.22544 0.13271,-0.53075 0.31827,-1.04735 0.45099,-1.5781 0.0182,-0.0729 -0.0206,-0.15319 0,-0.22545 0.1306,-0.45699 0.3204,-0.89567 0.451,-1.35266 0.0206,-0.0723 0,-0.15029 0,-0.22544 0,-0.52603 0,-1.05207 0,-1.5781 0,-0.74595 0.13208,-1.52818 0,-2.25444 -0.13713,-0.754 -0.31387,-1.50044 -0.451,-2.25443 -0.0134,-0.0739 0.0163,-0.15209 0,-0.22545 -0.15033,-0.60118 -0.30066,-1.202363 -0.45099,-1.803546 0,-0.07515 0.0106,-0.15105 0,-0.225443 -0.0752,-0.450887 -0.15033,-0.901773 -0.2255,-1.352661 -0.0752,-0.150296 -0.18473,-0.287869 -0.2255,-0.450887 -0.11089,-0.443458 -0.16083,-0.900149 -0.2255,-1.352661 -0.0106,-0.07439 0.0336,-0.158229 0,-0.225443 -0.0476,-0.09506 -0.17796,-0.130388 -0.22549,-0.225443 -0.0672,-0.134429 0.0672,-0.316459 0,-0.450886 -0.0476,-0.09506 -0.17797,-0.13039 -0.2255,-0.225446 -0.0672,-0.134427 0.0672,-0.316457 0,-0.450886 -0.74788,-0.747701 0.1063,0.21255 -0.2255,-0.450886 -0.0476,-0.09506 -0.17796,-0.130388 -0.2255,-0.225444 -0.0336,-0.06721 0.0532,-0.172307 0,-0.225443 -0.0532,-0.05314 -0.17235,0.05314 -0.2255,0 -0.0532,-0.05314 0.0336,-0.15823 0,-0.225445 -0.0476,-0.09505 -0.13041,-0.177915 -0.22549,-0.225443 -0.0672,-0.03361 -0.2255,0.07515 -0.2255,0 0,-0.06737 0.74788,0.148408 0,-0.225443 -0.2772,-0.138565 -0.60798,0.127463 -0.90199,0.225443 z"
       id="path983"
       inkscape:connector-curvature="0" />
    <text
       xml:space="preserve"
       style="font-style:normal;font-weight:normal;font-size:1.89395297px;line-height:1.25;font-family:sans-serif;letter-spacing:0px;word-spacing:0px;fill:#000000;fill-opacity:1;stroke:none;stroke-width:0.26458332"
       x="159.9521"
       y="94.00367"
       id="text987"
       transform="scale(1.0001203,0.99987971)"><tspan
         sodipodi:role="line"
         id="tspan985"
         x="159.9521"
         y="94.00367"
         style="stroke-width:0.26458332">$*$</tspan></text>
    <text
       id="text991"
       y="98.859543"
       x="186.87709"
       style="font-style:normal;font-weight:normal;font-size:1.89395297px;line-height:1.25;font-family:sans-serif;letter-spacing:0px;word-spacing:0px;fill:#000000;fill-opacity:1;stroke:none;stroke-width:0.26458332"
       xml:space="preserve"
       transform="scale(1.0001203,0.99987971)"><tspan
         style="stroke-width:0.26458332"
         y="98.859543"
         x="186.87709"
         id="tspan989"
         sodipodi:role="line">:v</tspan></text>
    <text
       id="text995"
       y="84.447693"
       x="177.78412"
       style="font-style:normal;font-weight:normal;font-size:1.89395297px;line-height:1.25;font-family:sans-serif;letter-spacing:0px;word-spacing:0px;fill:#000000;fill-opacity:1;stroke:none;stroke-width:0.26458332"
       xml:space="preserve"
       transform="scale(1.0001203,0.99987971)"><tspan
         style="stroke-width:0.26458332"
         y="84.447693"
         x="177.78412"
         id="tspan993"
         sodipodi:role="line">$9$</tspan></text>
    <text
       xml:space="preserve"
       style="font-style:normal;font-weight:normal;font-size:1.89395297px;line-height:1.25;font-family:sans-serif;letter-spacing:0px;word-spacing:0px;fill:#000000;fill-opacity:1;stroke:none;stroke-width:0.26458332"
       x="172.548"
       y="76.021599"
       id="text999"
       transform="scale(1.0001203,0.99987971)"><tspan
         sodipodi:role="line"
         id="tspan997"
         x="172.548"
         y="76.021599"
         style="stroke-width:0.26458332">$3$</tspan></text>
    <path
       inkscape:connector-curvature="0"
       id="path1001"
       d="m 58.878756,77.145335 c -0.94509,-1.528674 -2.81157,-1.822238 -4.05896,-2.930765 -0.83517,-0.742195 -1.49073,-1.664873 -2.25498,-2.479877 -0.55737,-0.594392 -2.10618,-2.114879 -2.70597,-2.479878 -1.14856,-0.698957 -2.40531,-1.202364 -3.60796,-1.803548 -0.60133,-0.300591 -1.20266,-0.601182 -1.80398,-0.901773 -0.451,-0.225445 -0.87464,-0.516919 -1.35299,-0.676331 -0.43375,-0.14455 -0.90199,-0.150296 -1.35299,-0.225444 -0.45099,-0.07515 -0.89666,-0.253956 -1.35298,-0.225443 -0.76506,0.04781 -1.50545,0.290311 -2.25498,0.450887 -2.87965,0.61692 -5.05445,1.048966 -7.66693,2.254435 -0.45782,0.21125 -0.92759,0.405686 -1.35298,0.67633 -0.62497,0.397608 -2.1131,1.757506 -2.48048,2.254434 -0.90466,1.223657 -1.52969,2.644349 -2.48047,3.832539 -0.86328,1.07883 -1.97968,1.929124 -2.93147,2.930765 -2.36059,2.484232 -0.43782,0.66151 -2.25498,2.705321 -0.28249,0.317724 -0.65815,0.553518 -0.90199,0.901774 -0.68232,0.974508 -1.60144,3.930307 -1.80398,4.508867 -0.50743,1.44945 -0.6765,2.30816 -0.6765,3.83254 0,0.0752 -0.0257,0.15482 0,0.22545 0.58263,1.60184 0.7465,2.13397 1.57849,3.38165 0.41694,0.62526 0.85801,1.238 1.35298,1.80354 0.28,0.31993 0.65816,0.55352 0.90199,0.90177 0.28916,0.41299 0.40579,0.92738 0.6765,1.35267 0.25839,0.40595 0.59721,0.7548 0.90199,1.12721 1.69937,2.076512 1.21372,1.604932 4.28446,3.607102 0.6482,0.42264 1.36588,0.72916 2.02947,1.12722 0.92958,0.55761 1.7515,1.28972 2.70598,1.80354 0.50402,0.27133 1.05538,0.4439 1.57849,0.67634 8.91551,3.96149 1.17838,0.63097 6.76493,2.93076 4.15678,1.71121 -0.74288,-0.20858 2.93147,1.12722 0.38041,0.1383 0.75543,0.29148 1.12749,0.45088 0.15448,0.0662 0.29,0.17717 0.45099,0.22545 0.60133,0.1503 1.20266,0.30059 1.80398,0.45088 0.0752,0 0.15212,-0.0163 0.2255,0 0.60133,0.1503 1.20266,0.3006 1.80398,0.45089 0.0752,0 0.15079,-0.008 0.2255,0 2.50008,0.27772 1.56251,0.24959 4.05896,0 0.14958,-0.015 0.30838,0.0475 0.45099,0 0.54308,-0.18098 1.04249,-0.47538 1.57849,-0.67633 0.0704,-0.0264 0.15033,0 0.2255,0 0.45099,-0.30059 0.93347,-0.55862 1.35298,-0.90177 1.14361,-0.93546 1.588,-1.74109 2.48048,-2.93077 0.0638,-0.085 0.16171,-0.14042 0.22549,-0.22544 1.10579,-1.47403 0.9822,-1.33601 1.80399,-2.70532 0.2255,-0.37574 0.51372,-0.72038 0.67649,-1.12722 0.14234,-0.35578 0.12465,-0.75754 0.2255,-1.12722 1.15936,-4.249992 -0.39853,2.18357 1.12749,-3.156212 0.1256,-0.43951 0.16083,-0.90015 0.22549,-1.35265 0.0106,-0.0744 -0.0237,-0.15416 0,-0.22545 0.20309,-0.60912 0.47341,-1.19444 0.6765,-1.80355 0.0237,-0.0713 -0.0183,-0.15253 0,-0.22544 0.13271,-0.53075 0.31827,-1.04735 0.45099,-1.5781 0.0182,-0.0729 -0.0206,-0.15319 0,-0.22545 0.1306,-0.45699 0.3204,-0.89567 0.451,-1.35266 0.0206,-0.0723 0,-0.15029 0,-0.22544 0,-0.52603 0,-1.05207 0,-1.5781 0,-0.74595 0.13208,-1.52818 0,-2.25444 -0.13713,-0.754 -0.31387,-1.50044 -0.451,-2.25443 -0.0134,-0.0739 0.0163,-0.15209 0,-0.22545 -0.15033,-0.60118 -0.30066,-1.202363 -0.45099,-1.803546 0,-0.07515 0.0106,-0.15105 0,-0.225443 -0.0752,-0.450887 -0.15033,-0.901773 -0.2255,-1.352661 -0.0752,-0.150296 -0.18473,-0.287869 -0.2255,-0.450887 -0.11089,-0.443458 -0.16083,-0.900149 -0.2255,-1.352661 -0.0106,-0.07439 0.0336,-0.158229 0,-0.225443 -0.0476,-0.09506 -0.17796,-0.130388 -0.22549,-0.225443 -0.0672,-0.134429 0.0672,-0.316459 0,-0.450886 -0.0476,-0.09506 -0.17797,-0.13039 -0.2255,-0.225446 -0.0672,-0.134427 0.0672,-0.316457 0,-0.450886 -0.74788,-0.747701 0.1063,0.21255 -0.2255,-0.450886 -0.0476,-0.09506 -0.17796,-0.130388 -0.2255,-0.225444 -0.0336,-0.06721 0.0532,-0.172307 0,-0.225443 -0.0532,-0.05314 -0.17235,0.05314 -0.2255,0 -0.0532,-0.05314 0.0336,-0.15823 0,-0.225445 -0.0476,-0.09505 -0.13041,-0.177915 -0.22549,-0.225443 -0.0672,-0.03361 -0.2255,0.07515 -0.2255,0 0,-0.06737 0.74788,0.148408 0,-0.225443 -0.2772,-0.138565 -0.60798,0.127463 -0.90199,0.225443 z"
       style="opacity:1;fill:none;fill-opacity:1;stroke:#000000;stroke-width:1.06500006;stroke-miterlimit:4;stroke-dasharray:none;stroke-dashoffset:0;stroke-opacity:1" />
    <text
       transform="scale(1.0001203,0.99987971)"
       id="text1005"
       y="86.452393"
       x="54.810898"
       style="font-style:normal;font-weight:normal;font-size:1.89395297px;line-height:1.25;font-family:sans-serif;letter-spacing:0px;word-spacing:0px;fill:#000000;fill-opacity:1;stroke:none;stroke-width:0.26458332"
       xml:space="preserve"><tspan
         style="stroke-width:0.26458332"
         y="86.452393"
         x="54.810898"
         id="tspan1003"
         sodipodi:role="line">$*$</tspan></text>
    <text
       transform="scale(1.0001203,0.99987971)"
       xml:space="preserve"
       style="font-style:normal;font-weight:normal;font-size:1.89395297px;line-height:1.25;font-family:sans-serif;letter-spacing:0px;word-spacing:0px;fill:#000000;fill-opacity:1;stroke:none;stroke-width:0.26458332"
       x="25.13166"
       y="88.768898"
       id="text1009"><tspan
         sodipodi:role="line"
         id="tspan1007"
         x="25.13166"
         y="88.768898"
         style="stroke-width:0.26458332">:v</tspan></text>
    <text
       transform="scale(1.0001203,0.99987971)"
       xml:space="preserve"
       style="font-style:normal;font-weight:normal;font-size:1.89395297px;line-height:1.25;font-family:sans-serif;letter-spacing:0px;word-spacing:0px;fill:#000000;fill-opacity:1;stroke:none;stroke-width:0.26458332"
       x="38.553459"
       y="75.894043"
       id="text1013"><tspan
         sodipodi:role="line"
         id="tspan1011"
         x="38.553459"
         y="75.894043"
         style="stroke-width:0.26458332">$9$</tspan></text>
    <text
       transform="scale(1.0001203,0.99987971)"
       id="text1017"
       y="102.68494"
       x="43.405537"
       style="font-style:normal;font-weight:normal;font-size:1.89395297px;line-height:1.25;font-family:sans-serif;letter-spacing:0px;word-spacing:0px;fill:#000000;fill-opacity:1;stroke:none;stroke-width:0.26458332"
       xml:space="preserve"><tspan
         style="stroke-width:0.26458332"
         y="102.68494"
         x="43.405537"
         id="tspan1015"
         sodipodi:role="line">$3$</tspan></text>
    <circle
       style="opacity:1;fill:#000000;fill-opacity:1;stroke:none;stroke-width:1.06500006;stroke-miterlimit:4;stroke-dasharray:none;stroke-dashoffset:0;stroke-opacity:1"
       id="path1023"
       cx="120.05469"
       cy="84.435638"
       r="0.94494045" />
    <circle
       r="0.94494045"
       cy="97.523064"
       cx="109.09338"
       id="circle1025"
       style="opacity:1;fill:#000000;fill-opacity:1;stroke:none;stroke-width:1.06500006;stroke-miterlimit:4;stroke-dasharray:none;stroke-dashoffset:0;stroke-opacity:1" />
    <circle
       r="0.94494045"
       cy="76.025665"
       cx="109.18787"
       id="circle1027"
       style="opacity:1;fill:#000000;fill-opacity:1;stroke:none;stroke-width:1.06500006;stroke-miterlimit:4;stroke-dasharray:none;stroke-dashoffset:0;stroke-opacity:1" />
    <circle
       style="opacity:1;fill:#000000;fill-opacity:1;stroke:none;stroke-width:1.06500006;stroke-miterlimit:4;stroke-dasharray:none;stroke-dashoffset:0;stroke-opacity:1"
       id="circle1029"
       cx="51.031944"
       cy="86.166176"
       r="0.94494045" />
    <circle
       r="0.94494045"
       cy="99.262383"
       cx="39.672989"
       id="circle1031"
       style="opacity:1;fill:#000000;fill-opacity:1;stroke:none;stroke-width:1.06500006;stroke-miterlimit:4;stroke-dasharray:none;stroke-dashoffset:0;stroke-opacity:1" />
    <circle
       style="opacity:1;fill:#000000;fill-opacity:1;stroke:none;stroke-width:1.06500006;stroke-miterlimit:4;stroke-dasharray:none;stroke-dashoffset:0;stroke-opacity:1"
       id="circle1033"
       cx="40.474796"
       cy="78.482178"
       r="0.94494045" />
    <circle
       r="0.94494045"
       cy="85.965721"
       cx="31.72172"
       id="circle1035"
       style="opacity:1;fill:#000000;fill-opacity:1;stroke:none;stroke-width:1.06500006;stroke-miterlimit:4;stroke-dasharray:none;stroke-dashoffset:0;stroke-opacity:1" />
    <circle
       style="opacity:1;fill:#000000;fill-opacity:1;stroke:none;stroke-width:1.06500006;stroke-miterlimit:4;stroke-dasharray:none;stroke-dashoffset:0;stroke-opacity:1"
       id="circle1037"
       cx="100.16752"
       cy="85.246468"
       r="0.94494045" />
    <circle
       r="0.94494045"
       cy="85.504715"
       cx="173.57541"
       id="circle1039"
       style="opacity:1;fill:#000000;fill-opacity:1;stroke:none;stroke-width:1.06500006;stroke-miterlimit:4;stroke-dasharray:none;stroke-dashoffset:0;stroke-opacity:1" />
    <circle
       style="opacity:1;fill:#000000;fill-opacity:1;stroke:none;stroke-width:1.06500006;stroke-miterlimit:4;stroke-dasharray:none;stroke-dashoffset:0;stroke-opacity:1"
       id="circle1041"
       cx="171.57089"
       cy="76.75164"
       r="0.94494045" />
    <circle
       r="0.94494045"
       cy="96.262314"
       cx="163.88689"
       id="circle1043"
       style="opacity:1;fill:#000000;fill-opacity:1;stroke:none;stroke-width:1.06500006;stroke-miterlimit:4;stroke-dasharray:none;stroke-dashoffset:0;stroke-opacity:1" />
    <circle
       style="opacity:1;fill:#000000;fill-opacity:1;stroke:none;stroke-width:1.06500006;stroke-miterlimit:4;stroke-dasharray:none;stroke-dashoffset:0;stroke-opacity:1"
       id="circle1045"
       cx="184.06573"
       cy="95.727776"
       r="0.94494045" />
    <path
       style="fill:none;stroke:#000000;stroke-width:0.26458332px;stroke-linecap:butt;stroke-linejoin:miter;stroke-opacity:1"
       d="m 173.57541,85.504715 -2.00452,-8.753076"
       id="path1047"
       inkscape:connector-curvature="0" />
    <path
       style="fill:none;stroke:#000000;stroke-width:0.26458332px;stroke-linecap:butt;stroke-linejoin:miter;stroke-opacity:1"
       d="m 173.57541,85.504715 -9.68853,10.757598"
       id="path1049"
       inkscape:connector-curvature="0" />
    <path
       style="fill:none;stroke:#000000;stroke-width:0.26458332px;stroke-linecap:butt;stroke-linejoin:miter;stroke-opacity:1"
       d="M 184.06573,95.727775 173.57541,85.504715"
       id="path1051"
       inkscape:connector-curvature="0" />
    <path
       style="fill:none;stroke:#000000;stroke-width:0.26458332px;stroke-linecap:butt;stroke-linejoin:miter;stroke-opacity:1"
       d="m 163.88688,96.262313 20.17885,-0.534538 -12.49484,-18.976136 -7.68401,19.510674"
       id="path1053"
       inkscape:connector-curvature="0" />
    <path
       style="fill:none;stroke:#000000;stroke-width:0.26458332px;stroke-linecap:butt;stroke-linejoin:miter;stroke-opacity:1"
       d="m 100.16752,85.246466 19.88717,-0.810829 -10.86683,-8.409972 -0.0945,21.497398 -8.92586,-12.276597 9.02034,-9.220801"
       id="path1055"
       inkscape:connector-curvature="0" />
    <path
       style="fill:none;stroke:#000000;stroke-width:0.26458332px;stroke-linecap:butt;stroke-linejoin:miter;stroke-opacity:1"
       d="M 109.09336,97.523061 120.05469,84.435637"
       id="path1057"
       inkscape:connector-curvature="0" />
    <path
       style="opacity:1;fill:none;fill-opacity:1;stroke:#000000;stroke-width:1.06500006;stroke-miterlimit:4;stroke-dasharray:none;stroke-dashoffset:0;stroke-opacity:1"
       d="m 135.58511,151.44626 c -0.94509,-1.52867 -2.81157,-1.82224 -4.05896,-2.93076 -0.83517,-0.7422 -1.49073,-1.66488 -2.25498,-2.47988 -0.55737,-0.59439 -2.10618,-2.11488 -2.70597,-2.47988 -1.14856,-0.69895 -2.40531,-1.20236 -3.60796,-1.80355 -0.60133,-0.30059 -1.20266,-0.60118 -1.80398,-0.90177 -0.451,-0.22544 -0.87464,-0.51692 -1.35299,-0.67633 -0.43375,-0.14455 -0.90199,-0.1503 -1.35299,-0.22544 -0.45099,-0.0752 -0.89666,-0.25396 -1.35298,-0.22545 -0.76506,0.0478 -1.50545,0.29031 -2.25498,0.45089 -2.87965,0.61692 -5.05445,1.04897 -7.66693,2.25444 -0.45782,0.21125 -0.92758,0.40568 -1.35298,0.67633 -0.62496,0.3976 -2.11309,1.7575 -2.48048,2.25443 -0.90466,1.22366 -1.52969,2.64435 -2.48047,3.83254 -0.86327,1.07883 -1.97968,1.92912 -2.93147,2.93076 -2.36059,2.48424 -0.43782,0.66151 -2.25498,2.70532 -0.28249,0.31773 -0.65815,0.55352 -0.90199,0.90178 -0.68232,0.97451 -1.60144,3.93031 -1.80398,4.50887 -0.50743,1.44945 -0.6765,2.30816 -0.6765,3.83254 0,0.0752 -0.0257,0.15482 0,0.22545 0.58263,1.60184 0.7465,2.13397 1.57849,3.38165 0.41694,0.62526 0.85801,1.238 1.35298,1.80354 0.28,0.31993 0.65816,0.55352 0.902,0.90177 0.28915,0.41299 0.40578,0.92738 0.67649,1.35267 0.2584,0.40595 0.59721,0.7548 0.90199,1.12721 1.69937,2.07651 1.21372,1.60493 4.28446,3.60709 0.64821,0.42264 1.36588,0.72916 2.02948,1.12722 0.92957,0.55761 1.75149,1.28972 2.70597,1.80354 0.50402,0.27133 1.05538,0.4439 1.57849,0.67634 8.91551,3.96149 1.17838,0.63097 6.76493,2.93076 4.15678,1.71121 -0.74288,-0.20858 2.93147,1.12722 0.38041,0.1383 0.75543,0.29148 1.12749,0.45088 0.15448,0.0662 0.29,0.17717 0.45099,0.22545 0.60133,0.1503 1.20266,0.30059 1.80398,0.45088 0.0752,0 0.15212,-0.0163 0.2255,0 0.60133,0.1503 1.20266,0.3006 1.80398,0.45089 0.0752,0 0.15079,-0.008 0.2255,0 2.50008,0.27772 1.56251,0.24959 4.05896,0 0.14958,-0.015 0.30838,0.0475 0.45099,0 0.54308,-0.18098 1.04249,-0.47538 1.57849,-0.67633 0.0704,-0.0264 0.15033,0 0.2255,0 0.45099,-0.30059 0.93347,-0.55862 1.35298,-0.90177 1.14361,-0.93546 1.588,-1.74109 2.48048,-2.93077 0.0638,-0.085 0.16171,-0.14042 0.22549,-0.22544 1.10579,-1.47403 0.9822,-1.33601 1.80399,-2.70532 0.2255,-0.37574 0.51372,-0.72038 0.67649,-1.12722 0.14234,-0.35578 0.12465,-0.75754 0.2255,-1.12721 1.15936,-4.24999 -0.39853,2.18356 1.12749,-3.15621 0.1256,-0.43951 0.16083,-0.90015 0.22549,-1.35265 0.0106,-0.0744 -0.0237,-0.15416 0,-0.22545 0.20309,-0.60912 0.47341,-1.19444 0.6765,-1.80355 0.0237,-0.0713 -0.0183,-0.15253 0,-0.22544 0.13271,-0.53075 0.31827,-1.04735 0.45099,-1.5781 0.0182,-0.0729 -0.0206,-0.15319 0,-0.22545 0.1306,-0.45699 0.3204,-0.89567 0.451,-1.35266 0.0206,-0.0723 0,-0.15029 0,-0.22544 0,-0.52603 0,-1.05207 0,-1.5781 0,-0.74595 0.13208,-1.52818 0,-2.25444 -0.13713,-0.754 -0.31387,-1.50044 -0.451,-2.25443 -0.0134,-0.0739 0.0163,-0.15209 0,-0.22545 -0.15033,-0.60118 -0.30066,-1.20237 -0.45099,-1.80355 0,-0.0752 0.0106,-0.15105 0,-0.22544 -0.0752,-0.45089 -0.15033,-0.90178 -0.2255,-1.35266 -0.0752,-0.1503 -0.18473,-0.28787 -0.2255,-0.45089 -0.11089,-0.44346 -0.16083,-0.90015 -0.2255,-1.35266 -0.0106,-0.0744 0.0336,-0.15823 0,-0.22545 -0.0476,-0.0951 -0.17796,-0.13038 -0.22549,-0.22544 -0.0672,-0.13443 0.0672,-0.31646 0,-0.45088 -0.0476,-0.0951 -0.17797,-0.13039 -0.2255,-0.22545 -0.0672,-0.13443 0.0672,-0.31646 0,-0.45089 -0.74788,-0.7477 0.1063,0.21255 -0.2255,-0.45088 -0.0476,-0.0951 -0.17796,-0.13039 -0.2255,-0.22545 -0.0336,-0.0672 0.0532,-0.1723 0,-0.22544 -0.0532,-0.0531 -0.17235,0.0531 -0.2255,0 -0.0532,-0.0531 0.0336,-0.15823 0,-0.22544 -0.0476,-0.0951 -0.13041,-0.17792 -0.22549,-0.22545 -0.0672,-0.0336 -0.2255,0.0751 -0.2255,0 0,-0.0674 0.74788,0.14841 0,-0.22544 -0.2772,-0.13857 -0.60798,0.12746 -0.90199,0.22544 z"
       id="path1059"
       inkscape:connector-curvature="0" />
    <text
       xml:space="preserve"
       style="font-style:normal;font-weight:normal;font-size:1.89395297px;line-height:1.25;font-family:sans-serif;letter-spacing:0px;word-spacing:0px;fill:#000000;fill-opacity:1;stroke:none;stroke-width:0.26458332"
       x="126.48653"
       y="175.2722"
       id="text1063"
       transform="scale(1.0001203,0.99987971)"><tspan
         sodipodi:role="line"
         id="tspan1061"
         x="126.48653"
         y="175.2722"
         style="stroke-width:0.26458332">$*$</tspan></text>
    <text
       id="text1067"
       y="170.69063"
       x="115.29118"
       style="font-style:normal;font-weight:normal;font-size:1.89395297px;line-height:1.25;font-family:sans-serif;letter-spacing:0px;word-spacing:0px;fill:#000000;fill-opacity:1;stroke:none;stroke-width:0.26458332"
       xml:space="preserve"
       transform="scale(1.0001203,0.99987971)"><tspan
         style="stroke-width:0.26458332"
         y="170.69063"
         x="115.29118"
         id="tspan1065"
         sodipodi:role="line">:v</tspan></text>
    <text
       id="text1071"
       y="163.30774"
       x="96.485718"
       style="font-style:normal;font-weight:normal;font-size:1.89395297px;line-height:1.25;font-family:sans-serif;letter-spacing:0px;word-spacing:0px;fill:#000000;fill-opacity:1;stroke:none;stroke-width:0.26458332"
       xml:space="preserve"
       transform="scale(1.0001203,0.99987971)"><tspan
         style="stroke-width:0.26458332"
         y="163.30774"
         x="96.485718"
         id="tspan1069"
         sodipodi:role="line">$9$</tspan></text>
    <text
       xml:space="preserve"
       style="font-style:normal;font-weight:normal;font-size:1.89395297px;line-height:1.25;font-family:sans-serif;letter-spacing:0px;word-spacing:0px;fill:#000000;fill-opacity:1;stroke:none;stroke-width:0.26458332"
       x="109.97289"
       y="159.9352"
       id="text1075"
       transform="scale(1.0001203,0.99987971)"><tspan
         sodipodi:role="line"
         id="tspan1073"
         x="109.97289"
         y="159.9352"
         style="stroke-width:0.26458332">$3$</tspan></text>
    <text
       xml:space="preserve"
       style="font-style:normal;font-weight:normal;font-size:3.17499995px;line-height:1.25;font-family:sans-serif;letter-spacing:0px;word-spacing:0px;fill:#000000;fill-opacity:1;stroke:none;stroke-width:0.26458332"
       x="89.360123"
       y="141.63812"
       id="text1079"><tspan
         sodipodi:role="line"
         id="tspan1077"
         x="89.360123"
         y="141.63812"
         style="stroke-width:0.26458332">$K$</tspan></text>
    <circle
       r="0.94494045"
       cy="157.96162"
       cx="100.02426"
       id="circle1081"
       style="opacity:1;fill:#000000;fill-opacity:1;stroke:none;stroke-width:1.06500006;stroke-miterlimit:4;stroke-dasharray:none;stroke-dashoffset:0;stroke-opacity:1" />
    <circle
       style="opacity:1;fill:#000000;fill-opacity:1;stroke:none;stroke-width:1.06500006;stroke-miterlimit:4;stroke-dasharray:none;stroke-dashoffset:0;stroke-opacity:1"
       id="circle1083"
       cx="116.30966"
       cy="165.6768"
       r="0.94494045" />
    <circle
       style="opacity:1;fill:#000000;fill-opacity:1;stroke:none;stroke-width:1.06500006;stroke-miterlimit:4;stroke-dasharray:none;stroke-dashoffset:0;stroke-opacity:1"
       id="circle1085"
       cx="125.12956"
       cy="168.48314"
       r="0.94494045" />
    <circle
       r="0.94494045"
       cy="161.41829"
       cx="107.91833"
       id="circle1087"
       style="opacity:1;fill:#000000;fill-opacity:1;stroke:none;stroke-width:1.06500006;stroke-miterlimit:4;stroke-dasharray:none;stroke-dashoffset:0;stroke-opacity:1" />
    <path
       style="opacity:1;fill:none;fill-opacity:1;stroke:#000000;stroke-width:0.46499997;stroke-miterlimit:4;stroke-dasharray:none;stroke-dashoffset:0;stroke-opacity:1"
       d="m 100.02426,157.96162 c 0.98281,0.96832 2.93652,1.17682 4.24952,1.99745 0.34065,0.2129 0.60125,0.58411 0.94495,0.75595 0.41866,0.20933 2.29744,0.97434 2.6996,0.70326"
       id="path1101"
       inkscape:connector-curvature="0" />
    <path
       style="opacity:1;fill:none;fill-opacity:1;stroke:#000000;stroke-width:0.46499997;stroke-miterlimit:4;stroke-dasharray:none;stroke-dashoffset:0;stroke-opacity:1"
       d="m 107.91833,161.41828 c 0.70968,1.26731 2.23518,1.31529 3.39526,1.89533 0.76434,0.38217 1.38454,1.16474 2.07887,1.5119 0.47914,0.23957 0.9399,0.42186 1.37016,0.70871 0.10543,0.0703 1.48084,0.59691 1.51191,0.47247 0.0268,-0.10729 0.0234,-0.21993 0.0351,-0.32989"
       id="path1103"
       inkscape:connector-curvature="0" />
    <path
       style="opacity:1;fill:none;fill-opacity:1;stroke:#000000;stroke-width:0.46499997;stroke-miterlimit:4;stroke-dasharray:none;stroke-dashoffset:0;stroke-opacity:1"
       d="m 116.30963,165.6768 c 0.27178,0.14146 0.52802,0.31799 0.81535,0.42438 0.35449,0.13127 0.89259,0.046 1.27567,0.14175 0.67945,0.16986 1.37004,0.32639 2.03162,0.56696 1.43455,0.52166 3.08648,2.16782 4.69729,1.67324"
       id="path1105"
       inkscape:connector-curvature="0" />
    <path
       style="opacity:1;fill:none;fill-opacity:1;stroke:#000000;stroke-width:0.46499997;stroke-miterlimit:4;stroke-dasharray:none;stroke-dashoffset:0;stroke-opacity:1"
       d="m 107.91833,161.41828 c -0.002,-0.0612 -0.0677,-0.18137 -0.007,-0.18354 0.0207,-7.9e-4 -0.0868,1.20677 -0.0945,1.27567 -0.11779,1.0601 -0.14174,2.14561 -0.14174,3.2128 0,0.9464 -0.21701,2.26032 0.28348,3.1183 0.34157,0.58556 1.07413,0.70676 1.6064,1.03944 0.99967,0.62479 1.86205,1.47193 2.97656,1.88987 1.08612,0.4073 6.6255,0.4408 7.65402,0 0.71813,-0.30777 2.70042,-1.33759 3.02381,-1.98437 0.20068,-0.40136 1.33417,-0.61421 1.79539,-0.61421 0.0649,0 0.19175,0.0176 0.18898,-0.0472 -0.009,-0.2152 -0.0498,-0.4279 -0.0747,-0.64186"
       id="path1107"
       inkscape:connector-curvature="0" />
    <path
       style="opacity:1;fill:none;fill-opacity:1;stroke:#000000;stroke-width:0.46499997;stroke-miterlimit:4;stroke-dasharray:none;stroke-dashoffset:0;stroke-opacity:1"
       d="m 100.02426,157.96162 c -0.0881,-1.39738 3.49725,-4.6658 4.72199,-5.13685 1.41906,-0.54579 3.14936,-0.59868 4.53572,0.0945 0.37221,0.18611 0.70563,0.43835 1.08668,0.61421 0.89339,0.41234 1.88717,0.59917 2.74033,1.08669 0.53834,0.30762 0.71921,0.92694 1.18117,1.32291 0.34839,0.29862 0.83122,0.57999 1.08669,0.94494 0.37898,0.54141 0.23977,1.19651 0.37797,1.79539 0.10821,0.4689 0.31396,0.81082 0.37798,1.32292 0.0622,0.49773 -0.12011,1.0491 -0.0473,1.55915 0.04,0.28024 0.13188,2.76785 0.14174,2.78757 0.25938,0.51875 0.18911,0.5188 0.0824,1.32376"
       id="path1109"
       inkscape:connector-curvature="0" />
    <path
       style="opacity:1;fill:none;fill-opacity:1;stroke:#000000;stroke-width:0.46499997;stroke-miterlimit:4;stroke-dasharray:none;stroke-dashoffset:0;stroke-opacity:1"
       d="m 100.02426,157.96162 c 0.34379,2.33496 2.54455,3.08005 4.01329,4.54879 0.20082,0.20081 0.64164,0.54599 0.75595,0.8032 0.50523,1.13676 0.34686,2.45396 0.18899,3.63802 -0.0616,0.46213 -0.35985,0.97018 -0.23624,1.46466 0.18701,0.74803 0.50609,1.56232 0.94494,2.22061 0.7305,1.09574 2.0166,0.54027 3.07106,0.99218 0.69914,0.29963 1.30491,0.77058 1.93713,1.08669 0.25621,0.1281 0.30237,0.5764 0.66146,0.75595 0.65928,0.32964 1.48932,0.0652 2.17336,0.23623 1.10638,0.2766 2.24087,0.0771 3.35454,0.23624 1.93696,0.27671 4.08851,-0.0473 5.95312,-0.0473 0.4506,0 0.82798,-0.52706 1.08669,-0.85045 0.21063,-0.26328 0.83482,-0.61459 0.94494,-0.94494 0.49629,-1.48888 1.64442,-2.22562 0.25607,-3.61842"
       id="path1111"
       inkscape:connector-curvature="0" />
    <flowRoot
       xml:space="preserve"
       id="flowRoot1113"
       style="font-style:normal;font-weight:normal;font-size:12px;line-height:1.25;font-family:sans-serif;letter-spacing:0px;word-spacing:0px;fill:#000000;fill-opacity:1;stroke:none"
       transform="scale(0.26458333)"><flowRegion
         id="flowRegion1115"><rect
           id="rect1117"
           width="219.20311"
           height="190.91884"
           x="51.51778"
           y="445.71747" /></flowRegion><flowPara
         id="flowPara1119">Se le conoce como el vacio de $V$</flowPara><flowPara
         id="flowPara1121">$\phi(V)$ es un grafo que</flowPara><flowPara
         id="flowPara1133">solo contiene \underline{Puntos aislados}</flowPara></flowRoot>    <path
       style="opacity:1;fill:none;fill-opacity:1;stroke:#000000;stroke-width:0.46499997;stroke-miterlimit:4;stroke-dasharray:none;stroke-dashoffset:0;stroke-opacity:1"
       d="m 21.402901,115.28794 c -0.322506,-1.07236 -0.961702,-3.43776 -0.377976,-4.48846 0.272514,-0.49053 0.621759,-0.87046 0.944941,-1.32292 0.09716,-0.13602 0.129292,-0.34414 0.236235,-0.47247 0.214691,-0.25763 0.723921,-0.39319 0.94494,-0.61421"
       id="path1137"
       inkscape:connector-curvature="0" />
    <path
       style="opacity:1;fill:none;fill-opacity:1;stroke:#000000;stroke-width:0.46499997;stroke-miterlimit:4;stroke-dasharray:none;stroke-dashoffset:0;stroke-opacity:1"
       d="m 21.072172,108.76785 c 0.2943,-0.18911 0.490871,-0.4878 0.755953,-0.7087 0.282929,-0.23577 0.70851,-0.37789 1.039434,-0.51972 0.169958,-0.0728 0.302998,-0.019 0.472471,-0.0472 0.833564,-0.13892 0.729866,0.0973 0.566964,0.80321 -0.149185,0.64646 -0.708705,1.58637 -0.708705,2.17336"
       id="path1139"
       inkscape:connector-curvature="0" />
    <path
       style="opacity:1;fill:none;fill-opacity:1;stroke:#000000;stroke-width:0.46499997;stroke-miterlimit:4;stroke-dasharray:none;stroke-dashoffset:0;stroke-opacity:1"
       d="m 52.067443,83.568576 c -0.440851,-0.204698 -1.178001,-0.274471 -1.637024,-0.06682 -0.115687,0.05233 -0.198287,0.158774 -0.300678,0.233863 -0.433462,0.31787 -0.881285,0.587496 -1.085784,1.11919 -0.07659,0.199123 -0.07403,0.425201 -0.100224,0.634764 -0.07017,0.561391 -0.06768,1.308161 0.23386,1.820775 0.401243,0.682115 1.150914,1.201211 1.971111,1.119191 0.448215,-0.04482 1.17374,-0.217938 1.57021,-0.501132 0.760095,-0.542922 0.977648,-2.217272 0.634764,-3.040189 -0.09612,-0.230701 -0.299198,-0.378175 -0.451016,-0.567947 -0.141595,-0.176996 -0.20093,-0.487156 -0.384199,-0.618061 -0.234881,-0.167773 -0.46813,-0.209011 -0.684879,-0.317384"
       id="path1141"
       inkscape:connector-curvature="0" />
    <flowRoot
       xml:space="preserve"
       id="flowRoot1143"
       style="font-style:normal;font-weight:normal;font-size:12px;line-height:1.25;font-family:sans-serif;letter-spacing:0px;word-spacing:0px;fill:#000000;fill-opacity:1;stroke:none"
       transform="matrix(0.26458333,0,0,0.26458333,-2.5390605,34.344134)"><flowRegion
         id="flowRegion1145"><rect
           id="rect1147"
           width="115"
           height="76.428574"
           x="159.28572"
           y="523.23395" /></flowRegion><flowPara
         id="flowPara1149">Punto aisalado.</flowPara></flowRoot>    <flowRoot
       xml:space="preserve"
       id="flowRoot1159"
       style="font-style:normal;font-weight:normal;font-size:12px;line-height:1.25;font-family:sans-serif;letter-spacing:0px;word-spacing:0px;fill:#000000;fill-opacity:1;stroke:none"
       transform="matrix(0.26458333,0,0,0.26458333,-45.16855,5.078121)"><flowRegion
         id="flowRegion1161"><rect
           id="rect1163"
           width="217.14285"
           height="210"
           x="518.57141"
           y="708.23395" /></flowRegion><flowPara
         id="flowPara1165">$\phi=(\cancel{O},\cancel{O})$</flowPara><flowPara
         id="flowPara1167">Es el grafo \underline{VACIO} no tiene vertices ni aristas</flowPara></flowRoot>    <flowRoot
       xml:space="preserve"
       id="flowRoot1169"
       style="font-style:normal;font-weight:normal;font-size:12px;line-height:1.25;font-family:sans-serif;letter-spacing:0px;word-spacing:0px;fill:#000000;fill-opacity:1;stroke:none"
       transform="matrix(0.26458333,0,0,0.26458333,35.145943,1.6036172)"><flowRegion
         id="flowRegion1171"><rect
           id="rect1173"
           width="240.71428"
           height="78.571426"
           x="296.42856"
           y="121.09111" /></flowRegion><flowPara
         id="flowPara1175">A este se le conoce como el \underline{grafo compuesto} de $V$</flowPara></flowRoot>    <flowRoot
       xml:space="preserve"
       id="flowRoot1177"
       style="font-style:normal;font-weight:normal;font-size:12px;line-height:1.25;font-family:sans-serif;letter-spacing:0px;word-spacing:0px;fill:#000000;fill-opacity:1;stroke:none"
       transform="scale(0.26458333)"><flowRegion
         id="flowRegion1179"><rect
           id="rect1181"
           width="181.42857"
           height="75"
           x="581.42859"
           y="434.66254" /></flowRegion><flowPara
         id="flowPara1183">$\mathbb{K}=(V) = (V,\mathbb{P}_2(V))$</flowPara></flowRoot>    <path
       style="opacity:1;fill:none;fill-opacity:1;stroke:#000000;stroke-width:0.46499997;stroke-miterlimit:4;stroke-dasharray:none;stroke-dashoffset:0;stroke-opacity:1"
       d="m 109.04613,121.80803 c 0.33923,2.46561 0.74234,5.25082 1.5119,7.55953"
       id="path1185"
       inkscape:connector-curvature="0" />
    <path
       style="opacity:1;fill:none;fill-opacity:1;stroke:#000000;stroke-width:0.46499997;stroke-miterlimit:4;stroke-dasharray:none;stroke-dashoffset:0;stroke-opacity:1"
       d="m 114.65863,130.35745 c -0.61229,-2.41923 -1.39593,-4.82699 -1.73726,-7.21628"
       id="path1189"
       inkscape:connector-curvature="0" />
    <path
       style="opacity:1;fill:none;fill-opacity:1;stroke:#000000;stroke-width:0.46499997;stroke-miterlimit:4;stroke-dasharray:none;stroke-dashoffset:0;stroke-opacity:1"
       d="m 112.82589,59.063987 c -2.91263,-0.409731 -13.550925,-0.625724 -16.063985,0.944941 -2.489192,1.555745 -3.456924,4.212873 -5.480656,6.236607 -3.111222,3.11122 -5.888188,2.923493 -7.559524,7.9375 -1.720475,5.161421 -0.891929,10.238756 -1.700893,15.497024 -0.896281,5.825821 -3.751373,6.657163 -0.377976,11.717261 1.153541,1.73031 2.298616,3.43998 3.96875,4.7247 6.063515,4.66425 14.892494,4.98678 22.300594,5.48066 2.0817,0.13878 4.59174,-0.0716 6.61458,0.37797 4.49165,0.99815 12.47728,3.84005 16.81994,0.94494 2.24311,-1.4954 2.94147,-4.42529 4.15774,-6.61458 3.91254,-7.042567 5.79252,-14.093663 3.96875,-22.300596 -0.40923,-1.84155 -1.90419,-3.449486 -2.45684,-5.291666 -0.61258,-2.041912 -1.01439,-3.806804 -2.07887,-5.669643 -1.55768,-2.725933 -4.40037,-3.446483 -6.61458,-5.291666 -2.5591,-2.132582 -3.74405,-4.277424 -6.99256,-5.669643 -2.91271,-1.248301 -6.4405,-0.959839 -8.50447,-3.023809 z"
       id="path1191"
       inkscape:connector-curvature="0" />
    <path
       style="opacity:1;fill:none;fill-opacity:1;stroke:#000000;stroke-width:0.46499997;stroke-miterlimit:4;stroke-dasharray:none;stroke-dashoffset:0;stroke-opacity:1"
       d="m 141.65285,86.124342 c 1.73725,0 3.4745,0 5.21175,0"
       id="path1193"
       inkscape:connector-curvature="0" />
    <path
       style="opacity:1;fill:none;fill-opacity:1;stroke:#000000;stroke-width:0.46499997;stroke-miterlimit:4;stroke-dasharray:none;stroke-dashoffset:0;stroke-opacity:1"
       d="m 141.11831,90.267019 c 1.93566,0.05743 4.23011,-0.156739 5.87993,0.668173"
       id="path1195"
       inkscape:connector-curvature="0" />
    <path
       style="opacity:1;fill:none;fill-opacity:1;stroke:#000000;stroke-width:0.46499997;stroke-miterlimit:4;stroke-dasharray:none;stroke-dashoffset:0;stroke-opacity:1"
       d="m 54.255714,168.9779 c 0.0495,-11.47965 10.12226,-18.10637 14.699824,-27.2615 1.963235,-3.92647 6.617875,-6.33783 9.354434,-9.6217 3.219172,-3.86301 6.837317,-12.51778 4.276312,-17.63979 -1.857859,-3.71572 -7.291673,-4.42317 -10.690783,-5.87993 -1.23502,-0.52929 -2.161672,-2.07595 -3.474503,-2.67269 -2.759337,-1.25425 -6.656179,-1.84533 -8.819893,-4.00905 -1.148491,-1.14849 -2.966281,-1.923516 -3.741775,-3.474501 -1.313378,-2.62676 -0.801809,-7.681717 -0.801809,-10.690781 0,-0.09105 0.03801,-1.058973 0,-1.069078 -1.263616,-0.335952 -2.565993,-0.504028 -3.848992,-0.756041"
       id="path1209"
       inkscape:connector-curvature="0" />
  </g>
</svg>
